<svg width="222" height="60" viewBox="0 0 222 60" fill="none" xmlns="http://www.w3.org/2000/svg">

<path d="M61.7227 7.23047H71.8987C74.4844 7.23047 76.3751 7.92555 77.5984 9.1211C78.794 10.1498 79.3222 11.54 79.3222 12.9024C79.3222 13.4306 79.3222 14.0979 79.1554 14.6262C78.8218 15.4881 78.2935 16.35 77.5984 17.0451C77.2648 17.3787 76.9033 17.5733 76.5697 17.7402C77.7652 18.0738 78.8218 18.7689 79.6837 19.6308C80.3788 20.4927 80.7124 21.5214 80.7124 23.0784C80.7124 23.9403 80.5456 24.9691 80.1841 25.6641C79.8505 26.3592 79.1554 27.0543 78.4603 27.5548C77.5984 28.083 76.7365 28.4167 75.8746 28.7503C74.8459 29.084 73.6225 29.084 72.427 29.084H61.9173V7.23047H61.7227ZM71.0368 16.211C71.8987 16.211 72.7606 16.0442 73.6225 15.6827C74.3176 15.3491 74.6512 14.654 74.6512 13.9589C74.6512 13.2638 74.3176 12.5687 73.7893 12.2351C73.0943 11.7068 72.2324 11.54 71.3704 11.7068H66.5326V16.35H71.009V16.211H71.0368ZM72.2323 24.9969C73.0943 24.9969 73.9562 24.83 74.8181 24.4686C75.5132 24.135 75.8468 23.4399 75.68 22.578C75.68 21.8829 75.3463 21.1878 74.8181 20.8541C74.2898 20.5205 73.2611 20.1591 72.0655 20.1591H66.3658V24.9969H72.2323Z" fill="white"/>
<path d="M86.7188 7.23047H91.5565V29.3064H86.7188V7.23047Z" fill="white"/>
<path d="M98.9531 7.23047H103.457L113.8 20.8541V7.23047H118.61V29.3064H114.467L103.624 15.3491V29.3064H98.9531V7.23047Z" fill="white"/>
<path d="M133.262 7.0625H137.739L147.22 29.3052H142.215L140.157 24.3006H130.843L128.786 29.3052H123.781L133.262 7.0625ZM138.434 20.1857L135.514 12.9568L132.595 20.1857H138.434Z" fill="white"/>
<path d="M152.418 7.23047H156.894L167.237 20.8541V7.23047H172.075V29.3064H167.932L157.228 15.3491V29.3064H152.418V7.23047Z" fill="white"/>
<path d="M189.645 29.667C188.088 29.667 186.531 29.3334 185.169 28.8051C182.416 27.6096 180.331 25.5243 179.135 22.7718C178.607 21.3816 178.273 19.8524 178.273 18.2954C178.273 15.3761 179.469 12.4289 181.554 10.2046C182.583 9.17591 183.806 8.314 185.169 7.78573C186.726 7.09065 188.283 6.92383 189.812 6.92383C190.674 6.92383 191.702 6.92383 192.564 7.09065C193.426 7.25747 194.121 7.42429 194.816 7.78573C195.512 8.11938 196.207 8.48082 196.707 8.81446C197.235 9.1481 197.903 9.67637 198.431 10.2046L195.512 13.8191C194.65 13.124 193.788 12.4289 192.926 11.9284C192.064 11.4002 191.035 11.2334 190.006 11.2334C189.145 11.2334 188.283 11.4002 187.421 11.7616C186.559 12.0953 185.864 12.6235 185.363 13.3186C184.835 14.0137 184.335 14.7088 183.973 15.5707C183.639 16.4326 183.445 17.2945 183.445 18.1564C183.445 19.0183 183.612 20.047 183.973 20.9089C184.307 21.7709 184.668 22.4659 185.363 23.161C186.559 24.5512 188.283 25.2185 190.006 25.2185C191.035 25.2185 192.259 25.0517 193.287 24.5234C194.149 23.9951 195.178 23.3278 195.873 22.6328L198.987 25.7467C198.459 26.275 197.791 26.9423 197.263 27.4706C196.568 27.9988 195.873 28.3325 195.206 28.6661C194.511 28.9997 193.649 29.3612 192.787 29.528C191.536 29.667 190.507 29.667 189.645 29.667Z" fill="white"/>
<path d="M204.465 7.23047H221.036V11.54H209.136V16.0442H219.646V20.3537H209.136V24.9969H221.202V29.3064H204.465V7.23047Z" fill="white"/>
<path d="M67.9249 51.0203C66.7293 51.0203 65.506 50.8535 64.4773 50.3252C63.4485 49.9916 62.4198 49.2965 61.3633 48.4346L63.0871 46.5439C63.7822 47.239 64.4773 47.5727 65.3392 48.1009C66.2011 48.4346 67.063 48.6292 67.9249 48.6292C68.62 48.6292 69.3151 48.4624 69.9823 48.1009C70.5106 47.7673 70.6774 47.239 70.6774 46.7108C70.6774 46.5439 70.6774 46.1825 70.5106 46.0157C70.3438 45.8488 70.177 45.4874 69.9823 45.3206C69.6487 45.1538 69.2873 44.9869 68.9536 44.7923C68.4254 44.6255 67.7581 44.4587 67.2298 44.2641C66.5347 44.0972 65.6728 43.9304 64.9777 43.569C64.4495 43.4021 63.7822 43.0407 63.4207 42.7071C63.0871 42.3734 62.7256 42.012 62.392 41.5115C62.0584 40.8164 62.0584 40.1213 62.0584 39.6209C62.0584 38.9258 62.2252 38.4253 62.392 37.7302C62.5588 37.202 63.0871 36.7015 63.4207 36.3401C63.949 36.0064 64.4495 35.645 65.1445 35.4782C65.8396 35.3114 66.5347 35.1445 67.202 35.1445C68.2307 35.1445 69.2595 35.3114 70.316 35.6728C71.1779 36.0064 72.0398 36.5347 72.9017 37.063L71.5115 39.1204C70.8165 38.5922 70.1214 38.2585 69.4541 37.9249C68.759 37.5912 68.0639 37.5912 67.3966 37.5912C66.7015 37.5912 66.0065 37.7581 65.506 38.1195C65.1724 38.4531 64.8109 38.9814 64.8109 39.5097C64.8109 39.8433 64.8109 40.0379 64.9777 40.3716C65.1445 40.5384 65.3114 40.8998 65.506 41.0667C65.8396 41.2335 66.2011 41.4003 66.7015 41.5949C67.2298 41.7617 67.7303 41.9286 68.5922 42.1232C69.2873 42.29 69.9823 42.4568 70.8443 42.8183C71.3725 42.9851 71.873 43.3465 72.4012 43.6802C72.7349 44.0138 73.0963 44.5421 73.2631 44.8757C73.43 45.404 73.5968 45.9045 73.5968 46.5995C73.5968 47.2946 73.43 47.9897 73.2631 48.4902C72.9295 49.0184 72.5681 49.5189 72.0676 50.0472C71.5393 50.3808 71.0389 50.7423 70.3438 50.9091C69.4819 50.8535 68.62 51.0203 67.9249 51.0203Z" fill="white"/>
<path d="M76.543 35.3379H79.4901L84.1333 42.5946L88.9711 35.3379H91.8905V50.8522H89.1379V39.6474L84.3001 46.9041H84.1333L79.2955 39.6474V50.8522H76.543V35.3379Z" fill="white"/>
<path d="M101.205 35.1719H103.79L110.519 50.6862H107.599L106.042 46.9049H98.8134L97.2564 50.6862H94.5039L101.205 35.1719ZM105.18 44.6528L102.428 38.4527L99.8422 44.6528H105.18Z" fill="white"/>
<path d="M113.272 35.3379H120.168C121.029 35.3379 121.891 35.5047 122.753 35.6715C123.448 35.8384 124.143 36.3666 124.644 36.8671C124.978 37.2007 125.339 37.729 125.673 38.4241C125.839 38.9523 126.006 39.6196 126.006 40.3147C126.006 40.843 125.839 41.5103 125.673 42.0385C125.506 42.5668 125.144 42.9004 124.978 43.4287C124.644 43.7623 124.282 44.1238 123.782 44.4574C123.254 44.7911 122.753 44.9857 122.225 45.1525L126.368 51.019H123.087L119.306 45.6808H115.858V51.019H113.105L113.272 35.3379ZM120.001 42.9282C120.863 42.9282 121.725 42.7614 122.253 42.2331C122.781 41.7049 123.115 41.0376 123.115 40.3425C123.115 39.6474 122.781 38.9523 122.253 38.4519C121.558 37.9236 120.696 37.7568 119.834 37.7568H115.858V42.9282H120.001Z" fill="white"/>
<path d="M133.094 37.7568H128.09V35.3379H140.685V37.7568H135.68V50.8522H132.928L133.094 37.7568Z" fill="white"/>
<path d="M157.393 51.0196C156.365 51.0196 155.336 50.8528 154.279 50.3245C152.389 49.4626 150.832 48.0724 150.137 46.1818C149.803 45.1531 149.442 44.1243 149.608 43.0678C149.608 42.0391 149.775 41.0104 150.137 39.9538C150.832 38.0632 152.389 36.5062 154.279 35.6443C155.308 35.3107 156.337 34.9492 157.56 34.9492C158.255 34.9492 158.95 34.9492 159.451 35.116C159.979 35.2829 160.48 35.4497 161.008 35.6443C161.536 35.8111 161.87 36.1726 162.398 36.3394C162.732 36.673 163.26 37.0345 163.594 37.3681L161.87 39.4256C161.341 38.8973 160.674 38.3968 159.979 38.0354C159.284 37.7018 158.422 37.5071 157.56 37.5071C156.865 37.5071 156.17 37.674 155.503 37.8408C154.808 38.1744 154.307 38.5359 153.779 39.0363C153.251 39.5646 152.917 40.0651 152.75 40.7601C152.583 41.4552 152.417 42.1503 152.417 42.8176C152.417 43.5127 152.583 44.2078 152.75 44.875C152.917 45.5701 153.278 46.0706 153.779 46.5989C154.307 47.1271 154.808 47.4608 155.503 47.7944C156.198 48.128 156.893 48.3227 157.56 48.128C158.422 48.128 159.284 47.9612 159.979 47.5998C160.674 47.2661 161.369 46.7379 162.037 46.0428L163.76 47.7666C163.427 48.1002 162.898 48.6285 162.565 48.9621C162.037 49.2958 161.703 49.6572 161.175 49.8241C160.646 49.9909 160.146 50.3523 159.451 50.3523C158.784 51.0196 158.088 51.0196 157.393 51.0196Z" fill="white"/>
<path d="M166.543 35.3379H169.129V41.7327H176.552V35.3379H179.305V50.8522H176.552V44.3184H169.129V50.8522H166.543V35.3379Z" fill="white"/>
<path d="M188.787 35.1719H191.372L198.101 50.6862H195.181L193.624 46.9049H186.395L184.838 50.6862H182.086L188.787 35.1719ZM192.568 44.6528L189.982 38.4527L187.396 44.6528H192.568Z" fill="white"/>
<path d="M200.852 35.3379H203.604V50.8522H200.852V35.3379Z" fill="white"/>
<path d="M207.746 35.3379H210.165L218.45 46.0422V35.3379H221.203V50.8522H218.951L210.499 39.8142V50.8522H207.746V35.3379Z" fill="white"/>
<path d="M31.3901 49.8237V56.5522L25.5235 59.9998L19.8238 56.5522V49.8237L25.5235 53.2714L31.3901 49.8237ZM0 26.5523L5.6997 29.9999V41.5383L15.5143 47.4048V54.1333L0 44.9859V26.5523ZM51.0193 26.5523V45.0137L35.3382 54.1611V47.4326L45.1528 41.5661V30.0277L51.0193 26.5523ZM35.3382 17.4049L41.2047 20.8526V27.581L31.3901 33.4475V45.1806L25.6904 48.6282L19.9907 45.1806V33.4475L9.81461 27.581V20.8526L15.6811 17.4049L25.4957 23.2715L35.3382 17.4049ZM9.81461 32.4188L15.5143 35.8664V42.5948L9.81461 39.1472V32.4188ZM41.2047 32.4188V39.1472L35.505 42.5948V35.8664L41.2047 32.4188ZM5.6997 11.5384L11.5662 14.986L5.6997 18.4615V25.1899L0 21.7145V14.986L5.6997 11.5384ZM45.3474 11.5384L51.2139 14.986V21.7145L45.3474 25.1621V18.4615L39.6477 15.0138L45.3474 11.5384ZM25.5235 11.5384L31.3901 14.986L25.5235 18.4615L19.8238 14.986L25.5235 11.5384ZM25.5235 0L41.2047 9.14733L35.505 12.595L25.6904 6.72843L15.6811 12.595L10.0092 9.14733L25.5235 0Z" fill="white"/>
</svg>
