<svg width="491" height="489" viewBox="0 0 491 489" fill="none" xmlns="http://www.w3.org/2000/svg">
<g filter="url(#filter0_bd_878_928)">
<path d="M27.2219 62.0627C27.1686 44.7738 41.1722 30.5638 58.3913 32.1162C136.194 39.1307 209.51 73.0614 265.379 128.586C321.247 184.112 355.629 257.217 363.123 334.975C364.782 352.184 350.659 366.275 333.37 366.328L186.696 366.781C169.407 366.834 155.727 352.654 151.464 335.899C145.836 313.781 134.309 293.387 117.85 277.028C101.39 260.67 80.9247 249.269 58.7727 243.777C41.9916 239.617 27.7275 226.026 27.6742 208.737L27.2219 62.0627Z" fill="url(#paint0_linear_878_928)"/>
<path d="M28.0045 62.0603C27.9525 45.182 41.6097 31.389 58.321 32.8957C135.943 39.8938 209.088 73.7456 264.827 129.142C320.565 184.538 354.868 257.473 362.344 335.05C363.954 351.752 350.246 365.494 333.367 365.546L186.693 365.998C169.869 366.05 156.427 352.228 152.223 335.706C146.56 313.452 134.962 292.932 118.401 276.473C101.84 260.014 81.2492 248.543 58.961 243.018C42.4129 238.915 28.5086 225.558 28.4568 208.735L28.0045 62.0603Z" stroke="url(#paint1_linear_878_928)" stroke-opacity="0.3" stroke-width="1.56522"/>
</g>
<defs>
<filter id="filter0_bd_878_928" x="-44.7784" y="-40.0002" width="534.817" height="528.868" filterUnits="userSpaceOnUse" color-interpolation-filters="sRGB">
<feFlood flood-opacity="0" result="BackgroundImageFix"/>
<feGaussianBlur in="BackgroundImageFix" stdDeviation="36.0001"/>
<feComposite in2="SourceAlpha" operator="in" result="effect1_backgroundBlur_878_928"/>
<feColorMatrix in="SourceAlpha" type="matrix" values="0 0 0 0 0 0 0 0 0 0 0 0 0 0 0 0 0 0 127 0" result="hardAlpha"/>
<feOffset dx="50.0871" dy="45.3914"/>
<feGaussianBlur stdDeviation="38.3479"/>
<feComposite in2="hardAlpha" operator="out"/>
<feColorMatrix type="matrix" values="0 0 0 0 0 0 0 0 0 0.0283334 0 0 0 0 0.283333 0 0 0 0.08 0"/>
<feBlend mode="normal" in2="effect1_backgroundBlur_878_928" result="effect2_dropShadow_878_928"/>
<feBlend mode="normal" in="SourceGraphic" in2="effect2_dropShadow_878_928" result="shape"/>
</filter>
<linearGradient id="paint0_linear_878_928" x1="703.539" y1="-321.636" x2="-391.979" y2="263.383" gradientUnits="userSpaceOnUse">
<stop stop-color="#0D0646"/>
<stop offset="1" stop-color="#69C0FF"/>
</linearGradient>
<linearGradient id="paint1_linear_878_928" x1="739.008" y1="-347.381" x2="-145.74" y2="196.876" gradientUnits="userSpaceOnUse">
<stop stop-color="white"/>
<stop offset="1" stop-color="white" stop-opacity="0"/>
</linearGradient>
</defs>
</svg>
