<svg width="489" height="490" viewBox="0 0 489 490" fill="none" xmlns="http://www.w3.org/2000/svg">
<g filter="url(#filter0_bd_878_926)">
<path d="M361.533 62.0622C361.497 44.7733 347.422 30.6358 330.211 32.2774C296.745 35.4695 263.885 43.6646 232.743 56.6393C191.951 73.6349 154.905 98.4988 123.722 129.811C92.5383 161.124 67.8276 198.272 51.0006 239.134C38.1547 270.329 30.0955 303.223 27.0417 336.702C25.4712 353.92 39.6667 367.936 56.9556 367.9L203.63 367.597C220.919 367.562 234.526 353.312 238.702 336.535C240.202 330.511 242.144 324.591 244.519 318.824C250.881 303.375 260.223 289.33 272.013 277.491C283.803 265.653 297.809 256.252 313.232 249.826C318.989 247.428 324.901 245.462 330.919 243.937C347.678 239.691 361.871 226.026 361.836 208.737L361.533 62.0622Z" fill="url(#paint0_linear_878_926)"/>
<path d="M330.286 33.0565C346.989 31.4633 360.715 45.1854 360.75 62.0638L361.053 208.738C361.088 225.562 347.253 238.992 330.726 243.178C324.671 244.712 318.723 246.691 312.931 249.104C297.413 255.569 283.321 265.028 271.459 276.939C259.596 288.851 250.196 302.982 243.795 318.526C241.406 324.328 239.452 330.285 237.943 336.346C233.825 352.89 220.452 366.78 203.629 366.815L56.954 367.118C40.0756 367.153 26.2969 353.483 27.821 336.773C30.8677 303.372 38.9082 270.555 51.7243 239.432C68.5121 198.665 93.1653 161.603 124.276 130.364C155.387 99.1239 192.347 74.3178 233.044 57.3617C264.114 44.4172 296.897 36.2411 330.286 33.0565Z" stroke="url(#paint1_linear_878_926)" stroke-opacity="0.3" stroke-width="1.56522"/>
</g>
<defs>
<filter id="filter0_bd_878_926" x="-45.0774" y="-39.8527" width="533.696" height="529.84" filterUnits="userSpaceOnUse" color-interpolation-filters="sRGB">
<feFlood flood-opacity="0" result="BackgroundImageFix"/>
<feGaussianBlur in="BackgroundImageFix" stdDeviation="36.0001"/>
<feComposite in2="SourceAlpha" operator="in" result="effect1_backgroundBlur_878_926"/>
<feColorMatrix in="SourceAlpha" type="matrix" values="0 0 0 0 0 0 0 0 0 0 0 0 0 0 0 0 0 0 127 0" result="hardAlpha"/>
<feOffset dx="50.0871" dy="45.3914"/>
<feGaussianBlur stdDeviation="38.3479"/>
<feComposite in2="hardAlpha" operator="out"/>
<feColorMatrix type="matrix" values="0 0 0 0 0 0 0 0 0 0.0283334 0 0 0 0 0.283333 0 0 0 0.08 0"/>
<feBlend mode="normal" in2="effect1_backgroundBlur_878_926" result="effect2_dropShadow_878_926"/>
<feBlend mode="normal" in="SourceGraphic" in2="effect2_dropShadow_878_926" result="shape"/>
</filter>
<linearGradient id="paint0_linear_878_926" x1="700.983" y1="-322.515" x2="-393.893" y2="258.523" gradientUnits="userSpaceOnUse">
<stop stop-color="#0D0646"/>
<stop offset="1" stop-color="#69C0FF"/>
</linearGradient>
<linearGradient id="paint1_linear_878_926" x1="736.334" y1="-348.335" x2="-148.476" y2="192.573" gradientUnits="userSpaceOnUse">
<stop stop-color="white"/>
<stop offset="1" stop-color="white" stop-opacity="0"/>
</linearGradient>
</defs>
</svg>
