<svg width="251" height="60" viewBox="0 0 251 60" fill="none" xmlns="http://www.w3.org/2000/svg">
<g opacity="1">
<path d="M71.9558 48.1431L83.1061 15.8202H90.7421L101.892 48.1431H95.4712L93.1717 41.2012H80.6764L78.3336 48.1431H71.9558ZM82.3685 35.9949H91.4796L86.0997 19.8985H87.7484L82.3685 35.9949ZM103.711 48.1431V24.5409H109.047V29.7906L108.614 29.0097C109.163 27.2453 110.016 26.016 111.173 25.3218C112.359 24.6276 113.777 24.2805 115.425 24.2805H116.814V29.3134H114.774C113.155 29.3134 111.853 29.8195 110.87 30.8319C109.886 31.8153 109.395 33.2037 109.395 34.997V48.1431H103.711ZM131.523 48.6637C129.816 48.6637 128.24 48.3311 126.793 47.6658C125.376 46.9716 124.248 45.9882 123.409 44.7155L123.973 43.5875V48.1431H118.637V15.2996H124.32V29.2266L123.453 28.0552C124.263 26.7825 125.362 25.7991 126.75 25.1049C128.138 24.3818 129.744 24.0202 131.566 24.0202C133.793 24.0202 135.803 24.5698 137.597 25.6689C139.39 26.768 140.807 28.2432 141.849 30.0943C142.919 31.9455 143.454 34.028 143.454 36.342C143.454 38.627 142.933 40.7095 141.892 42.5896C140.851 44.4697 139.433 45.9593 137.64 47.0584C135.847 48.1286 133.808 48.6637 131.523 48.6637ZM130.872 43.4573C132.173 43.4573 133.33 43.1536 134.343 42.5462C135.355 41.9388 136.136 41.1 136.686 40.0298C137.264 38.9596 137.553 37.7303 137.553 36.342C137.553 34.9536 137.264 33.7388 136.686 32.6975C136.136 31.6273 135.355 30.7885 134.343 30.1811C133.33 29.5448 132.173 29.2266 130.872 29.2266C129.628 29.2266 128.5 29.5303 127.488 30.1377C126.504 30.7451 125.723 31.5984 125.145 32.6975C124.595 33.7677 124.32 34.9825 124.32 36.342C124.32 37.7303 124.595 38.9596 125.145 40.0298C125.723 41.1 126.504 41.9388 127.488 42.5462C128.5 43.1536 129.628 43.4573 130.872 43.4573ZM146.485 48.1431V24.5409H152.169V48.1431H146.485ZM146.485 21.8943V15.8202H152.169V21.8943H146.485ZM166.875 48.4034C164.214 48.4034 162.146 47.6803 160.671 46.2341C159.225 44.7589 158.501 42.6908 158.501 40.0298V29.6171H154.423V24.5409H154.857C156.014 24.5409 156.911 24.2372 157.547 23.6297C158.183 23.0223 158.501 22.1401 158.501 20.9832V19.1609H164.185V24.5409H169.608V29.6171H164.185V39.7261C164.185 40.5071 164.315 41.1723 164.576 41.7219C164.865 42.2714 165.299 42.6908 165.877 42.9801C166.485 43.2693 167.251 43.4139 168.177 43.4139C168.379 43.4139 168.611 43.3995 168.871 43.3706C169.16 43.3416 169.435 43.3127 169.695 43.2838V48.1431C169.29 48.2009 168.827 48.2588 168.307 48.3166C167.786 48.3745 167.309 48.4034 166.875 48.4034ZM172.736 48.1431V24.5409H178.072V29.7906L177.639 29.0097C178.188 27.2453 179.041 26.016 180.198 25.3218C181.384 24.6276 182.802 24.2805 184.45 24.2805H185.839V29.3134H183.799C182.18 29.3134 180.878 29.8195 179.895 30.8319C178.911 31.8153 178.42 33.2037 178.42 34.997V48.1431H172.736ZM196.079 48.6637C194.257 48.6637 192.666 48.2588 191.306 47.4489C189.976 46.639 188.949 45.511 188.226 44.0647C187.532 42.6185 187.185 40.9265 187.185 38.9885V24.5409H192.868V38.5113C192.868 39.4947 193.056 40.3624 193.432 41.1145C193.837 41.8376 194.401 42.4161 195.124 42.8499C195.876 43.2549 196.715 43.4573 197.641 43.4573C198.566 43.4573 199.391 43.2549 200.114 42.8499C200.837 42.4161 201.401 41.8231 201.806 41.0711C202.211 40.3191 202.413 39.4224 202.413 38.3811V24.5409H208.097V48.1431H202.717V43.5007L203.194 44.3251C202.645 45.7713 201.734 46.8559 200.461 47.579C199.217 48.3021 197.756 48.6637 196.079 48.6637ZM212.079 48.1431V24.5409H217.415V30.0075L216.808 29.0964C217.242 27.3899 218.109 26.1172 219.411 25.2784C220.713 24.4396 222.245 24.0202 224.01 24.0202C225.948 24.0202 227.654 24.5264 229.129 25.5387C230.605 26.5511 231.559 27.8816 231.993 29.5303L230.388 29.6605C231.111 27.7804 232.195 26.3776 233.642 25.452C235.088 24.4975 236.751 24.0202 238.631 24.0202C240.309 24.0202 241.798 24.3962 243.1 25.1483C244.43 25.9003 245.472 26.956 246.224 28.3155C246.976 29.646 247.352 31.1934 247.352 32.9578V48.1431H241.668V34.3028C241.668 33.2615 241.48 32.3649 241.104 31.6128C240.728 30.8608 240.207 30.2823 239.542 29.8774C238.877 29.4435 238.067 29.2266 237.113 29.2266C236.216 29.2266 235.42 29.4435 234.726 29.8774C234.032 30.2823 233.497 30.8608 233.121 31.6128C232.745 32.3649 232.557 33.2615 232.557 34.3028V48.1431H226.873V34.3028C226.873 33.2615 226.685 32.3649 226.309 31.6128C225.933 30.8608 225.398 30.2823 224.704 29.8774C224.039 29.4435 223.243 29.2266 222.318 29.2266C221.421 29.2266 220.626 29.4435 219.932 29.8774C219.237 30.2823 218.702 30.8608 218.326 31.6128C217.95 32.3649 217.762 33.2615 217.762 34.3028V48.1431H212.079Z" fill="white"/>
<path d="M33.9026 27.4928L38.3193 20.0169L50.1859 38.5122V42.0612L50.1486 17.6335C50.1352 17.3397 50.0516 17.0533 49.9048 16.7984C49.7581 16.5435 49.5525 16.3273 49.3051 16.1681L27.92 3.87882C27.632 3.7376 27.3121 3.67413 26.992 3.69471C26.6719 3.71529 26.3627 3.8192 26.0952 3.99613L26.0207 4.04454L5.26489 16.0638L5.18296 16.1011C4.91427 16.2261 4.67932 16.4135 4.49764 16.6477C4.31595 16.8818 4.19278 17.156 4.13837 17.4473C4.12501 17.5187 4.11631 17.5908 4.1123 17.6633L4.14396 37.57L15.2062 20.4228C16.5989 18.1493 19.634 17.4175 22.4512 17.4566L25.7582 17.5441L6.27596 48.7868L8.57368 50.1088L28.2868 17.5758L37.001 17.5441L17.3382 50.8983L25.531 55.6111L26.5086 56.1697C26.9313 56.3363 27.3998 56.3456 27.8287 56.1957L49.5118 43.629L45.367 46.031L33.9026 27.4928ZM35.5784 51.699L27.3074 38.717L32.3609 30.1518L43.2294 47.2823L35.5784 51.699Z" fill="#2B80EC"/>
<path d="M27.3057 38.7177L35.5823 51.709L43.2277 47.2774L32.3592 30.145L27.3057 38.7177Z" fill="white"/>
<path d="M50.1892 42.0588V38.5098L38.317 20.0107L33.9097 27.4867L45.3759 46.0305L49.5208 43.6285C49.7218 43.466 49.8862 43.263 50.0033 43.0326C50.1204 42.8022 50.1876 42.5497 50.2004 42.2916L50.1892 42.0588Z" fill="white"/>
<path d="M0.423249 45.4111L6.27741 48.785L25.7596 17.5424L22.4527 17.4548C19.6355 17.4157 16.6004 18.1475 15.2076 20.421L4.14541 37.5683L0.421387 43.2865V45.4111H0.423249Z" fill="white"/>
<path d="M37.0049 17.5454L28.2906 17.5771L8.57568 50.1101L15.467 54.0781L17.342 50.8996L37.0049 17.5454Z" fill="white"/>
<path d="M53.8683 17.4976C53.8296 16.597 53.572 15.7193 53.1178 14.9407C52.6636 14.162 52.0264 13.5058 51.2615 13.0288L29.6007 0.577523C28.8275 0.197572 27.9774 0 27.1159 0C26.2543 0 25.4043 0.197572 24.631 0.577523C24.4448 0.668761 3.56425 12.7811 3.56425 12.7811C3.27432 12.9218 2.99655 13.0862 2.73379 13.2727C2.05605 13.7553 1.4964 14.3851 1.09685 15.1149C0.697288 15.8447 0.468196 16.6555 0.426758 17.4864V43.2865L4.15078 37.5682L4.11726 17.6559C4.12126 17.5834 4.12997 17.5113 4.14333 17.4399C4.22855 16.968 4.49611 16.5486 4.88813 16.2724C4.98682 16.2017 26.2286 3.90494 26.3013 3.87142C26.5563 3.74865 26.8357 3.68489 27.1187 3.68489C27.4017 3.68489 27.6811 3.74865 27.9361 3.87142L49.3101 16.1663C49.5592 16.3245 49.7666 16.5401 49.915 16.7951C50.0634 17.0501 50.1484 17.337 50.1629 17.6317V42.2959C50.1578 42.5515 50.0979 42.8031 49.9874 43.0337C49.877 43.2643 49.7184 43.4686 49.5224 43.6328L45.3776 46.0348L43.2381 47.2749L35.5927 51.7046L27.8356 56.1995C27.4068 56.3503 26.9379 56.3411 26.5154 56.1734L17.3431 50.8965L15.4681 54.075L23.7131 58.8212L24.4281 59.2253C24.7353 59.3985 24.9457 59.5139 25.0202 59.5511C25.7107 59.8521 26.4567 60.005 27.2099 59.9999C27.9002 60.0038 28.5849 59.8774 29.2283 59.6275L51.7475 46.5934C52.3827 46.0994 52.9019 45.472 53.2683 44.7555C53.6347 44.0391 53.8396 43.2509 53.8683 42.4467V17.4976Z" fill="white"/>
</g>
</svg>
