<svg width="676" height="147" viewBox="0 0 676 147" fill="none" xmlns="http://www.w3.org/2000/svg">
<path d="M174.62 123.16L206.007 32.1741H227.502L258.889 123.16H240.814L234.341 103.62H199.168L192.573 123.16H174.62ZM203.931 88.964H229.578L214.434 43.6542H219.075L203.931 88.964ZM264.008 123.16V56.722H279.03V71.4996L277.808 69.3013C279.355 64.3347 281.757 60.8744 285.014 58.9203C288.352 56.9662 292.342 55.9892 296.983 55.9892H300.891V70.1562H295.151C290.591 70.1562 286.927 71.581 284.159 74.4307C281.391 77.1989 280.007 81.1071 280.007 86.1551V123.16H264.008ZM342.295 124.626C337.492 124.626 333.054 123.689 328.983 121.817C324.994 119.863 321.818 117.094 319.457 113.512L321.045 110.337V123.16H306.023V30.7085H322.022V69.9119L319.579 66.6144C321.859 63.032 324.953 60.2637 328.861 58.3097C332.769 56.2742 337.288 55.2564 342.418 55.2564C348.687 55.2564 354.345 56.8034 359.393 59.8973C364.441 62.9913 368.431 67.1437 371.362 72.3545C374.375 77.5653 375.881 83.4275 375.881 89.9411C375.881 96.3732 374.415 102.235 371.484 107.528C368.553 112.82 364.564 117.013 359.516 120.107C354.468 123.119 348.727 124.626 342.295 124.626ZM340.463 109.97C344.127 109.97 347.384 109.115 350.234 107.406C353.083 105.696 355.282 103.335 356.829 100.322C358.457 97.3095 359.271 93.8492 359.271 89.9411C359.271 86.0329 358.457 82.6133 356.829 79.6822C355.282 76.6697 353.083 74.3086 350.234 72.5988C347.384 70.8075 344.127 69.9119 340.463 69.9119C336.962 69.9119 333.787 70.7668 330.937 72.4766C328.169 74.1864 325.971 76.5883 324.342 79.6822C322.795 82.6948 322.022 86.1144 322.022 89.9411C322.022 93.8492 322.795 97.3095 324.342 100.322C325.971 103.335 328.169 105.696 330.937 107.406C333.787 109.115 336.962 109.97 340.463 109.97ZM384.415 123.16V56.722H400.414V123.16H384.415ZM384.415 49.2721V32.1741H400.414V49.2721H384.415ZM441.809 123.893C434.319 123.893 428.497 121.857 424.345 117.786C420.274 113.634 418.239 107.813 418.239 100.322V71.0111H406.758V56.722H407.98C411.237 56.722 413.761 55.8671 415.552 54.1573C417.343 52.4475 418.239 49.9642 418.239 46.7074V41.578H434.237V56.722H449.504V71.0111H434.237V99.4671C434.237 101.665 434.604 103.538 435.337 105.085C436.151 106.632 437.372 107.813 439.001 108.627C440.71 109.441 442.868 109.848 445.473 109.848C446.043 109.848 446.695 109.807 447.427 109.726C448.242 109.645 449.015 109.563 449.748 109.482V123.16C448.608 123.323 447.305 123.486 445.84 123.649C444.374 123.812 443.031 123.893 441.809 123.893ZM458.307 123.16V56.722H473.329V71.4996L472.108 69.3013C473.655 64.3347 476.057 60.8744 479.314 58.9203C482.652 56.9662 486.641 55.9892 491.282 55.9892H495.19V70.1562H489.45C484.891 70.1562 481.227 71.581 478.459 74.4307C475.69 77.1989 474.306 81.1071 474.306 86.1551V123.16H458.307ZM524.016 124.626C518.886 124.626 514.408 123.486 510.581 121.206C506.836 118.926 503.946 115.751 501.91 111.68C499.956 107.609 498.979 102.846 498.979 97.3909V56.722H514.978V96.0475C514.978 98.8158 515.507 101.258 516.566 103.375C517.706 105.411 519.293 107.039 521.329 108.26C523.446 109.4 525.807 109.97 528.412 109.97C531.018 109.97 533.338 109.4 535.374 108.26C537.409 107.039 538.997 105.37 540.137 103.253C541.277 101.136 541.846 98.6122 541.846 95.6811V56.722H557.845V123.16H542.701V110.092L544.045 112.413C542.498 116.484 539.933 119.537 536.351 121.572C532.85 123.608 528.738 124.626 524.016 124.626ZM569.054 123.16V56.722H584.075V72.1102L582.366 69.5455C583.587 64.7418 586.03 61.1593 589.693 58.7982C593.357 56.437 597.672 55.2564 602.639 55.2564C608.094 55.2564 612.898 56.6813 617.05 59.531C621.203 62.3806 623.89 66.1259 625.111 70.7668L620.592 71.1332C622.628 65.841 625.681 61.8921 629.752 59.2867C633.823 56.5999 638.504 55.2564 643.797 55.2564C648.519 55.2564 652.712 56.3149 656.376 58.4318C660.121 60.5487 663.052 63.5205 665.169 67.3472C667.286 71.0925 668.344 75.4484 668.344 80.415V123.16H652.346V84.201C652.346 81.2699 651.816 78.7459 650.758 76.629C649.699 74.5121 648.234 72.8837 646.361 71.7439C644.489 70.5226 642.209 69.9119 639.522 69.9119C636.998 69.9119 634.759 70.5226 632.805 71.7439C630.851 72.8837 629.345 74.5121 628.286 76.629C627.228 78.7459 626.698 81.2699 626.698 84.201V123.16H610.7V84.201C610.7 81.2699 610.17 78.7459 609.112 76.629C608.053 74.5121 606.547 72.8837 604.593 71.7439C602.72 70.5226 600.481 69.9119 597.876 69.9119C595.352 69.9119 593.113 70.5226 591.159 71.7439C589.205 72.8837 587.699 74.5121 586.64 76.629C585.582 78.7459 585.052 81.2699 585.052 84.201V123.16H569.054Z" fill="black"/>
<path d="M81.6456 67.0429L92.416 48.8123L121.353 93.9143V102.569L121.263 43.0003C121.23 42.2837 121.026 41.5855 120.668 40.9638C120.31 40.3421 119.809 39.8151 119.206 39.4268L67.0566 9.45871C66.3543 9.11433 65.5742 8.95955 64.7937 9.00973C64.0131 9.05991 63.2592 9.3133 62.6068 9.74477L62.4252 9.86282L11.8109 39.1725L11.6111 39.2633C10.9559 39.5683 10.3829 40.0253 9.9399 40.5963C9.49685 41.1673 9.1965 41.8358 9.06381 42.5462C9.03124 42.7202 9.01 42.8962 9.00024 43.0729L9.07744 91.6167L36.0533 49.8021C39.4496 44.258 46.8509 42.4736 53.7208 42.5689L61.785 42.7823L14.2765 118.969L19.8796 122.193L67.9511 42.8595L89.2012 42.7823L41.2523 124.118L61.231 135.611L63.6148 136.973C64.6456 137.379 65.7881 137.402 66.8341 137.037L119.71 106.392L109.602 112.249L81.6456 67.0429ZM85.7322 126.071L65.5628 94.4137L77.886 73.5269L104.39 115.301L85.7322 126.071Z" fill="#2D374B"/>
<path d="M65.5592 94.4153L85.7423 126.095L104.386 115.289L77.8824 73.5103L65.5592 94.4153Z" fill="#28A0F0"/>
<path d="M121.362 102.563V93.9084L92.4105 48.7974L81.6628 67.028L109.624 112.248L119.731 106.391C120.222 105.994 120.623 105.499 120.908 104.937C121.194 104.376 121.358 103.76 121.389 103.13L121.362 102.563Z" fill="#28A0F0"/>
<path d="M0.00454159 110.737L14.2803 118.965L61.7888 42.778L53.7246 42.5646C46.8547 42.4693 39.4535 44.2537 36.0571 49.7978L9.08125 91.6124L0 105.557V110.737H0.00454159Z" fill="white"/>
<path d="M89.2106 42.7852L67.9605 42.8623L19.8844 122.196L36.6892 131.872L41.2616 124.121L89.2106 42.7852Z" fill="white"/>
<path d="M130.333 42.6689C130.239 40.4727 129.611 38.3325 128.503 36.4337C127.396 34.5349 125.842 32.9346 123.977 31.7715L71.1555 1.40832C69.2699 0.48179 67.197 0 65.0961 0C62.9951 0 60.9222 0.48179 59.0366 1.40832C58.5825 1.63081 7.66401 31.1676 7.66401 31.1676C6.95701 31.5105 6.27964 31.9114 5.63889 32.3663C3.98618 33.5431 2.62145 35.0789 1.64711 36.8586C0.672766 38.6382 0.11411 40.6153 0.0130615 42.6417V105.557L9.09431 91.6123L9.01257 43.0549C9.02233 42.8781 9.04356 42.7022 9.07614 42.5282C9.28395 41.3774 9.9364 40.3547 10.8924 39.6812C11.133 39.5087 62.9325 9.52241 63.1095 9.44068C63.7314 9.14129 64.4127 8.98582 65.1029 8.98582C65.793 8.98582 66.4743 9.14129 67.0962 9.44068L119.218 39.4224C119.825 39.8082 120.331 40.334 120.693 40.9559C121.055 41.5777 121.262 42.2773 121.298 42.9959V103.141C121.285 103.764 121.139 104.378 120.87 104.94C120.6 105.503 120.214 106.001 119.736 106.401L109.628 112.259L104.411 115.283L85.7672 126.085L66.851 137.046C65.8054 137.414 64.662 137.391 63.6317 136.982L41.2646 124.114L36.6922 131.865L56.7981 143.439L58.5417 144.424C59.2909 144.847 59.804 145.128 59.9856 145.219C61.6695 145.953 63.4885 146.326 65.3254 146.313C67.0086 146.323 68.6784 146.015 70.2474 145.405L125.162 113.621C126.711 112.416 127.977 110.886 128.87 109.139C129.764 107.392 130.263 105.47 130.333 103.509V42.6689Z" fill="#96BEDC"/>
</svg>
