<svg width="248" height="50" viewBox="0 0 248 50" fill="none" xmlns="http://www.w3.org/2000/svg">
<g clip-path="url(#clip0_719_1143)">
<path d="M66.9101 16.2786H69.5894L77.0987 33.7214H73.5445L71.9224 29.7298H64.3584L62.7909 33.7214H59.3096L66.8918 16.2786H66.9101ZM70.847 27.0687L68.1677 19.9786L65.4337 27.0687H70.847Z" fill="black"/>
<path d="M80.4341 16.2786H84.0065L88.7636 29.4564L93.6665 16.2786H97.0202L89.9665 33.7214H87.2872L80.4341 16.2786Z" fill="black"/>
<path d="M108.102 16.2786H110.781L118.291 33.7214H114.736L113.114 29.7298H105.55L103.983 33.7214H100.52L108.102 16.2786ZM112.039 27.0687L109.36 19.9786L106.626 27.0687H112.039Z" fill="black"/>
<path d="M125.162 16.2786H128.26V30.9145H135.679V33.7214H125.162V16.2786Z" fill="black"/>
<path d="M148.492 16.2786H151.171L158.68 33.7214H155.126L153.504 29.7298H145.94L144.373 33.7214H140.91L148.492 16.2786ZM152.429 27.0687L149.749 19.9786L147.015 27.0687H152.429Z" fill="black"/>
<path d="M165.552 16.2786H169.671L178.11 29.2377H178.164V16.2786H181.263V33.7214H177.326L168.705 20.3431H168.65V33.7214H165.552V16.2786Z" fill="black"/>
<path d="M202.041 20.3614C201.403 19.6688 200.784 19.2131 200.164 18.9762C199.581 18.7392 198.979 18.6299 198.359 18.6299C197.448 18.6299 196.628 18.7939 195.899 19.122C195.17 19.4318 194.55 19.8693 194.022 20.4525C193.493 21.0175 193.092 21.6737 192.782 22.421C192.509 23.1683 192.363 23.9884 192.363 24.8633C192.363 25.7929 192.509 26.6677 192.782 27.4515C193.074 28.2352 193.493 28.9278 194.022 29.4928C194.55 30.0761 195.17 30.5135 195.899 30.8416C196.646 31.1697 197.466 31.3337 198.359 31.3337C199.07 31.3337 199.745 31.1697 200.401 30.8416C201.075 30.4953 201.695 29.9485 202.278 29.2194L204.83 31.0421C204.046 32.1175 203.08 32.9194 201.95 33.4115C200.82 33.9037 199.617 34.1588 198.323 34.1588C196.974 34.1588 195.735 33.9401 194.605 33.5209C193.493 33.0835 192.527 32.4638 191.707 31.68C190.905 30.8781 190.267 29.9121 189.811 28.8002C189.356 27.6884 189.119 26.449 189.119 25.082C189.119 23.6786 189.356 22.421 189.811 21.2909C190.267 20.1427 190.905 19.1584 191.707 18.3565C192.527 17.5545 193.493 16.9348 194.605 16.5156C195.735 16.0782 196.974 15.8594 198.323 15.8594C199.508 15.8594 200.601 16.0782 201.604 16.4974C202.624 16.9166 203.572 17.6092 204.429 18.6116L202.023 20.3796L202.041 20.3614Z" fill="black"/>
<path d="M211.865 16.2786H214.964V23.2229H223.111V16.2786H226.228V33.7214H223.111V26.0298H214.964V33.7214H211.865V16.2786Z" fill="black"/>
<path d="M235.049 16.2786H246.587V19.0855H238.148V23.3687H246.149V26.1756H238.148V30.9145H247.042V33.7214H235.049V16.2786Z" fill="black"/>
<path d="M25.1355 50.0145C38.947 50.0145 50.1427 38.8188 50.1427 25.0073C50.1427 11.1958 38.947 6.10352e-05 25.1355 6.10352e-05C11.324 6.10352e-05 0.128235 11.1958 0.128235 25.0073C0.128235 38.8188 11.324 50.0145 25.1355 50.0145Z" fill="#E84142"/>
<path fill-rule="evenodd" clip-rule="evenodd" d="M18.0491 34.9589H13.1959C12.1761 34.9589 11.6724 34.9589 11.3652 34.7624C11.0335 34.5473 10.8308 34.191 10.8062 33.7978C10.7877 33.4355 11.0396 32.993 11.5434 32.1084L23.5265 10.9864C24.0364 10.0895 24.2944 9.64102 24.62 9.47516C24.9702 9.29702 25.388 9.29702 25.7381 9.47516C26.0637 9.64102 26.3218 10.0895 26.8316 10.9864L29.2951 15.2867L29.3077 15.3087C29.8584 16.2709 30.1377 16.7589 30.2596 17.271C30.3947 17.83 30.3947 18.4198 30.2596 18.9788C30.1367 19.4949 29.8603 19.9864 29.3012 20.9631L23.0068 32.09L22.9905 32.1185C22.4361 33.0886 22.1552 33.5803 21.7658 33.9513C21.342 34.3569 20.8321 34.6516 20.273 34.8177C19.7631 34.9589 19.1918 34.9589 18.0491 34.9589ZM30.3051 34.9589H37.2591C38.2851 34.9589 38.8012 34.9589 39.1085 34.7564C39.4402 34.5413 39.649 34.1787 39.6676 33.7858C39.6853 33.4352 39.4389 33.0099 38.956 32.1767C38.9394 32.1483 38.9227 32.1195 38.9058 32.0901L35.4224 26.1311L35.3828 26.064C34.8933 25.2363 34.6462 24.8183 34.3289 24.6567C33.9789 24.4785 33.567 24.4785 33.217 24.6567C32.8975 24.8226 32.6395 25.2588 32.1296 26.1372L28.6587 32.0963L28.6468 32.1168C28.1387 32.9939 27.8847 33.4322 27.903 33.7918C27.9276 34.185 28.1303 34.5473 28.4621 34.7624C28.7631 34.9589 29.2791 34.9589 30.3051 34.9589Z" fill="white"/>
</g>
<defs>
<clipPath id="clip0_719_1143">
<rect width="246.914" height="50" fill="white" transform="translate(0.128235)"/>
</clipPath>
</defs>
</svg>
