
 <!-- <svg width="5483" height="4411" viewBox="0 0 5483 4411" fill="none" xmlns="http://www.w3.org/2000/svg">
<g filter="url(#filter0_f_770_1051)">
<rect x="359" y="1889.7" width="3367.21" height="1598.61" rx="799.304" transform="rotate(-27.0425 359 1889.7)" fill="#DD408C"/>
</g>
<g filter="url(#filter1_f_770_1051)">
<path d="M3444.45 3419.35C3111.79 3355.56 2855.94 3088.24 2806.78 2753.1L2765.63 2472.51C2714.85 2126.35 2896.05 1787.62 3212.17 1637.73L3444.55 1527.54C3754.41 1380.62 4123.55 1448.65 4360.66 1696.4L4568.23 1913.27C4805.35 2161.01 4857.14 2532.77 4696.78 2835.9L4576.52 3063.23C4412.91 3372.48 4066.57 3538.66 3722.98 3472.77L3444.45 3419.35Z" fill="#FBF79B"/>
</g>
<g filter="url(#filter2_f_770_1051)">
<path d="M1250.18 3011.59C1242.86 2998.62 1237.28 2984.75 1233.61 2970.31L1194.12 2815.06C1190.54 2801 1188.8 2786.53 1188.94 2772.02L1190.54 2604.58C1190.67 2591.05 1192.44 2577.57 1195.8 2564.46L1240.47 2390.14C1243.53 2378.21 1247.89 2366.66 1253.47 2355.68L1341.75 2182.07C1346.81 2172.13 1352.84 2162.71 1359.76 2153.97L1489.49 1990C1495.84 1981.98 1502.9 1974.55 1510.6 1967.81L1676.7 1822.43C1683.93 1816.11 1691.68 1810.41 1699.89 1805.41L1894.78 1686.56C1902.71 1681.72 1911.04 1677.55 1919.67 1674.08L2133.92 1588.07C2142.55 1584.6 2151.45 1581.86 2160.53 1579.87L2383.5 1530.96C2392.88 1528.91 2402.42 1527.66 2412.02 1527.23L2632.54 1517.4C2642.76 1516.94 2653 1517.42 2663.13 1518.83L2870.22 1547.57C2881.27 1549.1 2892.14 1551.73 2902.67 1555.42L3086.49 1619.79C3098.11 1623.86 3109.25 1629.19 3119.71 1635.69L3272.52 1730.73C3284.01 1737.88 3294.6 1746.39 3304.06 1756.08L3420.99 1875.93C3431.13 1886.32 3439.87 1897.97 3447.01 1910.61L3525.84 2050.07C3533.17 2063.03 3538.74 2076.91 3542.41 2091.34L3581.9 2246.59C3585.48 2260.65 3587.22 2275.12 3587.08 2289.63L3585.48 2457.07C3585.35 2470.61 3583.59 2484.08 3580.22 2497.19L3535.55 2671.51C3532.5 2683.44 3528.14 2695 3522.56 2705.97L3434.27 2879.58C3429.22 2889.52 3423.18 2898.94 3416.26 2907.69L3286.53 3071.65C3280.19 3079.67 3273.12 3087.1 3265.42 3093.84L3099.33 3239.22C3092.1 3245.55 3084.34 3251.24 3076.14 3256.24L2881.25 3375.09C2873.31 3379.93 2864.98 3384.11 2856.35 3387.57L2642.1 3473.58C2633.48 3477.05 2624.58 3479.79 2615.49 3481.78L2392.53 3530.69C2383.14 3532.75 2373.6 3534 2364 3534.43L2143.49 3544.26C2133.27 3544.71 2123.03 3544.23 2112.89 3542.83L1905.8 3514.08C1894.75 3512.55 1883.88 3509.92 1873.35 3506.24L1689.53 3441.87C1677.91 3437.8 1666.77 3432.46 1656.31 3425.96L1503.5 3330.92C1492.01 3323.77 1481.42 3315.26 1471.97 3305.57L1355.03 3185.72C1344.9 3175.34 1336.15 3163.68 1329.01 3151.05L1250.18 3011.59Z" fill="#8DF1FF"/>
</g>
<g filter="url(#filter3_f_770_1051)">
<path d="M3886.25 799.428C3935.49 795.432 3984.34 810.759 4022.48 842.163L4488.66 1226.07C4527.57 1258.12 4552.17 1304.31 4557.03 1354.49L4613.8 1940.4C4618.77 1991.62 4602.75 2042.66 4569.42 2081.87L4188.16 2530.37C4155.51 2568.78 4108.94 2592.65 4058.69 2596.72L3456.75 2645.57C3407.52 2649.56 3358.66 2634.24 3320.52 2602.83L2854.34 2218.92C2815.43 2186.87 2790.83 2140.68 2785.97 2090.5L2729.2 1504.59C2724.23 1453.38 2740.25 1402.33 2773.58 1363.13L3154.84 914.628C3187.49 876.219 3234.06 852.351 3284.31 848.273L3886.25 799.428Z" fill="#C9C1F9"/>
</g>
<defs>
<filter id="filter0_f_770_1051" x="0.570007" y="0.364929" width="4442.74" height="3671.6" filterUnits="userSpaceOnUse" color-interpolation-filters="sRGB">
<feFlood flood-opacity="0" result="BackgroundImageFix"/>
<feBlend mode="normal" in="SourceGraphic" in2="BackgroundImageFix" result="shape"/>
<feGaussianBlur stdDeviation="317.138" result="effect1_foregroundBlur_770_1051"/>
</filter>
<filter id="filter1_f_770_1051" x="2116.54" y="810.136" width="3313.27" height="3317.54" filterUnits="userSpaceOnUse" color-interpolation-filters="sRGB">
<feFlood flood-opacity="0" result="BackgroundImageFix"/>
<feBlend mode="normal" in="SourceGraphic" in2="BackgroundImageFix" result="shape"/>
<feGaussianBlur stdDeviation="320.309" result="effect1_foregroundBlur_770_1051"/>
</filter>
<filter id="filter2_f_770_1051" x="323.148" y="651.443" width="4129.73" height="3758.77" filterUnits="userSpaceOnUse" color-interpolation-filters="sRGB">
<feFlood flood-opacity="0" result="BackgroundImageFix"/>
<feBlend mode="normal" in="SourceGraphic" in2="BackgroundImageFix" result="shape"/>
<feGaussianBlur stdDeviation="432.893" result="effect1_foregroundBlur_770_1051"/>
</filter>
<filter id="filter3_f_770_1051" x="2094.03" y="164.528" width="3154.93" height="3115.94" filterUnits="userSpaceOnUse" color-interpolation-filters="sRGB">
<feFlood flood-opacity="0" result="BackgroundImageFix"/>
<feBlend mode="normal" in="SourceGraphic" in2="BackgroundImageFix" result="shape"/>
<feGaussianBlur stdDeviation="317.138" result="effect1_foregroundBlur_770_1051"/>
</filter>
</defs>
</svg>
 -->

 <svg width="1441" height="1113" viewBox="0 0 1441 1113" fill="none" xmlns="http://www.w3.org/2000/svg">
<g style="mix-blend-mode:hard-light" opacity="0.31">
<g filter="url(#filter0_f_394_1897)">
<rect x="-74" y="317.726" width="1061.75" height="504.073" rx="252.036" transform="rotate(-27.0425 -74 317.726)" fill="#DD408C"/>
</g>
<g filter="url(#filter1_f_394_1897)">
<path d="M898.905 800.056C794.011 779.94 713.335 695.648 697.835 589.973L684.857 501.496C668.848 392.347 725.982 285.539 825.661 238.274L898.935 203.53C996.641 157.201 1113.04 178.654 1187.8 256.774L1253.25 325.156C1328.02 403.276 1344.35 520.499 1293.79 616.082L1255.87 687.763C1204.28 785.275 1095.07 837.674 986.729 816.898L898.905 800.056Z" fill="#FBF79B"/>
</g>
<g filter="url(#filter2_f_394_1897)">
<path d="M207.008 671.479C204.697 667.391 202.94 663.015 201.783 658.465L189.331 609.51C188.203 605.076 187.654 600.514 187.698 595.939L188.202 543.142C188.243 538.874 188.799 534.626 189.859 530.491L203.945 475.525C204.909 471.763 206.283 468.12 208.043 464.658L235.881 409.916C237.475 406.781 239.377 403.812 241.559 401.054L282.466 349.352C284.467 346.822 286.695 344.481 289.123 342.356L341.496 296.515C343.775 294.52 346.222 292.724 348.808 291.147L410.261 253.671C412.764 252.145 415.389 250.829 418.11 249.737L485.667 222.615C488.388 221.522 491.194 220.658 494.058 220.03L564.364 204.608C567.323 203.959 570.333 203.565 573.359 203.43L642.891 200.331C646.114 200.187 649.343 200.338 652.538 200.781L717.839 209.844C721.323 210.328 724.75 211.157 728.069 212.319L786.032 232.616C789.697 233.899 793.21 235.582 796.507 237.632L844.691 267.599C848.315 269.853 851.654 272.537 854.635 275.592L891.508 313.384C894.703 316.659 897.461 320.334 899.713 324.317L924.568 368.292C926.878 372.379 928.635 376.756 929.793 381.306L942.245 430.26C943.373 434.695 943.922 439.256 943.878 443.832L943.373 496.629C943.333 500.897 942.776 505.145 941.717 509.279L927.631 564.246C926.667 568.007 925.292 571.651 923.532 575.112L895.695 629.855C894.101 632.99 892.199 635.958 890.016 638.716L849.11 690.418C847.109 692.948 844.88 695.29 842.453 697.414L790.08 743.255C787.8 745.25 785.354 747.047 782.767 748.624L721.315 786.099C718.812 787.626 716.187 788.942 713.466 790.034L645.909 817.156C643.188 818.248 640.382 819.113 637.518 819.741L567.211 835.162C564.252 835.811 561.243 836.205 558.217 836.34L488.684 839.44C485.462 839.584 482.233 839.433 479.038 838.989L413.736 829.926C410.253 829.443 406.826 828.614 403.506 827.451L345.543 807.154C341.879 805.871 338.366 804.189 335.069 802.138L286.885 772.171C283.26 769.917 279.921 767.233 276.941 764.178L240.068 726.387C236.873 723.112 234.115 719.437 231.863 715.453L207.008 671.479Z" fill="#8DF1FF"/>
</g>
<g filter="url(#filter3_f_394_1897)">
<path d="M1038.21 -26.0594C1053.74 -27.3193 1069.14 -22.4863 1081.17 -12.5841L1228.16 108.471C1240.43 118.576 1248.19 133.141 1249.72 148.963L1267.62 333.712C1269.19 349.863 1264.14 365.958 1253.63 378.32L1133.41 519.741C1123.11 531.852 1108.43 539.378 1092.59 540.664L902.784 556.066C887.258 557.326 871.852 552.493 859.827 542.59L712.832 421.536C700.561 411.43 692.806 396.865 691.273 381.043L673.371 196.294C671.806 180.144 676.855 164.049 687.364 151.686L807.585 10.2657C817.881 -1.84559 832.566 -9.37167 848.41 -10.6574L1038.21 -26.0594Z" fill="#C9C1F9"/>
</g>
</g>
<defs>
<filter id="filter0_f_394_1897" x="-187.02" y="-278.02" width="1400.89" height="1157.73" filterUnits="userSpaceOnUse" color-interpolation-filters="sRGB">
<feFlood flood-opacity="0" result="BackgroundImageFix"/>
<feBlend mode="normal" in="SourceGraphic" in2="BackgroundImageFix" result="shape"/>
<feGaussianBlur stdDeviation="100" result="effect1_foregroundBlur_394_1897"/>
</filter>
<filter id="filter1_f_394_1897" x="480.188" y="-22.6829" width="1044.74" height="1046.09" filterUnits="userSpaceOnUse" color-interpolation-filters="sRGB">
<feFlood flood-opacity="0" result="BackgroundImageFix"/>
<feBlend mode="normal" in="SourceGraphic" in2="BackgroundImageFix" result="shape"/>
<feGaussianBlur stdDeviation="101" result="effect1_foregroundBlur_394_1897"/>
</filter>
<filter id="filter2_f_394_1897" x="-85.3047" y="-72.7222" width="1302.19" height="1185.21" filterUnits="userSpaceOnUse" color-interpolation-filters="sRGB">
<feFlood flood-opacity="0" result="BackgroundImageFix"/>
<feBlend mode="normal" in="SourceGraphic" in2="BackgroundImageFix" result="shape"/>
<feGaussianBlur stdDeviation="136.5" result="effect1_foregroundBlur_394_1897"/>
</filter>
<filter id="filter3_f_394_1897" x="473.091" y="-226.256" width="994.813" height="982.518" filterUnits="userSpaceOnUse" color-interpolation-filters="sRGB">
<feFlood flood-opacity="0" result="BackgroundImageFix"/>
<feBlend mode="normal" in="SourceGraphic" in2="BackgroundImageFix" result="shape"/>
<feGaussianBlur stdDeviation="100" result="effect1_foregroundBlur_394_1897"/>
</filter>
</defs>
</svg>

