<svg width="119" height="70" viewBox="0 0 119 70" fill="none" xmlns="http://www.w3.org/2000/svg">
<path d="M16.3114 8.23926H21.5338L32.595 34.1892H26.7562L24.3559 28.3505H13.4893L11.089 34.1892H5.25021L16.3114 8.23926ZM22.3447 23.5497L18.9388 15.116L15.5329 23.5497H22.3447Z" fill="white"/>
<path d="M38.6611 8.43457H43.8836L55.9503 24.3289V8.43457H61.5944V34.1899H56.7612L44.2728 17.9063V34.1899H38.6611V8.43457Z" fill="white"/>
<path d="M82.094 34.611C80.2776 34.611 78.4611 34.2217 76.8716 33.6054C73.6603 32.2106 71.2275 29.7778 69.8327 26.5665C69.2164 24.9446 68.8271 23.1606 68.8271 21.3441C68.8271 17.9381 70.222 14.4998 72.6548 11.9048C73.8549 10.7046 75.2822 9.69902 76.8716 9.08271C78.6881 8.27177 80.5046 8.07715 82.2887 8.07715C83.2942 8.07715 84.4944 8.07715 85.5 8.27177C86.5055 8.4664 87.3165 8.66102 88.1274 9.08271C88.9384 9.47196 89.7493 9.89365 90.3332 10.2829C90.9495 10.6721 91.728 11.2885 92.3443 11.9048L88.9384 16.1216C87.9328 15.3107 86.9272 14.4998 85.9217 13.9159C84.9161 13.2996 83.7159 13.105 82.5158 13.105C81.5102 13.105 80.5046 13.2996 79.4991 13.7213C78.4935 14.1105 77.6826 14.7268 77.0987 15.5378C76.4824 16.3487 75.8985 17.1596 75.4768 18.1652C75.0876 19.1708 74.8605 20.1763 74.8605 21.1819C74.8605 22.1874 75.0551 23.3876 75.4768 24.3932C75.8661 25.3987 76.2878 26.2097 77.0987 27.0206C78.4935 28.6425 80.5046 29.421 82.5158 29.421C83.7159 29.421 85.1432 29.2264 86.3434 28.61C87.3489 27.9937 88.5491 27.2152 89.36 26.4043L92.993 30.0373C92.3767 30.6536 91.5982 31.4321 90.9819 32.0484C90.171 32.6647 89.36 33.054 88.5815 33.4432C87.7706 33.8325 86.7651 34.2542 85.7595 34.4488C84.2998 34.611 83.0996 34.611 82.094 34.611Z" fill="white"/>
<path d="M99.3838 8.43457H118.716V13.4624H104.833V18.7172H117.095V23.745H104.833V29.1621H118.911V34.1899H99.3838V8.43457Z" fill="white"/>
<path d="M-7.01143 41.2285H1.03306C2.03862 41.2285 3.04418 41.4231 4.04974 41.6178C4.86068 41.8124 5.67161 42.4287 6.25548 43.0126C6.64473 43.4018 7.06642 44.0181 7.45567 44.8291C7.6503 45.4454 7.84493 46.2239 7.84493 47.0348C7.84493 47.6511 7.6503 48.4296 7.45567 49.0459C7.26105 49.6622 6.83936 50.0515 6.64474 50.6678C6.25549 51.0571 5.8338 51.4787 5.24993 51.868C4.63362 52.2572 4.04974 52.4843 3.43343 52.6789L8.26661 59.5232H4.43899L0.0275006 53.2952H-3.99474V59.5232H-7.20605L-7.01143 41.2285ZM0.838436 50.0839C1.844 50.0839 2.84956 49.8893 3.46587 49.273C4.08218 48.6567 4.47142 47.8782 4.47142 47.0673C4.47142 46.2563 4.08218 45.4454 3.46587 44.8615C2.65493 44.2452 1.64937 44.0506 0.64381 44.0506H-3.99474V50.0839H0.838436Z" fill="white"/>
<path d="M16.1171 44.0506H10.2783V41.2285H24.9725V44.0506H19.1337V59.3286H15.9224L16.1171 44.0506Z" fill="white"/>
<path d="M44.4675 59.5223C43.2673 59.5223 42.0671 59.3277 40.8345 58.7113C38.6287 57.7058 36.8122 56.0839 36.0013 53.8782C35.612 52.678 35.1903 51.4778 35.385 50.2452C35.385 49.045 35.5796 47.8448 36.0013 46.6122C36.8122 44.4064 38.6287 42.5899 40.8345 41.5844C42.0347 41.1951 43.2348 40.7734 44.6621 40.7734C45.473 40.7734 46.284 40.7734 46.8678 40.9681C47.4841 41.1627 48.068 41.3573 48.6843 41.5844C49.3006 41.779 49.6899 42.2007 50.3062 42.3953C50.6954 42.7846 51.3118 43.2062 51.701 43.5955L49.6899 45.9959C49.0736 45.3796 48.2951 44.7957 47.4842 44.374C46.6732 43.9847 45.6677 43.7577 44.6621 43.7577C43.8512 43.7577 43.0402 43.9523 42.2617 44.1469C41.4508 44.5362 40.8669 44.9579 40.2506 45.5417C39.6343 46.1581 39.245 46.7419 39.0504 47.5529C38.8558 48.3638 38.6612 49.1747 38.6612 49.9532C38.6612 50.7642 38.8558 51.5751 39.0504 52.3536C39.245 53.1645 39.6667 53.7484 40.2506 54.3647C40.8669 54.981 41.4508 55.3703 42.2617 55.7595C43.0726 56.1488 43.8836 56.3758 44.6621 56.1488C45.6677 56.1488 46.6732 55.9542 47.4842 55.5325C48.2951 55.1432 49.106 54.5269 49.8845 53.716L51.8956 55.7271C51.5064 56.1163 50.8901 56.7327 50.5008 57.1219C49.8845 57.5112 49.4953 57.9328 48.879 58.1275C48.2626 58.3221 47.6788 58.7438 46.8678 58.7438C46.0893 59.5223 45.2784 59.5223 44.4675 59.5223Z" fill="white"/>
<path d="M55.1387 41.2285H58.1553V48.6891H66.8161V41.2285H70.0275V59.3286H66.8161V51.7058H58.1553V59.3286H55.1387V41.2285Z" fill="white"/>
<path d="M81.0889 41.0342H84.1056L91.9554 59.1343H88.5495L86.733 54.7228H78.2993L76.4828 59.1343H73.2715L81.0889 41.0342ZM85.5004 52.0954L82.4837 44.8618L79.467 52.0954H85.5004Z" fill="white"/>
<path d="M95.1668 41.228H98.3781V59.3281H95.1668V41.228Z" fill="white"/>
<path d="M103.212 41.2285H106.034L115.7 53.7169V41.2285H118.912V59.3286H116.284L106.423 46.4509V59.3286H103.212V41.2285Z" fill="white"/>
</svg>
