<svg width="182" height="42" viewBox="0 0 182 42" fill="none" xmlns="http://www.w3.org/2000/svg">
<path d="M47.1128 21.2C47.1128 19.2773 47.5421 17.56 48.4008 16.048C49.2781 14.5173 50.4635 13.332 51.9568 12.492C53.4688 11.6333 55.1581 11.204 57.0248 11.204C59.2088 11.204 61.1221 11.764 62.7648 12.884C64.4075 14.004 65.5555 15.5533 66.2088 17.532H61.7008C61.2528 16.5987 60.6181 15.8987 59.7968 15.432C58.9941 14.9653 58.0608 14.732 56.9968 14.732C55.8581 14.732 54.8408 15.0027 53.9448 15.544C53.0675 16.0667 52.3768 16.8133 51.8728 17.784C51.3875 18.7547 51.1448 19.8933 51.1448 21.2C51.1448 22.488 51.3875 23.6267 51.8728 24.616C52.3768 25.5867 53.0675 26.3427 53.9448 26.884C54.8408 27.4067 55.8581 27.668 56.9968 27.668C58.0608 27.668 58.9941 27.4347 59.7968 26.968C60.6181 26.4827 61.2528 25.7733 61.7008 24.84H66.2088C65.5555 26.8373 64.4075 28.396 62.7648 29.516C61.1408 30.6173 59.2275 31.168 57.0248 31.168C55.1581 31.168 53.4688 30.748 51.9568 29.908C50.4635 29.0493 49.2781 27.864 48.4008 26.352C47.5421 24.84 47.1128 23.1227 47.1128 21.2ZM78.293 15.264C79.469 15.264 80.5143 15.5253 81.429 16.048C82.3437 16.552 83.053 17.308 83.557 18.316C84.0797 19.3053 84.341 20.5 84.341 21.9V31H80.421V22.432C80.421 21.2 80.113 20.2573 79.497 19.604C78.881 18.932 78.041 18.596 76.977 18.596C75.8943 18.596 75.0357 18.932 74.401 19.604C73.785 20.2573 73.477 21.2 73.477 22.432V31H69.557V10.28H73.477V17.42C73.981 16.748 74.653 16.2253 75.493 15.852C76.333 15.46 77.2663 15.264 78.293 15.264ZM87.0607 23.188C87.0607 21.62 87.3687 20.2293 87.9847 19.016C88.6194 17.8027 89.4687 16.8693 90.5327 16.216C91.6154 15.5627 92.8194 15.236 94.1447 15.236C95.3021 15.236 96.3101 15.4693 97.1687 15.936C98.0461 16.4027 98.7461 16.9907 99.2687 17.7V15.488H103.217V31H99.2687V28.732C98.7647 29.46 98.0647 30.0667 97.1687 30.552C96.2914 31.0187 95.2741 31.252 94.1167 31.252C92.8101 31.252 91.6154 30.916 90.5327 30.244C89.4687 29.572 88.6194 28.6293 87.9847 27.416C87.3687 26.184 87.0607 24.7747 87.0607 23.188ZM99.2687 23.244C99.2687 22.292 99.0821 21.48 98.7087 20.808C98.3354 20.1173 97.8314 19.5947 97.1967 19.24C96.5621 18.8667 95.8807 18.68 95.1527 18.68C94.4247 18.68 93.7527 18.8573 93.1367 19.212C92.5207 19.5667 92.0167 20.0893 91.6247 20.78C91.2514 21.452 91.0647 22.2547 91.0647 23.188C91.0647 24.1213 91.2514 24.9427 91.6247 25.652C92.0167 26.3427 92.5207 26.8747 93.1367 27.248C93.7714 27.6213 94.4434 27.808 95.1527 27.808C95.8807 27.808 96.5621 27.6307 97.1967 27.276C97.8314 26.9027 98.3354 26.38 98.7087 25.708C99.0821 25.0173 99.2687 24.196 99.2687 23.244ZM109.033 13.64C108.343 13.64 107.764 13.4253 107.297 12.996C106.849 12.548 106.625 11.9973 106.625 11.344C106.625 10.6907 106.849 10.1493 107.297 9.72C107.764 9.272 108.343 9.048 109.033 9.048C109.724 9.048 110.293 9.272 110.741 9.72C111.208 10.1493 111.441 10.6907 111.441 11.344C111.441 11.9973 111.208 12.548 110.741 12.996C110.293 13.4253 109.724 13.64 109.033 13.64ZM110.965 15.488V31H107.045V15.488H110.965ZM123.434 15.264C125.282 15.264 126.776 15.852 127.914 17.028C129.053 18.1853 129.622 19.8093 129.622 21.9V31H125.702V22.432C125.702 21.2 125.394 20.2573 124.778 19.604C124.162 18.932 123.322 18.596 122.258 18.596C121.176 18.596 120.317 18.932 119.682 19.604C119.066 20.2573 118.758 21.2 118.758 22.432V31H114.838V15.488H118.758V17.42C119.281 16.748 119.944 16.2253 120.746 15.852C121.568 15.46 122.464 15.264 123.434 15.264ZM137.27 10.28V31H133.35V10.28H137.27ZM143.131 13.64C142.44 13.64 141.862 13.4253 141.395 12.996C140.947 12.548 140.723 11.9973 140.723 11.344C140.723 10.6907 140.947 10.1493 141.395 9.72C141.862 9.272 142.44 9.048 143.131 9.048C143.822 9.048 144.391 9.272 144.839 9.72C145.306 10.1493 145.539 10.6907 145.539 11.344C145.539 11.9973 145.306 12.548 144.839 12.996C144.391 13.4253 143.822 13.64 143.131 13.64ZM145.063 15.488V31H141.143V15.488H145.063ZM157.532 15.264C159.38 15.264 160.873 15.852 162.012 17.028C163.151 18.1853 163.72 19.8093 163.72 21.9V31H159.8V22.432C159.8 21.2 159.492 20.2573 158.876 19.604C158.26 18.932 157.42 18.596 156.356 18.596C155.273 18.596 154.415 18.932 153.78 19.604C153.164 20.2573 152.856 21.2 152.856 22.432V31H148.936V15.488H152.856V17.42C153.379 16.748 154.041 16.2253 154.844 15.852C155.665 15.46 156.561 15.264 157.532 15.264ZM176.632 31L171.368 24.392V31H167.448V10.28H171.368V22.068L176.576 15.488H181.672L174.84 23.272L181.728 31H176.632Z" fill="white"/>
<circle cx="18" cy="21" r="18" fill="white"/>
<path fill-rule="evenodd" clip-rule="evenodd" d="M15.7056 10.2641L17.9074 8.99805L20.1092 10.2641L26.1092 13.732L28.3111 14.998V26.998L26.1092 28.2641L20.1643 31.732L17.9624 32.998L15.7606 31.732L9.70556 28.2641L7.50372 26.998V14.998L9.70556 13.732L15.7056 10.2641ZM11.9082 17.5294V24.4652L17.9082 27.9331L23.9082 24.4652V17.5294L17.9082 14.0615L11.9082 17.5294Z" fill="#3B8AEE"/>
</svg>
