<svg width="81" height="78" viewBox="0 0 81 78" fill="none" xmlns="http://www.w3.org/2000/svg">
<path d="M44.0195 69.3054C45.9239 67.454 45.9239 64.38 44.0195 62.5286L40.534 59.1401C38.1266 61.4806 35.6113 63.1573 35.6113 65.917C35.6473 70.2486 41.0012 72.2746 44.0195 69.3054ZM77.0052 47.2632C72.2622 51.8742 64.5008 51.8742 59.7578 47.2632L56.2723 43.8748L45.7083 54.1448L49.1937 57.5333C53.9367 62.1443 53.9367 69.6896 49.1937 74.3007C41.5761 81.7063 28.389 76.5014 28.389 65.917C28.389 60.258 31.7306 57.7429 35.4317 54.1448L24.8676 43.8748L21.3822 47.2632C16.6391 51.8742 8.87777 51.8742 4.13472 47.2632C-3.4829 39.8576 1.87099 27.0375 12.7584 27.0375C18.5795 27.0375 21.1666 30.2862 24.8676 33.8842L35.3957 23.6141L31.9103 20.2257C24.3286 12.8201 29.6466 0 40.57 0C51.4215 0 56.8472 12.8201 49.1937 20.2257L45.7083 23.6141L56.2723 33.8842L59.7578 30.4958C67.3754 23.0902 80.5625 28.295 80.5625 38.8795C80.5625 41.9186 79.3767 44.9577 77.0052 47.2632ZM71.831 42.2679C76.3944 37.8315 69.4594 31.0547 64.8601 35.4911L61.3747 38.8795C63.7822 41.2199 65.5069 43.6652 68.3456 43.6652C69.6391 43.6652 70.8967 43.2111 71.831 42.2679ZM30.0059 38.8795L40.57 49.1495L51.134 38.8795L40.57 28.6094L30.0059 38.8795ZM44.0195 8.45358C39.4561 4.0172 32.4852 10.7591 37.0486 15.2304L40.534 18.6188C42.9415 16.2784 45.4567 14.6016 45.4567 11.842C45.4567 10.6194 44.9896 9.39675 44.0195 8.45358ZM9.27303 42.2679C11.1774 44.1193 14.3395 44.1193 16.2439 42.2679L19.7293 38.8795C17.3218 36.539 15.5971 34.0938 12.7584 34.0938C8.30286 34.1287 6.21879 39.3336 9.27303 42.2679Z" fill="white"/>
<mask id="mask0_719_1382" style="mask-type:alpha" maskUnits="userSpaceOnUse" x="56" y="38" width="20" height="13">
<mask id="mask1_719_1382" style="mask-type:alpha" maskUnits="userSpaceOnUse" x="56" y="38" width="20" height="13">
<path d="M75.6419 38.7747H56.1307V50.8612H75.6419V38.7747Z" fill="url(#paint0_linear_719_1382)"/>
</mask>
<g mask="url(#mask1_719_1382)">
<path d="M75.64 38.7747H56.1288V50.8612H75.64V38.7747Z" fill="url(#paint1_linear_719_1382)"/>
</g>
</mask>
<g mask="url(#mask0_719_1382)">
<path d="M71.8289 42.2678C69.9245 44.1192 66.7625 44.1192 64.8581 42.2678L61.3727 38.8794L56.2344 43.8747L59.7198 47.2631C63.9957 51.42 70.751 51.8392 75.53 48.4857L71.8289 42.2678Z" fill="#061D44" fill-opacity="0.2"/>
</g>
<mask id="mask2_719_1382" style="mask-type:alpha" maskUnits="userSpaceOnUse" x="28" y="4" width="13" height="20">
<mask id="mask3_719_1382" style="mask-type:alpha" maskUnits="userSpaceOnUse" x="28" y="4" width="13" height="20">
<path d="M40.6767 4.75073H28.2442V23.7189H40.6767V4.75073Z" fill="url(#paint2_linear_719_1382)"/>
</mask>
<g mask="url(#mask3_719_1382)">
<path d="M40.6786 4.75049H28.2461V23.7187H40.6786V4.75049Z" fill="url(#paint3_linear_719_1382)"/>
</g>
</mask>
<g mask="url(#mask2_719_1382)">
<path d="M37.086 8.45346C35.1816 10.3049 35.1816 13.3789 37.086 15.2303L40.5714 18.6187L35.3972 23.614L31.9118 20.2256C27.6358 16.0687 27.2046 9.50143 30.6901 4.89038L37.086 8.45346Z" fill="#061D44" fill-opacity="0.2"/>
</g>
<mask id="mask4_719_1382" style="mask-type:alpha" maskUnits="userSpaceOnUse" x="40" y="54" width="13" height="20">
<mask id="mask5_719_1382" style="mask-type:alpha" maskUnits="userSpaceOnUse" x="40" y="54" width="13" height="20">
<path d="M52.8583 54.04H40.4258V73.0082H52.8583V54.04Z" fill="url(#paint4_linear_719_1382)"/>
</mask>
<g mask="url(#mask5_719_1382)">
<path d="M52.8564 54.0398H40.4238V73.008H52.8564V54.0398Z" fill="url(#paint5_linear_719_1382)"/>
</g>
</mask>
<g mask="url(#mask4_719_1382)">
<path d="M44.0189 69.3053C45.9233 67.4539 45.9233 64.3799 44.0189 62.5285L40.5334 59.1401L45.6717 54.1448L49.1572 57.5332C53.4331 61.6901 53.8643 68.2574 50.4148 72.9033L44.0189 69.3053Z" fill="#061D44" fill-opacity="0.2"/>
</g>
<mask id="mask6_719_1382" style="mask-type:alpha" maskUnits="userSpaceOnUse" x="5" y="26" width="20" height="14">
<mask id="mask7_719_1382" style="mask-type:alpha" maskUnits="userSpaceOnUse" x="5" y="26" width="20" height="14">
<path d="M24.9721 26.9326H5.46094V39.0191H24.9721V26.9326Z" fill="url(#paint6_linear_719_1382)"/>
</mask>
<g mask="url(#mask7_719_1382)">
<path d="M24.9741 26.9326H5.46289V39.0191H24.9741V26.9326Z" fill="url(#paint7_linear_719_1382)"/>
</g>
</mask>
<g mask="url(#mask6_719_1382)">
<path d="M9.27328 35.491C11.1777 33.6396 14.3397 33.6396 16.2441 35.491L19.7296 38.8794L24.8319 33.8841L21.3824 30.4957C17.0706 26.3388 10.3512 25.9196 5.57227 29.308L9.27328 35.491Z" fill="#061D44" fill-opacity="0.2"/>
</g>
<mask id="mask8_719_1382" style="mask-type:alpha" maskUnits="userSpaceOnUse" x="24" y="38" width="17" height="17">
<mask id="mask9_719_1382" style="mask-type:alpha" maskUnits="userSpaceOnUse" x="24" y="38" width="17" height="17">
<path d="M40.6805 38.7749H24.7266V54.2848H40.6805V38.7749Z" fill="url(#paint8_linear_719_1382)"/>
</mask>
<g mask="url(#mask9_719_1382)">
<path d="M40.6785 38.7749H24.7246V54.2848H40.6785V38.7749Z" fill="url(#paint9_linear_719_1382)"/>
</g>
</mask>
<g mask="url(#mask8_719_1382)">
<path d="M30.0045 38.8794L26.1957 42.5822L24.8303 43.8747L26.1957 45.2021L34.0649 52.8523L35.3944 54.1447L36.7598 52.8523L40.5686 49.1494L30.0045 38.8794Z" fill="url(#paint10_linear_719_1382)" fill-opacity="0.2"/>
<path d="M35.3941 54.1448L39.2029 50.442L40.5684 49.1495L39.2029 47.8221L31.3338 40.1719L30.0043 38.8794L28.6389 40.1719L24.8301 43.8747L35.3941 54.1448Z" fill="url(#paint11_linear_719_1382)" fill-opacity="0.2"/>
</g>
<mask id="mask10_719_1382" style="mask-type:alpha" maskUnits="userSpaceOnUse" x="40" y="23" width="17" height="17">
<mask id="mask11_719_1382" style="mask-type:alpha" maskUnits="userSpaceOnUse" x="40" y="23" width="17" height="17">
<path d="M56.3797 23.5095H40.4258V39.0194H56.3797V23.5095Z" fill="url(#paint12_linear_719_1382)"/>
</mask>
<g mask="url(#mask11_719_1382)">
<path d="M56.3777 23.5095H40.4238V39.0194H56.3777V23.5095Z" fill="url(#paint13_linear_719_1382)"/>
</g>
</mask>
<g mask="url(#mask10_719_1382)">
<path d="M51.1332 38.8794L54.942 35.1766L56.2715 33.8841L54.942 32.5567L47.0728 24.9065L45.7434 23.614L44.3779 24.9065L40.5691 28.6093L51.1332 38.8794Z" fill="url(#paint14_linear_719_1382)" fill-opacity="0.2"/>
<path d="M45.7067 23.614L41.8978 27.3168L40.5684 28.6093L41.8978 29.9367L49.767 37.5869L51.0965 38.8794L52.4619 37.5869L56.2707 33.8841L45.7067 23.614Z" fill="url(#paint15_linear_719_1382)" fill-opacity="0.2"/>
</g>
<defs>
<linearGradient id="paint0_linear_719_1382" x1="55.3343" y1="34.5432" x2="66.0885" y2="45.6041" gradientUnits="userSpaceOnUse">
<stop stop-color="white"/>
<stop offset="1"/>
</linearGradient>
<linearGradient id="paint1_linear_719_1382" x1="55.3324" y1="34.5432" x2="66.0865" y2="45.6041" gradientUnits="userSpaceOnUse">
<stop stop-color="white"/>
<stop offset="1" stop-color="white" stop-opacity="0"/>
</linearGradient>
<linearGradient id="paint2_linear_719_1382" x1="45.0202" y1="24.5203" x2="34.2684" y2="13.4585" gradientUnits="userSpaceOnUse">
<stop stop-color="white"/>
<stop offset="1"/>
</linearGradient>
<linearGradient id="paint3_linear_719_1382" x1="45.0221" y1="24.5201" x2="34.2703" y2="13.4582" gradientUnits="userSpaceOnUse">
<stop stop-color="white"/>
<stop offset="1" stop-color="white" stop-opacity="0"/>
</linearGradient>
<linearGradient id="paint4_linear_719_1382" x1="36.0832" y1="53.2562" x2="46.8361" y2="64.3181" gradientUnits="userSpaceOnUse">
<stop stop-color="white"/>
<stop offset="1"/>
</linearGradient>
<linearGradient id="paint5_linear_719_1382" x1="36.0812" y1="53.2559" x2="46.8341" y2="64.3178" gradientUnits="userSpaceOnUse">
<stop stop-color="white"/>
<stop offset="1" stop-color="white" stop-opacity="0"/>
</linearGradient>
<linearGradient id="paint6_linear_719_1382" x1="25.7714" y1="43.2314" x2="15.0161" y2="32.1716" gradientUnits="userSpaceOnUse">
<stop stop-color="white"/>
<stop offset="1"/>
</linearGradient>
<linearGradient id="paint7_linear_719_1382" x1="25.7734" y1="43.2314" x2="15.0181" y2="32.1716" gradientUnits="userSpaceOnUse">
<stop stop-color="white"/>
<stop offset="1" stop-color="white" stop-opacity="0"/>
</linearGradient>
<linearGradient id="paint8_linear_719_1382" x1="17.5545" y1="31.7955" x2="34.4973" y2="49.2221" gradientUnits="userSpaceOnUse">
<stop stop-color="white"/>
<stop offset="1"/>
</linearGradient>
<linearGradient id="paint9_linear_719_1382" x1="17.5525" y1="31.7955" x2="34.4954" y2="49.2221" gradientUnits="userSpaceOnUse">
<stop stop-color="white"/>
<stop offset="1" stop-color="white"/>
</linearGradient>
<linearGradient id="paint10_linear_719_1382" x1="25.5865" y1="39.0191" x2="35.5073" y2="50.324" gradientUnits="userSpaceOnUse">
<stop stop-color="#061D44"/>
<stop offset="0.494792" stop-color="#061D44" stop-opacity="0"/>
</linearGradient>
<linearGradient id="paint11_linear_719_1382" x1="39.8122" y1="54.005" x2="29.8914" y2="42.7002" gradientUnits="userSpaceOnUse">
<stop stop-color="#061D44"/>
<stop offset="0.494792" stop-color="#061D44" stop-opacity="0"/>
</linearGradient>
<linearGradient id="paint12_linear_719_1382" x1="33.2553" y1="16.5286" x2="50.1993" y2="33.9554" gradientUnits="userSpaceOnUse">
<stop stop-color="white"/>
<stop offset="1"/>
</linearGradient>
<linearGradient id="paint13_linear_719_1382" x1="33.2533" y1="16.5286" x2="50.1973" y2="33.9554" gradientUnits="userSpaceOnUse">
<stop stop-color="white"/>
<stop offset="1" stop-color="white"/>
</linearGradient>
<linearGradient id="paint14_linear_719_1382" x1="55.517" y1="38.7397" x2="45.5933" y2="27.4573" gradientUnits="userSpaceOnUse">
<stop stop-color="#061D44"/>
<stop offset="0.494792" stop-color="#061D44" stop-opacity="0"/>
</linearGradient>
<linearGradient id="paint15_linear_719_1382" x1="41.3228" y1="23.7538" x2="51.2466" y2="35.0361" gradientUnits="userSpaceOnUse">
<stop stop-color="#061D44"/>
<stop offset="0.494792" stop-color="#061D44" stop-opacity="0"/>
</linearGradient>
</defs>
</svg>
