<svg width="22" height="21" viewBox="0 0 22 21" fill="none" xmlns="http://www.w3.org/2000/svg">
<path d="M5.93721 12.3192L4.9159 11.383C4.70005 11.1851 4.69086 10.8478 4.89563 10.6385L10.8713 4.53003C11.0674 4.32961 11.3873 4.32146 11.5933 4.51163L14.7189 7.39681C14.9277 7.58949 15.2526 7.57822 15.4475 7.37152L19.6096 2.95716C19.8229 2.731 20.1858 2.74212 20.3848 2.98091L21.197 3.95552C21.3686 4.16143 21.3549 4.46422 21.1653 4.65375L15.1566 10.6625C14.9572 10.8618 14.6351 10.8653 14.4316 10.6702L11.5952 7.952C11.3895 7.75485 11.0632 7.76076 10.8647 7.96522L6.65929 12.2981C6.46395 12.4994 6.14396 12.5087 5.93721 12.3192Z" fill="#242220" fill-opacity="0.58"/>
<path d="M2.51369 0H1.01827C0.732047 0 0.500019 0.231576 0.500019 0.517796V18.4681C0.500019 20.017 1.59222 20.4043 2.13832 20.4043H20.2371C20.5233 20.4043 20.7553 20.1722 20.7553 19.886V18.3906C20.7553 18.1044 20.5233 17.8723 20.2371 17.8723H3.55018C3.26396 17.8723 3.03193 17.6403 3.03193 17.3541V0.518248C3.03193 0.232028 2.79991 0 2.51369 0Z" fill="#242220" fill-opacity="0.58"/>
</svg>
