<svg width="146" height="25" viewBox="0 0 146 25" fill="none" xmlns="http://www.w3.org/2000/svg">
<path d="M21.4147 14.9467C20.9787 15.2132 20.47 15.2616 20.0824 15.0436C19.5979 14.7529 19.3072 14.0988 19.3072 13.2025V10.4651C19.3072 9.15698 18.7984 8.21221 17.9264 7.96996C16.4486 7.53391 15.3343 9.35077 14.9225 10.0291L12.3062 14.22V9.06007C12.282 7.87306 11.8944 7.17054 11.1676 6.95252C10.6831 6.80717 9.9564 6.87985 9.25388 7.94574L3.4157 17.2965C2.6405 15.8188 2.22868 14.1715 2.22868 12.5C2.22868 6.85562 6.75872 2.27713 12.3062 2.27713C17.8537 2.27713 22.3837 6.85562 22.3837 12.5V12.5242V12.5485C22.4322 13.6386 22.093 14.5107 21.4147 14.9467ZM24.6124 12.5V12.4758V12.4515C24.5882 5.59593 19.0649 0 12.3062 0C5.52325 0 0 5.59593 0 12.5C0 19.3798 5.52325 25 12.3062 25C15.4312 25 18.3866 23.813 20.6638 21.657C21.124 21.2209 21.1483 20.5184 20.7122 20.0581C20.3004 19.5979 19.5979 19.5736 19.1376 19.9855C19.1376 19.9855 19.1376 19.9855 19.1134 20.0097C17.2723 21.7539 14.8014 22.7471 12.2578 22.7471C9.2781 22.7471 6.61337 21.4389 4.77229 19.3556L10.0291 10.9254V14.8256C10.0291 16.6909 10.7558 17.2965 11.3614 17.4661C11.9671 17.6357 12.8876 17.5145 13.8808 15.9399L16.7636 11.2645C16.8605 11.1192 16.9331 10.9738 17.03 10.8769V13.251C17.03 14.9952 17.7326 16.4002 18.9438 17.0785C20.0339 17.7083 21.4147 17.6357 22.5533 16.9331C23.9583 16.0126 24.7093 14.4138 24.6124 12.5ZM41.7636 8.23643C42.0543 8.40601 42.3207 8.81783 42.3207 9.1812C42.3207 9.76259 41.8362 10.2471 41.2791 10.2471C41.1337 10.2471 41.0126 10.1986 40.8915 10.1744C40.2374 9.68992 39.4138 9.375 38.5417 9.375C36.4826 9.375 35.0775 11.0465 35.0775 13.1298C35.0775 15.2132 36.5068 16.8605 38.5417 16.8605C39.5591 16.8605 40.4796 16.4486 41.1579 15.7946C41.3275 15.6735 41.5455 15.6008 41.7636 15.6008C42.3207 15.6008 42.7568 16.0368 42.7568 16.594C42.7568 16.9574 42.5388 17.2723 42.2723 17.4419C41.2791 18.2897 39.9467 18.8469 38.5659 18.8469C35.4167 18.8469 32.8488 16.2548 32.8488 13.0572C32.8488 9.85949 35.4167 7.26744 38.5659 7.26744C39.7287 7.24322 40.843 7.60659 41.7636 8.23643ZM47.5291 10.6589C49.6851 10.6589 51.4777 12.4758 51.4777 14.7287C51.4777 16.9574 49.6608 18.8711 47.5291 18.8711C45.2762 18.8711 43.4109 16.9816 43.4109 14.7287C43.4109 12.4758 45.2762 10.6589 47.5291 10.6589ZM47.5048 16.8605C48.4496 16.8605 49.249 15.9641 49.249 14.7529C49.249 13.5417 48.4496 12.7665 47.5048 12.7665C46.4874 12.7665 45.6395 13.5174 45.6395 14.7529C45.6395 15.9399 46.4874 16.8605 47.5048 16.8605ZM52.8343 17.6114V11.8944C52.8343 11.2645 53.3188 10.7558 53.9486 10.7558C54.5543 10.7558 55.063 11.2645 55.063 11.8944V17.6114C55.063 18.2413 54.5543 18.75 53.9486 18.75C53.343 18.75 52.8343 18.2171 52.8343 17.6114ZM52.6647 8.5998C52.6647 7.84884 53.2461 7.26744 53.9486 7.26744C54.6754 7.26744 55.2568 7.87306 55.2568 8.5998C55.2568 9.32655 54.6754 9.90794 53.9486 9.90794C53.2219 9.88372 52.6647 9.30232 52.6647 8.5998ZM59.3265 14.5107V17.6114C59.3265 18.2413 58.8178 18.75 58.2122 18.75C57.6066 18.75 57.0979 18.2413 57.0979 17.6114V11.6279C57.0979 11.1434 57.4855 10.7558 57.97 10.7558C58.4545 10.7558 58.8178 11.1676 58.8178 11.6279C59.7141 10.78 60.5136 10.6589 61.2645 10.6589C63.4932 10.6589 64.4864 12.3304 64.4864 14.2442V17.6114C64.4864 18.2413 63.9777 18.75 63.3721 18.75C62.7665 18.75 62.2577 18.2413 62.2577 17.6114V14.5107C62.2577 13.5417 62.1366 12.718 60.7316 12.718C59.7384 12.718 59.3265 13.5417 59.3265 14.5107ZM71.7054 15.6977C71.4389 15.6977 71.2694 15.5765 71.124 15.407L68.532 12.5969V17.6114C68.532 18.2413 68.0232 18.75 67.4176 18.75C66.812 18.75 66.3033 18.2413 66.3033 17.6114V7.67927C66.376 7.50969 66.5455 7.38857 66.7151 7.38857C66.9089 7.38857 67.0785 7.55814 67.1996 7.67927L71.342 12.3304C71.4632 12.4758 71.6085 12.5485 71.7054 12.5485C71.7781 12.5485 71.9477 12.4758 72.0688 12.3304L76.2112 7.67927C76.3324 7.55814 76.4777 7.38857 76.6957 7.38857C76.8895 7.38857 77.0591 7.50969 77.1076 7.67927V17.6114C77.1076 18.2413 76.6231 18.75 75.9932 18.75C75.3876 18.75 74.8789 18.2413 74.8789 17.6114V12.5969L72.2868 15.407C72.093 15.5765 71.9234 15.6977 71.7054 15.6977ZM82.4128 16.8605C83.406 16.8605 84.2539 15.9641 84.2539 14.7529C84.2539 13.5417 83.3818 12.7422 82.4128 12.7422C81.4438 12.7422 80.6444 13.5659 80.6444 14.7529C80.6444 15.9157 81.4196 16.8605 82.4128 16.8605ZM84.7868 17.8779L84.7384 17.6114C84.3023 18.4593 82.9215 18.8469 82.0494 18.8469C79.9661 18.8469 78.4157 16.9574 78.4157 14.7045C78.4157 12.4758 79.9903 10.6347 82.1705 10.6347C82.5339 10.6347 83.7936 10.7316 84.7626 11.8702L84.811 11.6037C84.811 11.1192 85.1744 10.7316 85.6589 10.7316C86.1434 10.7316 86.531 11.1434 86.531 11.6037V17.8537C86.531 18.3382 86.1434 18.7258 85.6589 18.7258C85.1502 18.75 84.7868 18.3382 84.7868 17.8779ZM92.6599 12.718H92.4176C91.0126 12.7907 90.7461 13.5901 90.7461 14.5107V17.6114C90.7461 18.2413 90.2374 18.75 89.6318 18.75C89.0262 18.75 88.5174 18.2413 88.5174 17.6114V11.6279C88.5174 11.1434 88.905 10.7558 89.3895 10.7558C89.874 10.7558 90.2374 11.1676 90.2374 11.6279C91.061 10.8527 91.7393 10.6831 92.4176 10.6589H92.6357C93.1686 10.6589 93.6531 11.1192 93.6531 11.7006C93.6773 12.2335 93.1928 12.718 92.6599 12.718ZM101.26 17.0785C101.357 17.2481 101.429 17.4176 101.429 17.6114C101.429 18.1928 100.896 18.7258 100.315 18.7258C99.9273 18.7258 99.5882 18.4351 99.3217 18.0959L96.7539 15.1163V17.5872C96.7539 18.2171 96.2451 18.7258 95.6395 18.7258C95.0339 18.7258 94.5252 18.2171 94.5252 17.5872V8.50291C94.5252 7.87306 95.0097 7.36434 95.6395 7.36434C96.2694 7.36434 96.7539 7.87306 96.7539 8.50291V14.1715L99.3217 11.3372C99.5882 11.0465 99.9031 10.7316 100.291 10.7316C100.848 10.7316 101.357 11.2403 101.357 11.8217C101.357 11.9913 101.308 12.1851 101.211 12.3304L99.1763 14.5591L101.26 17.0785ZM105.62 12.7422C105.015 12.7422 104.021 13.0572 104.021 14.0019H107.243C107.219 13.0572 106.202 12.7422 105.62 12.7422ZM108.527 15.4312H104.021C104.021 16.7636 105.305 16.9816 105.862 16.9816C106.274 16.9816 106.856 16.9089 107.316 16.6909C107.461 16.594 107.679 16.5213 107.897 16.5213C108.382 16.5213 108.794 16.9331 108.794 17.4419C108.794 17.781 108.576 18.0717 108.309 18.2413C107.631 18.75 106.734 18.8711 105.887 18.8711C103.634 18.8711 101.768 17.6599 101.768 14.8256C101.768 12.5969 102.907 10.6589 105.572 10.6589C107.728 10.6589 109.351 12.064 109.399 14.5591C109.399 15.0194 109.012 15.4312 108.527 15.4312ZM114.729 18.8469H114.123C112.427 18.8469 111.434 18.0959 111.434 15.4554V12.718H110.853C110.32 12.718 109.859 12.2335 109.859 11.7006C109.859 11.1192 110.344 10.6589 110.853 10.6589H111.434V8.55136C111.434 7.92152 111.919 7.41279 112.548 7.41279C113.154 7.41279 113.663 7.92152 113.663 8.55136V10.6589H114.583C115.116 10.6589 115.577 11.1192 115.577 11.7006C115.577 12.2335 115.092 12.718 114.583 12.718H113.663V15.0194C113.663 16.5455 113.735 16.8605 114.414 16.8605H114.729C115.262 16.8605 115.722 17.2965 115.722 17.8537C115.722 18.3866 115.262 18.8469 114.729 18.8469ZM125.509 8.23643C125.799 8.40601 126.066 8.81783 126.066 9.1812C126.066 9.76259 125.581 10.2471 125.024 10.2471C124.879 10.2471 124.758 10.1986 124.637 10.1744C123.983 9.68992 123.159 9.375 122.287 9.375C120.228 9.375 118.823 11.0465 118.823 13.1298C118.823 15.2132 120.252 16.8605 122.287 16.8605C123.304 16.8605 124.225 16.4486 124.903 15.7946C125.073 15.6735 125.291 15.6008 125.509 15.6008C126.066 15.6008 126.502 16.0368 126.502 16.594C126.502 16.9574 126.284 17.2723 126.017 17.4419C125.024 18.2897 123.692 18.8469 122.311 18.8469C119.162 18.8469 116.594 16.2548 116.594 13.0572C116.594 9.85949 119.162 7.26744 122.311 7.26744C123.474 7.24322 124.612 7.60659 125.509 8.23643ZM131.153 16.8605C132.146 16.8605 132.994 15.9641 132.994 14.7529C132.994 13.5417 132.122 12.7422 131.153 12.7422C130.16 12.7422 129.385 13.5659 129.385 14.7529C129.385 15.9157 130.184 16.8605 131.153 16.8605ZM133.527 17.8779L133.479 17.6114C133.043 18.4593 131.662 18.8469 130.79 18.8469C128.706 18.8469 127.156 16.9574 127.156 14.7045C127.156 12.4758 128.731 10.6347 130.911 10.6347C131.274 10.6347 132.534 10.7316 133.503 11.8702L133.551 11.6037C133.551 11.1192 133.915 10.7316 134.399 10.7316C134.884 10.7316 135.271 11.1434 135.271 11.6037V17.8537C135.271 18.3382 134.884 18.7258 134.399 18.7258C133.89 18.75 133.527 18.3382 133.527 17.8779ZM141.352 16.8605C142.345 16.8605 143.12 15.9157 143.12 14.7529C143.12 13.5417 142.321 12.7422 141.352 12.7422C140.359 12.7422 139.511 13.5417 139.511 14.7529C139.511 15.9641 140.359 16.8605 141.352 16.8605ZM139.511 18.1928V21.0271C139.511 21.657 139.002 22.1657 138.396 22.1657C137.791 22.1657 137.282 21.657 137.282 21.0271V11.6279C137.282 11.1434 137.67 10.7558 138.154 10.7558C138.639 10.7558 139.002 11.1676 139.002 11.7248C139.826 10.8769 140.843 10.6589 141.618 10.6589C143.774 10.6589 145.373 12.4758 145.373 14.7287C145.373 16.9574 143.847 18.8711 141.739 18.8711C141.085 18.8469 140.116 18.6531 139.511 18.1928Z" fill="#17181B"/>
</svg>
