<svg width="120" height="25" viewBox="0 0 120 25" fill="none" xmlns="http://www.w3.org/2000/svg">
<path d="M40.1286 10.2812C39.7662 8.83147 38.8375 7.78949 37.0027 7.78949C34.3072 7.78949 33.1972 10.1679 33.1972 12.569C33.1972 14.9701 34.3298 17.3485 37.0027 17.3485C38.9508 17.3485 40.0154 15.8988 40.1966 14.064H42.3485C42.1673 17.0767 40.038 19.138 37.0027 19.138C33.2425 19.138 31 16.148 31 12.569C31 8.99003 33.2425 6 37.0027 6C39.8342 6.02265 42.054 7.58563 42.3259 10.2812H40.1286ZM43.6623 14.2905C43.6623 11.5044 45.3385 9.51101 48.238 9.51101C51.1374 9.51101 52.8136 11.5044 52.8136 14.2905C52.8136 17.0767 51.1374 19.0927 48.238 19.0927C45.3385 19.0927 43.6623 17.0767 43.6623 14.2905ZM50.8202 14.2905C50.8202 12.7276 50.0274 11.0966 48.238 11.0966C46.4485 11.0966 45.6557 12.7276 45.6557 14.2905C45.6557 15.8535 46.4485 17.5071 48.238 17.5071C50.0274 17.5071 50.8202 15.8761 50.8202 14.2905ZM54.5351 6.29448H56.5285V8.19722H54.5351V6.29448ZM54.5351 9.76019H56.5285V18.8435H54.5351V9.76019ZM58.7257 9.76019H60.6284V11.0966L60.6737 11.1419C61.2627 10.1453 62.3273 9.51102 63.5052 9.53367C65.4759 9.53367 66.7218 10.5983 66.7218 12.6143V18.8435H64.7284V13.1353C64.6831 11.7082 64.1395 11.0966 62.9616 11.0966C61.6251 11.0966 60.7643 12.1386 60.7643 13.4751V18.8435H58.771V9.76019H58.7257ZM80.041 18.8435H78.6366L78.2968 17.3712C77.1189 18.7076 76.0543 19.138 74.5139 19.138C70.7538 19.138 68.5112 16.148 68.5112 12.569C68.5112 8.99003 70.7538 6 74.5139 6C77.2548 6 79.5653 7.44971 79.8824 10.2812H77.7305C77.5266 8.6276 76.0769 7.78949 74.4913 7.78949C71.7957 7.78949 70.6858 10.1679 70.6858 12.569C70.6858 14.9701 71.8184 17.3485 74.4913 17.3485C76.7338 17.3938 77.9797 16.0347 78.0023 13.9055H74.6725V12.2292H80.0183L80.041 18.8435ZM83.7105 14.8115C83.7105 16.2386 84.4807 17.5071 86.1569 17.5071C87.3122 17.5071 88.0144 17.0087 88.3768 15.9894H90.2795C89.8492 17.9828 88.1503 19.0927 86.1569 19.0927C83.3028 19.0927 81.7172 17.0993 81.7172 14.3132C81.7172 11.7309 83.4161 9.51101 86.1116 9.51101C88.9657 9.51101 90.7326 12.0933 90.3928 14.8115H83.7105ZM88.3768 13.4977C88.3088 12.2292 87.4481 11.0966 86.089 11.0966C84.7072 11.0966 83.7558 12.1386 83.6879 13.4977H88.3768ZM98.0491 12.7955C97.8905 11.6856 97.0751 11.0966 95.9651 11.0966C94.9231 11.0966 93.4734 11.6403 93.4734 14.4038C93.4734 15.9215 94.1303 17.5071 95.8745 17.5071C97.0297 17.5071 97.8452 16.7369 98.0264 15.4231H100.02C99.6573 17.7789 98.2076 19.07 95.8519 19.07C92.9977 19.07 91.4348 17.054 91.4348 14.3811C91.4348 11.6403 92.9298 9.48837 95.9198 9.48837C98.0264 9.48837 99.8159 10.553 100.02 12.7729H98.0491V12.7955ZM101.741 6.29448H103.735V13.4298L107.359 9.76019H109.828L106.34 13.09L110.145 18.8435H107.699L104.913 14.4264L103.712 15.5817V18.8435H101.719V6.29448H101.741ZM110.689 14.2905C110.689 11.5044 112.365 9.51101 115.264 9.51101C118.186 9.51101 119.84 11.5044 119.84 14.2905C119.84 17.0767 118.164 19.0927 115.264 19.0927C112.365 19.0927 110.689 17.0767 110.689 14.2905ZM117.869 14.2905C117.869 12.7276 117.077 11.0966 115.287 11.0966C113.498 11.0966 112.705 12.7276 112.705 14.2905C112.705 15.8535 113.498 17.5071 115.287 17.5071C117.077 17.5071 117.869 15.8761 117.869 14.2905Z" fill="black"/>
<path d="M24.9851 12.4466C25.0008 17.504 21.9916 22.073 17.3281 24.0267C12.6646 25.9803 7.29205 24.9405 3.69987 21.3798C0.107693 17.8191 -0.979413 12.4466 0.926961 7.76733C2.83334 3.08805 7.38658 0.0315437 12.4282 3.33915e-05C19.3447 -0.0157218 24.9536 5.54585 24.9851 12.4466Z" fill="#8DC63F"/>
<path d="M24.0571 12.4466C24.0728 17.1259 21.2841 21.3483 16.9672 23.1601C12.6503 24.9719 7.68744 23.9951 4.36311 20.7181C1.03877 17.4252 0.0304359 12.4623 1.79501 8.14544C3.55959 3.81277 7.76622 0.992592 12.4297 0.961082C18.8263 0.929571 24.0255 6.06575 24.0571 12.4466Z" fill="#F9E988"/>
<path d="M12.7109 1.70195C13.4514 1.57591 14.1919 1.57591 14.9324 1.70195C15.6729 1.81224 16.3976 2.06432 17.0594 2.41094C17.7211 2.7733 18.2883 3.26171 18.8554 3.71861C19.4226 4.17551 19.9898 4.64817 20.5255 5.16809C21.0769 5.67226 21.5496 6.2552 21.9435 6.8854C22.3531 7.51561 22.684 8.19308 22.936 8.8863C23.4244 10.3043 23.582 11.8325 23.3457 13.282H23.2669C23.0306 11.8325 22.6997 10.4618 22.1798 9.15414C21.9435 8.49243 21.6441 7.84646 21.329 7.23201C20.9824 6.61756 20.62 6.00311 20.2104 5.43593C19.8008 4.85298 19.2808 4.33307 18.6979 3.90768C18.115 3.48229 17.4375 3.21445 16.7915 2.96237C16.1456 2.71029 15.4838 2.44245 14.8064 2.23763C14.1289 2.04857 13.4357 1.89102 12.7109 1.74922V1.70195Z" fill="white"/>
<path d="M18.3524 8.36638C17.5174 8.13005 16.6509 7.78344 15.7686 7.43682C15.7213 7.21625 15.5165 6.94841 15.1226 6.6018C14.5554 6.09763 13.4683 6.11339 12.5388 6.33396C11.5147 6.09763 10.4906 6.0031 9.51378 6.23943C1.52592 8.44515 6.04765 13.8019 3.11719 19.2059C3.52682 20.0882 8.0328 25.2559 14.5397 23.8695C14.5397 23.8695 12.3182 18.5285 17.3441 15.9604C21.4247 13.8807 24.3551 10.0049 18.3524 8.36638Z" fill="#8BC53F"/>
<path d="M12.5391 6.33392C13.122 6.38118 15.2332 7.05865 15.7689 7.43678C15.312 6.1291 13.7995 5.95579 12.5391 6.33392Z" fill="#009345"/>
<path d="M19.3482 11.8797C19.3482 12.3051 18.8282 12.5257 18.5289 12.2264C18.2295 11.927 18.4344 11.4071 18.8597 11.3913C19.1276 11.4071 19.3482 11.6119 19.3482 11.8797ZM13.0934 9.65826C13.0934 10.5563 12.5419 11.3756 11.7069 11.7222C10.8719 12.0688 9.91082 11.8797 9.26486 11.2338C8.61889 10.5878 8.42983 9.62675 8.77645 8.79173C9.12306 7.95671 9.94233 7.40527 10.8404 7.40527C11.4391 7.40527 12.0063 7.6416 12.4159 8.05124C12.857 8.49238 13.0934 9.05957 13.0934 9.65826Z" fill="white"/>
<path d="M12.427 9.6733C12.427 10.3035 12.0489 10.8864 11.4502 11.1228C10.8672 11.3591 10.1898 11.2331 9.73286 10.7762C9.27596 10.3193 9.14992 9.65754 9.38624 9.05885C9.62257 8.47591 10.2055 8.08203 10.8357 8.08203C11.718 8.09779 12.427 8.80676 12.427 9.6733Z" fill="#58595B"/>
<path d="M21.1579 12.8723C19.346 14.1485 17.2821 15.1096 14.3674 15.1096C12.9967 15.1096 12.7289 13.6601 11.8151 14.3691C11.3424 14.7314 9.70389 15.5507 8.39621 15.5034C7.08853 15.4404 4.97734 14.6684 4.3944 11.8955C4.15807 14.6842 4.04778 16.7323 2.99219 19.0799C5.07187 22.42 10.0347 24.988 14.5407 23.8852C14.0523 20.4978 17.0143 17.1892 18.6686 15.5034C19.3145 14.8417 20.5277 13.8019 21.1579 12.8723Z" fill="#8BC53F"/>
<path d="M21.0774 12.9512C20.5103 13.4711 19.8485 13.8492 19.1711 14.1801C18.4778 14.5109 17.7689 14.763 17.0284 14.9678C16.2879 15.1569 15.5159 15.2987 14.7439 15.2357C13.9561 15.1726 13.1684 14.9048 12.6484 14.3219L12.6799 14.2904C13.3102 14.7 14.0506 14.8418 14.7754 14.8733C15.5159 14.8891 16.2564 14.8418 16.9811 14.7C17.7058 14.5424 18.4306 14.3219 19.1238 14.0383C19.817 13.7547 20.4945 13.4238 21.0932 12.9512H21.0774Z" fill="#58595B"/>
</svg>
