<svg width="385" height="183" viewBox="0 0 385 183" fill="none" xmlns="http://www.w3.org/2000/svg">
<g filter="url(#filter0_d_688_1846)">
<path d="M9.5 50C9.5 31.1438 9.5 21.7157 15.3579 15.8579C21.2157 10 30.6438 10 49.5 10H341.5C360.356 10 369.784 10 375.642 15.8579C381.5 21.7157 381.5 31.1438 381.5 50V181H9.5V50Z" fill="url(#paint0_linear_688_1846)" shape-rendering="crispEdges"/>
<circle cx="195.5" cy="67" r="32" fill="#1CBF67"/>
<path d="M211.133 55.8C210.2 54.8667 208.8 54.8667 207.867 55.8L190.367 73.3L183.133 66.0667C182.2 65.1333 180.8 65.1333 179.867 66.0667C178.933 67 178.933 68.4 179.867 69.3333L188.733 78.2C189.2 78.6667 189.667 78.9 190.367 78.9C191.067 78.9 191.533 78.6667 192 78.2L211.133 59.0667C212.067 58.1333 212.067 56.7333 211.133 55.8Z" fill="white"/>
<path d="M87.4842 149V132.536H96.2202C97.1322 132.536 97.9322 132.704 98.6202 133.04C99.3082 133.36 99.8442 133.824 100.228 134.432C100.628 135.04 100.828 135.752 100.828 136.568C100.828 137.192 100.708 137.76 100.468 138.272C100.244 138.784 99.9242 139.216 99.5082 139.568C99.1082 139.92 98.6522 140.184 98.1402 140.36V140.456C98.7322 140.584 99.2602 140.824 99.7242 141.176C100.204 141.512 100.58 141.96 100.852 142.52C101.14 143.064 101.284 143.72 101.284 144.488C101.284 145.528 101.052 146.384 100.588 147.056C100.14 147.728 99.5402 148.224 98.7882 148.544C98.0362 148.848 97.1802 149 96.2202 149H87.4842ZM90.1722 146.696H96.0042C96.7402 146.696 97.3402 146.504 97.8042 146.12C98.2842 145.72 98.5242 145.08 98.5242 144.2C98.5242 143.672 98.4202 143.224 98.2122 142.856C98.0202 142.472 97.7242 142.184 97.3242 141.992C96.9242 141.784 96.4202 141.68 95.8122 141.68H90.1722V146.696ZM90.1722 139.424H95.5962C96.1082 139.424 96.5482 139.328 96.9162 139.136C97.2842 138.944 97.5642 138.672 97.7562 138.32C97.9642 137.968 98.0682 137.576 98.0682 137.144C98.0682 136.36 97.8522 135.784 97.4202 135.416C97.0042 135.032 96.4522 134.84 95.7642 134.84H90.1722V139.424ZM109.489 149.288C108.177 149.288 107.065 149.056 106.153 148.592C105.257 148.112 104.577 147.384 104.113 146.408C103.665 145.432 103.441 144.192 103.441 142.688C103.441 141.168 103.665 139.928 104.113 138.968C104.577 137.992 105.257 137.272 106.153 136.808C107.065 136.328 108.177 136.088 109.489 136.088C110.833 136.088 111.953 136.328 112.849 136.808C113.745 137.272 114.417 137.992 114.865 138.968C115.329 139.928 115.561 141.168 115.561 142.688C115.561 144.192 115.329 145.432 114.865 146.408C114.417 147.384 113.745 148.112 112.849 148.592C111.953 149.056 110.833 149.288 109.489 149.288ZM109.489 147.224C110.289 147.224 110.945 147.072 111.457 146.768C111.969 146.448 112.345 145.968 112.585 145.328C112.841 144.688 112.969 143.88 112.969 142.904V142.472C112.969 141.496 112.841 140.688 112.585 140.048C112.345 139.408 111.969 138.936 111.457 138.632C110.945 138.312 110.289 138.152 109.489 138.152C108.705 138.152 108.057 138.312 107.545 138.632C107.033 138.936 106.649 139.408 106.393 140.048C106.153 140.688 106.033 141.496 106.033 142.472V142.904C106.033 143.88 106.153 144.688 106.393 145.328C106.649 145.968 107.033 146.448 107.545 146.768C108.057 147.072 108.705 147.224 109.489 147.224ZM118.219 149V136.376H120.283L120.499 138.416H120.643C120.787 138.016 120.971 137.64 121.195 137.288C121.435 136.936 121.739 136.648 122.107 136.424C122.491 136.2 122.955 136.088 123.499 136.088C123.755 136.088 123.979 136.112 124.171 136.16C124.379 136.208 124.539 136.248 124.651 136.28V138.632H123.811C123.299 138.632 122.843 138.712 122.443 138.872C122.059 139.032 121.731 139.272 121.459 139.592C121.203 139.896 121.011 140.272 120.883 140.72C120.771 141.168 120.715 141.672 120.715 142.232V149H118.219ZM126.629 149V136.376H128.693L128.909 138.416H129.053C129.197 138.016 129.381 137.64 129.605 137.288C129.845 136.936 130.149 136.648 130.517 136.424C130.901 136.2 131.365 136.088 131.909 136.088C132.165 136.088 132.389 136.112 132.581 136.16C132.789 136.208 132.949 136.248 133.061 136.28V138.632H132.221C131.709 138.632 131.253 138.712 130.853 138.872C130.469 139.032 130.141 139.272 129.869 139.592C129.613 139.896 129.421 140.272 129.293 140.72C129.181 141.168 129.125 141.672 129.125 142.232V149H126.629ZM140.181 149.288C138.869 149.288 137.757 149.056 136.845 148.592C135.949 148.112 135.269 147.384 134.805 146.408C134.357 145.432 134.133 144.192 134.133 142.688C134.133 141.168 134.357 139.928 134.805 138.968C135.269 137.992 135.949 137.272 136.845 136.808C137.757 136.328 138.869 136.088 140.181 136.088C141.525 136.088 142.645 136.328 143.541 136.808C144.437 137.272 145.109 137.992 145.557 138.968C146.021 139.928 146.253 141.168 146.253 142.688C146.253 144.192 146.021 145.432 145.557 146.408C145.109 147.384 144.437 148.112 143.541 148.592C142.645 149.056 141.525 149.288 140.181 149.288ZM140.181 147.224C140.981 147.224 141.637 147.072 142.149 146.768C142.661 146.448 143.037 145.968 143.277 145.328C143.533 144.688 143.661 143.88 143.661 142.904V142.472C143.661 141.496 143.533 140.688 143.277 140.048C143.037 139.408 142.661 138.936 142.149 138.632C141.637 138.312 140.981 138.152 140.181 138.152C139.397 138.152 138.749 138.312 138.237 138.632C137.725 138.936 137.341 139.408 137.085 140.048C136.845 140.688 136.725 141.496 136.725 142.472V142.904C136.725 143.88 136.845 144.688 137.085 145.328C137.341 145.968 137.725 146.448 138.237 146.768C138.749 147.072 139.397 147.224 140.181 147.224ZM151.216 149L147.424 136.376H150.016L151.864 143.288C151.96 143.624 152.04 143.976 152.104 144.344C152.184 144.712 152.256 145.04 152.32 145.328C152.384 145.616 152.432 145.816 152.464 145.928H152.608C152.672 145.64 152.744 145.312 152.824 144.944C152.904 144.576 152.976 144.24 153.04 143.936C153.104 143.616 153.152 143.376 153.184 143.216L154.864 136.376H157.552L159.28 143.24C159.344 143.496 159.408 143.792 159.472 144.128C159.552 144.448 159.624 144.768 159.688 145.088C159.768 145.408 159.824 145.688 159.856 145.928H160C160.048 145.704 160.104 145.44 160.168 145.136C160.248 144.816 160.328 144.496 160.408 144.176C160.488 143.856 160.56 143.56 160.624 143.288L162.448 136.376H164.824L161.056 149H158.464L156.928 142.712C156.864 142.408 156.784 142.056 156.688 141.656C156.592 141.256 156.504 140.856 156.424 140.456C156.344 140.056 156.28 139.704 156.232 139.4H156.088C156.056 139.576 156.008 139.832 155.944 140.168C155.896 140.504 155.824 140.888 155.728 141.32C155.632 141.752 155.52 142.216 155.392 142.712L153.808 149H151.216ZM166.743 134.192V131.648H169.239V134.192H166.743ZM166.743 149V136.376H169.239V149H166.743ZM172.575 149V136.376H174.639L174.855 138.176H175.023C175.327 137.712 175.687 137.328 176.103 137.024C176.519 136.72 176.975 136.488 177.471 136.328C177.983 136.168 178.543 136.088 179.151 136.088C179.951 136.088 180.655 136.232 181.263 136.52C181.871 136.792 182.343 137.24 182.679 137.864C183.031 138.488 183.207 139.328 183.207 140.384V149H180.711V140.768C180.711 140.288 180.647 139.888 180.519 139.568C180.407 139.248 180.239 138.992 180.015 138.8C179.791 138.608 179.527 138.472 179.223 138.392C178.919 138.312 178.583 138.272 178.215 138.272C177.639 138.272 177.111 138.416 176.631 138.704C176.167 138.976 175.791 139.36 175.503 139.856C175.215 140.352 175.071 140.936 175.071 141.608V149H172.575ZM188.558 153.368C187.982 153.368 187.438 153.248 186.926 153.008C186.43 152.768 186.03 152.424 185.726 151.976C185.422 151.528 185.27 150.984 185.27 150.344C185.27 149.64 185.462 149.072 185.846 148.64C186.246 148.192 186.71 147.856 187.238 147.632C186.854 147.456 186.542 147.2 186.302 146.864C186.078 146.528 185.966 146.144 185.966 145.712C185.966 145.12 186.182 144.64 186.614 144.272C187.046 143.904 187.55 143.664 188.126 143.552C187.566 143.184 187.126 142.72 186.806 142.16C186.502 141.6 186.35 140.968 186.35 140.264C186.35 139.416 186.55 138.688 186.95 138.08C187.35 137.456 187.942 136.968 188.726 136.616C189.526 136.264 190.494 136.088 191.63 136.088C192.126 136.088 192.59 136.128 193.022 136.208C193.47 136.272 193.87 136.368 194.222 136.496C194.782 136.208 195.182 135.864 195.422 135.464C195.662 135.048 195.806 134.664 195.854 134.312H198.302C198.302 134.84 198.19 135.32 197.966 135.752C197.758 136.168 197.462 136.52 197.078 136.808C196.71 137.08 196.262 137.272 195.734 137.384C196.134 137.752 196.43 138.184 196.622 138.68C196.83 139.16 196.934 139.688 196.934 140.264C196.934 141.096 196.742 141.824 196.358 142.448C195.974 143.072 195.39 143.56 194.606 143.912C193.838 144.264 192.886 144.44 191.75 144.44H189.782C189.398 144.44 189.086 144.52 188.846 144.68C188.622 144.84 188.51 145.08 188.51 145.4C188.51 145.672 188.622 145.896 188.846 146.072C189.07 146.248 189.366 146.336 189.734 146.336H195.062C195.99 146.336 196.758 146.648 197.366 147.272C197.974 147.88 198.278 148.664 198.278 149.624C198.278 150.328 198.094 150.96 197.726 151.52C197.374 152.096 196.87 152.544 196.214 152.864C195.574 153.2 194.83 153.368 193.982 153.368H188.558ZM189.374 151.52H193.958C194.294 151.52 194.598 151.456 194.87 151.328C195.142 151.2 195.358 151.016 195.518 150.776C195.678 150.552 195.758 150.296 195.758 150.008C195.758 149.528 195.606 149.152 195.302 148.88C195.014 148.608 194.654 148.472 194.222 148.472H189.374C188.926 148.472 188.55 148.624 188.246 148.928C187.942 149.216 187.79 149.576 187.79 150.008C187.79 150.456 187.934 150.816 188.222 151.088C188.526 151.376 188.91 151.52 189.374 151.52ZM191.654 142.64C192.598 142.64 193.302 142.432 193.766 142.016C194.23 141.584 194.462 141 194.462 140.264C194.462 139.512 194.23 138.936 193.766 138.536C193.302 138.12 192.598 137.912 191.654 137.912C190.71 137.912 190.006 138.12 189.542 138.536C189.078 138.936 188.846 139.512 188.846 140.264C188.846 140.744 188.942 141.168 189.134 141.536C189.342 141.888 189.654 142.16 190.07 142.352C190.502 142.544 191.03 142.64 191.654 142.64ZM210.368 149.288C209.104 149.288 208.048 149.056 207.2 148.592C206.352 148.112 205.712 147.384 205.28 146.408C204.864 145.432 204.656 144.192 204.656 142.688C204.656 141.184 204.872 139.952 205.304 138.992C205.736 138.016 206.376 137.288 207.224 136.808C208.088 136.328 209.144 136.088 210.392 136.088C211.256 136.088 212.008 136.2 212.648 136.424C213.288 136.632 213.832 136.952 214.28 137.384C214.728 137.8 215.056 138.32 215.264 138.944C215.488 139.568 215.6 140.28 215.6 141.08H213.08C213.08 140.408 212.984 139.856 212.792 139.424C212.6 138.992 212.304 138.672 211.904 138.464C211.504 138.24 210.984 138.128 210.344 138.128C209.672 138.128 209.104 138.288 208.64 138.608C208.176 138.912 207.824 139.384 207.584 140.024C207.344 140.648 207.224 141.472 207.224 142.496V142.904C207.224 143.88 207.336 144.696 207.56 145.352C207.8 145.992 208.152 146.472 208.616 146.792C209.096 147.096 209.704 147.248 210.44 147.248C211.08 147.248 211.592 147.136 211.976 146.912C212.376 146.672 212.672 146.336 212.864 145.904C213.072 145.456 213.176 144.92 213.176 144.296H215.6C215.6 145.048 215.488 145.728 215.264 146.336C215.056 146.944 214.728 147.472 214.28 147.92C213.848 148.352 213.304 148.688 212.648 148.928C211.992 149.168 211.232 149.288 210.368 149.288ZM223.615 149.288C222.303 149.288 221.191 149.056 220.279 148.592C219.383 148.112 218.703 147.384 218.239 146.408C217.791 145.432 217.567 144.192 217.567 142.688C217.567 141.168 217.791 139.928 218.239 138.968C218.703 137.992 219.383 137.272 220.279 136.808C221.191 136.328 222.303 136.088 223.615 136.088C224.959 136.088 226.079 136.328 226.975 136.808C227.871 137.272 228.543 137.992 228.991 138.968C229.455 139.928 229.687 141.168 229.687 142.688C229.687 144.192 229.455 145.432 228.991 146.408C228.543 147.384 227.871 148.112 226.975 148.592C226.079 149.056 224.959 149.288 223.615 149.288ZM223.615 147.224C224.415 147.224 225.071 147.072 225.583 146.768C226.095 146.448 226.471 145.968 226.711 145.328C226.967 144.688 227.095 143.88 227.095 142.904V142.472C227.095 141.496 226.967 140.688 226.711 140.048C226.471 139.408 226.095 138.936 225.583 138.632C225.071 138.312 224.415 138.152 223.615 138.152C222.831 138.152 222.183 138.312 221.671 138.632C221.159 138.936 220.775 139.408 220.519 140.048C220.279 140.688 220.159 141.496 220.159 142.472V142.904C220.159 143.88 220.279 144.688 220.519 145.328C220.775 145.968 221.159 146.448 221.671 146.768C222.183 147.072 222.831 147.224 223.615 147.224ZM232.345 149V136.376H234.409L234.625 138.176H234.793C235.081 137.712 235.409 137.328 235.777 137.024C236.161 136.72 236.585 136.488 237.049 136.328C237.529 136.168 238.041 136.088 238.585 136.088C239.369 136.088 240.049 136.248 240.625 136.568C241.217 136.888 241.665 137.424 241.969 138.176H242.137C242.425 137.728 242.761 137.352 243.145 137.048C243.529 136.728 243.961 136.488 244.441 136.328C244.937 136.168 245.465 136.088 246.025 136.088C246.777 136.088 247.441 136.224 248.017 136.496C248.593 136.752 249.049 137.192 249.385 137.816C249.721 138.424 249.889 139.24 249.889 140.264V149H247.393V140.72C247.393 140.24 247.337 139.848 247.225 139.544C247.113 139.224 246.961 138.976 246.769 138.8C246.577 138.608 246.345 138.472 246.073 138.392C245.801 138.312 245.505 138.272 245.185 138.272C244.657 138.272 244.185 138.416 243.769 138.704C243.353 138.976 243.017 139.36 242.761 139.856C242.505 140.352 242.377 140.936 242.377 141.608V149H239.881V140.72C239.881 140.24 239.825 139.848 239.713 139.544C239.601 139.224 239.449 138.976 239.257 138.8C239.065 138.608 238.833 138.472 238.561 138.392C238.289 138.312 238.001 138.272 237.697 138.272C237.169 138.272 236.689 138.416 236.257 138.704C235.825 138.976 235.481 139.36 235.225 139.856C234.969 140.352 234.841 140.936 234.841 141.608V149H232.345ZM253.107 153.152V136.376H255.147L255.363 138.104H255.531C255.963 137.432 256.515 136.928 257.187 136.592C257.859 136.256 258.611 136.088 259.443 136.088C260.483 136.088 261.371 136.32 262.107 136.784C262.859 137.248 263.435 137.968 263.835 138.944C264.235 139.92 264.435 141.184 264.435 142.736C264.435 144.24 264.227 145.48 263.811 146.456C263.411 147.416 262.843 148.128 262.107 148.592C261.371 149.056 260.523 149.288 259.563 149.288C259.003 149.288 258.483 149.224 258.003 149.096C257.523 148.968 257.091 148.768 256.707 148.496C256.339 148.224 256.019 147.88 255.747 147.464H255.603V153.152H253.107ZM258.699 147.128C259.451 147.128 260.059 146.984 260.523 146.696C260.987 146.392 261.323 145.928 261.531 145.304C261.755 144.68 261.867 143.888 261.867 142.928V142.496C261.867 141.488 261.755 140.672 261.531 140.048C261.307 139.424 260.963 138.968 260.499 138.68C260.051 138.392 259.467 138.248 258.747 138.248C258.011 138.248 257.411 138.416 256.947 138.752C256.483 139.072 256.139 139.552 255.915 140.192C255.707 140.832 255.603 141.608 255.603 142.52V142.856C255.603 143.608 255.675 144.256 255.819 144.8C255.963 145.344 256.171 145.792 256.443 146.144C256.715 146.48 257.043 146.728 257.427 146.888C257.811 147.048 258.235 147.128 258.699 147.128ZM267.118 149V131.648H269.614V149H267.118ZM278.182 149.288C276.886 149.288 275.798 149.056 274.918 148.592C274.054 148.112 273.398 147.384 272.95 146.408C272.502 145.432 272.278 144.192 272.278 142.688C272.278 141.168 272.502 139.928 272.95 138.968C273.398 137.992 274.062 137.272 274.942 136.808C275.822 136.328 276.918 136.088 278.23 136.088C279.43 136.088 280.43 136.32 281.23 136.784C282.046 137.232 282.662 137.92 283.078 138.848C283.494 139.776 283.702 140.944 283.702 142.352V143.312H274.846C274.878 144.208 275.014 144.96 275.254 145.568C275.494 146.16 275.854 146.6 276.334 146.888C276.83 147.16 277.454 147.296 278.206 147.296C278.67 147.296 279.086 147.24 279.454 147.128C279.822 147 280.134 146.824 280.39 146.6C280.646 146.36 280.846 146.08 280.99 145.76C281.134 145.424 281.206 145.048 281.206 144.632H283.654C283.654 145.384 283.526 146.048 283.27 146.624C283.014 147.2 282.638 147.688 282.142 148.088C281.662 148.472 281.086 148.768 280.414 148.976C279.742 149.184 278.998 149.288 278.182 149.288ZM274.894 141.488H281.086C281.086 140.864 281.014 140.344 280.87 139.928C280.742 139.496 280.55 139.144 280.294 138.872C280.038 138.6 279.734 138.408 279.382 138.296C279.03 138.168 278.63 138.104 278.182 138.104C277.51 138.104 276.934 138.224 276.454 138.464C275.99 138.704 275.63 139.08 275.374 139.592C275.118 140.088 274.958 140.72 274.894 141.488ZM289.497 149.288C288.777 149.288 288.209 149.152 287.793 148.88C287.393 148.592 287.105 148.232 286.929 147.8C286.769 147.352 286.689 146.88 286.689 146.384V138.44H285.105V136.376H286.737L287.193 132.848H289.185V136.376H291.465V138.44H289.185V146.096C289.185 146.464 289.265 146.744 289.425 146.936C289.585 147.128 289.849 147.224 290.217 147.224H291.465V148.904C291.305 148.968 291.105 149.024 290.865 149.072C290.641 149.136 290.409 149.184 290.169 149.216C289.929 149.264 289.705 149.288 289.497 149.288ZM299.011 149.288C297.715 149.288 296.627 149.056 295.747 148.592C294.883 148.112 294.227 147.384 293.779 146.408C293.331 145.432 293.107 144.192 293.107 142.688C293.107 141.168 293.331 139.928 293.779 138.968C294.227 137.992 294.891 137.272 295.771 136.808C296.651 136.328 297.747 136.088 299.059 136.088C300.259 136.088 301.259 136.32 302.059 136.784C302.875 137.232 303.491 137.92 303.907 138.848C304.323 139.776 304.531 140.944 304.531 142.352V143.312H295.675C295.707 144.208 295.843 144.96 296.083 145.568C296.323 146.16 296.683 146.6 297.163 146.888C297.659 147.16 298.283 147.296 299.035 147.296C299.499 147.296 299.915 147.24 300.283 147.128C300.651 147 300.963 146.824 301.219 146.6C301.475 146.36 301.675 146.08 301.819 145.76C301.963 145.424 302.035 145.048 302.035 144.632H304.483C304.483 145.384 304.355 146.048 304.099 146.624C303.843 147.2 303.467 147.688 302.971 148.088C302.491 148.472 301.915 148.768 301.243 148.976C300.571 149.184 299.827 149.288 299.011 149.288ZM295.723 141.488H301.915C301.915 140.864 301.843 140.344 301.699 139.928C301.571 139.496 301.379 139.144 301.123 138.872C300.867 138.6 300.563 138.408 300.211 138.296C299.859 138.168 299.459 138.104 299.011 138.104C298.339 138.104 297.763 138.224 297.283 138.464C296.819 138.704 296.459 139.08 296.203 139.592C295.947 140.088 295.787 140.72 295.723 141.488Z" fill="white" fill-opacity="0.9"/>
<path d="M49.5 11H341.5C350.956 11 357.948 11.0021 363.312 11.7233C368.648 12.4406 372.223 13.8528 374.935 16.565C377.647 19.2771 379.059 22.8524 379.777 28.1878C380.498 33.552 380.5 40.5436 380.5 50V180H10.5V50C10.5 40.5436 10.5021 33.552 11.2233 28.1878C11.9406 22.8524 13.3528 19.2771 16.065 16.565C18.7771 13.8528 22.3524 12.4406 27.6878 11.7233C33.052 11.0021 40.0436 11 49.5 11Z" stroke="white" stroke-width="2" shape-rendering="crispEdges"/>
</g>
<defs>
<filter id="filter0_d_688_1846" x="0.5" y="0" width="384" height="183" filterUnits="userSpaceOnUse" color-interpolation-filters="sRGB">
<feFlood flood-opacity="0" result="BackgroundImageFix"/>
<feColorMatrix in="SourceAlpha" type="matrix" values="0 0 0 0 0 0 0 0 0 0 0 0 0 0 0 0 0 0 127 0" result="hardAlpha"/>
<feOffset dx="-3" dy="-4"/>
<feGaussianBlur stdDeviation="3"/>
<feComposite in2="hardAlpha" operator="out"/>
<feColorMatrix type="matrix" values="0 0 0 0 0 0 0 0 0 0 0 0 0 0 0 0 0 0 0.12 0"/>
<feBlend mode="normal" in2="BackgroundImageFix" result="effect1_dropShadow_688_1846"/>
<feBlend mode="normal" in="SourceGraphic" in2="effect1_dropShadow_688_1846" result="shape"/>
</filter>
<linearGradient id="paint0_linear_688_1846" x1="195.5" y1="10" x2="213.43" y2="214.311" gradientUnits="userSpaceOnUse">
<stop stop-color="#202C2E"/>
<stop offset="1" stop-color="#252C32"/>
</linearGradient>
</defs>
</svg>
