<svg width="71" height="71" viewBox="0 0 71 71" fill="none" xmlns="http://www.w3.org/2000/svg">
<path d="M53.3109 5.50001C36.5788 -4.16028 15.1603 1.57879 5.5 18.3109C-4.16029 35.043 1.5788 56.4615 18.3109 66.1218C35.043 75.7821 56.4615 70.043 66.1218 53.3109C75.7821 36.5788 70.043 15.1603 53.3109 5.50001ZM50.827 9.8022C54.1759 11.7357 56.9688 14.2933 59.2388 17.1358L48.5679 17.1023C48.0983 15.2341 47.5286 13.4548 46.9108 11.8434C46.2343 10.0513 45.429 8.51079 44.5652 7.09954C46.6944 7.75846 48.8104 8.63788 50.827 9.8022ZM37.1331 6.19819C37.622 6.48045 38.2345 6.91555 38.8215 7.56411C39.9885 8.87343 41.0632 10.879 42.0995 13.6285C42.487 14.6507 42.7791 15.8949 43.1064 17.0779L28.5425 17.0131C28.8715 15.8505 29.169 14.686 29.5516 13.6846C30.5826 10.9392 31.6966 8.812 32.856 7.50953C34.0154 6.20706 34.9939 5.81056 35.7904 5.8141C36.1825 5.81235 36.6442 5.91593 37.1331 6.19819ZM62.5773 22.1921C64.3421 25.6555 65.4806 29.4416 65.8047 33.3117L50.5261 33.3557C50.4352 29.3921 50.144 25.6062 49.5818 22.1202L62.5773 22.1921ZM26.9057 7.20296C26.0768 8.58217 25.4171 10.0917 24.7564 11.8287C24.1631 13.3928 23.5884 15.0655 23.1374 16.891L12.5643 16.9139C16.3803 12.2238 21.3839 8.92012 26.9057 7.20296ZM44.2746 22.0546C44.8842 25.4865 45.2545 29.2203 45.3731 33.2487L26.2992 33.3178C26.4242 29.2345 26.7545 25.4163 27.3861 21.9514L44.2746 22.0546ZM65.7542 38.3669C65.422 42.2166 64.3332 46.1346 62.4406 49.7515L49.5016 49.5818C50.0913 46.0764 50.4217 42.2583 50.532 38.3132L65.7542 38.3669ZM22.1202 22.04C21.5304 25.5453 21.2001 29.3635 21.0898 33.3086L5.86758 33.2549C6.19982 29.4052 7.28857 25.4872 9.18122 21.8703L22.1202 22.04ZM45.3226 38.304C45.1976 42.3873 44.8672 46.2055 44.2356 49.6704L27.3472 49.5672C26.7376 46.1352 26.3673 42.4015 26.2487 38.3731L45.3226 38.304ZM59.0575 54.7079C55.2415 59.398 50.2379 62.7017 44.7161 64.4188C45.545 63.0396 46.2047 61.5301 46.8654 59.7931C47.4587 58.229 48.0333 56.5563 48.4844 54.7308L59.0575 54.7079ZM21.0957 38.2661C21.1866 42.2297 21.4778 46.0156 22.04 49.5016L9.04451 49.4297C7.27966 45.9663 6.14118 42.1802 5.81707 38.3101L21.0957 38.2661ZM43.0793 54.6087C42.7503 55.7713 42.4528 56.9358 42.0702 57.9372C41.0392 60.6826 39.9252 62.8098 38.7658 64.1123C37.6064 65.4147 36.6278 65.8112 35.8314 65.8077C35.0349 65.8041 33.9673 65.367 32.8003 64.0577C31.6333 62.7484 30.5586 60.7427 29.5223 57.9933C29.1348 56.9711 28.8427 55.7269 28.5154 54.5439L43.0793 54.6087ZM23.0539 54.5195C23.5235 56.3877 24.0932 58.167 24.711 59.7784C25.3875 61.5705 26.1928 63.111 27.0565 64.5223C24.9274 63.8633 22.8114 62.9839 20.7948 61.8196C17.4459 59.8861 14.653 57.3285 12.383 54.486L23.0539 54.5195Z" fill="#17CDF7"/>
</svg>
