<svg width="433" height="202" viewBox="0 0 433 202" fill="none" xmlns="http://www.w3.org/2000/svg">
<g filter="url(#filter0_d_688_1861)">
<path d="M9.5 50C9.5 31.1438 9.5 21.7157 15.3579 15.8579C21.2157 10 30.6438 10 49.5 10H389.5C408.356 10 417.784 10 423.642 15.8579C429.5 21.7157 429.5 31.1438 429.5 50V181H9.5V50Z" fill="url(#paint0_linear_688_1861)" shape-rendering="crispEdges"/>
<rect x="41" y="20" width="358" height="161" rx="8" fill="white" fill-opacity="0.03"/>
<rect x="60.5" y="38" width="318" height="85" rx="8" fill="url(#paint1_linear_688_1861)"/>
<circle cx="102.5" cy="81" r="18" fill="#FF9F38"/>
<path fill-rule="evenodd" clip-rule="evenodd" d="M110.705 78.0456C111.064 75.6815 109.236 74.4104 106.739 73.5623L107.549 70.3591L105.572 69.8741L104.782 72.9927C104.273 72.8668 103.751 72.7495 103.23 72.6325L103.197 72.625L103.992 69.4861L102.014 69L101.204 72.202L101.117 72.1826C100.717 72.0923 100.323 72.0035 99.9404 71.9088L99.9427 71.8986L97.2141 71.2276L96.6876 73.3096C96.6876 73.3096 98.156 73.6412 98.1251 73.6615C98.9263 73.8589 99.0705 74.3811 99.0465 74.7962L98.124 78.4448C98.1789 78.4584 98.2499 78.4787 98.33 78.5091L98.1205 78.4584L96.8272 83.5699C96.7288 83.809 96.4804 84.1688 95.9196 84.0323C95.9402 84.0605 94.482 83.6793 94.482 83.6793L93.5 85.9102L96.0752 86.543C96.3517 86.6114 96.6252 86.6818 96.8958 86.7514L96.8959 86.7514C97.0935 86.8022 97.2895 86.8526 97.4842 86.9016L96.6658 90.1409L98.6424 90.6259L99.4528 87.4227C99.993 87.566 100.517 87.6991 101.03 87.8254L100.222 91.015L102.2 91.5L103.018 88.2675C106.392 88.8969 108.928 88.6431 109.996 85.6362C110.857 83.2157 109.954 81.8183 108.179 80.9081C109.472 80.6149 110.445 79.7769 110.705 78.0456ZM106.184 84.2917C105.624 86.5131 102.096 85.5948 100.481 85.1745L100.481 85.1744C100.336 85.1365 100.206 85.1027 100.095 85.0756L101.182 80.784C101.317 80.8174 101.483 80.854 101.67 80.8954C103.34 81.2652 106.759 82.022 106.184 84.2917ZM102.005 78.9033C103.351 79.2573 106.285 80.0293 106.796 78.0106C107.319 75.9459 104.466 75.324 103.073 75.0203C102.916 74.9861 102.777 74.9559 102.664 74.9281L101.68 78.8193C101.773 78.8422 101.883 78.871 102.005 78.9033Z" fill="white"/>
<path d="M131.34 75V66.36H134.706C135.222 66.36 135.662 66.466 136.026 66.678C136.394 66.89 136.674 67.17 136.866 67.518C137.062 67.862 137.16 68.234 137.16 68.634C137.16 69.102 137.04 69.512 136.8 69.864C136.56 70.216 136.236 70.458 135.828 70.59L135.816 70.296C136.372 70.444 136.804 70.716 137.112 71.112C137.42 71.508 137.574 71.98 137.574 72.528C137.574 73.032 137.47 73.468 137.262 73.836C137.058 74.204 136.762 74.49 136.374 74.694C135.99 74.898 135.534 75 135.006 75H131.34ZM132.42 73.98H134.802C135.122 73.98 135.408 73.922 135.66 73.806C135.912 73.686 136.11 73.518 136.254 73.302C136.402 73.086 136.476 72.826 136.476 72.522C136.476 72.23 136.41 71.968 136.278 71.736C136.15 71.504 135.968 71.32 135.732 71.184C135.5 71.044 135.23 70.974 134.922 70.974H132.42V73.98ZM132.42 69.966H134.694C134.95 69.966 135.18 69.912 135.384 69.804C135.592 69.692 135.756 69.536 135.876 69.336C136 69.136 136.062 68.902 136.062 68.634C136.062 68.262 135.936 67.958 135.684 67.722C135.432 67.486 135.102 67.368 134.694 67.368H132.42V69.966ZM141.53 75.18C140.886 75.18 140.33 75.034 139.862 74.742C139.398 74.45 139.04 74.046 138.788 73.53C138.536 73.014 138.41 72.422 138.41 71.754C138.41 71.074 138.538 70.478 138.794 69.966C139.05 69.454 139.412 69.056 139.88 68.772C140.348 68.484 140.898 68.34 141.53 68.34C142.178 68.34 142.736 68.486 143.204 68.778C143.672 69.066 144.03 69.468 144.278 69.984C144.53 70.496 144.656 71.086 144.656 71.754C144.656 72.43 144.53 73.026 144.278 73.542C144.026 74.054 143.666 74.456 143.198 74.748C142.73 75.036 142.174 75.18 141.53 75.18ZM141.53 74.166C142.202 74.166 142.702 73.942 143.03 73.494C143.358 73.046 143.522 72.466 143.522 71.754C143.522 71.022 143.356 70.44 143.024 70.008C142.692 69.572 142.194 69.354 141.53 69.354C141.078 69.354 140.706 69.456 140.414 69.66C140.122 69.864 139.904 70.146 139.76 70.506C139.616 70.866 139.544 71.282 139.544 71.754C139.544 72.482 139.712 73.066 140.048 73.506C140.384 73.946 140.878 74.166 141.53 74.166ZM145.977 75V68.52H146.931V70.086L146.775 69.882C146.851 69.682 146.949 69.498 147.069 69.33C147.193 69.162 147.331 69.024 147.483 68.916C147.651 68.78 147.841 68.676 148.053 68.604C148.265 68.532 148.481 68.49 148.701 68.478C148.921 68.462 149.127 68.476 149.319 68.52V69.522C149.095 69.462 148.849 69.446 148.581 69.474C148.313 69.502 148.065 69.6 147.837 69.768C147.629 69.916 147.467 70.096 147.351 70.308C147.239 70.52 147.161 70.75 147.117 70.998C147.073 71.242 147.051 71.492 147.051 71.748V75H145.977ZM150.453 75V68.52H151.407V70.086L151.251 69.882C151.327 69.682 151.425 69.498 151.545 69.33C151.669 69.162 151.807 69.024 151.959 68.916C152.127 68.78 152.317 68.676 152.529 68.604C152.741 68.532 152.957 68.49 153.177 68.478C153.397 68.462 153.603 68.476 153.795 68.52V69.522C153.571 69.462 153.325 69.446 153.057 69.474C152.789 69.502 152.541 69.6 152.313 69.768C152.105 69.916 151.943 70.096 151.827 70.308C151.715 70.52 151.637 70.75 151.593 70.998C151.549 71.242 151.527 71.492 151.527 71.748V75H150.453ZM157.573 75.18C156.929 75.18 156.373 75.034 155.905 74.742C155.441 74.45 155.083 74.046 154.831 73.53C154.579 73.014 154.453 72.422 154.453 71.754C154.453 71.074 154.581 70.478 154.837 69.966C155.093 69.454 155.455 69.056 155.923 68.772C156.391 68.484 156.941 68.34 157.573 68.34C158.221 68.34 158.779 68.486 159.247 68.778C159.715 69.066 160.073 69.468 160.321 69.984C160.573 70.496 160.699 71.086 160.699 71.754C160.699 72.43 160.573 73.026 160.321 73.542C160.069 74.054 159.709 74.456 159.241 74.748C158.773 75.036 158.217 75.18 157.573 75.18ZM157.573 74.166C158.245 74.166 158.745 73.942 159.073 73.494C159.401 73.046 159.565 72.466 159.565 71.754C159.565 71.022 159.399 70.44 159.067 70.008C158.735 69.572 158.237 69.354 157.573 69.354C157.121 69.354 156.749 69.456 156.457 69.66C156.165 69.864 155.947 70.146 155.803 70.506C155.659 70.866 155.587 71.282 155.587 71.754C155.587 72.482 155.755 73.066 156.091 73.506C156.427 73.946 156.921 74.166 157.573 74.166ZM163.165 75L161.185 68.514L162.247 68.52L163.693 73.26L165.151 68.52H166.093L167.545 73.26L168.997 68.52H170.053L168.073 75H167.185L165.619 70.074L164.053 75H163.165ZM173.711 75.18C173.075 75.18 172.519 75.04 172.043 74.76C171.571 74.476 171.203 74.082 170.939 73.578C170.675 73.07 170.543 72.478 170.543 71.802C170.543 71.094 170.673 70.482 170.933 69.966C171.193 69.446 171.555 69.046 172.019 68.766C172.487 68.482 173.035 68.34 173.663 68.34C174.315 68.34 174.869 68.49 175.325 68.79C175.785 69.09 176.129 69.518 176.357 70.074C176.589 70.63 176.689 71.292 176.657 72.06H175.577V71.676C175.565 70.88 175.403 70.286 175.091 69.894C174.779 69.498 174.315 69.3 173.699 69.3C173.039 69.3 172.537 69.512 172.193 69.936C171.849 70.36 171.677 70.968 171.677 71.76C171.677 72.524 171.849 73.116 172.193 73.536C172.537 73.956 173.027 74.166 173.663 74.166C174.091 74.166 174.463 74.068 174.779 73.872C175.095 73.676 175.343 73.394 175.523 73.026L176.549 73.38C176.297 73.952 175.917 74.396 175.409 74.712C174.905 75.024 174.339 75.18 173.711 75.18ZM171.317 72.06V71.202H176.105V72.06H171.317ZM180.536 75.18C179.932 75.18 179.414 75.03 178.982 74.73C178.55 74.426 178.216 74.016 177.98 73.5C177.748 72.984 177.632 72.402 177.632 71.754C177.632 71.106 177.748 70.524 177.98 70.008C178.216 69.492 178.55 69.086 178.982 68.79C179.414 68.49 179.93 68.34 180.53 68.34C181.142 68.34 181.656 68.488 182.072 68.784C182.488 69.08 182.802 69.486 183.014 70.002C183.23 70.518 183.338 71.102 183.338 71.754C183.338 72.398 183.23 72.98 183.014 73.5C182.802 74.016 182.488 74.426 182.072 74.73C181.656 75.03 181.144 75.18 180.536 75.18ZM180.668 74.202C181.104 74.202 181.462 74.098 181.742 73.89C182.022 73.678 182.228 73.388 182.36 73.02C182.496 72.648 182.564 72.226 182.564 71.754C182.564 71.274 182.496 70.852 182.36 70.488C182.228 70.12 182.024 69.834 181.748 69.63C181.472 69.422 181.122 69.318 180.698 69.318C180.258 69.318 179.894 69.426 179.606 69.642C179.322 69.858 179.11 70.15 178.97 70.518C178.834 70.886 178.766 71.298 178.766 71.754C178.766 72.214 178.836 72.63 178.976 73.002C179.116 73.37 179.326 73.662 179.606 73.878C179.89 74.094 180.244 74.202 180.668 74.202ZM182.564 75V70.23H182.444V66.36H183.518V75H182.564ZM189.444 75.18C188.96 75.18 188.554 75.092 188.226 74.916C187.902 74.736 187.656 74.5 187.488 74.208C187.324 73.916 187.242 73.596 187.242 73.248C187.242 72.908 187.306 72.614 187.434 72.366C187.566 72.114 187.75 71.906 187.986 71.742C188.222 71.574 188.504 71.442 188.832 71.346C189.14 71.262 189.484 71.19 189.864 71.13C190.248 71.066 190.636 71.008 191.028 70.956C191.42 70.904 191.786 70.854 192.126 70.806L191.742 71.028C191.754 70.452 191.638 70.026 191.394 69.75C191.154 69.474 190.738 69.336 190.146 69.336C189.754 69.336 189.41 69.426 189.114 69.606C188.822 69.782 188.616 70.07 188.496 70.47L187.482 70.164C187.638 69.596 187.94 69.15 188.388 68.826C188.836 68.502 189.426 68.34 190.158 68.34C190.746 68.34 191.25 68.446 191.67 68.658C192.094 68.866 192.398 69.182 192.582 69.606C192.674 69.806 192.732 70.024 192.756 70.26C192.78 70.492 192.792 70.736 192.792 70.992V75H191.844V73.446L192.066 73.59C191.822 74.114 191.48 74.51 191.04 74.778C190.604 75.046 190.072 75.18 189.444 75.18ZM189.606 74.286C189.99 74.286 190.322 74.218 190.602 74.082C190.886 73.942 191.114 73.76 191.286 73.536C191.458 73.308 191.57 73.06 191.622 72.792C191.682 72.592 191.714 72.37 191.718 72.126C191.726 71.878 191.73 71.688 191.73 71.556L192.102 71.718C191.754 71.766 191.412 71.812 191.076 71.856C190.74 71.9 190.422 71.948 190.122 72C189.822 72.048 189.552 72.106 189.312 72.174C189.136 72.23 188.97 72.302 188.814 72.39C188.662 72.478 188.538 72.592 188.442 72.732C188.35 72.868 188.304 73.038 188.304 73.242C188.304 73.418 188.348 73.586 188.436 73.746C188.528 73.906 188.668 74.036 188.856 74.136C189.048 74.236 189.298 74.286 189.606 74.286ZM196.8 75.174C196.028 75.174 195.394 75.006 194.898 74.67C194.406 74.33 194.104 73.856 193.992 73.248L195.084 73.074C195.172 73.426 195.374 73.706 195.69 73.914C196.006 74.118 196.398 74.22 196.866 74.22C197.31 74.22 197.658 74.128 197.91 73.944C198.162 73.76 198.288 73.51 198.288 73.194C198.288 73.01 198.246 72.862 198.162 72.75C198.078 72.634 197.904 72.526 197.64 72.426C197.38 72.326 196.986 72.206 196.458 72.066C195.886 71.914 195.436 71.756 195.108 71.592C194.78 71.428 194.546 71.238 194.406 71.022C194.266 70.806 194.196 70.544 194.196 70.236C194.196 69.856 194.3 69.524 194.508 69.24C194.716 68.952 195.006 68.73 195.378 68.574C195.754 68.418 196.19 68.34 196.686 68.34C197.178 68.34 197.618 68.418 198.006 68.574C198.394 68.73 198.706 68.952 198.942 69.24C199.182 69.524 199.324 69.856 199.368 70.236L198.276 70.434C198.224 70.086 198.056 69.812 197.772 69.612C197.492 69.412 197.13 69.306 196.686 69.294C196.266 69.278 195.924 69.352 195.66 69.516C195.4 69.68 195.27 69.902 195.27 70.182C195.27 70.338 195.318 70.472 195.414 70.584C195.514 70.696 195.696 70.802 195.96 70.902C196.228 71.002 196.616 71.116 197.124 71.244C197.696 71.388 198.146 71.546 198.474 71.718C198.806 71.886 199.042 72.086 199.182 72.318C199.322 72.546 199.392 72.828 199.392 73.164C199.392 73.788 199.162 74.28 198.702 74.64C198.242 74.996 197.608 75.174 196.8 75.174ZM203.163 75.174C202.391 75.174 201.757 75.006 201.261 74.67C200.769 74.33 200.467 73.856 200.355 73.248L201.447 73.074C201.535 73.426 201.737 73.706 202.053 73.914C202.369 74.118 202.761 74.22 203.229 74.22C203.673 74.22 204.021 74.128 204.273 73.944C204.525 73.76 204.651 73.51 204.651 73.194C204.651 73.01 204.609 72.862 204.525 72.75C204.441 72.634 204.267 72.526 204.003 72.426C203.743 72.326 203.349 72.206 202.821 72.066C202.249 71.914 201.799 71.756 201.471 71.592C201.143 71.428 200.909 71.238 200.769 71.022C200.629 70.806 200.559 70.544 200.559 70.236C200.559 69.856 200.663 69.524 200.871 69.24C201.079 68.952 201.369 68.73 201.741 68.574C202.117 68.418 202.553 68.34 203.049 68.34C203.541 68.34 203.981 68.418 204.369 68.574C204.757 68.73 205.069 68.952 205.305 69.24C205.545 69.524 205.687 69.856 205.731 70.236L204.639 70.434C204.587 70.086 204.419 69.812 204.135 69.612C203.855 69.412 203.493 69.306 203.049 69.294C202.629 69.278 202.287 69.352 202.023 69.516C201.763 69.68 201.633 69.902 201.633 70.182C201.633 70.338 201.681 70.472 201.777 70.584C201.877 70.696 202.059 70.802 202.323 70.902C202.591 71.002 202.979 71.116 203.487 71.244C204.059 71.388 204.509 71.546 204.837 71.718C205.169 71.886 205.405 72.086 205.545 72.318C205.685 72.546 205.755 72.828 205.755 73.164C205.755 73.788 205.525 74.28 205.065 74.64C204.605 74.996 203.971 75.174 203.163 75.174ZM209.886 75.18C209.25 75.18 208.694 75.04 208.218 74.76C207.746 74.476 207.378 74.082 207.114 73.578C206.85 73.07 206.718 72.478 206.718 71.802C206.718 71.094 206.848 70.482 207.108 69.966C207.368 69.446 207.73 69.046 208.194 68.766C208.662 68.482 209.21 68.34 209.838 68.34C210.49 68.34 211.044 68.49 211.5 68.79C211.96 69.09 212.304 69.518 212.532 70.074C212.764 70.63 212.864 71.292 212.832 72.06H211.752V71.676C211.74 70.88 211.578 70.286 211.266 69.894C210.954 69.498 210.49 69.3 209.874 69.3C209.214 69.3 208.712 69.512 208.368 69.936C208.024 70.36 207.852 70.968 207.852 71.76C207.852 72.524 208.024 73.116 208.368 73.536C208.712 73.956 209.202 74.166 209.838 74.166C210.266 74.166 210.638 74.068 210.954 73.872C211.27 73.676 211.518 73.394 211.698 73.026L212.724 73.38C212.472 73.952 212.092 74.396 211.584 74.712C211.08 75.024 210.514 75.18 209.886 75.18ZM207.492 72.06V71.202H212.28V72.06H207.492ZM217.786 75C217.402 75.076 217.022 75.106 216.646 75.09C216.274 75.078 215.942 75.004 215.65 74.868C215.358 74.728 215.136 74.512 214.984 74.22C214.856 73.964 214.786 73.706 214.774 73.446C214.766 73.182 214.762 72.884 214.762 72.552V66.72H215.83V72.504C215.83 72.768 215.832 72.994 215.836 73.182C215.844 73.37 215.886 73.532 215.962 73.668C216.106 73.924 216.334 74.074 216.646 74.118C216.962 74.162 217.342 74.15 217.786 74.082V75ZM213.448 69.402V68.52H217.786V69.402H213.448Z" fill="white" fill-opacity="0.6"/>
<path d="M135.092 94.192C134.505 94.192 133.972 94.1067 133.492 93.936C133.023 93.7547 132.623 93.4507 132.292 93.024C131.972 92.5973 131.721 92.0213 131.54 91.296C131.369 90.56 131.284 89.632 131.284 88.512C131.284 87.392 131.369 86.4693 131.54 85.744C131.721 85.008 131.972 84.4267 132.292 84C132.623 83.5733 133.023 83.2747 133.492 83.104C133.972 82.9227 134.505 82.832 135.092 82.832C135.689 82.832 136.223 82.9227 136.692 83.104C137.161 83.2747 137.556 83.5733 137.876 84C138.207 84.4267 138.457 85.008 138.628 85.744C138.809 86.4693 138.9 87.392 138.9 88.512C138.9 89.632 138.809 90.56 138.628 91.296C138.457 92.0213 138.207 92.5973 137.876 93.024C137.556 93.4507 137.161 93.7547 136.692 93.936C136.223 94.1067 135.689 94.192 135.092 94.192ZM135.092 92.816C135.657 92.816 136.084 92.672 136.372 92.384C136.671 92.0853 136.879 91.648 136.996 91.072C137.113 90.496 137.172 89.7813 137.172 88.928V88.144C137.172 87.2693 137.113 86.544 136.996 85.968C136.879 85.3813 136.671 84.944 136.372 84.656C136.084 84.3573 135.657 84.208 135.092 84.208C134.537 84.208 134.111 84.3573 133.812 84.656C133.513 84.944 133.305 85.376 133.188 85.952C133.071 86.528 133.012 87.248 133.012 88.112V88.896C133.012 89.7493 133.071 90.4693 133.188 91.056C133.305 91.6427 133.513 92.0853 133.812 92.384C134.111 92.672 134.537 92.816 135.092 92.816ZM141.096 94V92.144H142.872V94H141.096ZM148.921 94.192C148.153 94.192 147.476 94.048 146.889 93.76C146.313 93.472 145.865 93.0613 145.545 92.528C145.225 91.984 145.065 91.3387 145.065 90.592H146.777C146.777 91.0507 146.868 91.4507 147.049 91.792C147.23 92.1227 147.481 92.3787 147.801 92.56C148.132 92.7307 148.505 92.816 148.921 92.816C149.326 92.816 149.684 92.7307 149.993 92.56C150.313 92.3787 150.558 92.112 150.729 91.76C150.91 91.3973 151.001 90.9493 151.001 90.416C151.001 89.9253 150.916 89.52 150.745 89.2C150.585 88.8693 150.35 88.6293 150.041 88.48C149.742 88.32 149.396 88.24 149.001 88.24C148.713 88.24 148.441 88.288 148.185 88.384C147.929 88.4693 147.705 88.592 147.513 88.752C147.321 88.912 147.156 89.104 147.017 89.328L145.449 89.104L145.897 83.024H152.153V84.56H147.353L147.129 87.632C147.3 87.504 147.486 87.3813 147.689 87.264C147.902 87.1467 148.148 87.0507 148.425 86.976C148.713 86.9013 149.038 86.864 149.401 86.864C150.02 86.864 150.58 86.992 151.081 87.248C151.582 87.504 151.982 87.8933 152.281 88.416C152.58 88.928 152.729 89.5893 152.729 90.4C152.729 91.2 152.574 91.8827 152.265 92.448C151.956 93.0133 151.518 93.4453 150.953 93.744C150.388 94.0427 149.71 94.192 148.921 94.192ZM158.061 94.192C157.474 94.192 156.941 94.1067 156.461 93.936C155.991 93.7547 155.591 93.4507 155.261 93.024C154.941 92.5973 154.69 92.0213 154.509 91.296C154.338 90.56 154.253 89.632 154.253 88.512C154.253 87.392 154.338 86.4693 154.509 85.744C154.69 85.008 154.941 84.4267 155.261 84C155.591 83.5733 155.991 83.2747 156.461 83.104C156.941 82.9227 157.474 82.832 158.061 82.832C158.658 82.832 159.191 82.9227 159.661 83.104C160.13 83.2747 160.525 83.5733 160.845 84C161.175 84.4267 161.426 85.008 161.597 85.744C161.778 86.4693 161.869 87.392 161.869 88.512C161.869 89.632 161.778 90.56 161.597 91.296C161.426 92.0213 161.175 92.5973 160.845 93.024C160.525 93.4507 160.13 93.7547 159.661 93.936C159.191 94.1067 158.658 94.192 158.061 94.192ZM158.061 92.816C158.626 92.816 159.053 92.672 159.341 92.384C159.639 92.0853 159.847 91.648 159.965 91.072C160.082 90.496 160.141 89.7813 160.141 88.928V88.144C160.141 87.2693 160.082 86.544 159.965 85.968C159.847 85.3813 159.639 84.944 159.341 84.656C159.053 84.3573 158.626 84.208 158.061 84.208C157.506 84.208 157.079 84.3573 156.781 84.656C156.482 84.944 156.274 85.376 156.157 85.952C156.039 86.528 155.981 87.248 155.981 88.112V88.896C155.981 89.7493 156.039 90.4693 156.157 91.056C156.274 91.6427 156.482 92.0853 156.781 92.384C157.079 92.672 157.506 92.816 158.061 92.816ZM167.28 94.192C166.427 94.192 165.707 94.0587 165.12 93.792C164.544 93.5253 164.102 93.1467 163.792 92.656C163.494 92.1653 163.344 91.5893 163.344 90.928V90.72H165.024V90.96C165.024 91.5573 165.211 92.016 165.584 92.336C165.968 92.656 166.502 92.816 167.184 92.816C167.846 92.816 168.374 92.6667 168.768 92.368C169.174 92.0693 169.376 91.5893 169.376 90.928C169.376 90.448 169.27 90.08 169.056 89.824C168.843 89.5573 168.56 89.3707 168.208 89.264C167.856 89.1573 167.483 89.104 167.088 89.104H166.048V87.728H167.136C167.499 87.728 167.83 87.6693 168.128 87.552C168.438 87.424 168.683 87.2267 168.864 86.96C169.056 86.6827 169.152 86.3307 169.152 85.904C169.152 85.5093 169.067 85.1893 168.896 84.944C168.736 84.6987 168.512 84.5173 168.224 84.4C167.936 84.272 167.616 84.208 167.264 84.208C166.891 84.208 166.55 84.2773 166.24 84.416C165.942 84.544 165.707 84.736 165.536 84.992C165.366 85.248 165.28 85.5733 165.28 85.968V86.208H163.584V85.872C163.584 85.264 163.739 84.7307 164.048 84.272C164.368 83.8133 164.8 83.4613 165.344 83.216C165.899 82.96 166.528 82.832 167.232 82.832C167.947 82.832 168.576 82.9493 169.12 83.184C169.675 83.408 170.102 83.744 170.4 84.192C170.71 84.6293 170.864 85.168 170.864 85.808C170.864 86.256 170.784 86.64 170.624 86.96C170.464 87.28 170.246 87.5467 169.968 87.76C169.702 87.9733 169.403 88.1547 169.072 88.304V88.368C169.648 88.5387 170.128 88.848 170.512 89.296C170.907 89.744 171.104 90.3307 171.104 91.056C171.104 91.7067 170.939 92.2667 170.608 92.736C170.288 93.2053 169.84 93.568 169.264 93.824C168.688 94.0693 168.027 94.192 167.28 94.192ZM176.275 94.192C175.486 94.192 174.846 94.0427 174.355 93.744C173.865 93.4453 173.502 93.04 173.267 92.528C173.033 92.0053 172.915 91.424 172.915 90.784H174.611C174.611 91.2213 174.675 91.5947 174.803 91.904C174.931 92.2027 175.123 92.432 175.379 92.592C175.635 92.7413 175.961 92.816 176.355 92.816C176.953 92.816 177.401 92.6613 177.699 92.352C178.009 92.032 178.222 91.5787 178.339 90.992C178.457 90.4053 178.521 89.712 178.531 88.912C178.435 89.072 178.265 89.248 178.019 89.44C177.774 89.6213 177.475 89.776 177.123 89.904C176.771 90.0213 176.382 90.08 175.955 90.08C175.177 90.08 174.537 89.9253 174.035 89.616C173.534 89.296 173.161 88.864 172.915 88.32C172.67 87.7653 172.547 87.152 172.547 86.48C172.547 85.7333 172.707 85.088 173.027 84.544C173.347 84 173.785 83.5787 174.339 83.28C174.894 82.9813 175.518 82.832 176.211 82.832C176.841 82.832 177.406 82.9227 177.907 83.104C178.409 83.2853 178.835 83.584 179.187 84C179.539 84.4053 179.806 84.9547 179.987 85.648C180.169 86.3307 180.259 87.1787 180.259 88.192C180.259 89.312 180.169 90.2613 179.987 91.04C179.806 91.808 179.545 92.4267 179.203 92.896C178.873 93.3547 178.462 93.6853 177.971 93.888C177.481 94.0907 176.915 94.192 176.275 94.192ZM176.307 88.72C176.777 88.72 177.166 88.624 177.475 88.432C177.785 88.2293 178.014 87.9573 178.163 87.616C178.323 87.264 178.403 86.8747 178.403 86.448C178.403 86.032 178.329 85.6533 178.179 85.312C178.03 84.9707 177.801 84.704 177.491 84.512C177.182 84.3093 176.793 84.208 176.323 84.208C175.854 84.208 175.465 84.3147 175.155 84.528C174.857 84.7307 174.633 85.0027 174.483 85.344C174.334 85.6853 174.259 86.0693 174.259 86.496C174.259 86.912 174.334 87.2907 174.483 87.632C174.633 87.9627 174.857 88.2293 175.155 88.432C175.454 88.624 175.838 88.72 176.307 88.72ZM185.624 94V83.024H191.448C192.056 83.024 192.589 83.136 193.048 83.36C193.507 83.5733 193.864 83.8827 194.12 84.288C194.387 84.6933 194.52 85.168 194.52 85.712C194.52 86.128 194.44 86.5067 194.28 86.848C194.131 87.1893 193.917 87.4773 193.64 87.712C193.373 87.9467 193.069 88.1227 192.728 88.24V88.304C193.123 88.3893 193.475 88.5493 193.784 88.784C194.104 89.008 194.355 89.3067 194.536 89.68C194.728 90.0427 194.824 90.48 194.824 90.992C194.824 91.6853 194.669 92.256 194.36 92.704C194.061 93.152 193.661 93.4827 193.16 93.696C192.659 93.8987 192.088 94 191.448 94H185.624ZM187.416 92.464H191.304C191.795 92.464 192.195 92.336 192.504 92.08C192.824 91.8133 192.984 91.3867 192.984 90.8C192.984 90.448 192.915 90.1493 192.776 89.904C192.648 89.648 192.451 89.456 192.184 89.328C191.917 89.1893 191.581 89.12 191.176 89.12H187.416V92.464ZM187.416 87.616H191.032C191.373 87.616 191.667 87.552 191.912 87.424C192.157 87.296 192.344 87.1147 192.472 86.88C192.611 86.6453 192.68 86.384 192.68 86.096C192.68 85.5733 192.536 85.1893 192.248 84.944C191.971 84.688 191.603 84.56 191.144 84.56H187.416V87.616ZM199.547 94V84.56H195.915V83.024H205.003V84.56H201.339V94H199.547ZM211.017 94.192C209.897 94.192 208.942 93.9947 208.153 93.6C207.374 93.1947 206.777 92.5707 206.361 91.728C205.945 90.8853 205.737 89.8133 205.737 88.512C205.737 86.592 206.201 85.168 207.129 84.24C208.067 83.3013 209.369 82.832 211.033 82.832C211.95 82.832 212.771 82.9867 213.497 83.296C214.233 83.6053 214.809 84.0693 215.225 84.688C215.651 85.296 215.865 86.0747 215.865 87.024H214.041C214.041 86.4373 213.918 85.9467 213.673 85.552C213.427 85.1573 213.075 84.8587 212.617 84.656C212.169 84.4533 211.646 84.352 211.049 84.352C210.302 84.352 209.667 84.5013 209.145 84.8C208.633 85.088 208.243 85.5253 207.977 86.112C207.721 86.6987 207.593 87.4453 207.593 88.352V88.704C207.593 89.6107 207.721 90.3573 207.977 90.944C208.243 91.5307 208.633 91.968 209.145 92.256C209.657 92.5333 210.291 92.672 211.049 92.672C211.667 92.672 212.206 92.576 212.665 92.384C213.123 92.1813 213.475 91.8827 213.721 91.488C213.977 91.0933 214.105 90.6027 214.105 90.016H215.865C215.865 90.9653 215.651 91.7493 215.225 92.368C214.809 92.9867 214.233 93.4453 213.497 93.744C212.771 94.0427 211.945 94.192 211.017 94.192Z" fill="white" fill-opacity="0.9"/>
<rect x="270.5" y="67.5" width="84" height="26" rx="6" fill="#57B491" fill-opacity="0.21"/>
<path d="M281.71 85.668C281.282 85.668 280.884 85.59 280.516 85.434C280.148 85.274 279.83 85.05 279.562 84.762C279.298 84.47 279.104 84.124 278.98 83.724L280.006 83.43C280.138 83.83 280.358 84.134 280.666 84.342C280.974 84.55 281.32 84.652 281.704 84.648C282.056 84.64 282.36 84.56 282.616 84.408C282.876 84.252 283.076 84.04 283.216 83.772C283.36 83.504 283.432 83.194 283.432 82.842C283.432 82.306 283.272 81.872 282.952 81.54C282.632 81.204 282.212 81.036 281.692 81.036C281.548 81.036 281.396 81.056 281.236 81.096C281.08 81.136 280.934 81.192 280.798 81.264L280.282 80.418L283.486 77.52L283.624 77.88H279.322V76.86H284.416V77.886L281.686 80.502L281.674 80.124C282.246 80.084 282.746 80.178 283.174 80.406C283.602 80.634 283.934 80.96 284.17 81.384C284.41 81.808 284.53 82.294 284.53 82.842C284.53 83.394 284.406 83.882 284.158 84.306C283.91 84.73 283.574 85.064 283.15 85.308C282.726 85.548 282.246 85.668 281.71 85.668ZM285.85 85.494L285.856 84.534L289.69 81.084C290.01 80.796 290.224 80.524 290.332 80.268C290.444 80.008 290.5 79.742 290.5 79.47C290.5 79.138 290.424 78.838 290.272 78.57C290.12 78.302 289.912 78.09 289.648 77.934C289.388 77.778 289.092 77.7 288.76 77.7C288.416 77.7 288.11 77.782 287.842 77.946C287.574 78.106 287.362 78.32 287.206 78.588C287.054 78.856 286.98 79.148 286.984 79.464H285.892C285.892 78.92 286.018 78.44 286.27 78.024C286.522 77.604 286.864 77.276 287.296 77.04C287.732 76.8 288.226 76.68 288.778 76.68C289.314 76.68 289.794 76.804 290.218 77.052C290.642 77.296 290.976 77.63 291.22 78.054C291.468 78.474 291.592 78.95 291.592 79.482C291.592 79.858 291.544 80.184 291.448 80.46C291.356 80.736 291.212 80.992 291.016 81.228C290.82 81.46 290.574 81.708 290.278 81.972L287.092 84.834L286.954 84.474H291.592V85.494H285.85ZM293.22 85.5V84.324H294.396V85.5H293.22ZM299.208 85.68C298.66 85.68 298.162 85.548 297.714 85.284C297.27 85.02 296.916 84.66 296.652 84.204C296.392 83.744 296.262 83.226 296.262 82.65V79.776C296.262 79.172 296.392 78.638 296.652 78.174C296.916 77.706 297.276 77.342 297.732 77.082C298.192 76.818 298.716 76.686 299.304 76.686C299.78 76.686 300.222 76.784 300.63 76.98C301.042 77.172 301.388 77.45 301.668 77.814L300.87 78.522C300.698 78.27 300.474 78.07 300.198 77.922C299.922 77.774 299.624 77.7 299.304 77.7C298.924 77.7 298.586 77.792 298.29 77.976C297.998 78.156 297.768 78.396 297.6 78.696C297.432 78.992 297.348 79.312 297.348 79.656V81.39L297.114 81.126C297.366 80.766 297.686 80.478 298.074 80.262C298.462 80.046 298.882 79.938 299.334 79.938C299.87 79.938 300.35 80.064 300.774 80.316C301.202 80.568 301.538 80.91 301.782 81.342C302.03 81.77 302.154 82.252 302.154 82.788C302.154 83.324 302.02 83.81 301.752 84.246C301.484 84.682 301.126 85.03 300.678 85.29C300.234 85.55 299.744 85.68 299.208 85.68ZM299.208 84.648C299.552 84.648 299.866 84.566 300.15 84.402C300.434 84.234 300.658 84.01 300.822 83.73C300.99 83.446 301.074 83.132 301.074 82.788C301.074 82.444 300.99 82.13 300.822 81.846C300.658 81.562 300.434 81.338 300.15 81.174C299.87 81.006 299.558 80.922 299.214 80.922C298.87 80.922 298.556 81.006 298.272 81.174C297.992 81.338 297.768 81.562 297.6 81.846C297.432 82.13 297.348 82.444 297.348 82.788C297.348 83.128 297.43 83.44 297.594 83.724C297.762 84.004 297.986 84.228 298.266 84.396C298.55 84.564 298.864 84.648 299.208 84.648ZM306.271 85.68C305.827 85.68 305.413 85.588 305.029 85.404C304.649 85.22 304.323 84.968 304.051 84.648C303.783 84.324 303.591 83.952 303.475 83.532L304.501 83.256C304.573 83.54 304.701 83.786 304.885 83.994C305.069 84.198 305.283 84.358 305.527 84.474C305.775 84.586 306.033 84.642 306.301 84.642C306.653 84.642 306.969 84.558 307.249 84.39C307.533 84.218 307.757 83.992 307.921 83.712C308.085 83.428 308.167 83.118 308.167 82.782C308.167 82.434 308.081 82.12 307.909 81.84C307.741 81.556 307.515 81.332 307.231 81.168C306.947 81.004 306.637 80.922 306.301 80.922C305.921 80.922 305.595 81.002 305.323 81.162C305.055 81.318 304.843 81.51 304.687 81.738L303.739 81.378L304.003 76.86H308.641V77.874H304.519L304.993 77.43L304.771 81.048L304.537 80.742C304.777 80.486 305.063 80.288 305.395 80.148C305.731 80.008 306.073 79.938 306.421 79.938C306.957 79.938 307.437 80.064 307.861 80.316C308.285 80.564 308.621 80.904 308.869 81.336C309.117 81.764 309.241 82.246 309.241 82.782C309.241 83.314 309.105 83.8 308.833 84.24C308.561 84.676 308.199 85.026 307.747 85.29C307.299 85.55 306.807 85.68 306.271 85.68ZM311.636 85.5L310.916 84.78L318.848 76.86L319.568 77.58L311.636 85.5ZM317.768 85.68C317.372 85.68 317.01 85.584 316.682 85.392C316.358 85.196 316.098 84.936 315.902 84.612C315.706 84.284 315.608 83.92 315.608 83.52C315.608 83.128 315.708 82.768 315.908 82.44C316.108 82.112 316.372 81.85 316.7 81.654C317.028 81.458 317.384 81.36 317.768 81.36C318.164 81.36 318.526 81.458 318.854 81.654C319.182 81.846 319.442 82.106 319.634 82.434C319.83 82.758 319.928 83.12 319.928 83.52C319.928 83.92 319.83 84.284 319.634 84.612C319.442 84.936 319.182 85.196 318.854 85.392C318.526 85.584 318.164 85.68 317.768 85.68ZM317.768 84.738C317.988 84.738 318.19 84.682 318.374 84.57C318.562 84.458 318.71 84.31 318.818 84.126C318.93 83.942 318.986 83.74 318.986 83.52C318.986 83.3 318.93 83.098 318.818 82.914C318.71 82.726 318.562 82.578 318.374 82.47C318.19 82.358 317.988 82.302 317.768 82.302C317.548 82.302 317.346 82.358 317.162 82.47C316.978 82.578 316.83 82.726 316.718 82.914C316.606 83.098 316.55 83.3 316.55 83.52C316.55 83.74 316.606 83.942 316.718 84.126C316.83 84.31 316.978 84.458 317.162 84.57C317.346 84.682 317.548 84.738 317.768 84.738ZM312.716 81C312.32 81 311.958 80.904 311.63 80.712C311.302 80.516 311.04 80.256 310.844 79.932C310.652 79.604 310.556 79.24 310.556 78.84C310.556 78.448 310.656 78.088 310.856 77.76C311.056 77.432 311.32 77.17 311.648 76.974C311.976 76.778 312.332 76.68 312.716 76.68C313.112 76.68 313.472 76.778 313.796 76.974C314.124 77.166 314.386 77.426 314.582 77.754C314.778 78.078 314.876 78.44 314.876 78.84C314.876 79.24 314.778 79.604 314.582 79.932C314.386 80.256 314.124 80.516 313.796 80.712C313.472 80.904 313.112 81 312.716 81ZM312.716 80.058C312.936 80.058 313.138 80.002 313.322 79.89C313.51 79.778 313.658 79.63 313.766 79.446C313.878 79.262 313.934 79.06 313.934 78.84C313.934 78.62 313.878 78.418 313.766 78.234C313.658 78.046 313.51 77.898 313.322 77.79C313.138 77.678 312.936 77.622 312.716 77.622C312.496 77.622 312.294 77.678 312.11 77.79C311.926 77.898 311.778 78.046 311.666 78.234C311.554 78.418 311.498 78.62 311.498 78.84C311.498 79.06 311.554 79.262 311.666 79.446C311.778 79.63 311.926 79.778 312.11 79.89C312.294 80.002 312.496 80.058 312.716 80.058ZM323.295 85.5L326.187 76.86H327.675L330.567 85.5H329.457L326.751 77.484H327.087L324.405 85.5H323.295ZM324.687 83.478V82.476H329.175V83.478H324.687ZM331.641 85.5V76.86H335.055C335.139 76.86 335.239 76.864 335.355 76.872C335.471 76.876 335.583 76.888 335.691 76.908C336.159 76.98 336.551 77.14 336.867 77.388C337.187 77.636 337.427 77.95 337.587 78.33C337.747 78.706 337.827 79.124 337.827 79.584C337.827 80.04 337.745 80.458 337.581 80.838C337.421 81.214 337.181 81.528 336.861 81.78C336.545 82.028 336.155 82.188 335.691 82.26C335.583 82.276 335.471 82.288 335.355 82.296C335.239 82.304 335.139 82.308 335.055 82.308H332.709V85.5H331.641ZM332.709 81.294H335.019C335.095 81.294 335.181 81.29 335.277 81.282C335.377 81.274 335.471 81.26 335.559 81.24C335.835 81.176 336.059 81.06 336.231 80.892C336.407 80.72 336.535 80.52 336.615 80.292C336.695 80.06 336.735 79.824 336.735 79.584C336.735 79.344 336.695 79.11 336.615 78.882C336.535 78.65 336.407 78.448 336.231 78.276C336.059 78.104 335.835 77.988 335.559 77.928C335.471 77.904 335.377 77.89 335.277 77.886C335.181 77.878 335.095 77.874 335.019 77.874H332.709V81.294ZM339.024 85.5V76.86H342.438C342.522 76.86 342.622 76.864 342.738 76.872C342.854 76.876 342.966 76.888 343.074 76.908C343.542 76.98 343.934 77.14 344.25 77.388C344.57 77.636 344.81 77.95 344.97 78.33C345.13 78.706 345.21 79.124 345.21 79.584C345.21 80.252 345.036 80.832 344.688 81.324C344.34 81.812 343.83 82.118 343.158 82.242L342.75 82.308H340.092V85.5H339.024ZM344.166 85.5L342.462 81.984L343.518 81.66L345.39 85.5H344.166ZM340.092 81.294H342.402C342.478 81.294 342.564 81.29 342.66 81.282C342.76 81.274 342.854 81.26 342.942 81.24C343.218 81.176 343.442 81.06 343.614 80.892C343.79 80.72 343.918 80.52 343.998 80.292C344.078 80.06 344.118 79.824 344.118 79.584C344.118 79.344 344.078 79.11 343.998 78.882C343.918 78.65 343.79 78.448 343.614 78.276C343.442 78.104 343.218 77.988 342.942 77.928C342.854 77.904 342.76 77.89 342.66 77.886C342.564 77.878 342.478 77.874 342.402 77.874H340.092V81.294Z" fill="#6BE4B9"/>
<path opacity="0.6" d="M61.704 152V142.396H62.992L67.654 148.724C67.7007 148.78 67.7613 148.864 67.836 148.976C67.9107 149.088 67.9853 149.2 68.06 149.312C68.1347 149.415 68.1953 149.508 68.242 149.592H68.298C68.298 149.443 68.298 149.298 68.298 149.158C68.298 149.009 68.298 148.864 68.298 148.724V142.396H69.6V152H68.382L63.664 145.56C63.5987 145.457 63.5007 145.313 63.37 145.126C63.2487 144.939 63.146 144.79 63.062 144.678H62.992C62.992 144.827 62.992 144.977 62.992 145.126C62.992 145.266 62.992 145.411 62.992 145.56V152H61.704ZM74.7146 152.168C73.9866 152.168 73.3706 152.033 72.8666 151.762C72.3719 151.482 71.9939 151.057 71.7326 150.488C71.4806 149.919 71.3546 149.195 71.3546 148.318C71.3546 147.431 71.4806 146.708 71.7326 146.148C71.9939 145.579 72.3766 145.159 72.8806 144.888C73.3846 144.608 74.0146 144.468 74.7706 144.468C75.4613 144.468 76.0399 144.603 76.5066 144.874C76.9733 145.135 77.3233 145.532 77.5566 146.064C77.7993 146.587 77.9206 147.245 77.9206 148.038V148.626H72.6286C72.6473 149.214 72.7313 149.699 72.8806 150.082C73.0393 150.455 73.2726 150.731 73.5806 150.908C73.8886 151.076 74.2759 151.16 74.7426 151.16C75.0599 151.16 75.3353 151.123 75.5686 151.048C75.8113 150.964 76.0119 150.847 76.1706 150.698C76.3386 150.549 76.4646 150.371 76.5486 150.166C76.6326 149.961 76.6793 149.737 76.6886 149.494H77.8926C77.8833 149.886 77.8086 150.25 77.6686 150.586C77.5286 150.913 77.3233 151.193 77.0526 151.426C76.7819 151.659 76.4506 151.841 76.0586 151.972C75.6666 152.103 75.2186 152.168 74.7146 152.168ZM72.6566 147.702H76.6466C76.6466 147.291 76.5999 146.946 76.5066 146.666C76.4133 146.386 76.2779 146.157 76.1006 145.98C75.9326 145.803 75.7319 145.677 75.4986 145.602C75.2746 145.518 75.0179 145.476 74.7286 145.476C74.2993 145.476 73.9353 145.555 73.6366 145.714C73.3379 145.873 73.1093 146.115 72.9506 146.442C72.7919 146.769 72.6939 147.189 72.6566 147.702ZM81.1665 152.168C80.7838 152.168 80.4852 152.098 80.2705 151.958C80.0558 151.809 79.9018 151.617 79.8085 151.384C79.7152 151.141 79.6685 150.885 79.6685 150.614V145.672H78.7165V144.636H79.6965L79.9205 142.578H80.9005V144.636H82.2865V145.672H80.9005V150.432C80.9005 150.665 80.9425 150.843 81.0265 150.964C81.1105 151.076 81.2692 151.132 81.5025 151.132H82.2865V151.944C82.1932 151.991 82.0812 152.028 81.9505 152.056C81.8198 152.084 81.6845 152.107 81.5445 152.126C81.4138 152.154 81.2878 152.168 81.1665 152.168ZM85.0148 152L82.7888 144.636H84.0628L85.1828 148.682C85.2388 148.878 85.2901 149.093 85.3368 149.326C85.3928 149.55 85.4441 149.76 85.4908 149.956C85.5468 150.143 85.5841 150.287 85.6028 150.39H85.6868C85.7241 150.213 85.7661 150.012 85.8128 149.788C85.8688 149.564 85.9154 149.349 85.9528 149.144C85.9994 148.939 86.0368 148.78 86.0648 148.668L87.0728 144.636H88.4028L89.4248 148.668C89.4621 148.827 89.5041 149.013 89.5508 149.228C89.5974 149.433 89.6441 149.639 89.6908 149.844C89.7468 150.049 89.7841 150.231 89.8028 150.39H89.8868C89.9241 150.241 89.9661 150.068 90.0128 149.872C90.0594 149.667 90.1108 149.461 90.1668 149.256C90.2228 149.041 90.2741 148.855 90.3208 148.696L91.4268 144.636H92.6028L90.3908 152H89.1308L88.1788 148.192C88.1414 148.015 88.0948 147.809 88.0388 147.576C87.9828 147.333 87.9268 147.091 87.8708 146.848C87.8241 146.596 87.7821 146.377 87.7448 146.19H87.6608C87.6421 146.33 87.6094 146.507 87.5628 146.722C87.5254 146.937 87.4788 147.175 87.4228 147.436C87.3668 147.688 87.3014 147.94 87.2268 148.192L86.2748 152H85.0148ZM96.6736 152.168C95.9269 152.168 95.2969 152.033 94.7836 151.762C94.2796 151.482 93.8923 151.057 93.6216 150.488C93.3603 149.919 93.2296 149.195 93.2296 148.318C93.2296 147.431 93.3603 146.708 93.6216 146.148C93.8923 145.579 94.2796 145.159 94.7836 144.888C95.2969 144.608 95.9269 144.468 96.6736 144.468C97.4203 144.468 98.0456 144.608 98.5496 144.888C99.0629 145.159 99.4503 145.579 99.7116 146.148C99.9729 146.708 100.104 147.431 100.104 148.318C100.104 149.195 99.9729 149.919 99.7116 150.488C99.4503 151.057 99.0629 151.482 98.5496 151.762C98.0456 152.033 97.4203 152.168 96.6736 152.168ZM96.6736 151.132C97.1496 151.132 97.5463 151.039 97.8636 150.852C98.1809 150.665 98.4189 150.376 98.5776 149.984C98.7456 149.583 98.8296 149.079 98.8296 148.472V148.164C98.8296 147.548 98.7456 147.044 98.5776 146.652C98.4189 146.26 98.1809 145.971 97.8636 145.784C97.5463 145.597 97.1496 145.504 96.6736 145.504C96.1976 145.504 95.7963 145.597 95.4696 145.784C95.1523 145.971 94.9143 146.26 94.7556 146.652C94.5969 147.044 94.5176 147.548 94.5176 148.164V148.472C94.5176 149.079 94.5969 149.583 94.7556 149.984C94.9143 150.376 95.1523 150.665 95.4696 150.852C95.7963 151.039 96.1976 151.132 96.6736 151.132ZM101.634 152V144.636H102.628L102.74 145.854H102.838C102.913 145.621 103.015 145.401 103.146 145.196C103.277 144.981 103.454 144.809 103.678 144.678C103.902 144.538 104.177 144.468 104.504 144.468C104.644 144.468 104.77 144.482 104.882 144.51C105.003 144.529 105.092 144.552 105.148 144.58V145.714H104.686C104.369 145.714 104.093 145.77 103.86 145.882C103.636 145.985 103.449 146.134 103.3 146.33C103.151 146.526 103.039 146.759 102.964 147.03C102.899 147.301 102.866 147.59 102.866 147.898V152H101.634ZM106.282 152V141.878H107.514V148.206L110.636 144.636H112.092L109.572 147.492L112.232 152H110.818L108.774 148.402L107.514 149.676V152H106.282ZM116.145 152V142.396H122.949V143.544H117.475V146.624H122.459V147.758H117.475V152H116.145ZM127.064 152.168C126.336 152.168 125.72 152.033 125.216 151.762C124.722 151.482 124.344 151.057 124.082 150.488C123.83 149.919 123.704 149.195 123.704 148.318C123.704 147.431 123.83 146.708 124.082 146.148C124.344 145.579 124.726 145.159 125.23 144.888C125.734 144.608 126.364 144.468 127.12 144.468C127.811 144.468 128.39 144.603 128.856 144.874C129.323 145.135 129.673 145.532 129.906 146.064C130.149 146.587 130.27 147.245 130.27 148.038V148.626H124.978C124.997 149.214 125.081 149.699 125.23 150.082C125.389 150.455 125.622 150.731 125.93 150.908C126.238 151.076 126.626 151.16 127.092 151.16C127.41 151.16 127.685 151.123 127.918 151.048C128.161 150.964 128.362 150.847 128.52 150.698C128.688 150.549 128.814 150.371 128.898 150.166C128.982 149.961 129.029 149.737 129.038 149.494H130.242C130.233 149.886 130.158 150.25 130.018 150.586C129.878 150.913 129.673 151.193 129.402 151.426C129.132 151.659 128.8 151.841 128.408 151.972C128.016 152.103 127.568 152.168 127.064 152.168ZM125.006 147.702H128.996C128.996 147.291 128.95 146.946 128.856 146.666C128.763 146.386 128.628 146.157 128.45 145.98C128.282 145.803 128.082 145.677 127.848 145.602C127.624 145.518 127.368 145.476 127.078 145.476C126.649 145.476 126.285 145.555 125.986 145.714C125.688 145.873 125.459 146.115 125.3 146.442C125.142 146.769 125.044 147.189 125.006 147.702ZM134.734 152.168C134.006 152.168 133.39 152.033 132.886 151.762C132.391 151.482 132.013 151.057 131.752 150.488C131.5 149.919 131.374 149.195 131.374 148.318C131.374 147.431 131.5 146.708 131.752 146.148C132.013 145.579 132.396 145.159 132.9 144.888C133.404 144.608 134.034 144.468 134.79 144.468C135.481 144.468 136.059 144.603 136.526 144.874C136.993 145.135 137.343 145.532 137.576 146.064C137.819 146.587 137.94 147.245 137.94 148.038V148.626H132.648C132.667 149.214 132.751 149.699 132.9 150.082C133.059 150.455 133.292 150.731 133.6 150.908C133.908 151.076 134.295 151.16 134.762 151.16C135.079 151.16 135.355 151.123 135.588 151.048C135.831 150.964 136.031 150.847 136.19 150.698C136.358 150.549 136.484 150.371 136.568 150.166C136.652 149.961 136.699 149.737 136.708 149.494H137.912C137.903 149.886 137.828 150.25 137.688 150.586C137.548 150.913 137.343 151.193 137.072 151.426C136.801 151.659 136.47 151.841 136.078 151.972C135.686 152.103 135.238 152.168 134.734 152.168ZM132.676 147.702H136.666C136.666 147.291 136.619 146.946 136.526 146.666C136.433 146.386 136.297 146.157 136.12 145.98C135.952 145.803 135.751 145.677 135.518 145.602C135.294 145.518 135.037 145.476 134.748 145.476C134.319 145.476 133.955 145.555 133.656 145.714C133.357 145.873 133.129 146.115 132.97 146.442C132.811 146.769 132.713 147.189 132.676 147.702Z" fill="white"/>
<path opacity="0.7" d="M307.518 152.168C306.995 152.168 306.529 152.093 306.118 151.944C305.707 151.785 305.357 151.519 305.068 151.146C304.779 150.763 304.559 150.255 304.41 149.62C304.261 148.976 304.186 148.169 304.186 147.198C304.186 146.227 304.261 145.425 304.41 144.79C304.559 144.146 304.779 143.637 305.068 143.264C305.357 142.881 305.707 142.615 306.118 142.466C306.529 142.307 306.995 142.228 307.518 142.228C308.041 142.228 308.503 142.307 308.904 142.466C309.315 142.615 309.665 142.881 309.954 143.264C310.243 143.637 310.463 144.146 310.612 144.79C310.761 145.425 310.836 146.227 310.836 147.198C310.836 148.169 310.761 148.976 310.612 149.62C310.463 150.255 310.243 150.763 309.954 151.146C309.665 151.519 309.315 151.785 308.904 151.944C308.503 152.093 308.041 152.168 307.518 152.168ZM307.518 151.132C308.05 151.132 308.461 150.997 308.75 150.726C309.049 150.455 309.254 150.054 309.366 149.522C309.487 148.99 309.548 148.327 309.548 147.534V146.89C309.548 146.087 309.487 145.42 309.366 144.888C309.254 144.347 309.049 143.941 308.75 143.67C308.461 143.399 308.05 143.264 307.518 143.264C306.986 143.264 306.571 143.399 306.272 143.67C305.973 143.941 305.763 144.342 305.642 144.874C305.53 145.406 305.474 146.073 305.474 146.876V147.506C305.474 148.299 305.53 148.967 305.642 149.508C305.763 150.049 305.973 150.455 306.272 150.726C306.571 150.997 306.986 151.132 307.518 151.132ZM312.771 152V150.53H314.143V152H312.771ZM319.426 152.168C318.904 152.168 318.437 152.093 318.026 151.944C317.616 151.785 317.266 151.519 316.976 151.146C316.687 150.763 316.468 150.255 316.318 149.62C316.169 148.976 316.094 148.169 316.094 147.198C316.094 146.227 316.169 145.425 316.318 144.79C316.468 144.146 316.687 143.637 316.976 143.264C317.266 142.881 317.616 142.615 318.026 142.466C318.437 142.307 318.904 142.228 319.426 142.228C319.949 142.228 320.411 142.307 320.812 142.466C321.223 142.615 321.573 142.881 321.862 143.264C322.152 143.637 322.371 144.146 322.52 144.79C322.67 145.425 322.744 146.227 322.744 147.198C322.744 148.169 322.67 148.976 322.52 149.62C322.371 150.255 322.152 150.763 321.862 151.146C321.573 151.519 321.223 151.785 320.812 151.944C320.411 152.093 319.949 152.168 319.426 152.168ZM319.426 151.132C319.958 151.132 320.369 150.997 320.658 150.726C320.957 150.455 321.162 150.054 321.274 149.522C321.396 148.99 321.456 148.327 321.456 147.534V146.89C321.456 146.087 321.396 145.42 321.274 144.888C321.162 144.347 320.957 143.941 320.658 143.67C320.369 143.399 319.958 143.264 319.426 143.264C318.894 143.264 318.479 143.399 318.18 143.67C317.882 143.941 317.672 144.342 317.55 144.874C317.438 145.406 317.382 146.073 317.382 146.876V147.506C317.382 148.299 317.438 148.967 317.55 149.508C317.672 150.049 317.882 150.455 318.18 150.726C318.479 150.997 318.894 151.132 319.426 151.132ZM327.452 152.168C326.929 152.168 326.462 152.093 326.052 151.944C325.641 151.785 325.291 151.519 325.002 151.146C324.712 150.763 324.493 150.255 324.344 149.62C324.194 148.976 324.12 148.169 324.12 147.198C324.12 146.227 324.194 145.425 324.344 144.79C324.493 144.146 324.712 143.637 325.002 143.264C325.291 142.881 325.641 142.615 326.052 142.466C326.462 142.307 326.929 142.228 327.452 142.228C327.974 142.228 328.436 142.307 328.838 142.466C329.248 142.615 329.598 142.881 329.888 143.264C330.177 143.637 330.396 144.146 330.546 144.79C330.695 145.425 330.77 146.227 330.77 147.198C330.77 148.169 330.695 148.976 330.546 149.62C330.396 150.255 330.177 150.763 329.888 151.146C329.598 151.519 329.248 151.785 328.838 151.944C328.436 152.093 327.974 152.168 327.452 152.168ZM327.452 151.132C327.984 151.132 328.394 150.997 328.684 150.726C328.982 150.455 329.188 150.054 329.3 149.522C329.421 148.99 329.482 148.327 329.482 147.534V146.89C329.482 146.087 329.421 145.42 329.3 144.888C329.188 144.347 328.982 143.941 328.684 143.67C328.394 143.399 327.984 143.264 327.452 143.264C326.92 143.264 326.504 143.399 326.206 143.67C325.907 143.941 325.697 144.342 325.576 144.874C325.464 145.406 325.408 146.073 325.408 146.876V147.506C325.408 148.299 325.464 148.967 325.576 149.508C325.697 150.049 325.907 150.455 326.206 150.726C326.504 150.997 326.92 151.132 327.452 151.132ZM335.477 152.168C334.954 152.168 334.488 152.093 334.077 151.944C333.666 151.785 333.316 151.519 333.027 151.146C332.738 150.763 332.518 150.255 332.369 149.62C332.22 148.976 332.145 148.169 332.145 147.198C332.145 146.227 332.22 145.425 332.369 144.79C332.518 144.146 332.738 143.637 333.027 143.264C333.316 142.881 333.666 142.615 334.077 142.466C334.488 142.307 334.954 142.228 335.477 142.228C336 142.228 336.462 142.307 336.863 142.466C337.274 142.615 337.624 142.881 337.913 143.264C338.202 143.637 338.422 144.146 338.571 144.79C338.72 145.425 338.795 146.227 338.795 147.198C338.795 148.169 338.72 148.976 338.571 149.62C338.422 150.255 338.202 150.763 337.913 151.146C337.624 151.519 337.274 151.785 336.863 151.944C336.462 152.093 336 152.168 335.477 152.168ZM335.477 151.132C336.009 151.132 336.42 150.997 336.709 150.726C337.008 150.455 337.213 150.054 337.325 149.522C337.446 148.99 337.507 148.327 337.507 147.534V146.89C337.507 146.087 337.446 145.42 337.325 144.888C337.213 144.347 337.008 143.941 336.709 143.67C336.42 143.399 336.009 143.264 335.477 143.264C334.945 143.264 334.53 143.399 334.231 143.67C333.932 143.941 333.722 144.342 333.601 144.874C333.489 145.406 333.433 146.073 333.433 146.876V147.506C333.433 148.299 333.489 148.967 333.601 149.508C333.722 150.049 333.932 150.455 334.231 150.726C334.53 150.997 334.945 151.132 335.477 151.132ZM340.422 152V150.95H342.844V144.3H340.408V143.516C340.754 143.488 341.108 143.437 341.472 143.362C341.846 143.287 342.21 143.171 342.564 143.012C342.919 142.844 343.241 142.629 343.53 142.368H344.09V150.95H346.372V152H340.422ZM350.915 152V142.396H355.871C356.422 142.396 356.898 142.494 357.299 142.69C357.7 142.877 358.008 143.143 358.223 143.488C358.447 143.833 358.559 144.244 358.559 144.72C358.559 145.084 358.494 145.42 358.363 145.728C358.232 146.036 358.05 146.293 357.817 146.498C357.584 146.703 357.318 146.857 357.019 146.96V147.016C357.355 147.091 357.658 147.226 357.929 147.422C358.2 147.618 358.414 147.879 358.573 148.206C358.741 148.523 358.825 148.915 358.825 149.382C358.825 150.007 358.694 150.511 358.433 150.894C358.172 151.277 357.822 151.557 357.383 151.734C356.944 151.911 356.44 152 355.871 152H350.915ZM352.245 150.852H355.857C356.333 150.852 356.72 150.731 357.019 150.488C357.318 150.236 357.467 149.821 357.467 149.242C357.467 148.887 357.402 148.593 357.271 148.36C357.14 148.117 356.949 147.94 356.697 147.828C356.445 147.707 356.128 147.646 355.745 147.646H352.245V150.852ZM352.245 146.512H355.619C355.936 146.512 356.212 146.451 356.445 146.33C356.678 146.199 356.86 146.022 356.991 145.798C357.131 145.565 357.201 145.303 357.201 145.014C357.201 144.51 357.066 144.141 356.795 143.908C356.524 143.665 356.165 143.544 355.717 143.544H352.245V146.512ZM363.042 152V143.558H359.752V142.396H367.69V143.558H364.372V152H363.042ZM372.954 152.168C371.974 152.168 371.144 151.991 370.462 151.636C369.781 151.272 369.258 150.726 368.894 149.998C368.54 149.261 368.362 148.327 368.362 147.198C368.362 145.527 368.768 144.281 369.58 143.46C370.392 142.639 371.522 142.228 372.968 142.228C373.79 142.228 374.518 142.363 375.152 142.634C375.787 142.895 376.282 143.297 376.636 143.838C377 144.37 377.182 145.042 377.182 145.854H375.838C375.838 145.294 375.717 144.832 375.474 144.468C375.241 144.104 374.91 143.833 374.48 143.656C374.051 143.469 373.547 143.376 372.968 143.376C372.296 143.376 371.718 143.507 371.232 143.768C370.747 144.029 370.378 144.435 370.126 144.986C369.874 145.527 369.748 146.227 369.748 147.086V147.38C369.748 148.229 369.874 148.925 370.126 149.466C370.378 149.998 370.742 150.39 371.218 150.642C371.704 150.894 372.287 151.02 372.968 151.02C373.566 151.02 374.079 150.931 374.508 150.754C374.947 150.577 375.283 150.306 375.516 149.942C375.759 149.569 375.88 149.102 375.88 148.542H377.182C377.182 149.373 376.996 150.054 376.622 150.586C376.258 151.118 375.759 151.515 375.124 151.776C374.49 152.037 373.766 152.168 372.954 152.168Z" fill="white"/>
<rect x="41.5" y="20.5" width="357" height="160" rx="7.5" stroke="white" stroke-opacity="0.05"/>
</g>
<defs>
<filter id="filter0_d_688_1861" x="0.5" y="0" width="432" height="202" filterUnits="userSpaceOnUse" color-interpolation-filters="sRGB">
<feFlood flood-opacity="0" result="BackgroundImageFix"/>
<feColorMatrix in="SourceAlpha" type="matrix" values="0 0 0 0 0 0 0 0 0 0 0 0 0 0 0 0 0 0 127 0" result="hardAlpha"/>
<feOffset dx="-3" dy="-4"/>
<feGaussianBlur stdDeviation="3"/>
<feComposite in2="hardAlpha" operator="out"/>
<feColorMatrix type="matrix" values="0 0 0 0 0 0 0 0 0 0 0 0 0 0 0 0 0 0 0.12 0"/>
<feBlend mode="normal" in2="BackgroundImageFix" result="effect1_dropShadow_688_1861"/>
<feBlend mode="normal" in="SourceGraphic" in2="effect1_dropShadow_688_1861" result="shape"/>
</filter>
<linearGradient id="paint0_linear_688_1861" x1="219.5" y1="10" x2="235.407" y2="214.648" gradientUnits="userSpaceOnUse">
<stop stop-color="#22202E"/>
<stop offset="1" stop-color="#252C32"/>
</linearGradient>
<linearGradient id="paint1_linear_688_1861" x1="60.5" y1="-4.00582" x2="385.26" y2="167.415" gradientUnits="userSpaceOnUse">
<stop stop-color="#639ACD" stop-opacity="0.4"/>
<stop offset="1" stop-color="#335AE4" stop-opacity="0.28"/>
</linearGradient>
</defs>
</svg>
