<svg width="994" height="965" viewBox="0 0 994 965" fill="none" xmlns="http://www.w3.org/2000/svg">
<g filter="url(#filter0_d_719_863)">
<rect x="109.036" y="270.44" width="265.703" height="265.124" rx="48.2491" transform="rotate(-27.0425 109.036 270.44)" fill="url(#paint0_linear_719_863)"/>
</g>
<g filter="url(#filter1_d_719_863)">
<path d="M373.679 490.421C415.767 472.781 461.345 506.766 456.45 552.137L435.275 748.408C430.297 794.543 377.043 817.773 339.842 790.035L178.952 670.072C141.752 642.335 148.817 584.665 191.613 566.728L373.679 490.421Z" fill="url(#paint1_linear_719_863)"/>
</g>
<g filter="url(#filter2_d_719_863)">
<path d="M712.736 460.998C736.998 453.122 763.586 461.463 779.002 481.786L866.521 597.156C882.444 618.147 882.796 647.074 867.387 668.445L784.75 783.057C769.647 804.005 742.824 812.926 718.183 805.196L577.93 761.198C553.288 753.468 536.367 730.826 535.935 705.004L533.57 563.727C533.129 537.384 549.94 513.841 575 505.707L712.736 460.998Z" fill="url(#paint2_linear_719_863)"/>
</g>
<g filter="url(#filter3_d_719_863)">
<circle cx="800.861" cy="362.073" r="90.238" fill="url(#paint3_linear_719_863)"/>
</g>
<g filter="url(#filter4_d_719_863)">
<circle cx="595.947" cy="189.117" r="139.117" fill="url(#paint4_linear_719_863)"/>
</g>
<g filter="url(#filter5_bd_719_863)">
<mask id="path-6-inside-1_719_863" fill="white">
<path d="M620.297 743.903C625.403 760.42 616.168 778.104 599.247 781.654C533.238 795.504 464.319 789.24 401.547 763.281C329.096 733.319 269.38 678.998 232.711 609.7C196.042 540.401 184.721 460.473 200.702 383.717C216.684 306.96 258.965 238.193 320.245 189.288C381.526 140.384 457.959 114.411 536.348 115.856C614.738 117.3 690.163 146.07 749.6 197.199C809.037 248.328 848.757 318.606 861.9 395.899C873.287 462.865 864.106 531.456 835.958 592.748C828.742 608.46 809.45 613.542 794.477 604.899L623.807 506.376C608.833 497.733 604.466 478.386 606.47 461.213C607.309 454.014 607.132 446.68 605.9 439.43C602.899 421.782 593.829 405.735 580.258 394.06C566.686 382.386 549.464 375.816 531.565 375.487C513.666 375.157 496.214 381.087 482.221 392.254C468.229 403.421 458.574 419.122 454.925 436.649C451.276 454.175 453.861 472.425 462.234 488.248C470.607 504.072 484.242 516.475 500.785 523.316C507.581 526.127 514.693 527.926 521.899 528.704C539.088 530.561 556.984 539.111 562.091 555.628L620.297 743.903Z"/>
</mask>
<path d="M620.297 743.903C625.403 760.42 616.168 778.104 599.247 781.654C533.238 795.504 464.319 789.24 401.547 763.281C329.096 733.319 269.38 678.998 232.711 609.7C196.042 540.401 184.721 460.473 200.702 383.717C216.684 306.96 258.965 238.193 320.245 189.288C381.526 140.384 457.959 114.411 536.348 115.856C614.738 117.3 690.163 146.07 749.6 197.199C809.037 248.328 848.757 318.606 861.9 395.899C873.287 462.865 864.106 531.456 835.958 592.748C828.742 608.46 809.45 613.542 794.477 604.899L623.807 506.376C608.833 497.733 604.466 478.386 606.47 461.213C607.309 454.014 607.132 446.68 605.9 439.43C602.899 421.782 593.829 405.735 580.258 394.06C566.686 382.386 549.464 375.816 531.565 375.487C513.666 375.157 496.214 381.087 482.221 392.254C468.229 403.421 458.574 419.122 454.925 436.649C451.276 454.175 453.861 472.425 462.234 488.248C470.607 504.072 484.242 516.475 500.785 523.316C507.581 526.127 514.693 527.926 521.899 528.704C539.088 530.561 556.984 539.111 562.091 555.628L620.297 743.903Z" fill="url(#paint5_linear_719_863)" fill-opacity="0.1" shape-rendering="crispEdges"/>
<path d="M620.297 743.903C625.403 760.42 616.168 778.104 599.247 781.654C533.238 795.504 464.319 789.24 401.547 763.281C329.096 733.319 269.38 678.998 232.711 609.7C196.042 540.401 184.721 460.473 200.702 383.717C216.684 306.96 258.965 238.193 320.245 189.288C381.526 140.384 457.959 114.411 536.348 115.856C614.738 117.3 690.163 146.07 749.6 197.199C809.037 248.328 848.757 318.606 861.9 395.899C873.287 462.865 864.106 531.456 835.958 592.748C828.742 608.46 809.45 613.542 794.477 604.899L623.807 506.376C608.833 497.733 604.466 478.386 606.47 461.213C607.309 454.014 607.132 446.68 605.9 439.43C602.899 421.782 593.829 405.735 580.258 394.06C566.686 382.386 549.464 375.816 531.565 375.487C513.666 375.157 496.214 381.087 482.221 392.254C468.229 403.421 458.574 419.122 454.925 436.649C451.276 454.175 453.861 472.425 462.234 488.248C470.607 504.072 484.242 516.475 500.785 523.316C507.581 526.127 514.693 527.926 521.899 528.704C539.088 530.561 556.984 539.111 562.091 555.628L620.297 743.903Z" stroke="url(#paint6_linear_719_863)" stroke-opacity="0.3" stroke-width="3.13044" shape-rendering="crispEdges" mask="url(#path-6-inside-1_719_863)"/>
</g>
<defs>
<filter id="filter0_d_719_863" x="83.2869" y="131.199" width="391.146" height="390.894" filterUnits="userSpaceOnUse" color-interpolation-filters="sRGB">
<feFlood flood-opacity="0" result="BackgroundImageFix"/>
<feColorMatrix in="SourceAlpha" type="matrix" values="0 0 0 0 0 0 0 0 0 0 0 0 0 0 0 0 0 0 127 0" result="hardAlpha"/>
<feOffset dx="-8.77256" dy="-1.46209"/>
<feGaussianBlur stdDeviation="16.8141"/>
<feComposite in2="hardAlpha" operator="out"/>
<feColorMatrix type="matrix" values="0 0 0 0 0.877973 0 0 0 0 0.486667 0 0 0 0 0.9125 0 0 0 0.5 0"/>
<feBlend mode="normal" in2="BackgroundImageFix" result="effect1_dropShadow_719_863"/>
<feBlend mode="normal" in="SourceGraphic" in2="effect1_dropShadow_719_863" result="shape"/>
</filter>
<filter id="filter1_d_719_863" x="121.202" y="459.359" width="369.239" height="383.577" filterUnits="userSpaceOnUse" color-interpolation-filters="sRGB">
<feFlood flood-opacity="0" result="BackgroundImageFix"/>
<feColorMatrix in="SourceAlpha" type="matrix" values="0 0 0 0 0 0 0 0 0 0 0 0 0 0 0 0 0 0 127 0" result="hardAlpha"/>
<feOffset dy="7.31046"/>
<feGaussianBlur stdDeviation="16.8141"/>
<feComposite in2="hardAlpha" operator="out"/>
<feColorMatrix type="matrix" values="0 0 0 0 0.359722 0 0 0 0 0.770833 0 0 0 0 0.746289 0 0 0 0.6 0"/>
<feBlend mode="normal" in2="BackgroundImageFix" result="effect1_dropShadow_719_863"/>
<feBlend mode="normal" in="SourceGraphic" in2="effect1_dropShadow_719_863" result="shape"/>
</filter>
<filter id="filter2_d_719_863" x="499.934" y="431.748" width="412.403" height="417.139" filterUnits="userSpaceOnUse" color-interpolation-filters="sRGB">
<feFlood flood-opacity="0" result="BackgroundImageFix"/>
<feColorMatrix in="SourceAlpha" type="matrix" values="0 0 0 0 0 0 0 0 0 0 0 0 0 0 0 0 0 0 127 0" result="hardAlpha"/>
<feOffset dy="7.31046"/>
<feGaussianBlur stdDeviation="16.8141"/>
<feComposite in2="hardAlpha" operator="out"/>
<feColorMatrix type="matrix" values="0 0 0 0 0.413194 0 0 0 0 0.536162 0 0 0 0 0.833333 0 0 0 0.6 0"/>
<feBlend mode="normal" in2="BackgroundImageFix" result="effect1_dropShadow_719_863"/>
<feBlend mode="normal" in="SourceGraphic" in2="effect1_dropShadow_719_863" result="shape"/>
</filter>
<filter id="filter3_d_719_863" x="676.994" y="245.518" width="247.732" height="247.732" filterUnits="userSpaceOnUse" color-interpolation-filters="sRGB">
<feFlood flood-opacity="0" result="BackgroundImageFix"/>
<feColorMatrix in="SourceAlpha" type="matrix" values="0 0 0 0 0 0 0 0 0 0 0 0 0 0 0 0 0 0 127 0" result="hardAlpha"/>
<feOffset dy="7.31046"/>
<feGaussianBlur stdDeviation="16.8141"/>
<feComposite in2="hardAlpha" operator="out"/>
<feColorMatrix type="matrix" values="0 0 0 0 0.954167 0 0 0 0 0.604586 0 0 0 0 0.151076 0 0 0 0.6 0"/>
<feBlend mode="normal" in2="BackgroundImageFix" result="effect1_dropShadow_719_863"/>
<feBlend mode="normal" in="SourceGraphic" in2="effect1_dropShadow_719_863" result="shape"/>
</filter>
<filter id="filter4_d_719_863" x="421.74" y="0.288837" width="348.414" height="348.414" filterUnits="userSpaceOnUse" color-interpolation-filters="sRGB">
<feFlood flood-opacity="0" result="BackgroundImageFix"/>
<feColorMatrix in="SourceAlpha" type="matrix" values="0 0 0 0 0 0 0 0 0 0 0 0 0 0 0 0 0 0 127 0" result="hardAlpha"/>
<feOffset dy="-14.6209"/>
<feGaussianBlur stdDeviation="17.5451"/>
<feComposite in2="hardAlpha" operator="out"/>
<feColorMatrix type="matrix" values="0 0 0 0 0.908333 0 0 0 0 0.400364 0 0 0 0 0.20816 0 0 0 0.43 0"/>
<feBlend mode="normal" in2="BackgroundImageFix" result="effect1_dropShadow_719_863"/>
<feBlend mode="normal" in="SourceGraphic" in2="effect1_dropShadow_719_863" result="shape"/>
</filter>
<filter id="filter5_bd_719_863" x="121.636" y="43.7982" width="871.81" height="867.113" filterUnits="userSpaceOnUse" color-interpolation-filters="sRGB">
<feFlood flood-opacity="0" result="BackgroundImageFix"/>
<feGaussianBlur in="BackgroundImageFix" stdDeviation="36.0001"/>
<feComposite in2="SourceAlpha" operator="in" result="effect1_backgroundBlur_719_863"/>
<feColorMatrix in="SourceAlpha" type="matrix" values="0 0 0 0 0 0 0 0 0 0 0 0 0 0 0 0 0 0 127 0" result="hardAlpha"/>
<feOffset dx="50.0871" dy="45.3914"/>
<feGaussianBlur stdDeviation="38.3479"/>
<feComposite in2="hardAlpha" operator="out"/>
<feColorMatrix type="matrix" values="0 0 0 0 0 0 0 0 0 0.0283334 0 0 0 0 0.283333 0 0 0 0.08 0"/>
<feBlend mode="normal" in2="effect1_backgroundBlur_719_863" result="effect2_dropShadow_719_863"/>
<feBlend mode="normal" in="SourceGraphic" in2="effect2_dropShadow_719_863" result="shape"/>
</filter>
<linearGradient id="paint0_linear_719_863" x1="241.888" y1="270.44" x2="241.888" y2="535.564" gradientUnits="userSpaceOnUse">
<stop stop-color="#E2C5F0"/>
<stop offset="1" stop-color="#F5BEC7"/>
</linearGradient>
<linearGradient id="paint1_linear_719_863" x1="467.344" y1="451.164" x2="190.082" y2="823.017" gradientUnits="userSpaceOnUse">
<stop stop-color="#DDFDF6"/>
<stop offset="1" stop-color="#89DED9"/>
</linearGradient>
<linearGradient id="paint2_linear_719_863" x1="753.256" y1="447.845" x2="636.95" y2="818.601" gradientUnits="userSpaceOnUse">
<stop stop-color="#C9C1F9"/>
<stop offset="1" stop-color="#97BFFA"/>
</linearGradient>
<linearGradient id="paint3_linear_719_863" x1="800.861" y1="271.835" x2="800.861" y2="452.311" gradientUnits="userSpaceOnUse">
<stop stop-color="#FFE8AC"/>
<stop offset="1" stop-color="#FDB88C"/>
</linearGradient>
<linearGradient id="paint4_linear_719_863" x1="595.947" y1="50" x2="595.947" y2="328.234" gradientUnits="userSpaceOnUse">
<stop stop-color="#FFAF91"/>
<stop offset="1" stop-color="#FDE9E3"/>
</linearGradient>
<linearGradient id="paint5_linear_719_863" x1="868.969" y1="97.0178" x2="-225.907" y2="678.056" gradientUnits="userSpaceOnUse">
<stop stop-color="white" stop-opacity="0"/>
<stop offset="1" stop-color="white"/>
</linearGradient>
<linearGradient id="paint6_linear_719_863" x1="904.32" y1="71.1979" x2="19.5108" y2="612.106" gradientUnits="userSpaceOnUse">
<stop stop-color="white"/>
<stop offset="1" stop-color="white" stop-opacity="0"/>
</linearGradient>
</defs>
</svg>
