<svg width="240" height="56" viewBox="0 0 240 56" fill="none" xmlns="http://www.w3.org/2000/svg">
<g filter="url(#filter0_d_719_1095)">
<circle cx="28.1282" cy="27" r="25" fill="#F6F6F6"/>
<path d="M28.1264 10.9286L27.9053 11.6611V32.9147L28.1264 33.1298L38.2411 27.2982L28.1264 10.9286Z" fill="#343434"/>
<path d="M28.124 10.9286L18.0092 27.2982L28.124 33.1298V22.8139V10.9286Z" fill="#8C8C8C"/>
<path d="M28.1265 34.9976L28.0019 35.1458V42.7166L28.1265 43.0714L38.2473 29.169L28.1265 34.9976Z" fill="#3C3C3B"/>
<path d="M28.124 43.0714V34.9976L18.0092 29.169L28.124 43.0714Z" fill="#8C8C8C"/>
<path d="M28.1226 33.1295L38.2372 27.2979L28.1226 22.8136V33.1295Z" fill="#141414"/>
<path d="M18.0092 27.2979L28.124 33.1295V22.8136L18.0092 27.2979Z" fill="#393939"/>
</g>
<path d="M70.6186 42V15.8182H88.2607V20.3821H76.1541V26.6207H87.353V31.1847H76.1541V37.4361H88.3118V42H70.6186ZM103.004 22.3636V26.4545H91.1786V22.3636H103.004ZM93.8633 17.6591H99.3093V35.9659C99.3093 36.4687 99.386 36.8608 99.5394 37.142C99.6929 37.4148 99.9059 37.6065 100.179 37.7173C100.46 37.8281 100.784 37.8835 101.15 37.8835C101.406 37.8835 101.662 37.8622 101.917 37.8196C102.173 37.7685 102.369 37.7301 102.505 37.7045L103.362 41.7571C103.089 41.8423 102.706 41.9403 102.211 42.0511C101.717 42.1705 101.116 42.2429 100.409 42.2685C99.0963 42.3196 97.9457 42.1449 96.9571 41.7443C95.9769 41.3437 95.2142 40.7216 94.6687 39.8778C94.1232 39.0341 93.8548 37.9687 93.8633 36.6818V17.6591ZM112.419 30.6477V42H106.973V15.8182H112.266V25.8281H112.496C112.939 24.669 113.655 23.7614 114.644 23.1051C115.632 22.4403 116.873 22.108 118.364 22.108C119.728 22.108 120.917 22.4062 121.931 23.0028C122.954 23.5909 123.746 24.4389 124.309 25.5469C124.88 26.6463 125.161 27.9631 125.152 29.4972V42H119.706V30.4688C119.715 29.2585 119.408 28.3168 118.786 27.6435C118.172 26.9702 117.311 26.6335 116.204 26.6335C115.462 26.6335 114.806 26.7912 114.235 27.1065C113.672 27.4219 113.229 27.8821 112.905 28.4872C112.59 29.0838 112.428 29.804 112.419 30.6477ZM138.387 42.3835C136.367 42.3835 134.629 41.9744 133.171 41.1562C131.722 40.3295 130.606 39.1619 129.822 37.6534C129.038 36.1364 128.646 34.3423 128.646 32.2713C128.646 30.2514 129.038 28.4787 129.822 26.9531C130.606 25.4276 131.71 24.2386 133.133 23.3864C134.565 22.5341 136.244 22.108 138.17 22.108C139.465 22.108 140.671 22.3168 141.788 22.7344C142.913 23.1435 143.893 23.7614 144.728 24.5881C145.572 25.4148 146.228 26.4545 146.697 27.7074C147.166 28.9517 147.4 30.4091 147.4 32.0795V33.5753H130.819V30.2003H142.273C142.273 29.4162 142.103 28.7216 141.762 28.1165C141.421 27.5114 140.948 27.0384 140.343 26.6974C139.746 26.348 139.052 26.1733 138.259 26.1733C137.433 26.1733 136.7 26.3651 136.06 26.7486C135.43 27.1236 134.935 27.6307 134.577 28.2699C134.219 28.9006 134.036 29.6037 134.028 30.3793V33.5881C134.028 34.5597 134.207 35.3991 134.565 36.1065C134.931 36.8139 135.447 37.3594 136.112 37.7429C136.776 38.1264 137.565 38.3182 138.477 38.3182C139.082 38.3182 139.636 38.233 140.139 38.0625C140.641 37.892 141.072 37.6364 141.43 37.2955C141.788 36.9545 142.06 36.5369 142.248 36.0426L147.285 36.375C147.029 37.5852 146.505 38.642 145.712 39.5455C144.928 40.4403 143.914 41.1392 142.67 41.642C141.434 42.1364 140.006 42.3835 138.387 42.3835ZM150.954 42V22.3636H156.234V25.7898H156.438C156.796 24.571 157.397 23.6506 158.241 23.0284C159.085 22.3977 160.056 22.0824 161.156 22.0824C161.428 22.0824 161.722 22.0994 162.038 22.1335C162.353 22.1676 162.63 22.2145 162.869 22.2741V27.1065C162.613 27.0298 162.259 26.9616 161.808 26.902C161.356 26.8423 160.942 26.8125 160.567 26.8125C159.766 26.8125 159.05 26.9872 158.42 27.3366C157.798 27.6776 157.303 28.1548 156.937 28.7685C156.579 29.3821 156.4 30.0895 156.4 30.8906V42H150.954ZM173.719 42.3835C171.699 42.3835 169.961 41.9744 168.503 41.1562C167.054 40.3295 165.938 39.1619 165.154 37.6534C164.37 36.1364 163.978 34.3423 163.978 32.2713C163.978 30.2514 164.37 28.4787 165.154 26.9531C165.938 25.4276 167.042 24.2386 168.465 23.3864C169.897 22.5341 171.576 22.108 173.502 22.108C174.797 22.108 176.003 22.3168 177.12 22.7344C178.245 23.1435 179.225 23.7614 180.06 24.5881C180.904 25.4148 181.56 26.4545 182.029 27.7074C182.498 28.9517 182.732 30.4091 182.732 32.0795V33.5753H166.151V30.2003H177.605C177.605 29.4162 177.435 28.7216 177.094 28.1165C176.753 27.5114 176.28 27.0384 175.675 26.6974C175.079 26.348 174.384 26.1733 173.591 26.1733C172.765 26.1733 172.032 26.3651 171.392 26.7486C170.762 27.1236 170.267 27.6307 169.909 28.2699C169.552 28.9006 169.368 29.6037 169.36 30.3793V33.5881C169.36 34.5597 169.539 35.3991 169.897 36.1065C170.263 36.8139 170.779 37.3594 171.444 37.7429C172.108 38.1264 172.897 38.3182 173.809 38.3182C174.414 38.3182 174.968 38.233 175.471 38.0625C175.973 37.892 176.404 37.6364 176.762 37.2955C177.12 36.9545 177.392 36.5369 177.58 36.0426L182.617 36.375C182.361 37.5852 181.837 38.642 181.044 39.5455C180.26 40.4403 179.246 41.1392 178.002 41.642C176.766 42.1364 175.338 42.3835 173.719 42.3835ZM198.878 33.6392V22.3636H204.324V42H199.096V38.4332H198.891C198.448 39.5838 197.711 40.5085 196.679 41.2074C195.657 41.9062 194.408 42.2557 192.934 42.2557C191.621 42.2557 190.466 41.9574 189.469 41.3608C188.472 40.7642 187.692 39.9162 187.13 38.8168C186.576 37.7173 186.294 36.4006 186.286 34.8665V22.3636H191.732V33.8949C191.74 35.054 192.052 35.9702 192.665 36.6435C193.279 37.3168 194.101 37.6534 195.132 37.6534C195.789 37.6534 196.402 37.5043 196.973 37.206C197.544 36.8991 198.005 36.4474 198.354 35.8509C198.712 35.2543 198.887 34.517 198.878 33.6392ZM208.68 42V22.3636H213.871V25.8281H214.101C214.51 24.6776 215.192 23.7699 216.146 23.1051C217.101 22.4403 218.243 22.108 219.572 22.108C220.919 22.108 222.065 22.4446 223.011 23.1179C223.957 23.7827 224.588 24.6861 224.903 25.8281H225.108C225.509 24.7031 226.233 23.804 227.281 23.1307C228.338 22.4489 229.587 22.108 231.027 22.108C232.859 22.108 234.347 22.6918 235.489 23.8594C236.639 25.0185 237.215 26.6634 237.215 28.794V42H231.781V29.8679C231.781 28.777 231.492 27.9588 230.912 27.4134C230.332 26.8679 229.608 26.5952 228.739 26.5952C227.75 26.5952 226.979 26.9105 226.425 27.5412C225.871 28.1634 225.594 28.9858 225.594 30.0085V42H220.314V29.7528C220.314 28.7898 220.037 28.0227 219.483 27.4517C218.938 26.8807 218.217 26.5952 217.322 26.5952C216.717 26.5952 216.172 26.7486 215.686 27.0554C215.209 27.3537 214.83 27.7756 214.548 28.321C214.267 28.858 214.126 29.4886 214.126 30.2131V42H208.68Z" fill="black"/>
<defs>
<filter id="filter0_d_719_1095" x="0.12822" y="0" width="56" height="56" filterUnits="userSpaceOnUse" color-interpolation-filters="sRGB">
<feFlood flood-opacity="0" result="BackgroundImageFix"/>
<feColorMatrix in="SourceAlpha" type="matrix" values="0 0 0 0 0 0 0 0 0 0 0 0 0 0 0 0 0 0 127 0" result="hardAlpha"/>
<feOffset dy="1"/>
<feGaussianBlur stdDeviation="1.5"/>
<feColorMatrix type="matrix" values="0 0 0 0 0.129412 0 0 0 0 0.105882 0 0 0 0 0.305882 0 0 0 0.15 0"/>
<feBlend mode="normal" in2="BackgroundImageFix" result="effect1_dropShadow_719_1095"/>
<feBlend mode="normal" in="SourceGraphic" in2="effect1_dropShadow_719_1095" result="shape"/>
</filter>
</defs>
</svg>
