<svg width="264" height="70" viewBox="0 0 264 70" fill="none" xmlns="http://www.w3.org/2000/svg">
<path d="M22.5303 48.3505L44.8887 35.6518L22.5303 0L0.171997 35.6518L22.5303 48.3505Z" fill="white"/>
<path d="M22.5303 69.9994L44.9008 39.7251L22.5303 52.4122L0.171997 39.7251L22.5303 69.9994Z" fill="white"/>
<path d="M67.1363 50.7505V20.3418H87.6266V25.6425H73.5655V32.8883H86.5724V38.1891H73.5655V45.4497H87.686V50.7505H67.1363ZM104.75 27.9439V32.6953H91.0156V27.9439H104.75ZM94.1337 22.4799H100.459V43.7422C100.459 44.3263 100.548 44.7816 100.726 45.1082C100.904 45.425 101.152 45.6477 101.469 45.7764C101.795 45.9051 102.171 45.9694 102.597 45.9694C102.894 45.9694 103.191 45.9447 103.488 45.8952C103.785 45.8358 104.013 45.7913 104.171 45.7616L105.166 50.4684C104.849 50.5674 104.404 50.6812 103.829 50.8099C103.255 50.9485 102.557 51.0326 101.736 51.0623C100.212 51.1217 98.8752 50.9188 97.7269 50.4535C96.5886 49.9883 95.7027 49.2657 95.0692 48.2857C94.4356 47.3058 94.1238 46.0684 94.1337 44.5737V22.4799ZM115.686 37.5655V50.7505H109.36V20.3418H115.507V31.9678H115.775C116.289 30.6215 117.121 29.5673 118.269 28.8051C119.417 28.033 120.858 27.647 122.59 27.647C124.174 27.647 125.555 27.9934 126.733 28.6863C127.92 29.3694 128.841 30.3543 129.494 31.6411C130.157 32.918 130.484 34.4474 130.474 36.2291V50.7505H124.149V37.3576C124.159 35.952 123.803 34.8582 123.08 34.0762C122.367 33.2942 121.367 32.9032 120.081 32.9032C119.219 32.9032 118.457 33.0863 117.794 33.4526C117.141 33.8188 116.626 34.3533 116.25 35.0561C115.884 35.7491 115.696 36.5855 115.686 37.5655ZM145.846 51.1959C143.5 51.1959 141.48 50.7208 139.788 49.7705C138.105 48.8103 136.808 47.4542 135.897 45.7022C134.987 43.9402 134.531 41.8565 134.531 39.4512C134.531 37.1052 134.987 35.0462 135.897 33.2744C136.808 31.5025 138.09 30.1217 139.743 29.1318C141.406 28.1419 143.356 27.647 145.593 27.647C147.098 27.647 148.498 27.8895 149.795 28.3745C151.102 28.8497 152.24 29.5673 153.21 30.5275C154.19 31.4877 154.952 32.6953 155.497 34.1504C156.041 35.5956 156.313 37.2883 156.313 39.2284V40.9657H137.056V37.0458H150.359C150.359 36.1351 150.161 35.3284 149.765 34.6256C149.37 33.9227 148.82 33.3734 148.117 32.9774C147.424 32.5716 146.618 32.3687 145.697 32.3687C144.737 32.3687 143.886 32.5914 143.143 33.0368C142.411 33.4724 141.837 34.0613 141.421 34.8037C141.005 35.5362 140.792 36.3529 140.782 37.2536V40.9805C140.782 42.1089 140.99 43.084 141.406 43.9056C141.832 44.7271 142.431 45.3607 143.203 45.8061C143.975 46.2515 144.89 46.4743 145.95 46.4743C146.652 46.4743 147.296 46.3753 147.88 46.1773C148.464 45.9793 148.964 45.6824 149.379 45.2864C149.795 44.8905 150.112 44.4054 150.33 43.8313L156.18 44.2174C155.883 45.623 155.274 46.8504 154.354 47.8997C153.443 48.939 152.265 49.7507 150.82 50.3347C149.384 50.9089 147.726 51.1959 145.846 51.1959ZM160.441 50.7505V27.9439H166.573V31.9232H166.811C167.227 30.5077 167.925 29.4386 168.905 28.716C169.885 27.9835 171.013 27.6173 172.29 27.6173C172.607 27.6173 172.948 27.6371 173.314 27.6767C173.681 27.7163 174.002 27.7707 174.28 27.84V33.4526C173.983 33.3635 173.572 33.2843 173.047 33.215C172.523 33.1457 172.042 33.1111 171.607 33.1111C170.676 33.1111 169.845 33.314 169.112 33.7198C168.39 34.1158 167.816 34.6701 167.39 35.3828C166.974 36.0955 166.766 36.9171 166.766 37.8476V50.7505H160.441ZM186.882 51.1959C184.536 51.1959 182.516 50.7208 180.824 49.7705C179.141 48.8103 177.844 47.4542 176.934 45.7022C176.023 43.9402 175.568 41.8565 175.568 39.4512C175.568 37.1052 176.023 35.0462 176.934 33.2744C177.844 31.5025 179.126 30.1217 180.779 29.1318C182.442 28.1419 184.392 27.647 186.629 27.647C188.134 27.647 189.535 27.8895 190.831 28.3745C192.138 28.8497 193.276 29.5673 194.246 30.5275C195.226 31.4877 195.989 32.6953 196.533 34.1504C197.077 35.5956 197.35 37.2883 197.35 39.2284V40.9657H178.092V37.0458H191.396C191.396 36.1351 191.198 35.3284 190.802 34.6256C190.406 33.9227 189.856 33.3734 189.154 32.9774C188.461 32.5716 187.654 32.3687 186.733 32.3687C185.773 32.3687 184.922 32.5914 184.179 33.0368C183.447 33.4724 182.873 34.0613 182.457 34.8037C182.041 35.5362 181.829 36.3529 181.819 37.2536V40.9805C181.819 42.1089 182.027 43.084 182.442 43.9056C182.868 44.7271 183.467 45.3607 184.239 45.8061C185.011 46.2515 185.927 46.4743 186.986 46.4743C187.689 46.4743 188.332 46.3753 188.916 46.1773C189.5 45.9793 190 45.6824 190.416 45.2864C190.831 44.8905 191.148 44.4054 191.366 43.8313L197.216 44.2174C196.919 45.623 196.31 46.8504 195.39 47.8997C194.479 48.939 193.301 49.7507 191.856 50.3347C190.421 50.9089 188.763 51.1959 186.882 51.1959ZM216.103 41.0399V27.9439H222.428V50.7505H216.355V46.6079H216.118C215.603 47.9442 214.747 49.0182 213.549 49.8299C212.361 50.6416 210.911 51.0474 209.198 51.0474C207.674 51.0474 206.333 50.701 205.175 50.0081C204.016 49.3152 203.111 48.3303 202.457 47.0533C201.814 45.7764 201.487 44.2471 201.477 42.4653V27.9439H207.803V41.3369C207.813 42.6831 208.174 43.7472 208.887 44.5292C209.599 45.3112 210.554 45.7022 211.752 45.7022C212.514 45.7022 213.227 45.5289 213.89 45.1825C214.554 44.8261 215.088 44.3015 215.494 43.6086C215.91 42.9157 216.113 42.0595 216.103 41.0399ZM227.487 50.7505V27.9439H233.516V31.9678H233.783C234.258 30.6314 235.05 29.5772 236.159 28.8051C237.267 28.033 238.594 27.647 240.138 27.647C241.702 27.647 243.033 28.038 244.132 28.82C245.231 29.5921 245.963 30.6413 246.33 31.9678H246.567C247.032 30.6611 247.874 29.6168 249.091 28.8348C250.319 28.0429 251.769 27.647 253.442 27.647C255.57 27.647 257.297 28.325 258.624 29.6812C259.96 31.0274 260.628 32.9378 260.628 35.4125V50.7505H254.318V36.6597C254.318 35.3927 253.981 34.4424 253.308 33.8089C252.635 33.1754 251.794 32.8586 250.784 32.8586C249.636 32.8586 248.74 33.2249 248.096 33.9574C247.453 34.68 247.131 35.6352 247.131 36.8231V50.7505H240.999V36.5261C240.999 35.4075 240.677 34.5167 240.034 33.8535C239.4 33.1902 238.564 32.8586 237.525 32.8586C236.822 32.8586 236.188 33.0368 235.624 33.3932C235.07 33.7396 234.629 34.2296 234.303 34.8631C233.976 35.4867 233.813 36.2192 233.813 37.0606V50.7505H227.487Z" fill="white"/>
</svg>
