<svg width="271" height="70" viewBox="0 0 271 70" fill="none" xmlns="http://www.w3.org/2000/svg">
<path d="M25.2702 0.670544C26.9715 -0.223515 29.5602 -0.223515 31.2616 0.670544L48.6221 9.79358C49.6467 10.332 50.2094 11.1344 50.3103 11.9627H50.3268V57.8199C50.3042 58.7233 49.7362 59.6207 48.6221 60.2064L31.2616 69.3294C29.5602 70.2235 26.9715 70.2235 25.2702 69.3294L7.90971 60.2064C6.80021 59.6235 6.26778 58.7195 6.24142 57.8199C6.23879 57.7313 6.23847 57.6575 6.24098 57.5962L6.24087 12.2572C6.23912 12.2076 6.23896 12.158 6.24038 12.1086L6.24142 11.9627L6.24918 11.9626C6.32629 11.1253 6.86349 10.3434 7.90971 9.79358L25.2702 0.670544ZM47.5938 37.5462L31.2616 46.1289C29.5602 47.023 26.9715 47.023 25.2702 46.1289L8.9736 37.5653V57.7291L25.2702 66.2478C26.1904 66.7372 27.1455 67.2141 28.0794 67.2748L28.2659 67.2808C29.239 67.2841 30.1838 66.7924 31.1419 66.327L47.5938 57.6558V37.5462ZM3.41774 56.8229C3.41774 58.5795 3.62298 59.7345 4.03047 60.5482C4.36822 61.2225 4.87499 61.7377 5.80032 62.3649L5.85314 62.4005C6.05621 62.5367 6.27992 62.6794 6.55221 62.8467L6.87333 63.0425L7.8594 63.6348L6.44513 65.9612L5.34145 65.2978L5.15594 65.1846C4.83682 64.9883 4.57233 64.8204 4.32563 64.6547C1.68842 62.8856 0.704881 60.9573 0.685474 56.9449L0.685181 56.8229H3.41774ZM26.8992 25.2551C26.7728 25.2983 26.6544 25.3482 26.5464 25.405L9.1859 34.528C9.16769 34.5376 9.1503 34.5471 9.13378 34.5564L9.11907 34.5649L9.1463 34.5804L9.1859 34.6018L26.5464 43.7249C26.6544 43.7816 26.7728 43.8316 26.8992 43.8748V25.2551ZM29.6326 25.2551V43.8748C29.759 43.8316 29.8774 43.7816 29.9854 43.7249L47.3459 34.6018C47.3641 34.5922 47.3815 34.5828 47.398 34.5734L47.4127 34.5649L47.3854 34.5494L47.3459 34.528L29.9854 25.405C29.8774 25.3482 29.759 25.2983 29.6326 25.2551ZM47.5938 15.2157L32.0205 23.3996L47.5938 31.5836V15.2157ZM8.9736 15.2348V31.5645L24.5108 23.3996L8.9736 15.2348ZM29.9854 3.07461C29.0826 2.60018 27.4492 2.60018 26.5464 3.07461L9.1859 12.1977C9.16769 12.2073 9.1503 12.2167 9.13378 12.2261L9.11907 12.2346L9.1463 12.2501L9.1859 12.2715L26.5464 21.3945C27.4492 21.8689 29.0826 21.8689 29.9854 21.3945L47.3459 12.2715C47.3641 12.2619 47.3815 12.2524 47.398 12.243L47.4127 12.2346L47.3854 12.219L47.3459 12.1977L29.9854 3.07461ZM50.1595 4.07505L51.2632 4.73825L51.4487 4.85156C51.7678 5.04755 52.0323 5.21592 52.279 5.38141C54.9162 7.15038 55.8997 9.07904 55.9189 13.0911L55.9194 13.2133H53.1869C53.1869 11.4564 52.9816 10.3016 52.5742 9.48799C52.2364 8.81369 51.7296 8.29837 50.8043 7.67133L50.7515 7.63573C50.5484 7.4995 50.3247 7.35682 50.0524 7.18909L49.7313 6.99342L48.7452 6.40138L50.1595 4.07505Z" fill="white"/>
<path d="M83.6779 55.908V30.3343H90.7698V25.6519H83.6779V22.2901C83.6779 18.4881 85.341 16.5871 88.6665 16.5871C89.6279 16.5871 90.65 16.7472 91.7317 17.0673V12.0847C90.4094 11.6845 88.9471 11.4844 87.3442 11.4844C84.2593 11.4844 81.865 12.3648 80.1621 14.1258C78.4591 15.8867 77.6076 18.448 77.6076 21.8098V25.6519H71.778V30.3343H77.6076V55.908H83.6779ZM108.32 56.328C110.644 56.328 112.677 55.8479 114.42 54.887C116.163 53.9268 117.475 52.546 118.357 50.7451V55.908H124.367V25.6519H118.357V30.5744C117.435 28.7735 116.113 27.3828 114.39 26.4022C112.667 25.4217 110.644 24.9315 108.32 24.9315C105.715 24.9315 103.391 25.5918 101.348 26.9125C99.3043 28.2332 97.7118 30.0942 96.5699 32.4954C95.4281 34.8967 94.8571 37.6582 94.8571 40.7798C94.8571 43.9015 95.4177 46.6329 96.5399 48.9742C97.6615 51.3154 99.2343 53.1264 101.258 54.407C103.281 55.6876 105.635 56.328 108.32 56.328ZM109.762 51.5255C106.997 51.5255 104.844 50.585 103.301 48.704C101.759 46.823 100.987 44.1816 100.987 40.7798C100.987 37.338 101.759 34.6466 103.301 32.7056C104.844 30.7645 106.977 29.794 109.702 29.794C112.466 29.794 114.6 30.7346 116.103 32.6155C117.605 34.4965 118.357 37.1779 118.357 40.6598C118.357 44.1016 117.605 46.773 116.103 48.674C114.6 50.575 112.487 51.5255 109.762 51.5255ZM139.272 55.908V38.6787C139.272 35.9973 140.043 33.8562 141.586 32.2554C143.129 30.6545 145.182 29.8541 147.746 29.8541C149.99 29.8541 151.623 30.4544 152.645 31.655C153.666 32.8557 154.177 34.7767 154.177 37.4181V55.908H160.247V37.0579C160.247 28.9736 156.621 24.9315 149.369 24.9315C147.045 24.9315 144.972 25.4417 143.148 26.4623C141.326 27.4828 139.933 28.9536 138.971 30.8746L138.43 25.6519H132.781C133.102 28.1732 133.262 31.0147 133.262 34.1764V55.908H139.272ZM180.562 56.328C182.244 56.328 183.747 56.1082 185.069 55.668V50.7451C183.987 51.0653 182.926 51.2253 181.884 51.2253C180.281 51.2253 179.029 50.7951 178.127 49.9346C177.226 49.0742 176.775 47.6034 176.775 45.5224V30.3343H185.13V25.6519H176.775V15.9867L170.705 18.0879V25.6519H164.815V30.3343H170.705V46.0026C170.705 49.3644 171.567 51.9257 173.289 53.6866C175.012 55.4476 177.436 56.328 180.562 56.328ZM203.761 56.328C206.686 56.328 209.27 55.6876 211.514 54.407C213.758 53.1264 215.49 51.3054 216.713 48.9441C217.935 46.5829 218.546 43.8214 218.546 40.6598C218.546 37.4981 217.935 34.7266 216.713 32.3454C215.49 29.9641 213.758 28.1332 211.514 26.8525C209.27 25.5718 206.686 24.9315 203.761 24.9315C200.796 24.9315 198.192 25.5718 195.948 26.8525C193.704 28.1332 191.971 29.9641 190.749 32.3454C189.527 34.7266 188.916 37.4981 188.916 40.6598C188.916 43.8214 189.527 46.5829 190.749 48.9441C191.971 51.3054 193.704 53.1264 195.948 54.407C198.192 55.6876 200.796 56.328 203.761 56.328ZM203.701 51.5255C200.936 51.5255 198.803 50.605 197.3 48.7641C195.797 46.9231 195.046 44.2217 195.046 40.6598C195.046 37.1779 195.807 34.4965 197.33 32.6155C198.852 30.7346 200.996 29.794 203.761 29.794C206.486 29.794 208.599 30.7346 210.102 32.6155C211.604 34.4965 212.355 37.1779 212.355 40.6598C212.355 44.2217 211.614 46.9231 210.132 48.7641C208.649 50.605 206.505 51.5255 203.701 51.5255ZM231.648 55.908V38.7988C231.648 36.0373 232.329 33.8562 233.691 32.2554C235.054 30.6545 236.897 29.8541 239.221 29.8541C241.224 29.8541 242.677 30.4544 243.578 31.655C244.48 32.8557 244.93 34.7566 244.93 37.358V55.908H251.001V38.7988C251.001 36.0373 251.672 33.8562 253.014 32.2554C254.356 30.6545 256.189 29.8541 258.514 29.8541C260.517 29.8541 261.969 30.4544 262.87 31.655C263.772 32.8557 264.223 34.7566 264.223 37.358V55.908H270.293V37.0579C270.293 28.9736 266.928 24.9315 260.196 24.9315C257.952 24.9315 255.939 25.4518 254.156 26.4923C252.373 27.5328 251.021 28.9536 250.099 30.7545C248.657 26.8725 245.591 24.9315 240.904 24.9315C238.7 24.9315 236.776 25.4317 235.134 26.4322C233.491 27.4328 232.229 28.8535 231.348 30.6945L230.807 25.6519H225.157C225.477 28.1732 225.638 31.0147 225.638 34.1764V55.908H231.648Z" fill="white"/>
</svg>
