<svg width="223" height="50" viewBox="0 0 223 50" fill="none" xmlns="http://www.w3.org/2000/svg">
<circle cx="25.1282" cy="25" r="25" fill="#1969FF"/>
<path fill-rule="evenodd" clip-rule="evenodd" d="M26.8089 7.94403C25.7585 7.38381 24.498 7.38381 23.4476 7.94403L15.2596 12.311C14.7187 12.7172 14.4603 13.1591 14.4315 13.5714H14.414V36.3809C14.414 36.9085 14.7047 37.3932 15.1703 37.6414L23.4476 42.056C24.498 42.6162 25.7585 42.6162 26.8089 42.056L35.0862 37.6414C35.5518 37.3932 35.8425 36.9085 35.8425 36.3809V13.5714H35.8263C35.8493 13.0777 35.597 12.5835 34.997 12.311L26.8089 7.94403ZM34.414 15.1429L26.8089 19.1989C26.7535 19.2285 26.6975 19.2565 26.641 19.2829L34.414 23.4285V15.1429ZM34.414 26.5714L26.8089 30.6274C25.7585 31.1876 24.498 31.1876 23.4476 30.6274L15.8425 26.5714V36.3809L24.1198 40.7955C24.7501 41.1316 25.5064 41.1316 26.1367 40.7955L34.414 36.3809V26.5714ZM15.8425 23.4285L23.6155 19.2829C23.559 19.2565 23.503 19.2285 23.4476 19.1989L15.8425 15.1429V23.4285ZM24.1199 9.20454C24.7501 8.8684 25.5064 8.8684 26.1367 9.20454L34.3247 13.5715L26.1367 17.9384C25.5064 18.2746 24.7501 18.2746 24.1199 17.9384L15.9318 13.5715L24.1199 9.20454ZM25.8425 29.4965V20.4761L34.3247 25L26.1367 29.3669C26.0412 29.4178 25.9429 29.461 25.8425 29.4965ZM24.414 20.4761V29.4965C24.3136 29.461 24.2153 29.4178 24.1198 29.3669L15.9318 25L24.414 20.4761Z" fill="white"/>
<path d="M35.5068 9.03719L36.6854 9.77379C37.9385 10.557 38.6997 11.9304 38.6997 13.4081V14.2858H37.2711V13.4081C37.2711 12.423 36.7636 11.5073 35.9282 10.9852L34.7497 10.2486L35.5068 9.03719Z" fill="white"/>
<path d="M13.5711 40.2262L14.7497 40.9628L15.5068 39.7513L14.3283 39.0147C13.4929 38.4926 12.9854 37.577 12.9854 36.5919V35.7142H11.5568V36.5919C11.5568 38.0695 12.3181 39.443 13.5711 40.2262Z" fill="white"/>
<path d="M69.8504 45.6214V24.7532H75.6373V20.9323H69.8504V18.189C69.8504 15.0866 71.2074 13.5354 73.9211 13.5354C74.7056 13.5354 75.5396 13.666 76.4223 13.9273V9.86143C75.3433 9.53487 74.15 9.37158 72.842 9.37158C70.3247 9.37158 68.371 10.09 66.9814 11.527C65.5918 12.9639 64.897 15.054 64.897 17.7972V20.9323H60.14V24.7532H64.897V45.6214H69.8504ZM89.958 45.9641C91.8545 45.9641 93.5137 45.5723 94.9359 44.7882C96.3581 44.0047 97.4291 42.878 98.1484 41.4084V45.6214H103.053V20.9323H98.1484V24.9491C97.3961 23.4796 96.3175 22.3447 94.9113 21.5446C93.5057 20.7445 91.8545 20.3444 89.958 20.3444C87.8329 20.3444 85.9364 20.8833 84.2692 21.961C82.6015 23.0387 81.302 24.5573 80.3703 26.5167C79.4385 28.4761 78.9726 30.7295 78.9726 33.2767C78.9726 35.824 79.43 38.0529 80.3457 39.9633C81.261 41.8738 82.5444 43.3515 84.1955 44.3966C85.8467 45.4416 87.7673 45.9641 89.958 45.9641ZM91.1352 42.0452C88.8789 42.0452 87.1216 41.2778 85.8632 39.7429C84.6043 38.208 83.9746 36.0526 83.9746 33.2767C83.9746 30.4682 84.6043 28.272 85.8632 26.6882C87.1216 25.1042 88.8629 24.3123 91.0861 24.3123C93.3419 24.3123 95.0831 25.0798 96.309 26.6147C97.5353 28.1495 98.1484 30.3376 98.1484 33.1788C98.1484 35.9873 97.5353 38.1672 96.309 39.7184C95.0831 41.2696 93.3584 42.0452 91.1352 42.0452ZM115.215 45.6214V31.5622C115.215 29.3742 115.845 27.627 117.103 26.3208C118.362 25.0144 120.038 24.3613 122.13 24.3613C123.961 24.3613 125.293 24.8512 126.127 25.8309C126.961 26.8106 127.378 28.3781 127.378 30.5335V45.6214H132.331V30.2396C132.331 23.6429 129.372 20.3444 123.454 20.3444C121.558 20.3444 119.866 20.7608 118.378 21.5936C116.891 22.4263 115.755 23.6265 114.97 25.1941L114.529 20.9323H109.919C110.18 22.9897 110.311 25.3083 110.311 27.8883V45.6214H115.215ZM148.908 45.9641C150.281 45.9641 151.507 45.7847 152.586 45.4255V41.4084C151.703 41.6697 150.837 41.8003 149.987 41.8003C148.679 41.8003 147.657 41.4492 146.921 40.7471C146.186 40.045 145.818 38.8448 145.818 37.1467V24.7532H152.635V20.9323H145.818V13.0455L140.865 14.7601V20.9323H136.058V24.7532H140.865V37.5385C140.865 40.2817 141.568 42.3718 142.973 43.8087C144.38 45.2457 146.357 45.9641 148.908 45.9641ZM167.838 45.9641C170.225 45.9641 172.334 45.4416 174.165 44.3966C175.996 43.3515 177.41 41.8656 178.407 39.9388C179.404 38.0121 179.903 35.7587 179.903 33.1788C179.903 30.5988 179.404 28.3373 178.407 26.3942C177.41 24.4511 175.996 22.9571 174.165 21.912C172.334 20.867 170.225 20.3444 167.838 20.3444C165.419 20.3444 163.294 20.867 161.463 21.912C159.632 22.9571 158.218 24.4511 157.22 26.3942C156.223 28.3373 155.725 30.5988 155.725 33.1788C155.725 35.7587 156.223 38.0121 157.22 39.9388C158.218 41.8656 159.632 43.3515 161.463 44.3966C163.294 45.4416 165.419 45.9641 167.838 45.9641ZM167.789 42.0452C165.533 42.0452 163.792 41.2941 162.566 39.7919C161.34 38.2896 160.727 36.0853 160.727 33.1788C160.727 30.3376 161.348 28.1495 162.591 26.6147C163.833 25.0798 165.582 24.3123 167.838 24.3123C170.062 24.3123 171.786 25.0798 173.012 26.6147C174.239 28.1495 174.851 30.3376 174.851 33.1788C174.851 36.0853 174.247 38.2896 173.037 39.7919C171.827 41.2941 170.078 42.0452 167.789 42.0452ZM190.594 45.6214V31.6602C190.594 29.4068 191.15 27.627 192.262 26.3208C193.373 25.0144 194.877 24.3613 196.774 24.3613C198.408 24.3613 199.594 24.8512 200.329 25.8309C201.065 26.8106 201.433 28.3618 201.433 30.4845V45.6214H206.386V31.6602C206.386 29.4068 206.934 27.627 208.029 26.3208C209.124 25.0144 210.62 24.3613 212.517 24.3613C214.151 24.3613 215.337 24.8512 216.072 25.8309C216.808 26.8106 217.175 28.3618 217.175 30.4845V45.6214H222.129V30.2396C222.129 23.6429 219.383 20.3444 213.89 20.3444C212.059 20.3444 210.416 20.769 208.961 21.6181C207.506 22.4672 206.403 23.6265 205.651 25.0961C204.473 21.9283 201.972 20.3444 198.147 20.3444C196.349 20.3444 194.779 20.7527 193.439 21.5691C192.098 22.3855 191.068 23.5449 190.349 25.0471L189.908 20.9323H185.298C185.559 22.9897 185.69 25.3083 185.69 27.8883V45.6214H190.594Z" fill="black"/>
</svg>
