<svg width="70" height="71" viewBox="0 0 70 71" fill="none" xmlns="http://www.w3.org/2000/svg">
<path d="M53.9683 55.0267C53.0159 55.0267 52.381 55.6617 52.381 56.614C52.381 58.3601 50.9524 59.7886 49.2064 59.7886C47.4604 59.7886 46.0318 58.3601 46.0318 56.614V42.3283C46.0318 41.3759 45.3969 40.741 44.4445 40.741C43.4921 40.741 42.8572 41.3759 42.8572 42.3283V56.614C42.8572 60.1061 45.7143 62.9633 49.2064 62.9633C52.6984 62.9633 55.5556 60.1061 55.5556 56.614C55.5556 55.6617 54.9207 55.0267 53.9683 55.0267Z" fill="#17CDF7"/>
<path d="M42.8573 67.7252C41.1112 67.7252 39.6827 66.2966 39.6827 64.5506V37.5664C39.6827 36.614 39.0477 35.9791 38.0954 35.9791C37.143 35.9791 36.5081 36.614 36.5081 37.5664V64.5506C36.5081 68.0426 39.3652 70.8998 42.8573 70.8998C43.8096 70.8998 44.4446 70.2648 44.4446 69.3125C44.4446 68.3601 43.8096 67.7252 42.8573 67.7252Z" fill="#17CDF7"/>
<path d="M68.2541 50.2648C66.508 50.2648 65.0795 48.8363 65.0795 47.0902C65.0795 43.5982 62.2223 40.741 58.7303 40.741H49.2064C48.2541 40.741 47.6191 41.3759 47.6191 42.3283C47.6191 43.2807 48.2541 43.9156 49.2064 43.9156H58.7303C60.4763 43.9156 61.9049 45.3442 61.9049 47.0902C61.9049 50.5823 64.762 53.4394 68.2541 53.4394C69.2064 53.4394 69.8414 52.8045 69.8414 51.8521C69.8414 50.8998 69.2064 50.2648 68.2541 50.2648Z" fill="#17CDF7"/>
<path d="M26.9841 42.3283C26.9841 41.3759 26.3491 40.741 25.3968 40.741C24.4444 40.741 23.8095 41.3759 23.8095 42.3283V56.614C23.8095 58.3601 22.3809 59.7886 20.6349 59.7886C18.8888 59.7886 17.4602 58.3601 17.4602 56.614C17.4602 55.6617 16.8253 55.0267 15.8729 55.0267C14.9206 55.0267 14.2856 55.6617 14.2856 56.614C14.2856 60.1061 17.1428 62.9633 20.6349 62.9633C24.1269 62.9633 26.9841 60.1061 26.9841 56.614V42.3283Z" fill="#17CDF7"/>
<path d="M31.7459 35.9791C30.7936 35.9791 30.1586 36.614 30.1586 37.5664V64.5506C30.1586 66.2966 28.7301 67.7252 26.984 67.7252C26.0316 67.7252 25.3967 68.3601 25.3967 69.3125C25.3967 70.2648 26.0316 70.8998 26.984 70.8998C30.4761 70.8998 33.3332 68.0426 33.3332 64.5506V37.5664C33.3332 36.614 32.6983 35.9791 31.7459 35.9791Z" fill="#17CDF7"/>
<path d="M49.2063 20.1067C49.2063 23.9163 47.619 26.2972 46.0317 28.9956C45.3968 30.1067 44.7619 31.2178 44.127 32.329C43.4921 33.7575 43.4921 35.5036 44.4444 36.9321C45.3968 38.3607 46.8254 39.1544 48.4127 39.1544H50.4762C56.0317 39.1544 60.3175 35.0274 60.3175 29.6306V24.8686C60.3175 23.1226 61.746 21.694 63.4921 21.694C65.2381 21.694 66.6667 23.1226 66.6667 24.8686C66.6667 25.821 67.3016 26.4559 68.254 26.4559C69.2064 26.4559 69.8413 25.821 69.8413 24.8686C69.8413 21.3766 66.9841 18.5194 63.4921 18.5194C60 18.5194 57.1429 21.3766 57.1429 24.8686V29.6306C57.1429 33.1226 54.2857 35.9798 50.4762 35.9798H48.4127C47.9365 35.9798 47.3016 35.6623 47.1429 35.1861C46.8254 34.7099 46.8254 34.075 46.9841 33.5988C47.4603 32.6464 48.0952 31.694 48.7302 30.5829C50.4762 27.7258 52.381 24.7099 52.381 19.948C52.381 8.67817 45.2381 0.900391 34.9206 0.900391C24.6032 0.900391 17.4603 8.8369 17.4603 20.1067C17.4603 24.7099 19.3651 27.8845 21.1111 30.7417C21.746 31.694 22.381 32.8052 22.8571 33.7575C23.1746 34.2337 23.0159 34.8686 22.6984 35.3448C22.381 35.821 21.9048 36.1385 21.4286 36.1385H19.0476C15.5556 36.1385 12.6984 33.2813 12.6984 29.7893V25.0274C12.6984 21.5353 9.84127 18.6782 6.34921 18.6782C2.85714 18.6782 0 21.5353 0 25.0274C0 25.9798 0.634921 26.6147 1.5873 26.6147C2.53968 26.6147 3.1746 25.9798 3.1746 25.0274C3.1746 23.2813 4.60317 21.8528 6.34921 21.8528C8.09524 21.8528 9.52381 23.2813 9.52381 25.0274V29.7893C9.52381 35.0274 13.8095 39.3131 19.0476 39.3131H21.4286C23.0159 39.3131 24.6032 38.5194 25.3968 37.0909C26.3492 35.6623 26.3492 33.9163 25.7143 32.4877C25.2381 31.3766 24.4444 30.2655 23.8095 29.1544C22.2222 26.4559 20.6349 23.9163 20.6349 20.2655C20.6349 10.7417 26.3492 4.39245 34.9206 4.39245C43.4921 4.39245 49.2063 10.5829 49.2063 20.1067Z" fill="#17CDF7"/>
<path d="M28.5714 29.6299C29.4481 29.6299 30.1587 28.9193 30.1587 28.0426C30.1587 27.166 29.4481 26.4553 28.5714 26.4553C27.6948 26.4553 26.9841 27.166 26.9841 28.0426C26.9841 28.9193 27.6948 29.6299 28.5714 29.6299Z" fill="#17CDF7"/>
<path d="M41.2699 29.6299C42.1466 29.6299 42.8572 28.9193 42.8572 28.0426C42.8572 27.166 42.1466 26.4553 41.2699 26.4553C40.3933 26.4553 39.6826 27.166 39.6826 28.0426C39.6826 28.9193 40.3933 29.6299 41.2699 29.6299Z" fill="#17CDF7"/>
<path d="M22.2222 42.3283C22.2222 41.3759 21.5873 40.741 20.6349 40.741H11.1111C7.61905 40.741 4.7619 43.5982 4.7619 47.0902C4.7619 48.8363 3.33333 50.2648 1.5873 50.2648C0.634921 50.2648 0 50.8998 0 51.8521C0 52.8045 0.634921 53.4394 1.5873 53.4394C5.07937 53.4394 7.93651 50.5823 7.93651 47.0902C7.93651 45.3442 9.36508 43.9156 11.1111 43.9156H20.6349C21.5873 43.9156 22.2222 43.2807 22.2222 42.3283Z" fill="#17CDF7"/>
</svg>
