<svg width="155" height="54" viewBox="0 0 155 54" fill="none" xmlns="http://www.w3.org/2000/svg">
<path d="M62.5771 17.336C62.1291 16.5147 61.5131 15.8893 60.7291 15.46C59.9451 15.0307 59.0304 14.816 57.9851 14.816C56.8278 14.816 55.8011 15.0773 54.9051 15.6C54.0091 16.1227 53.3091 16.8693 52.8051 17.84C52.3011 18.8107 52.0491 19.9307 52.0491 21.2C52.0491 22.5067 52.3011 23.6453 52.8051 24.616C53.3278 25.5867 54.0464 26.3333 54.9611 26.856C55.8758 27.3787 56.9398 27.64 58.1531 27.64C59.6464 27.64 60.8691 27.248 61.8211 26.464C62.7731 25.6613 63.3984 24.5507 63.6971 23.132H56.9771V20.136H67.5611V23.552C67.2998 24.9147 66.7398 26.1747 65.8811 27.332C65.0224 28.4893 63.9118 29.4227 62.5491 30.132C61.2051 30.8227 59.6931 31.168 58.0131 31.168C56.1278 31.168 54.4198 30.748 52.8891 29.908C51.3771 29.0493 50.1824 27.864 49.3051 26.352C48.4464 24.84 48.0171 23.1227 48.0171 21.2C48.0171 19.2773 48.4464 17.56 49.3051 16.048C50.1824 14.5173 51.3771 13.332 52.8891 12.492C54.4198 11.6333 56.1184 11.204 57.9851 11.204C60.1878 11.204 62.1011 11.7453 63.7251 12.828C65.3491 13.892 66.4691 15.3947 67.0851 17.336H62.5771ZM77.3493 31.252C75.856 31.252 74.512 30.9253 73.3173 30.272C72.1226 29.6 71.18 28.6573 70.4893 27.444C69.8173 26.2307 69.4813 24.8307 69.4813 23.244C69.4813 21.6573 69.8266 20.2573 70.5173 19.044C71.2266 17.8307 72.188 16.8973 73.4013 16.244C74.6146 15.572 75.968 15.236 77.4613 15.236C78.9546 15.236 80.308 15.572 81.5213 16.244C82.7346 16.8973 83.6866 17.8307 84.3773 19.044C85.0866 20.2573 85.4413 21.6573 85.4413 23.244C85.4413 24.8307 85.0773 26.2307 84.3493 27.444C83.64 28.6573 82.6693 29.6 81.4373 30.272C80.224 30.9253 78.8613 31.252 77.3493 31.252ZM77.3493 27.836C78.0586 27.836 78.7213 27.668 79.3373 27.332C79.972 26.9773 80.476 26.4547 80.8493 25.764C81.2226 25.0733 81.4093 24.2333 81.4093 23.244C81.4093 21.7693 81.0173 20.64 80.2333 19.856C79.468 19.0533 78.5253 18.652 77.4053 18.652C76.2853 18.652 75.3426 19.0533 74.5773 19.856C73.8306 20.64 73.4573 21.7693 73.4573 23.244C73.4573 24.7187 73.8213 25.8573 74.5493 26.66C75.296 27.444 76.2293 27.836 77.3493 27.836ZM95.2048 31.252C93.7114 31.252 92.3674 30.9253 91.1728 30.272C89.9781 29.6 89.0354 28.6573 88.3448 27.444C87.6728 26.2307 87.3368 24.8307 87.3368 23.244C87.3368 21.6573 87.6821 20.2573 88.3728 19.044C89.0821 17.8307 90.0434 16.8973 91.2568 16.244C92.4701 15.572 93.8234 15.236 95.3168 15.236C96.8101 15.236 98.1634 15.572 99.3768 16.244C100.59 16.8973 101.542 17.8307 102.233 19.044C102.942 20.2573 103.297 21.6573 103.297 23.244C103.297 24.8307 102.933 26.2307 102.205 27.444C101.495 28.6573 100.525 29.6 99.2928 30.272C98.0794 30.9253 96.7168 31.252 95.2048 31.252ZM95.2048 27.836C95.9141 27.836 96.5768 27.668 97.1928 27.332C97.8274 26.9773 98.3314 26.4547 98.7048 25.764C99.0781 25.0733 99.2648 24.2333 99.2648 23.244C99.2648 21.7693 98.8728 20.64 98.0888 19.856C97.3234 19.0533 96.3808 18.652 95.2608 18.652C94.1408 18.652 93.1981 19.0533 92.4328 19.856C91.6861 20.64 91.3128 21.7693 91.3128 23.244C91.3128 24.7187 91.6768 25.8573 92.4048 26.66C93.1514 27.444 94.0848 27.836 95.2048 27.836ZM112.248 15.236C113.406 15.236 114.423 15.4693 115.3 15.936C116.178 16.384 116.868 16.972 117.372 17.7V15.488H121.32V31.112C121.32 32.5493 121.031 33.828 120.452 34.948C119.874 36.0867 119.006 36.9827 117.848 37.636C116.691 38.308 115.291 38.644 113.648 38.644C111.446 38.644 109.635 38.1307 108.216 37.104C106.816 36.0773 106.023 34.6773 105.836 32.904H109.728C109.934 33.6133 110.372 34.1733 111.044 34.584C111.735 35.0133 112.566 35.228 113.536 35.228C114.675 35.228 115.599 34.8827 116.308 34.192C117.018 33.52 117.372 32.4933 117.372 31.112V28.704C116.868 29.432 116.168 30.0387 115.272 30.524C114.395 31.0093 113.387 31.252 112.248 31.252C110.942 31.252 109.747 30.916 108.664 30.244C107.582 29.572 106.723 28.6293 106.088 27.416C105.472 26.184 105.164 24.7747 105.164 23.188C105.164 21.62 105.472 20.2293 106.088 19.016C106.723 17.8027 107.572 16.8693 108.636 16.216C109.719 15.5627 110.923 15.236 112.248 15.236ZM117.372 23.244C117.372 22.292 117.186 21.48 116.812 20.808C116.439 20.1173 115.935 19.5947 115.3 19.24C114.666 18.8667 113.984 18.68 113.256 18.68C112.528 18.68 111.856 18.8573 111.24 19.212C110.624 19.5667 110.12 20.0893 109.728 20.78C109.355 21.452 109.168 22.2547 109.168 23.188C109.168 24.1213 109.355 24.9427 109.728 25.652C110.12 26.3427 110.624 26.8747 111.24 27.248C111.875 27.6213 112.547 27.808 113.256 27.808C113.984 27.808 114.666 27.6307 115.3 27.276C115.935 26.9027 116.439 26.38 116.812 25.708C117.186 25.0173 117.372 24.196 117.372 23.244ZM129.069 10.28V31H125.149V10.28H129.069ZM147.362 22.908C147.362 23.468 147.324 23.972 147.25 24.42H135.91C136.003 25.54 136.395 26.4173 137.086 27.052C137.776 27.6867 138.626 28.004 139.634 28.004C141.09 28.004 142.126 27.3787 142.742 26.128H146.97C146.522 27.6213 145.663 28.8533 144.394 29.824C143.124 30.776 141.566 31.252 139.718 31.252C138.224 31.252 136.88 30.9253 135.686 30.272C134.51 29.6 133.586 28.6573 132.914 27.444C132.26 26.2307 131.934 24.8307 131.934 23.244C131.934 21.6387 132.26 20.2293 132.914 19.016C133.567 17.8027 134.482 16.8693 135.658 16.216C136.834 15.5627 138.187 15.236 139.718 15.236C141.192 15.236 142.508 15.5533 143.666 16.188C144.842 16.8227 145.747 17.728 146.382 18.904C147.035 20.0613 147.362 21.396 147.362 22.908ZM143.302 21.788C143.283 20.78 142.919 19.9773 142.21 19.38C141.5 18.764 140.632 18.456 139.606 18.456C138.635 18.456 137.814 18.7547 137.142 19.352C136.488 19.9307 136.087 20.7427 135.938 21.788H143.302ZM69.4092 43.732H68.2452V49H66.5412V43.732H65.7852V42.352H66.5412V42.016C66.5412 41.2 66.7732 40.6 67.2372 40.216C67.7012 39.832 68.4012 39.652 69.3372 39.676V41.092C68.9292 41.084 68.6452 41.152 68.4852 41.296C68.3252 41.44 68.2452 41.7 68.2452 42.076V42.352H69.4092V43.732ZM73.4499 49.108C72.8099 49.108 72.2339 48.968 71.7219 48.688C71.2099 48.4 70.8059 47.996 70.5099 47.476C70.2219 46.956 70.0779 46.356 70.0779 45.676C70.0779 44.996 70.2259 44.396 70.5219 43.876C70.8259 43.356 71.2379 42.956 71.7579 42.676C72.2779 42.388 72.8579 42.244 73.4979 42.244C74.1379 42.244 74.7179 42.388 75.2379 42.676C75.7579 42.956 76.1659 43.356 76.4619 43.876C76.7659 44.396 76.9179 44.996 76.9179 45.676C76.9179 46.356 76.7619 46.956 76.4499 47.476C76.1459 47.996 75.7299 48.4 75.2019 48.688C74.6819 48.968 74.0979 49.108 73.4499 49.108ZM73.4499 47.644C73.7539 47.644 74.0379 47.572 74.3019 47.428C74.5739 47.276 74.7899 47.052 74.9499 46.756C75.1099 46.46 75.1899 46.1 75.1899 45.676C75.1899 45.044 75.0219 44.56 74.6859 44.224C74.3579 43.88 73.9539 43.708 73.4739 43.708C72.9939 43.708 72.5899 43.88 72.2619 44.224C71.9419 44.56 71.7819 45.044 71.7819 45.676C71.7819 46.308 71.9379 46.796 72.2499 47.14C72.5699 47.476 72.9699 47.644 73.4499 47.644ZM79.8303 43.384C80.0463 43.032 80.3263 42.756 80.6703 42.556C81.0223 42.356 81.4223 42.256 81.8703 42.256V44.02H81.4263C80.8983 44.02 80.4983 44.144 80.2263 44.392C79.9623 44.64 79.8303 45.072 79.8303 45.688V49H78.1503V42.352H79.8303V43.384ZM88.4052 49.108C87.8612 49.108 87.3732 49.012 86.9412 48.82C86.5092 48.62 86.1652 48.352 85.9092 48.016C85.6612 47.68 85.5252 47.308 85.5012 46.9H87.1932C87.2252 47.156 87.3492 47.368 87.5652 47.536C87.7892 47.704 88.0652 47.788 88.3932 47.788C88.7132 47.788 88.9612 47.724 89.1372 47.596C89.3212 47.468 89.4132 47.304 89.4132 47.104C89.4132 46.888 89.3012 46.728 89.0772 46.624C88.8612 46.512 88.5132 46.392 88.0332 46.264C87.5372 46.144 87.1292 46.02 86.8092 45.892C86.4972 45.764 86.2252 45.568 85.9932 45.304C85.7692 45.04 85.6572 44.684 85.6572 44.236C85.6572 43.868 85.7612 43.532 85.9692 43.228C86.1852 42.924 86.4892 42.684 86.8812 42.508C87.2812 42.332 87.7492 42.244 88.2852 42.244C89.0772 42.244 89.7092 42.444 90.1812 42.844C90.6532 43.236 90.9132 43.768 90.9612 44.44H89.3532C89.3292 44.176 89.2172 43.968 89.0172 43.816C88.8252 43.656 88.5652 43.576 88.2372 43.576C87.9332 43.576 87.6972 43.632 87.5292 43.744C87.3692 43.856 87.2892 44.012 87.2892 44.212C87.2892 44.436 87.4012 44.608 87.6252 44.728C87.8492 44.84 88.1972 44.956 88.6692 45.076C89.1492 45.196 89.5452 45.32 89.8572 45.448C90.1692 45.576 90.4372 45.776 90.6612 46.048C90.8932 46.312 91.0132 46.664 91.0212 47.104C91.0212 47.488 90.9132 47.832 90.6972 48.136C90.4892 48.44 90.1852 48.68 89.7852 48.856C89.3932 49.024 88.9332 49.108 88.4052 49.108ZM94.3563 43.732V46.948C94.3563 47.172 94.4083 47.336 94.5123 47.44C94.6243 47.536 94.8083 47.584 95.0643 47.584H95.8443V49H94.7883C93.3723 49 92.6643 48.312 92.6643 46.936V43.732H91.8723V42.352H92.6643V40.708H94.3563V42.352H95.8443V43.732H94.3563ZM96.6206 45.652C96.6206 44.98 96.7526 44.384 97.0166 43.864C97.2886 43.344 97.6526 42.944 98.1086 42.664C98.5726 42.384 99.0886 42.244 99.6566 42.244C100.153 42.244 100.585 42.344 100.953 42.544C101.329 42.744 101.629 42.996 101.853 43.3V42.352H103.545V49H101.853V48.028C101.637 48.34 101.337 48.6 100.953 48.808C100.577 49.008 100.141 49.108 99.6446 49.108C99.0846 49.108 98.5726 48.964 98.1086 48.676C97.6526 48.388 97.2886 47.984 97.0166 47.464C96.7526 46.936 96.6206 46.332 96.6206 45.652ZM101.853 45.676C101.853 45.268 101.773 44.92 101.613 44.632C101.453 44.336 101.237 44.112 100.965 43.96C100.693 43.8 100.401 43.72 100.089 43.72C99.7766 43.72 99.4886 43.796 99.2246 43.948C98.9606 44.1 98.7446 44.324 98.5766 44.62C98.4166 44.908 98.3366 45.252 98.3366 45.652C98.3366 46.052 98.4166 46.404 98.5766 46.708C98.7446 47.004 98.9606 47.232 99.2246 47.392C99.4966 47.552 99.7846 47.632 100.089 47.632C100.401 47.632 100.693 47.556 100.965 47.404C101.237 47.244 101.453 47.02 101.613 46.732C101.773 46.436 101.853 46.084 101.853 45.676ZM106.865 43.384C107.081 43.032 107.361 42.756 107.705 42.556C108.057 42.356 108.457 42.256 108.905 42.256V44.02H108.461C107.933 44.02 107.533 44.144 107.261 44.392C106.997 44.64 106.865 45.072 106.865 45.688V49H105.185V42.352H106.865V43.384ZM111.993 43.732V46.948C111.993 47.172 112.045 47.336 112.149 47.44C112.261 47.536 112.445 47.584 112.701 47.584H113.481V49H112.425C111.009 49 110.301 48.312 110.301 46.936V43.732H109.509V42.352H110.301V40.708H111.993V42.352H113.481V43.732H111.993ZM120.965 42.352V49H119.273V48.16C119.057 48.448 118.773 48.676 118.421 48.844C118.077 49.004 117.701 49.084 117.293 49.084C116.773 49.084 116.313 48.976 115.913 48.76C115.513 48.536 115.197 48.212 114.965 47.788C114.741 47.356 114.629 46.844 114.629 46.252V42.352H116.309V46.012C116.309 46.54 116.441 46.948 116.705 47.236C116.969 47.516 117.329 47.656 117.785 47.656C118.249 47.656 118.613 47.516 118.877 47.236C119.141 46.948 119.273 46.54 119.273 46.012V42.352H120.965ZM124.303 43.312C124.519 43.008 124.815 42.756 125.191 42.556C125.575 42.348 126.011 42.244 126.499 42.244C127.067 42.244 127.579 42.384 128.035 42.664C128.499 42.944 128.863 43.344 129.127 43.864C129.399 44.376 129.535 44.972 129.535 45.652C129.535 46.332 129.399 46.936 129.127 47.464C128.863 47.984 128.499 48.388 128.035 48.676C127.579 48.964 127.067 49.108 126.499 49.108C126.011 49.108 125.579 49.008 125.203 48.808C124.835 48.608 124.535 48.356 124.303 48.052V52.168H122.623V42.352H124.303V43.312ZM127.819 45.652C127.819 45.252 127.735 44.908 127.567 44.62C127.407 44.324 127.191 44.1 126.919 43.948C126.655 43.796 126.367 43.72 126.055 43.72C125.751 43.72 125.463 43.8 125.191 43.96C124.927 44.112 124.711 44.336 124.543 44.632C124.383 44.928 124.303 45.276 124.303 45.676C124.303 46.076 124.383 46.424 124.543 46.72C124.711 47.016 124.927 47.244 125.191 47.404C125.463 47.556 125.751 47.632 126.055 47.632C126.367 47.632 126.655 47.552 126.919 47.392C127.191 47.232 127.407 47.004 127.567 46.708C127.735 46.412 127.819 46.06 127.819 45.652ZM133.3 49.108C132.756 49.108 132.268 49.012 131.836 48.82C131.404 48.62 131.06 48.352 130.804 48.016C130.556 47.68 130.42 47.308 130.396 46.9H132.088C132.12 47.156 132.244 47.368 132.46 47.536C132.684 47.704 132.96 47.788 133.288 47.788C133.608 47.788 133.856 47.724 134.032 47.596C134.216 47.468 134.308 47.304 134.308 47.104C134.308 46.888 134.196 46.728 133.972 46.624C133.756 46.512 133.408 46.392 132.928 46.264C132.432 46.144 132.024 46.02 131.704 45.892C131.392 45.764 131.12 45.568 130.888 45.304C130.664 45.04 130.552 44.684 130.552 44.236C130.552 43.868 130.656 43.532 130.864 43.228C131.08 42.924 131.384 42.684 131.776 42.508C132.176 42.332 132.644 42.244 133.18 42.244C133.972 42.244 134.604 42.444 135.076 42.844C135.548 43.236 135.808 43.768 135.856 44.44H134.248C134.224 44.176 134.112 43.968 133.912 43.816C133.72 43.656 133.46 43.576 133.132 43.576C132.828 43.576 132.592 43.632 132.424 43.744C132.264 43.856 132.184 44.012 132.184 44.212C132.184 44.436 132.296 44.608 132.52 44.728C132.744 44.84 133.092 44.956 133.564 45.076C134.044 45.196 134.44 45.32 134.752 45.448C135.064 45.576 135.332 45.776 135.556 46.048C135.788 46.312 135.908 46.664 135.916 47.104C135.916 47.488 135.808 47.832 135.592 48.136C135.384 48.44 135.08 48.68 134.68 48.856C134.288 49.024 133.828 49.108 133.3 49.108Z" fill="white"/>
<path d="M18.5 45.9999C28.7173 45.9999 37 37.7172 37 27.5C37 17.2827 28.7173 9 18.5 9C8.28274 9 0 17.2827 0 27.5C0 37.7172 8.28274 45.9999 18.5 45.9999Z" fill="url(#paint0_linear_719_1060)"/>
<path d="M28.6991 28.3179C28.6991 31.1369 27.8627 33.3828 26.1901 35.0555C24.2919 37.0476 21.8206 38.0436 18.776 38.0436C15.8629 38.0436 13.3821 37.0381 11.3336 35.0272C9.3039 32.9974 8.28906 30.4886 8.28906 27.5004C8.28906 24.5122 9.3039 22.0125 11.3336 20.0016C13.3821 17.9719 15.8629 16.957 18.776 16.957C20.2231 16.957 21.6044 17.2389 22.92 17.8027C24.2355 18.3665 25.288 19.1183 26.0773 20.058L24.3013 21.834C22.967 20.2365 21.1252 19.4379 18.776 19.4379C16.6523 19.4379 14.8105 20.1896 13.2506 21.6931C11.7095 23.1778 10.9389 25.1136 10.9389 27.5004C10.9389 29.8872 11.7095 31.8323 13.2506 33.3358C14.8105 34.8205 16.6523 35.5629 18.776 35.5629C21.0312 35.5629 22.9106 34.8111 24.4141 33.3076C25.3914 32.3303 25.9552 30.9678 26.1056 29.22H18.776V26.7956H28.5581C28.6521 27.3218 28.6992 27.8292 28.6992 28.3179H28.6991Z" fill="#FEE1DE" stroke="#FEE0DE" stroke-width="0.773394"/>
<defs>
<linearGradient id="paint0_linear_719_1060" x1="17.7369" y1="45.1289" x2="17.7369" y2="9.45031" gradientUnits="userSpaceOnUse">
<stop stop-color="#E52823"/>
<stop offset="1" stop-color="#FF3A2F"/>
</linearGradient>
</defs>
</svg>
