<svg width="250" height="52" viewBox="0 0 250 52" fill="none" xmlns="http://www.w3.org/2000/svg">
<g opacity="1">
<g clip-path="url(#clip0_688_1791)">
<path d="M25.42 51.84C39.4591 51.84 50.84 40.4591 50.84 26.42C50.84 12.3809 39.4591 1 25.42 1C11.3809 1 0 12.3809 0 26.42C0 40.4591 11.3809 51.84 25.42 51.84Z" fill="white"/>
<path d="M18.0067 33.1725C16.4917 33.1725 15.2512 32.8166 14.2853 32.1049C13.3295 31.3829 12.8516 30.3458 12.8516 29.0138C12.8516 28.7291 12.8821 28.3936 12.9431 27.9868C13.1058 27.0717 13.3396 25.9736 13.6447 24.6822C14.5089 21.1844 16.7459 19.4355 20.3454 19.4355C21.3215 19.4355 22.2061 19.5982 22.9789 19.9338C23.7517 20.249 24.3617 20.7371 24.8091 21.3878C25.2565 22.0284 25.4802 22.791 25.4802 23.6756C25.4802 23.94 25.4497 24.2755 25.3887 24.6822C25.1955 25.8109 24.9718 26.9192 24.6973 27.9868C24.2499 29.7256 23.4873 31.0372 22.3891 31.9015C21.3012 32.7556 19.837 33.1725 18.0067 33.1725ZM18.2813 30.4272C18.993 30.4272 19.5929 30.2136 20.0912 29.7967C20.5996 29.3799 20.9656 28.7393 21.1792 27.8648C21.474 26.665 21.6977 25.6279 21.8502 24.7331C21.9011 24.4687 21.9316 24.1942 21.9316 23.9095C21.9316 22.7503 21.3317 22.1707 20.1217 22.1707C19.4099 22.1707 18.7998 22.3843 18.2914 22.8012C17.7932 23.218 17.4373 23.8586 17.2238 24.7331C16.9899 25.5872 16.7662 26.6243 16.5324 27.8648C16.4815 28.119 16.451 28.3834 16.451 28.6681C16.4409 29.8476 17.0611 30.4272 18.2813 30.4272Z" fill="#1E6EE5"/>
<path d="M26.3667 32.9877C26.2243 32.9877 26.1226 32.947 26.0413 32.8555C25.9803 32.7538 25.9599 32.642 25.9803 32.5098L28.6138 20.1048C28.6341 19.9625 28.7053 19.8506 28.8273 19.7591C28.9392 19.6676 29.0612 19.627 29.1934 19.627H34.2672C35.6806 19.627 36.8092 19.9218 37.6633 20.5014C38.5276 21.0911 38.9648 21.9351 38.9648 23.0434C38.9648 23.3586 38.9241 23.6942 38.853 24.0399C38.5378 25.5041 37.8972 26.5819 36.921 27.2835C35.9653 27.985 34.6536 28.3308 32.986 28.3308H30.4135L29.5391 32.5098C29.5086 32.6522 29.4476 32.764 29.3256 32.8555C29.2137 32.947 29.0917 32.9877 28.9595 32.9877H26.3667ZM33.1182 25.6972C33.6571 25.6972 34.1147 25.5549 34.5112 25.26C34.918 24.9652 35.1823 24.5483 35.3145 23.9992C35.3552 23.7857 35.3755 23.5925 35.3755 23.4298C35.3755 23.0637 35.2637 22.779 35.0501 22.5858C34.8366 22.3825 34.4604 22.2808 33.9418 22.2808H31.654L30.9321 25.6972H33.1182Z" fill="#1E6EE5"/>
</g>
<path d="M90.5099 25.5515C90.5099 28.7027 89.9126 31.3836 88.718 33.5941C87.5328 35.8047 85.9148 37.4931 83.8642 38.6596C81.823 39.8166 79.5278 40.3951 76.9786 40.3951C74.4106 40.3951 72.106 39.8119 70.0647 38.6455C68.0235 37.479 66.4103 35.7906 65.2251 33.58C64.0398 31.3695 63.4472 28.6933 63.4472 25.5515C63.4472 22.4003 64.0398 19.7194 65.2251 17.5089C66.4103 15.2983 68.0235 13.6145 70.0647 12.4575C72.106 11.2911 74.4106 10.7079 76.9786 10.7079C79.5278 10.7079 81.823 11.2911 83.8642 12.4575C85.9148 13.6145 87.5328 15.2983 88.718 17.5089C89.9126 19.7194 90.5099 22.4003 90.5099 25.5515ZM84.3157 25.5515C84.3157 23.5103 84.01 21.7889 83.3986 20.3873C82.7966 18.9857 81.9453 17.9228 80.8447 17.1985C79.7441 16.4741 78.4554 16.112 76.9786 16.112C75.5018 16.112 74.213 16.4741 73.1125 17.1985C72.0119 17.9228 71.1559 18.9857 70.5445 20.3873C69.9425 21.7889 69.6415 23.5103 69.6415 25.5515C69.6415 27.5927 69.9425 29.3141 70.5445 30.7157C71.1559 32.1173 72.0119 33.1802 73.1125 33.9045C74.213 34.6288 75.5018 34.991 76.9786 34.991C78.4554 34.991 79.7441 34.6288 80.8447 33.9045C81.9453 33.1802 82.7966 32.1173 83.3986 30.7157C84.01 29.3141 84.3157 27.5927 84.3157 25.5515ZM94.9228 48.1273V18.3272H100.849V21.9676H101.117C101.38 21.3844 101.761 20.7918 102.26 20.1897C102.768 19.5783 103.426 19.0704 104.235 18.6659C105.054 18.252 106.07 18.045 107.283 18.045C108.863 18.045 110.321 18.4589 111.657 19.2867C112.993 20.1051 114.06 21.3421 114.86 22.9976C115.66 24.6438 116.059 26.7085 116.059 29.1918C116.059 31.6093 115.669 33.6506 114.888 35.3155C114.117 36.9711 113.063 38.2269 111.728 39.0829C110.401 39.9295 108.915 40.3527 107.269 40.3527C106.103 40.3527 105.11 40.1599 104.292 39.7742C103.483 39.3886 102.82 38.9041 102.302 38.3209C101.785 37.7283 101.39 37.131 101.117 36.529H100.934V48.1273H94.9228ZM100.807 29.1636C100.807 30.4523 100.985 31.5764 101.343 32.5359C101.7 33.4954 102.218 34.2432 102.895 34.7793C103.572 35.3061 104.395 35.5695 105.364 35.5695C106.342 35.5695 107.17 35.3014 107.847 34.7652C108.525 34.2197 109.037 33.4671 109.385 32.5077C109.743 31.5388 109.922 30.4241 109.922 29.1636C109.922 27.9125 109.748 26.812 109.4 25.8619C109.051 24.9118 108.539 24.1687 107.862 23.6326C107.184 23.0964 106.352 22.8283 105.364 22.8283C104.386 22.8283 103.558 23.087 102.881 23.6043C102.213 24.1217 101.7 24.8554 101.343 25.8055C100.985 26.7555 100.807 27.8749 100.807 29.1636ZM131.594 18.3272V22.8424H118.543V18.3272H131.594ZM121.506 13.1348H127.517V33.3401C127.517 33.8951 127.601 34.3278 127.771 34.6383C127.94 34.9393 128.175 35.1509 128.476 35.2732C128.786 35.3955 129.144 35.4566 129.548 35.4566C129.831 35.4566 130.113 35.4331 130.395 35.3861C130.677 35.3296 130.894 35.2873 131.044 35.2591L131.989 39.7319C131.688 39.826 131.265 39.9342 130.72 40.0564C130.174 40.1881 129.511 40.2681 128.73 40.2963C127.281 40.3527 126.012 40.1599 124.92 39.7178C123.839 39.2757 122.997 38.589 122.395 37.6578C121.793 36.7265 121.496 35.5507 121.506 34.1303V13.1348ZM135.51 40V18.3272H141.521V40H135.51ZM138.529 15.5335C137.636 15.5335 136.869 15.2372 136.229 14.6446C135.599 14.0425 135.284 13.3229 135.284 12.4858C135.284 11.658 135.599 10.9478 136.229 10.3552C136.869 9.75315 137.636 9.45214 138.529 9.45214C139.423 9.45214 140.185 9.75315 140.815 10.3552C141.455 10.9478 141.775 11.658 141.775 12.4858C141.775 13.3229 141.455 14.0425 140.815 14.6446C140.185 15.2372 139.423 15.5335 138.529 15.5335ZM146.336 40V18.3272H152.064V22.151H152.318C152.77 20.8811 153.522 19.8793 154.576 19.1456C155.629 18.4119 156.89 18.045 158.357 18.045C159.843 18.045 161.109 18.4166 162.153 19.1597C163.197 19.8934 163.893 20.8905 164.241 22.151H164.467C164.909 20.9093 165.708 19.917 166.865 19.1738C168.032 18.4213 169.41 18.045 171 18.045C173.022 18.045 174.664 18.6894 175.924 19.9781C177.194 21.2574 177.829 23.0729 177.829 25.4245V40H171.832V26.6097C171.832 25.4057 171.512 24.5027 170.873 23.9006C170.233 23.2986 169.433 22.9976 168.474 22.9976C167.383 22.9976 166.532 23.3457 165.92 24.0417C165.309 24.7284 165.003 25.6362 165.003 26.7649V40H159.176V26.4827C159.176 25.4198 158.87 24.5732 158.258 23.943C157.656 23.3127 156.862 22.9976 155.874 22.9976C155.206 22.9976 154.604 23.1669 154.068 23.5056C153.541 23.8348 153.122 24.3004 152.812 24.9024C152.502 25.4951 152.346 26.1911 152.346 26.9907V40H146.336ZM182.577 40V18.3272H188.588V40H182.577ZM185.596 15.5335C184.703 15.5335 183.936 15.2372 183.296 14.6446C182.666 14.0425 182.351 13.3229 182.351 12.4858C182.351 11.658 182.666 10.9478 183.296 10.3552C183.936 9.75315 184.703 9.45214 185.596 9.45214C186.49 9.45214 187.252 9.75315 187.882 10.3552C188.522 10.9478 188.842 11.658 188.842 12.4858C188.842 13.3229 188.522 14.0425 187.882 14.6446C187.252 15.2372 186.49 15.5335 185.596 15.5335ZM211.435 24.5074L205.932 24.846C205.838 24.3757 205.636 23.9524 205.325 23.5761C205.015 23.1904 204.606 22.8847 204.098 22.659C203.599 22.4238 203.002 22.3062 202.306 22.3062C201.375 22.3062 200.589 22.5038 199.95 22.8988C199.31 23.2845 198.99 23.8019 198.99 24.4509C198.99 24.9683 199.197 25.4057 199.611 25.7631C200.025 26.1206 200.735 26.4075 201.742 26.6238L205.664 27.414C207.771 27.8467 209.342 28.5428 210.377 29.5023C211.412 30.4617 211.929 31.7222 211.929 33.2837C211.929 34.7041 211.51 35.9505 210.673 37.0228C209.845 38.0952 208.707 38.9324 207.259 39.5344C205.819 40.127 204.159 40.4233 202.278 40.4233C199.409 40.4233 197.123 39.826 195.42 38.6313C193.727 37.4273 192.735 35.7906 192.443 33.7211L198.355 33.4107C198.534 34.2855 198.967 34.9534 199.653 35.4143C200.34 35.8658 201.219 36.0916 202.292 36.0916C203.345 36.0916 204.192 35.8893 204.832 35.4848C205.481 35.071 205.81 34.5395 205.819 33.8904C205.81 33.3448 205.579 32.898 205.128 32.55C204.676 32.1925 203.98 31.9197 203.04 31.7316L199.286 30.9838C197.17 30.5605 195.594 29.8268 194.56 28.7827C193.534 27.7385 193.022 26.4075 193.022 24.7896C193.022 23.3974 193.398 22.198 194.15 21.1915C194.912 20.185 195.98 19.409 197.353 18.8634C198.736 18.3178 200.354 18.045 202.207 18.045C204.945 18.045 207.099 18.6236 208.67 19.7806C210.25 20.9376 211.172 22.5132 211.435 24.5074ZM215.714 40V18.3272H221.442V22.151H221.696C222.148 20.8811 222.9 19.8793 223.954 19.1456C225.008 18.4119 226.268 18.045 227.735 18.045C229.222 18.045 230.487 18.4166 231.531 19.1597C232.575 19.8934 233.271 20.8905 233.619 22.151H233.845C234.287 20.9093 235.087 19.917 236.244 19.1738C237.41 18.4213 238.788 18.045 240.378 18.045C242.4 18.045 244.042 18.6894 245.302 19.9781C246.572 21.2574 247.207 23.0729 247.207 25.4245V40H241.21V26.6097C241.21 25.4057 240.891 24.5027 240.251 23.9006C239.611 23.2986 238.812 22.9976 237.852 22.9976C236.761 22.9976 235.91 23.3457 235.298 24.0417C234.687 24.7284 234.381 25.6362 234.381 26.7649V40H228.554V26.4827C228.554 25.4198 228.248 24.5732 227.637 23.943C227.035 23.3127 226.24 22.9976 225.252 22.9976C224.584 22.9976 223.982 23.1669 223.446 23.5056C222.919 23.8348 222.501 24.3004 222.19 24.9024C221.88 25.4951 221.725 26.1911 221.725 26.9907V40H215.714Z" fill="white"/>
</g>
<defs>
<clipPath id="clip0_688_1791">
<rect width="50.84" height="50.84" fill="white" transform="translate(0 1)"/>
</clipPath>
</defs>
</svg>
