<svg width="255" height="60" viewBox="0 0 255 60" fill="none" xmlns="http://www.w3.org/2000/svg">
<g opacity="1">
<path d="M19.1644 41.4436L38.3289 30.5589L19.1644 0L0 30.5589L19.1644 41.4436Z" fill="white"/>
<path d="M19.1644 60.0004L38.3393 34.0508L19.1644 44.9255L0 34.0508L19.1644 60.0004Z" fill="white"/>
<path d="M63.5895 43.1562V14.2592H83.0612V19.2965H69.6991V26.1821H82.0594V31.2193H69.6991V38.119H83.1176V43.1562H63.5895ZM99.3334 21.4835V25.9987H86.2817V21.4835H99.3334ZM89.2448 16.2911H95.2556V36.4964C95.2556 37.0514 95.3403 37.4841 95.5096 37.7945C95.6789 38.0955 95.9141 38.3072 96.2151 38.4294C96.5255 38.5517 96.8829 38.6129 97.2874 38.6129C97.5696 38.6129 97.8518 38.5894 98.134 38.5423C98.4162 38.4859 98.6326 38.4436 98.7831 38.4153L99.7284 42.8882C99.4274 42.9822 99.0041 43.0904 98.4585 43.2127C97.913 43.3444 97.2498 43.4243 96.4691 43.4526C95.0204 43.509 93.7506 43.3162 92.6594 42.8741C91.5776 42.4319 90.7357 41.7453 90.1337 40.814C89.5317 39.8828 89.2354 38.7069 89.2448 37.2865V16.2911ZM109.725 30.6267V43.1562H103.714V14.2592H109.556V25.3073H109.81C110.299 24.028 111.089 23.0262 112.18 22.3019C113.272 21.5682 114.64 21.2013 116.286 21.2013C117.791 21.2013 119.104 21.5305 120.223 22.189C121.352 22.838 122.227 23.774 122.847 24.9969C123.478 26.2103 123.788 27.6636 123.779 29.3568V43.1562H117.768V30.4291C117.777 29.0934 117.439 28.054 116.752 27.3109C116.075 26.5677 115.125 26.1962 113.902 26.1962C113.083 26.1962 112.359 26.3702 111.729 26.7183C111.108 27.0663 110.619 27.5743 110.261 28.2421C109.913 28.9006 109.735 29.6954 109.725 30.6267ZM138.386 43.5795C136.157 43.5795 134.238 43.128 132.629 42.225C131.03 41.3126 129.798 40.0239 128.932 38.3589C128.067 36.6845 127.634 34.7044 127.634 32.4186C127.634 30.1893 128.067 28.2327 128.932 26.5489C129.798 24.8652 131.016 23.5529 132.587 22.6123C134.167 21.6716 136.02 21.2013 138.146 21.2013C139.576 21.2013 140.907 21.4318 142.139 21.8927C143.381 22.3442 144.463 23.0262 145.384 23.9386C146.316 24.851 147.04 25.9987 147.557 27.3814C148.075 28.7548 148.333 30.3633 148.333 32.207V33.8578H130.033V30.1328H142.675C142.675 29.2674 142.487 28.5008 142.111 27.8329C141.735 27.1651 141.213 26.643 140.545 26.2667C139.886 25.8811 139.12 25.6882 138.245 25.6882C137.332 25.6882 136.523 25.8999 135.818 26.3232C135.122 26.7371 134.576 27.2968 134.181 28.0023C133.786 28.6983 133.584 29.4744 133.574 30.3304V33.872C133.574 34.9443 133.772 35.8709 134.167 36.6516C134.572 37.4323 135.141 38.0344 135.874 38.4577C136.608 38.881 137.478 39.0926 138.485 39.0926C139.153 39.0926 139.764 38.9985 140.319 38.8104C140.874 38.6223 141.349 38.3401 141.744 37.9638C142.139 37.5876 142.44 37.1266 142.647 36.5811L148.206 36.9479C147.924 38.2836 147.346 39.4501 146.471 40.4472C145.605 41.4348 144.486 42.2062 143.113 42.7612C141.749 43.3068 140.173 43.5795 138.386 43.5795ZM152.256 43.1562V21.4835H158.083V25.2649H158.309C158.704 23.9198 159.367 22.9039 160.299 22.2172C161.23 21.5211 162.302 21.1731 163.516 21.1731C163.817 21.1731 164.141 21.1919 164.489 21.2295C164.837 21.2671 165.143 21.3189 165.406 21.3847V26.7183C165.124 26.6336 164.734 26.5583 164.235 26.4925C163.737 26.4267 163.28 26.3937 162.867 26.3937C161.982 26.3937 161.192 26.5866 160.496 26.9722C159.809 27.3485 159.264 27.8753 158.859 28.5525C158.464 29.2298 158.267 30.0106 158.267 30.8948V43.1562H152.256ZM177.382 43.5795C175.153 43.5795 173.234 43.128 171.625 42.225C170.026 41.3126 168.794 40.0239 167.928 38.3589C167.063 36.6845 166.63 34.7044 166.63 32.4186C166.63 30.1893 167.063 28.2327 167.928 26.5489C168.794 24.8652 170.012 23.5529 171.583 22.6123C173.163 21.6716 175.016 21.2013 177.142 21.2013C178.572 21.2013 179.903 21.4318 181.135 21.8927C182.377 22.3442 183.459 23.0262 184.381 23.9386C185.312 24.851 186.036 25.9987 186.554 27.3814C187.071 28.7548 187.33 30.3633 187.33 32.207V33.8578H169.029V30.1328H181.671C181.671 29.2674 181.483 28.5008 181.107 27.8329C180.731 27.1651 180.209 26.643 179.541 26.2667C178.882 25.8811 178.116 25.6882 177.241 25.6882C176.329 25.6882 175.52 25.8999 174.814 26.3232C174.118 26.7371 173.572 27.2968 173.177 28.0023C172.782 28.6983 172.58 29.4744 172.571 30.3304V33.872C172.571 34.9443 172.768 35.8709 173.163 36.6516C173.568 37.4323 174.137 38.0344 174.871 38.4577C175.604 38.881 176.474 39.0926 177.481 39.0926C178.149 39.0926 178.76 38.9985 179.315 38.8104C179.87 38.6223 180.345 38.3401 180.74 37.9638C181.135 37.5876 181.436 37.1266 181.643 36.5811L187.203 36.9479C186.92 38.2836 186.342 39.4501 185.467 40.4472C184.602 41.4348 183.482 42.2062 182.109 42.7612C180.745 43.3068 179.169 43.5795 177.382 43.5795ZM205.15 33.9284V21.4835H211.161V43.1562H205.39V39.2196H205.164C204.675 40.4895 203.862 41.5101 202.723 42.2814C201.595 43.0528 200.217 43.4384 198.589 43.4384C197.141 43.4384 195.866 43.1092 194.765 42.4508C193.665 41.7923 192.804 40.8563 192.183 39.6429C191.572 38.4294 191.261 36.9761 191.252 35.2829V21.4835H197.263V34.2106C197.272 35.4899 197.616 36.5011 198.293 37.2442C198.97 37.9873 199.878 38.3589 201.016 38.3589C201.74 38.3589 202.418 38.1943 203.048 37.865C203.678 37.5264 204.186 37.0279 204.572 36.3694C204.967 35.7109 205.16 34.8973 205.15 33.9284ZM215.969 43.1562V21.4835H221.698V25.3073H221.952C222.403 24.0374 223.156 23.0356 224.209 22.3019C225.263 21.5682 226.523 21.2013 227.991 21.2013C229.477 21.2013 230.742 21.5729 231.786 22.316C232.83 23.0497 233.526 24.0468 233.874 25.3073H234.1C234.542 24.0656 235.342 23.0732 236.499 22.3301C237.665 21.5776 239.043 21.2013 240.633 21.2013C242.656 21.2013 244.297 21.8456 245.557 23.1343C246.827 24.4136 247.462 26.2291 247.462 28.5808V43.1562H241.466V29.766C241.466 28.5619 241.146 27.6589 240.506 27.0569C239.866 26.4549 239.067 26.1539 238.107 26.1539C237.016 26.1539 236.165 26.5019 235.554 27.198C234.942 27.8847 234.636 28.7924 234.636 29.9212V43.1562H228.809V29.639C228.809 28.5761 228.503 27.7295 227.892 27.0992C227.29 26.469 226.495 26.1539 225.507 26.1539C224.839 26.1539 224.237 26.3232 223.701 26.6618C223.174 26.991 222.756 27.4567 222.445 28.0587C222.135 28.6513 221.98 29.3474 221.98 30.147V43.1562H215.969Z" fill="white"/>
</g>
</svg>
