<svg width="261" height="60" viewBox="0 0 261 60" fill="none" xmlns="http://www.w3.org/2000/svg">
<g opacity="1">
<path d="M68.8135 31.2003V46.7156C68.8079 47.683 68.5513 48.6326 68.0688 49.4712C67.5863 50.3098 66.8945 51.0089 66.0609 51.5002L52.6208 59.2417C51.7884 59.7379 50.8374 59.9998 49.8682 59.9998C48.8992 59.9998 47.9481 59.7379 47.1157 59.2417L33.6756 51.5002C32.8419 51.0089 32.1501 50.3098 31.6676 49.4712C31.1853 48.6326 30.9287 47.683 30.9231 46.7156V42.3609L37.8044 38.3665V45.936L49.8468 52.9248L61.889 45.936V31.9905L49.8468 25.0017L21.6333 41.3449C20.7931 41.8182 19.8451 42.067 18.8807 42.067C17.9164 42.067 16.9684 41.8182 16.1282 41.3449L2.68801 33.5711C1.86725 33.0724 1.18874 32.3707 0.717821 31.5335C0.247042 30.6965 -0.000142902 29.7522 6.19791e-08 28.7918V13.2765C0.00557565 12.3089 0.262195 11.3595 0.744698 10.5207C1.22706 9.68209 1.919 8.98299 2.75248 8.49177L16.1927 0.750273C17.0268 0.25905 17.9771 0 18.9451 0C19.9133 0 20.8636 0.25905 21.6978 0.750273L35.1379 8.49177C35.9714 8.98299 36.6634 9.68209 37.1457 10.5207C37.6282 11.3595 37.8848 12.3089 37.8904 13.2765V17.631L30.9661 21.5986V14.0721L18.9237 7.08329L6.88128 14.0721V28.0015L18.9237 34.9904L47.1372 18.6472C47.9774 18.1737 48.9254 17.9251 49.8898 17.9251C50.8541 17.9251 51.8021 18.1737 52.6423 18.6472L66.0825 26.4209C66.9112 26.9144 67.5983 27.6138 68.0768 28.4512C68.5555 29.2887 68.8092 30.2357 68.8135 31.2003Z" fill="white"/>
<path d="M92.7627 52.3553V40.2645C94.0744 41.9149 96.456 42.8396 99.2139 42.8396C106.256 42.8396 111.014 37.8399 111.014 30.2167C111.014 22.5935 106.644 17.5938 99.7999 17.5938C96.6441 17.5938 94.2142 18.7603 92.7572 20.6527V17.9646H86.0156V52.3391L92.7627 52.3553ZM98.3806 37.012C94.7356 37.012 92.3594 34.2918 92.3594 30.2167C92.3594 26.1417 94.7356 23.3729 98.3806 23.3729C101.923 23.3729 104.353 26.0611 104.353 30.2167C104.353 34.3724 101.94 37.012 98.3806 37.012Z" fill="white"/>
<path d="M126.336 42.8396C133.863 42.8396 139.239 37.4959 139.239 30.2167C139.239 22.9375 133.863 17.5938 126.336 17.5938C118.81 17.5938 113.434 22.9322 113.434 30.2167C113.434 37.5012 118.81 42.8396 126.336 42.8396ZM126.336 37.012C122.697 37.012 120.218 34.2433 120.218 30.2167C120.218 26.19 122.702 23.3729 126.336 23.3729C129.97 23.3729 132.454 26.1363 132.454 30.2167C132.454 34.2971 129.98 37.012 126.336 37.012Z" fill="white"/>
<path d="M150.082 42.4533V7.34766H143.336V42.4533H150.082Z" fill="white"/>
<path d="M170.369 17.9805L165.272 33.7593L160.127 17.9805H153.219L162.1 42.2534L158.508 52.355H164.96L168.427 42.361L177.314 17.9912L170.369 17.9805Z" fill="white"/>
<path d="M196.266 20.4107C194.905 18.7119 192.503 17.5938 189.518 17.5938C182.38 17.5938 178.062 22.5935 178.062 30.2167C178.062 37.8399 182.363 42.8396 189.615 42.8396C192.48 42.8396 195.051 41.7645 196.315 39.9742V43.1999C196.315 45.4793 194.809 47.0813 192.772 47.0813H181.508V52.3767H193.841C199.373 52.3767 203.061 49.0275 203.061 43.9255V17.9808H196.266V20.4107ZM190.685 37.012C187.089 37.012 184.713 34.324 184.713 30.2167C184.713 26.1094 187.089 23.3729 190.685 23.3729C194.282 23.3729 196.701 26.0611 196.701 30.2167C196.701 34.3724 194.325 37.012 190.685 37.012Z" fill="white"/>
<path d="M220.074 42.8396C227.601 42.8396 232.977 37.4959 232.977 30.2167C232.977 22.9375 227.601 17.5938 220.074 17.5938C212.548 17.5938 207.172 22.9322 207.172 30.2167C207.172 37.5012 212.548 42.8396 220.074 42.8396ZM220.074 37.012C216.43 37.012 213.957 34.2433 213.957 30.2167C213.957 26.19 216.43 23.3729 220.074 23.3729C223.72 23.3729 226.193 26.1363 226.193 30.2167C226.193 34.2971 223.714 37.012 220.074 37.012Z" fill="white"/>
<path d="M243.475 42.4526V29.05C243.475 25.8944 245.561 23.615 248.523 23.615C251.341 23.615 253.232 25.7653 253.232 28.7113V42.4526H260.027V27.2061C260.027 21.572 256.437 17.5938 250.889 17.5938C247.539 17.5938 244.824 19.0022 243.465 21.357V17.9808H236.68V42.4526H243.475Z" fill="white"/>
</g>
</svg>
