<svg width="232" height="60" viewBox="0 0 232 60" fill="none" xmlns="http://www.w3.org/2000/svg">
<g opacity="1">
<path d="M21.0728 0.57475C22.531 -0.191583 24.75 -0.191583 26.2082 0.57475L41.0886 8.39447C41.9669 8.856 42.4492 9.54374 42.5356 10.2537H42.5498V49.5597C42.5305 50.3341 42.0436 51.1033 41.0886 51.6053L26.2082 59.425C24.75 60.1914 22.531 60.1914 21.0728 59.425L6.19243 51.6053C5.24144 51.1057 4.78507 50.3308 4.76247 49.5597C4.76022 49.4838 4.75994 49.4205 4.7621 49.368L4.762 10.5062C4.7605 10.4636 4.76036 10.4211 4.76158 10.3788L4.76247 10.2537L4.76913 10.2537C4.83522 9.53592 5.29567 8.86575 6.19243 8.39447L21.0728 0.57475ZM40.2073 32.1823L26.2082 39.5389C24.75 40.3053 22.531 40.3053 21.0728 39.5389L7.10433 32.1987V49.4819L21.0728 56.7836C21.8615 57.2031 22.6802 57.6119 23.4807 57.6639L23.6405 57.6691C24.4747 57.6719 25.2845 57.2505 26.1057 56.8516L40.2073 49.4191V32.1823ZM2.34219 48.7052C2.34219 50.2108 2.51811 51.2008 2.86738 51.8983C3.15688 52.4763 3.59125 52.9178 4.38439 53.4555L4.42966 53.486C4.60372 53.6027 4.79547 53.725 5.02886 53.8685L5.30411 54.0363L6.14931 54.5439L4.93708 56.538L3.99107 55.9694L3.83207 55.8723C3.55854 55.7041 3.33183 55.5602 3.12037 55.4181C0.859917 53.9017 0.0168863 52.2489 0.000251734 48.8097L0 48.7052H2.34219ZM22.4691 21.6471C22.3607 21.6842 22.2592 21.727 22.1666 21.7756L7.2863 29.5954C7.27069 29.6036 7.25579 29.6117 7.24163 29.6197L7.22902 29.627L7.25237 29.6403L7.2863 29.6586L22.1666 37.4783C22.2592 37.527 22.3607 37.5698 22.4691 37.6068V21.6471ZM24.812 21.6471V37.6068C24.9203 37.5698 25.0218 37.527 25.1144 37.4783L39.9947 29.6586C40.0104 29.6504 40.0253 29.6423 40.0394 29.6343L40.052 29.627L40.0286 29.6137L39.9947 29.5954L25.1144 21.7756C25.0218 21.727 24.9203 21.6842 24.812 21.6471ZM40.2073 13.042L26.8588 20.0568L40.2073 27.0716V13.042ZM7.10433 13.0584V27.0552L20.4219 20.0568L7.10433 13.0584ZM25.1144 2.63537C24.3405 2.22872 22.9405 2.22872 22.1666 2.63537L7.2863 10.4551C7.27069 10.4633 7.25579 10.4714 7.24163 10.4795L7.22902 10.4867L7.25237 10.5L7.2863 10.5184L22.1666 18.3381C22.9405 18.7447 24.3405 18.7447 25.1144 18.3381L39.9947 10.5184C40.0104 10.5102 40.0253 10.5021 40.0394 10.494L40.052 10.4867L40.0286 10.4734L39.9947 10.4551L25.1144 2.63537ZM42.4064 3.49289L43.3524 4.06134L43.5114 4.15847C43.7849 4.32645 44.0116 4.47077 44.2231 4.61262C46.4836 6.12887 47.3266 7.782 47.343 11.2209L47.3435 11.3257H45.0013C45.0013 9.8197 44.8254 8.82989 44.4761 8.13253C44.1866 7.55457 43.7522 7.11287 42.9591 6.5754L42.9138 6.54489C42.7398 6.42812 42.548 6.30582 42.3146 6.16206L42.0394 5.99434L41.1942 5.48688L42.4064 3.49289Z" fill="white"/>
<path d="M71.1374 47.921V26.0008H77.2162V21.9873H71.1374V19.1057C71.1374 15.8469 72.5629 14.2175 75.4134 14.2175C76.2374 14.2175 77.1135 14.3547 78.0407 14.6291V10.3583C76.9073 10.0153 75.6538 9.84375 74.2799 9.84375C71.6357 9.84375 69.5835 10.5984 68.1239 12.1078C66.6642 13.6172 65.9343 15.8126 65.9343 18.6941V21.9873H60.9375V26.0008H65.9343V47.921H71.1374ZM92.2587 48.281C94.2509 48.281 95.9937 47.8695 97.4876 47.0459C98.9815 46.2228 100.107 45.0393 100.862 43.4957V47.921H106.014V21.9873H100.862V26.2066C100.072 24.663 98.9389 23.4709 97.4618 22.6304C95.9853 21.79 94.2509 21.3698 92.2587 21.3698C90.0266 21.3698 88.0344 21.9358 86.2831 23.0678C84.5314 24.1998 83.1664 25.795 82.1877 27.8532C81.209 29.9114 80.7196 32.2784 80.7196 34.954C80.7196 37.6297 81.2 39.971 82.1619 41.9777C83.1233 43.9845 84.4714 45.5368 86.2058 46.6345C87.9402 47.7321 89.9577 48.281 92.2587 48.281ZM93.4953 44.1646C91.1253 44.1646 89.2794 43.3584 87.9575 41.7462C86.6352 40.1339 85.9738 37.8699 85.9738 34.954C85.9738 32.0039 86.6352 29.697 87.9575 28.0333C89.2794 26.3695 91.1084 25.5377 93.4437 25.5377C95.8132 25.5377 97.6423 26.3438 98.9299 27.9561C100.218 29.5684 100.862 31.8667 100.862 34.8511C100.862 37.8013 100.218 40.091 98.9299 41.7204C97.6423 43.3499 95.8306 44.1646 93.4953 44.1646ZM118.789 47.921V33.1531C118.789 30.8547 119.45 29.0195 120.773 27.6474C122.095 26.2752 123.855 25.5892 126.053 25.5892C127.976 25.5892 129.376 26.1037 130.252 27.1328C131.127 28.1619 131.565 29.8085 131.565 32.0725V47.921H136.768V31.7638C136.768 24.8345 133.66 21.3698 127.444 21.3698C125.452 21.3698 123.675 21.8072 122.112 22.6819C120.55 23.5566 119.356 24.8173 118.532 26.4639L118.068 21.9873H113.226C113.5 24.1484 113.638 26.5839 113.638 29.294V47.921H118.789ZM154.18 48.281C155.623 48.281 156.911 48.0926 158.044 47.7153V43.4957C157.116 43.7701 156.207 43.9073 155.314 43.9073C153.94 43.9073 152.867 43.5385 152.094 42.801C151.321 42.0635 150.935 40.8028 150.935 39.0191V26.0008H158.096V21.9873H150.935V13.7029L145.732 15.5039V21.9873H140.683V26.0008H145.732V39.4307C145.732 42.3122 146.47 44.5076 147.947 46.017C149.424 47.5264 151.501 48.281 154.18 48.281ZM174.065 48.281C176.572 48.281 178.788 47.7321 180.711 46.6345C182.634 45.5368 184.119 43.9759 185.167 41.952C186.214 39.9281 186.738 37.5611 186.738 34.8511C186.738 32.1411 186.214 29.7656 185.167 27.7245C184.119 25.6835 182.634 24.1141 180.711 23.0163C178.788 21.9186 176.572 21.3698 174.065 21.3698C171.524 21.3698 169.292 21.9186 167.368 23.0163C165.445 24.1141 163.96 25.6835 162.912 27.7245C161.865 29.7656 161.341 32.1411 161.341 34.8511C161.341 37.5611 161.865 39.9281 162.912 41.952C163.96 43.9759 165.445 45.5368 167.368 46.6345C169.292 47.7321 171.524 48.281 174.065 48.281ZM174.014 44.1646C171.644 44.1646 169.815 43.3756 168.527 41.7977C167.24 40.2197 166.596 37.9042 166.596 34.8511C166.596 31.8667 167.248 29.5684 168.553 27.9561C169.858 26.3438 171.695 25.5377 174.065 25.5377C176.401 25.5377 178.212 26.3438 179.5 27.9561C180.788 29.5684 181.432 31.8667 181.432 34.8511C181.432 37.9042 180.797 40.2197 179.526 41.7977C178.255 43.3756 176.418 44.1646 174.014 44.1646ZM197.968 47.921V33.256C197.968 30.8891 198.552 29.0195 199.72 27.6474C200.888 26.2752 202.467 25.5892 204.46 25.5892C206.177 25.5892 207.422 26.1037 208.194 27.1328C208.967 28.1619 209.353 29.7913 209.353 32.0211V47.921H214.556V33.256C214.556 30.8891 215.131 29.0195 216.282 27.6474C217.433 26.2752 219.004 25.5892 220.996 25.5892C222.713 25.5892 223.958 26.1037 224.73 27.1328C225.503 28.1619 225.89 29.7913 225.89 32.0211V47.921H231.093V31.7638C231.093 24.8345 228.208 21.3698 222.438 21.3698C220.515 21.3698 218.789 21.8157 217.261 22.7076C215.732 23.5995 214.574 24.8173 213.784 26.361C212.547 23.0335 209.92 21.3698 205.902 21.3698C204.013 21.3698 202.364 21.7986 200.956 22.6562C199.548 23.5138 198.467 24.7315 197.711 26.3095L197.247 21.9873H192.405C192.679 24.1484 192.817 26.5839 192.817 29.294V47.921H197.968Z" fill="white"/>
</g>
</svg>
