<svg width="251" height="51" viewBox="0 0 251 51" fill="none" xmlns="http://www.w3.org/2000/svg">
<path d="M67.8903 16.5469H70.6139L78.2475 34.2783H74.6345L72.9855 30.2206H65.2963L63.7029 34.2783H60.1641L67.8717 16.5469H67.8903ZM71.8923 27.5155L69.1687 20.3081L66.3895 27.5155H71.8923Z" fill="white"/>
<path d="M81.6367 16.5469H85.2682L90.1041 29.9427L95.0881 16.5469H98.4973L91.3269 34.2783H88.6033L81.6367 16.5469Z" fill="white"/>
<path d="M109.758 16.5469H112.482L120.116 34.2783H116.503L114.854 30.2206H107.165L105.571 34.2783H102.051L109.758 16.5469ZM113.761 27.5155L111.037 20.3081L108.258 27.5155H113.761Z" fill="white"/>
<path d="M127.102 16.5469H130.251V31.4249H137.792V34.2783H127.102V16.5469Z" fill="white"/>
<path d="M150.817 16.5469H153.541L161.174 34.2783H157.561L155.912 30.2206H148.223L146.63 34.2783H143.109L150.817 16.5469ZM154.819 27.5155L152.095 20.3081L149.316 27.5155H154.819Z" fill="white"/>
<path d="M168.16 16.5469H172.348L180.926 29.7203H180.982V16.5469H184.131V34.2783H180.129L171.366 20.6786H171.31V34.2783H168.16V16.5469Z" fill="white"/>
<path d="M205.254 20.6995C204.605 19.9954 203.975 19.5322 203.345 19.2913C202.752 19.0505 202.141 18.9393 201.511 18.9393C200.585 18.9393 199.751 19.1061 199.01 19.4396C198.269 19.7546 197.639 20.1992 197.101 20.7921C196.564 21.3665 196.156 22.0335 195.841 22.7932C195.563 23.5528 195.415 24.3866 195.415 25.2759C195.415 26.2209 195.563 27.1102 195.841 27.9069C196.138 28.7036 196.564 29.4077 197.101 29.9821C197.639 30.575 198.269 31.0196 199.01 31.3531C199.769 31.6866 200.603 31.8534 201.511 31.8534C202.234 31.8534 202.919 31.6866 203.586 31.3531C204.272 31.0011 204.902 30.4453 205.494 29.7041L208.088 31.5569C207.292 32.6501 206.31 33.4653 205.161 33.9656C204.012 34.4659 202.789 34.7252 201.474 34.7252C200.103 34.7252 198.843 34.5029 197.694 34.0768C196.564 33.6321 195.582 33.0021 194.748 32.2054C193.933 31.3902 193.284 30.4082 192.821 29.278C192.358 28.1478 192.117 26.8879 192.117 25.4983C192.117 24.0716 192.358 22.7932 192.821 21.6444C193.284 20.4771 193.933 19.4766 194.748 18.6614C195.582 17.8462 196.564 17.2162 197.694 16.7901C198.843 16.3454 200.103 16.123 201.474 16.123C202.678 16.123 203.79 16.3454 204.809 16.7715C205.846 17.1977 206.81 17.9017 207.681 18.9208L205.235 20.718L205.254 20.6995Z" fill="white"/>
<path d="M215.242 16.5469H218.392V23.6061H226.674V16.5469H229.842V34.2783H226.674V26.4594H218.392V34.2783H215.242V16.5469Z" fill="white"/>
<path d="M238.809 16.5469H250.537V19.4002H241.958V23.7543H250.092V26.6076H241.958V31.4249H251V34.2783H238.809V16.5469Z" fill="white"/>
<path fill-rule="evenodd" clip-rule="evenodd" d="M50.8411 25.4225C50.8411 39.4668 39.4648 50.843 25.4205 50.843C11.3762 50.843 0 39.4668 0 25.4225C0 11.3782 11.3762 0.00195312 25.4205 0.00195312C39.4648 0.00195312 50.8411 11.3782 50.8411 25.4225ZM18.2131 35.5388H13.2846C12.2471 35.5388 11.7283 35.5388 11.4318 35.335C11.0983 35.1127 10.8945 34.7606 10.8575 34.353C10.8389 33.9825 11.0983 33.5378 11.5986 32.6299L23.7901 11.1559C24.3088 10.248 24.5682 9.78478 24.9017 9.61803C25.2538 9.43275 25.6799 9.43275 26.032 9.61803C26.3655 9.78478 26.6249 10.248 27.1436 11.1559L29.6449 15.5285L29.6635 15.547C30.2193 16.529 30.5158 17.0293 30.6269 17.548C30.7566 18.1224 30.7566 18.7153 30.6269 19.2897C30.4972 19.8085 30.2193 20.3087 29.6449 21.3093L23.2527 32.6299L23.2342 32.667C22.6784 33.649 22.3819 34.1492 21.9928 34.5383C21.5667 34.9459 21.0479 35.2424 20.4735 35.4277C19.9547 35.5759 19.3804 35.5759 18.2131 35.5759V35.5388ZM30.664 35.5388H37.7417C38.7793 35.5388 39.3166 35.5388 39.613 35.335C39.9466 35.1127 40.1689 34.7421 40.1874 34.353C40.2059 34.001 39.9466 33.5563 39.4648 32.7226C39.4463 32.6855 39.4278 32.667 39.4092 32.6299L35.8704 26.5712L35.8333 26.4971C35.3331 25.6634 35.0922 25.2372 34.7587 25.0705C34.4067 24.8852 33.9805 24.8852 33.6285 25.0705C33.295 25.2372 33.0356 25.6819 32.5168 26.5712L28.9965 32.6299L28.9779 32.6484C28.4591 33.5378 28.1997 33.9825 28.2183 34.353C28.2368 34.7606 28.4406 35.1127 28.7926 35.335C29.1076 35.5388 29.6264 35.5388 30.664 35.5388Z" fill="white"/>
</svg>
