<svg width="20" height="21" viewBox="0 0 20 21" fill="none" xmlns="http://www.w3.org/2000/svg">
<g clip-path="url(#clip0_395_2232)">
<path d="M13.3337 10.6667V10.6659C13.3337 9.89471 13.0663 9.14742 12.5771 8.55132C12.0879 7.95521 11.4071 7.54717 10.6507 7.39672C9.8944 7.24626 9.10929 7.36271 8.42918 7.7262C7.74907 8.0897 7.21603 8.67777 6.92088 9.39021C6.62573 10.1026 6.58673 10.8954 6.81052 11.6334C7.03432 12.3713 7.50706 13.0089 8.14821 13.4374C8.78936 13.8659 9.55925 14.0588 10.3267 13.9833C11.0942 13.9078 11.8117 13.5686 12.3571 13.0234C12.6665 12.7242 12.9125 12.3658 13.0803 11.9695C13.2481 11.5732 13.3343 11.1471 13.3337 10.7167L13.3329 10.6642V10.6667H13.3337ZM15.1337 10.6667C15.1297 11.8488 14.7163 12.9929 13.9637 13.9044C13.2111 14.8159 12.1659 15.4385 11.006 15.6662C9.84605 15.8938 8.64307 15.7126 7.60177 15.1531C6.56047 14.5937 5.74518 13.6908 5.29466 12.5979C4.84414 11.5051 4.78622 10.2899 5.13077 9.15921C5.47531 8.02848 6.20103 7.05208 7.18441 6.39618C8.16779 5.74027 9.34808 5.44539 10.5244 5.56172C11.7007 5.67805 12.8004 6.19839 13.6362 7.03421C14.1109 7.4948 14.4882 8.04612 14.7455 8.65539C15.0029 9.26466 15.1352 9.91946 15.1346 10.5809L15.1337 10.6717V10.6675V10.6667ZM16.5396 5.32837V5.33004C16.5397 5.60767 16.4435 5.87674 16.2674 6.09141C16.0914 6.30608 15.8463 6.45305 15.574 6.5073C15.3018 6.56155 15.0191 6.5197 14.7742 6.3889C14.5293 6.25809 14.3374 6.04642 14.231 5.78996C14.1247 5.53349 14.1106 5.24809 14.1911 4.98239C14.2717 4.71669 14.4418 4.48714 14.6726 4.33283C14.9034 4.17853 15.1806 4.10903 15.4569 4.13618C15.7332 4.16332 15.9915 4.28544 16.1879 4.48171C16.4012 4.69087 16.5337 4.98254 16.5337 5.30504V5.32921V5.32837H16.5396ZM10.0062 2.46171L9.0104 2.45504C8.40707 2.45059 7.94901 2.45059 7.63624 2.45504C7.32346 2.45948 6.90457 2.47254 6.37957 2.49421C5.89207 2.51087 5.42957 2.55921 4.97707 2.63587L5.0379 2.62754C4.68374 2.68587 4.36957 2.76921 4.06874 2.88004L4.10457 2.86837C3.67957 3.03922 3.29309 3.29344 2.96792 3.61604C2.64274 3.93863 2.38546 4.32308 2.21124 4.74671L2.2029 4.76921C2.09594 5.06197 2.0167 5.36413 1.96624 5.67171L1.96207 5.70254C1.88795 6.14042 1.84368 6.58282 1.82957 7.02671L1.82874 7.04421C1.80707 7.56976 1.79401 7.98865 1.78957 8.30087C1.78513 8.61309 1.78513 9.07115 1.78957 9.67504C1.79401 10.2789 1.79624 10.6109 1.79624 10.6709C1.79624 10.7309 1.79401 11.0628 1.78957 11.6667C1.78513 12.2706 1.78513 12.7287 1.78957 13.0409C1.79401 13.3531 1.80707 13.772 1.82874 14.2975C1.8454 14.785 1.89374 15.2475 1.9704 15.7L1.96207 15.6392C2.0204 15.9934 2.10374 16.3075 2.21457 16.6084L2.2029 16.5725C2.37375 16.9975 2.62797 17.384 2.95057 17.7092C3.27317 18.0344 3.65761 18.2917 4.08124 18.4659L4.10374 18.4742C4.36874 18.5734 4.6829 18.6567 5.00624 18.7109L5.03707 18.715C5.4279 18.7834 5.8904 18.8317 6.3604 18.8475L6.3779 18.8484C6.90346 18.87 7.32235 18.8831 7.63457 18.8875C7.94679 18.892 8.40485 18.892 9.00874 18.8875L9.99874 18.8675L10.9946 18.8742C11.5979 18.8787 12.056 18.8787 12.3687 18.8742C12.6815 18.8698 13.1004 18.8567 13.6254 18.835C14.1129 18.8184 14.5754 18.77 15.0279 18.6934L14.9671 18.7017C15.3212 18.6434 15.6354 18.56 15.9362 18.4492L15.9004 18.4609C16.3254 18.29 16.7119 18.0358 17.0371 17.7132C17.3622 17.3906 17.6195 17.0062 17.7937 16.5825L17.8021 16.56C17.9012 16.295 17.9846 15.9809 18.0387 15.6575L18.0429 15.6267C18.1112 15.2359 18.1596 14.7734 18.1754 14.3034L18.1762 14.2859C18.1979 13.7603 18.211 13.3414 18.2154 13.0292C18.2198 12.717 18.2198 12.2589 18.2154 11.655C18.211 11.0511 18.2087 10.7192 18.2087 10.6592C18.2087 10.5992 18.211 10.2673 18.2154 9.66337C18.2198 9.05948 18.2198 8.60143 18.2154 8.28921C18.211 7.97698 18.1979 7.55809 18.1762 7.03254C18.1596 6.54504 18.1112 6.08254 18.0346 5.63004L18.0429 5.69087C17.99 5.36046 17.9055 5.03591 17.7904 4.72171L17.8021 4.75754C17.6312 4.33254 17.377 3.94606 17.0544 3.62089C16.7318 3.29571 16.3474 3.03843 15.9237 2.86421L15.9012 2.85587C15.6085 2.74891 15.3063 2.66967 14.9987 2.61921L14.9679 2.61504C14.5303 2.54096 14.0882 2.49669 13.6446 2.48254L13.6271 2.48171C13.1015 2.46004 12.6826 2.44698 12.3704 2.44254C12.0582 2.43809 11.6001 2.43809 10.9962 2.44254L10.0062 2.46171ZM20.0004 10.6667C20.0004 12.6545 19.9782 14.0303 19.9337 14.7942C19.9731 15.5684 19.8494 16.3421 19.5706 17.0654C19.2919 17.7887 18.8642 18.4454 18.3154 18.9928C17.7667 19.5403 17.109 19.9663 16.385 20.2433C15.661 20.5203 14.887 20.6421 14.1129 20.6009L14.1262 20.6017C13.3623 20.6462 11.9865 20.6684 9.99874 20.6684C8.01096 20.6684 6.63513 20.6462 5.87124 20.6017C5.09709 20.6411 4.32329 20.5174 3.60001 20.2386C2.87672 19.9598 2.22008 19.5322 1.67263 18.9834C1.12518 18.4346 0.699147 17.7769 0.422129 17.053C0.145111 16.329 0.0232936 15.5549 0.0645703 14.7809L0.063737 14.7942C0.0192925 14.0303 -0.00292969 12.6545 -0.00292969 10.6667C-0.00292969 8.67893 0.0192925 7.30309 0.063737 6.53921C0.0243465 5.76505 0.14805 4.99126 0.426831 4.26798C0.705612 3.54469 1.13325 2.88805 1.68203 2.3406C2.23082 1.79315 2.8885 1.36712 3.61246 1.0901C4.33643 0.81308 5.11052 0.691262 5.88457 0.732539L5.87124 0.731706C6.63513 0.687261 8.01096 0.665039 9.99874 0.665039C11.9865 0.665039 13.3623 0.687261 14.1262 0.731706C14.9004 0.692315 15.6742 0.816019 16.3975 1.0948C17.1208 1.37358 17.7774 1.80122 18.3248 2.35C18.8723 2.89879 19.2983 3.55647 19.5753 4.28043C19.8524 5.0044 19.9742 5.77849 19.9329 6.55254L19.9337 6.53921C19.9782 7.30254 20.0004 8.67837 20.0004 10.6667Z" fill="white"/>
</g>
<defs>
<clipPath id="clip0_395_2232">
<rect width="20" height="20" fill="white" transform="translate(0 0.666748)"/>
</clipPath>
</defs>
</svg>
