<svg width="40" height="29" viewBox="0 0 40 29" fill="none" xmlns="http://www.w3.org/2000/svg">
<rect y="0.000244141" width="40" height="29" rx="10" fill="#A3E7E2"/>
<path d="M13.1211 17.5591V18.0391H15.3611V17.5591H14.8011V12.2796H15.3611V11.7996H13.1211V12.2796H13.6811V17.5591H13.1211Z" fill="black"/>
<path d="M15.918 17.5591V18.0391H18.158V17.5591H17.598V12.2796H18.158V11.7996H15.918V12.2796H16.478V17.5591H15.918Z" fill="black"/>
<path d="M18.7188 17.5591V18.0391H20.9587V17.5591H20.3987V12.2796H20.9587V11.7996H18.7188V12.2796H19.2787V17.5591H18.7188Z" fill="black"/>
<path d="M21.5195 17.5591V18.0391H23.7596V17.5591H23.1995V12.2796H23.7596V11.7996H21.5195V12.2796H22.0796V17.5591H21.5195Z" fill="black"/>
<path d="M24.3203 17.5591V18.0391H26.5603V17.5591H26.0003V12.2796H26.5603V11.7996H24.3203V12.2796H24.8804V17.5591H24.3203Z" fill="black"/>
<path d="M12 18.5189H27.6801V18.9997H12V18.5189Z" fill="black"/>
<path d="M12 10.8399V11.3199H27.6801V10.8399L19.8402 7.00024L12 10.8399ZM20.9598 9.40001C20.9598 9.92992 20.458 10.3599 19.8398 10.3599C19.2215 10.3599 18.7199 9.92982 18.7199 9.40001C18.7199 8.86968 19.2217 8.4401 19.8398 8.4401C20.4581 8.4401 20.9598 8.86968 20.9598 9.40001Z" fill="black"/>
<path d="M20.4013 9.40041C20.4013 9.66549 20.1505 9.88042 19.8413 9.88042C19.532 9.88042 19.2812 9.66548 19.2812 9.40041C19.2812 9.13535 19.532 8.92041 19.8413 8.92041C20.1505 8.92041 20.4013 9.13535 20.4013 9.40041Z" fill="black"/>
</svg>
