<svg width="188" height="42" viewBox="0 0 188 42" fill="none" xmlns="http://www.w3.org/2000/svg">
<path d="M23.3581 37.2517C24.3817 36.2565 24.3817 34.6042 23.3581 33.6091L21.4847 31.7878C20.1907 33.0458 18.8387 33.9471 18.8387 35.4304C18.8581 37.7586 21.7358 38.8476 23.3581 37.2517ZM41.088 25.404C38.5386 27.8824 34.3668 27.8824 31.8175 25.404L29.944 23.5827L24.2659 29.1029L26.1393 30.9241C28.6887 33.4026 28.6887 37.4582 26.1393 39.9366C22.0448 43.9171 14.9567 41.1195 14.9567 35.4304C14.9567 32.3887 16.7529 31.0368 18.7422 29.1029L13.064 23.5827L11.1906 25.404C8.64119 27.8824 4.46946 27.8824 1.92007 25.404C-2.1744 21.4235 0.703315 14.5326 6.55532 14.5326C9.68412 14.5326 11.0747 16.2788 13.064 18.2128L18.7229 12.6926L16.8494 10.8713C12.7743 6.8908 15.6327 0 21.504 0C27.3367 0 30.2531 6.8908 26.1393 10.8713L24.2659 12.6926L29.944 18.2128L31.8175 16.3915C35.9119 12.411 43 15.2086 43 20.8977C43 22.5312 42.3627 24.1648 41.088 25.404ZM38.3068 22.719C40.7596 20.3344 37.0321 16.6919 34.56 19.0765L32.6866 20.8977C33.9806 22.1557 34.9076 23.47 36.4334 23.47C37.1287 23.47 37.8047 23.226 38.3068 22.719ZM15.8258 20.8977L21.504 26.4179L27.1822 20.8977L21.504 15.3776L15.8258 20.8977ZM23.3581 4.5438C20.9053 2.15924 17.1585 5.78302 19.6113 8.18635L21.4847 10.0076C22.7787 8.74963 24.1307 7.84838 24.1307 6.36508C24.1307 5.70791 23.8796 5.05075 23.3581 4.5438ZM4.68191 22.719C5.70553 23.7141 7.40512 23.7141 8.42874 22.719L10.3022 20.8977C9.00814 19.6397 8.08109 18.3254 6.55532 18.3254C4.16044 18.3442 3.04026 21.1418 4.68191 22.719Z" fill="white"/>
<mask id="mask0_394_1939" style="mask-type:alpha" maskUnits="userSpaceOnUse" x="29" y="20" width="12" height="8">
<mask id="mask1_394_1939" style="mask-type:alpha" maskUnits="userSpaceOnUse" x="29" y="20" width="12" height="8">
<path d="M40.3554 20.8413H29.8682V27.3378H40.3554V20.8413Z" fill="url(#paint0_linear_394_1939)"/>
</mask>
<g mask="url(#mask1_394_1939)">
<path d="M40.3545 20.8413H29.8672V27.3378H40.3545V20.8413Z" fill="url(#paint1_linear_394_1939)"/>
</g>
</mask>
<g mask="url(#mask0_394_1939)">
<path d="M38.3059 22.719C37.2823 23.7141 35.5827 23.7141 34.5591 22.719L32.6857 20.8977L29.9238 23.5827L31.7972 25.404C34.0956 27.6383 37.7265 27.8636 40.2952 26.0611L38.3059 22.719Z" fill="#061D44" fill-opacity="0.2"/>
</g>
<mask id="mask2_394_1939" style="mask-type:alpha" maskUnits="userSpaceOnUse" x="14" y="2" width="8" height="11">
<mask id="mask3_394_1939" style="mask-type:alpha" maskUnits="userSpaceOnUse" x="14" y="2" width="8" height="11">
<path d="M21.5614 2.55347H14.8789V12.7489H21.5614V2.55347Z" fill="url(#paint2_linear_394_1939)"/>
</mask>
<g mask="url(#mask3_394_1939)">
<path d="M21.5624 2.55347H14.8799V12.7489H21.5624V2.55347Z" fill="url(#paint3_linear_394_1939)"/>
</g>
</mask>
<g mask="url(#mask2_394_1939)">
<path d="M19.6316 4.54382C18.6079 5.53895 18.6079 7.19124 19.6316 8.18637L21.505 10.0076L18.7238 12.6926L16.8504 10.8713C14.5521 8.63699 14.3203 5.1071 16.1937 2.62866L19.6316 4.54382Z" fill="#061D44" fill-opacity="0.2"/>
</g>
<mask id="mask4_394_1939" style="mask-type:alpha" maskUnits="userSpaceOnUse" x="21" y="29" width="8" height="11">
<mask id="mask5_394_1939" style="mask-type:alpha" maskUnits="userSpaceOnUse" x="21" y="29" width="8" height="11">
<path d="M28.1092 29.0466H21.4268V39.242H28.1092V29.0466Z" fill="url(#paint4_linear_394_1939)"/>
</mask>
<g mask="url(#mask5_394_1939)">
<path d="M28.1083 29.0466H21.4258V39.242H28.1083V29.0466Z" fill="url(#paint5_linear_394_1939)"/>
</g>
</mask>
<g mask="url(#mask4_394_1939)">
<path d="M23.3578 37.2516C24.3814 36.2565 24.3814 34.6042 23.3578 33.609L21.4844 31.7878L24.2462 29.1028L26.1196 30.9241C28.4179 33.1584 28.6497 36.6883 26.7956 39.1855L23.3578 37.2516Z" fill="#061D44" fill-opacity="0.2"/>
</g>
<mask id="mask6_394_1939" style="mask-type:alpha" maskUnits="userSpaceOnUse" x="2" y="14" width="12" height="7">
<mask id="mask7_394_1939" style="mask-type:alpha" maskUnits="userSpaceOnUse" x="2" y="14" width="12" height="7">
<path d="M13.1201 14.4763H2.63281V20.9728H13.1201V14.4763Z" fill="url(#paint6_linear_394_1939)"/>
</mask>
<g mask="url(#mask7_394_1939)">
<path d="M13.1211 14.4763H2.63379V20.9728H13.1211V14.4763Z" fill="url(#paint7_linear_394_1939)"/>
</g>
</mask>
<g mask="url(#mask6_394_1939)">
<path d="M4.68217 19.0764C5.70579 18.0813 7.40538 18.0813 8.429 19.0764L10.3024 20.8977L13.0449 18.2127L11.1908 16.3915C8.87321 14.1571 5.26157 13.9318 2.69287 15.7531L4.68217 19.0764Z" fill="#061D44" fill-opacity="0.2"/>
</g>
<mask id="mask8_394_1939" style="mask-type:alpha" maskUnits="userSpaceOnUse" x="12" y="20" width="10" height="10">
<mask id="mask9_394_1939" style="mask-type:alpha" maskUnits="userSpaceOnUse" x="12" y="20" width="10" height="10">
<path d="M21.5635 20.8416H12.9883V29.1781H21.5635V20.8416Z" fill="url(#paint8_linear_394_1939)"/>
</mask>
<g mask="url(#mask9_394_1939)">
<path d="M21.5625 20.8416H12.9873V29.1781H21.5625V20.8416Z" fill="url(#paint9_linear_394_1939)"/>
</g>
</mask>
<g mask="url(#mask8_394_1939)">
<path d="M15.8251 20.8977L13.7779 22.888L13.0439 23.5827L13.7779 24.2962L18.0075 28.4081L18.7221 29.1028L19.456 28.4081L21.5033 26.4179L15.8251 20.8977Z" fill="url(#paint10_linear_394_1939)" fill-opacity="0.2"/>
<path d="M18.7218 29.1028L20.769 27.1125L21.5029 26.4178L20.769 25.7043L16.5393 21.5924L15.8247 20.8977L15.0908 21.5924L13.0436 23.5826L18.7218 29.1028Z" fill="url(#paint11_linear_394_1939)" fill-opacity="0.2"/>
</g>
<mask id="mask10_394_1939" style="mask-type:alpha" maskUnits="userSpaceOnUse" x="21" y="12" width="10" height="9">
<mask id="mask11_394_1939" style="mask-type:alpha" maskUnits="userSpaceOnUse" x="21" y="12" width="10" height="9">
<path d="M30.002 12.6365H21.4268V20.973H30.002V12.6365Z" fill="url(#paint12_linear_394_1939)"/>
</mask>
<g mask="url(#mask11_394_1939)">
<path d="M30.001 12.6365H21.4258V20.973H30.001V12.6365Z" fill="url(#paint13_linear_394_1939)"/>
</g>
</mask>
<g mask="url(#mask10_394_1939)">
<path d="M27.1815 20.8977L29.2288 18.9074L29.9434 18.2127L29.2288 17.4992L24.9991 13.3873L24.2845 12.6926L23.5506 13.3873L21.5033 15.3776L27.1815 20.8977Z" fill="url(#paint14_linear_394_1939)" fill-opacity="0.2"/>
<path d="M24.2648 12.6926L22.2175 14.6829L21.5029 15.3776L22.2175 16.0911L26.4472 20.203L27.1618 20.8978L27.8957 20.203L29.943 18.2128L24.2648 12.6926Z" fill="url(#paint15_linear_394_1939)" fill-opacity="0.2"/>
</g>
<path d="M64.4022 22.6033L64.3599 15.8668L61.1501 21.2729H58.9538L55.744 16.0991V22.6033H51.2037V7.82099H55.3005L60.1153 15.6978L64.8034 7.82099H68.9002L68.9424 22.6033H64.4022ZM83.8324 11.052V22.6033H79.2922V21.5052C78.8698 21.9416 78.3771 22.2724 77.8139 22.4977C77.2508 22.7089 76.6525 22.8144 76.019 22.8144C74.5548 22.8144 73.3793 22.371 72.4923 21.484C71.6054 20.583 71.1619 19.2315 71.1619 17.4295V11.052H75.9345V16.6059C75.9345 17.3943 76.0612 17.9574 76.3146 18.2953C76.568 18.6332 76.9411 18.8021 77.4338 18.8021C77.8984 18.8021 78.2856 18.6191 78.5953 18.2531C78.905 17.8729 79.0599 17.2817 79.0599 16.4792V11.052H83.8324ZM85.9493 6.93406H90.7219V22.6033H85.9493V6.93406ZM102.832 22.202C102.114 22.6103 101.136 22.8144 99.8971 22.8144C98.2781 22.8144 97.0322 22.4273 96.1593 21.653C95.2864 20.8646 94.85 19.6891 94.85 18.1264V15.1699H93.2662V11.6855H94.85V8.45452H99.6226V11.6855H101.988V15.1699H99.6226V18.0841C99.6226 18.4361 99.7141 18.7106 99.8971 18.9077C100.08 19.1048 100.319 19.2033 100.615 19.2033C101.023 19.2033 101.382 19.0978 101.692 18.8866L102.832 22.202ZM104.035 11.052H108.808V22.6033H104.035V11.052ZM106.422 10.1228C105.563 10.1228 104.866 9.89755 104.331 9.44705C103.81 8.98246 103.55 8.39821 103.55 7.69429C103.55 6.99037 103.81 6.41316 104.331 5.96265C104.866 5.49807 105.563 5.26577 106.422 5.26577C107.294 5.26577 107.991 5.48399 108.512 5.92042C109.033 6.35685 109.294 6.91998 109.294 7.60982C109.294 8.34189 109.033 8.94726 108.512 9.42593C107.991 9.89051 107.294 10.1228 106.422 10.1228ZM118.716 22.9412C117.153 22.9412 115.745 22.6173 114.492 21.9697C113.239 21.3081 112.254 20.393 111.536 19.2245C110.832 18.0419 110.48 16.7044 110.48 15.2121C110.48 13.7198 110.832 12.3894 111.536 11.2209C112.254 10.0383 113.239 9.12324 114.492 8.47564C115.745 7.81396 117.153 7.48311 118.716 7.48311C120.152 7.48311 121.433 7.73653 122.559 8.24335C123.685 8.75017 124.614 9.48224 125.347 10.4396L122.2 13.2482C121.285 12.0938 120.208 11.5166 118.969 11.5166C117.927 11.5166 117.09 11.8544 116.456 12.5302C115.823 13.1919 115.506 14.0859 115.506 15.2121C115.506 16.3384 115.823 17.2394 116.456 17.9152C117.09 18.5769 117.927 18.9077 118.969 18.9077C120.208 18.9077 121.285 18.3305 122.2 17.1761L125.347 19.9847C124.614 20.942 123.685 21.6741 122.559 22.1809C121.433 22.6877 120.152 22.9412 118.716 22.9412ZM134.662 10.8408C136.084 10.8408 137.225 11.2702 138.083 12.129C138.956 12.9878 139.393 14.283 139.393 16.0146V22.6033H134.62V16.8382C134.62 15.5148 134.148 14.8531 133.205 14.8531C132.67 14.8531 132.234 15.0432 131.896 15.4233C131.572 15.7893 131.41 16.3736 131.41 17.1761V22.6033H126.638V6.93406H131.41V11.9812C132.297 11.2209 133.381 10.8408 134.662 10.8408ZM146.639 10.8408C148.666 10.8408 150.215 11.2983 151.285 12.2134C152.355 13.1145 152.89 14.5082 152.89 16.3947V22.6033H148.455V21.0828C147.906 22.2372 146.815 22.8144 145.182 22.8144C144.267 22.8144 143.486 22.6596 142.838 22.3499C142.204 22.0261 141.719 21.5967 141.381 21.0617C141.057 20.5126 140.895 19.9002 140.895 19.2245C140.895 18.0841 141.332 17.2183 142.204 16.627C143.077 16.0357 144.401 15.7401 146.175 15.7401H148.096C147.941 14.8391 147.216 14.3885 145.921 14.3885C145.4 14.3885 144.872 14.473 144.337 14.642C143.802 14.7968 143.345 15.015 142.965 15.2966L141.444 12.1501C142.106 11.7418 142.901 11.4251 143.83 11.1998C144.774 10.9605 145.71 10.8408 146.639 10.8408ZM146.618 19.9425C146.956 19.9425 147.259 19.851 147.526 19.6679C147.794 19.4849 147.991 19.2104 148.117 18.8443V18.0419H146.935C145.963 18.0419 145.478 18.3657 145.478 19.0133C145.478 19.2808 145.576 19.506 145.773 19.6891C145.984 19.858 146.266 19.9425 146.618 19.9425ZM154.953 11.052H159.725V22.6033H154.953V11.052ZM157.339 10.1228C156.48 10.1228 155.783 9.89755 155.248 9.44705C154.727 8.98246 154.467 8.39821 154.467 7.69429C154.467 6.99037 154.727 6.41316 155.248 5.96265C155.783 5.49807 156.48 5.26577 157.339 5.26577C158.212 5.26577 158.909 5.48399 159.429 5.92042C159.95 6.35685 160.211 6.91998 160.211 7.60982C160.211 8.34189 159.95 8.94726 159.429 9.42593C158.909 9.89051 158.212 10.1228 157.339 10.1228ZM169.865 10.8408C171.287 10.8408 172.427 11.2702 173.286 12.129C174.159 12.9878 174.595 14.283 174.595 16.0146V22.6033H169.823V16.8382C169.823 15.5148 169.351 14.8531 168.408 14.8531C167.873 14.8531 167.437 15.0432 167.099 15.4233C166.775 15.7893 166.613 16.3736 166.613 17.1761V22.6033H161.84V11.052H166.381V12.1923C166.831 11.7418 167.352 11.4039 167.943 11.1787C168.535 10.9534 169.175 10.8408 169.865 10.8408ZM187.269 19.1189V22.6033H176.246V19.858L181.018 14.5364H176.415V11.052H187.037V13.7973L182.264 19.1189H187.269Z" fill="white"/>
<path d="M74.1145 29.85C75.0525 29.85 75.7875 30.074 76.3195 30.522C76.8515 30.97 77.1175 31.586 77.1175 32.37C77.1175 33.154 76.8515 33.77 76.3195 34.218C75.7875 34.659 75.0525 34.8795 74.1145 34.8795H72.1405V37.2H71.3635V29.85H74.1145ZM74.0935 34.197C74.8215 34.197 75.378 34.0395 75.763 33.7245C76.148 33.4025 76.3405 32.951 76.3405 32.37C76.3405 31.775 76.148 31.32 75.763 31.005C75.378 30.683 74.8215 30.522 74.0935 30.522H72.1405V34.197H74.0935ZM86.823 32.7585C86.998 32.3875 87.257 32.1075 87.6 31.9185C87.95 31.7295 88.3805 31.635 88.8915 31.635V32.3595L88.713 32.349C88.132 32.349 87.677 32.5275 87.348 32.8845C87.019 33.2415 86.8545 33.742 86.8545 34.386V37.2H86.109V31.677H86.823V32.7585ZM100.06 37.2525C99.528 37.2525 99.0485 37.1335 98.6215 36.8955C98.1945 36.6505 97.8585 36.3145 97.6135 35.8875C97.3685 35.4605 97.246 34.9775 97.246 34.4385C97.246 33.8995 97.3685 33.4165 97.6135 32.9895C97.8585 32.5625 98.1945 32.23 98.6215 31.992C99.0485 31.754 99.528 31.635 100.06 31.635C100.592 31.635 101.072 31.754 101.499 31.992C101.926 32.23 102.258 32.5625 102.496 32.9895C102.741 33.4165 102.864 33.8995 102.864 34.4385C102.864 34.9775 102.741 35.4605 102.496 35.8875C102.258 36.3145 101.926 36.6505 101.499 36.8955C101.072 37.1335 100.592 37.2525 100.06 37.2525ZM100.06 36.591C100.452 36.591 100.802 36.5035 101.11 36.3285C101.425 36.1465 101.67 35.891 101.845 35.562C102.02 35.233 102.108 34.8585 102.108 34.4385C102.108 34.0185 102.02 33.644 101.845 33.315C101.67 32.986 101.425 32.734 101.11 32.559C100.802 32.377 100.452 32.286 100.06 32.286C99.668 32.286 99.3145 32.377 98.9995 32.559C98.6915 32.734 98.4465 32.986 98.2645 33.315C98.0895 33.644 98.002 34.0185 98.002 34.4385C98.002 34.8585 98.0895 35.233 98.2645 35.562C98.4465 35.891 98.6915 36.1465 98.9995 36.3285C99.3145 36.5035 99.668 36.591 100.06 36.591ZM114.906 36.864C114.766 36.99 114.591 37.088 114.381 37.158C114.178 37.221 113.965 37.2525 113.741 37.2525C113.223 37.2525 112.824 37.1125 112.544 36.8325C112.264 36.5525 112.124 36.157 112.124 35.646V32.307H111.137V31.677H112.124V30.4695H112.869V31.677H114.549V32.307H112.869V35.604C112.869 35.933 112.95 36.185 113.111 36.36C113.279 36.528 113.517 36.612 113.825 36.612C113.979 36.612 114.126 36.5875 114.266 36.5385C114.413 36.4895 114.539 36.4195 114.644 36.3285L114.906 36.864ZM125.939 37.2525C125.407 37.2525 124.927 37.1335 124.5 36.8955C124.073 36.6505 123.737 36.3145 123.492 35.8875C123.247 35.4605 123.125 34.9775 123.125 34.4385C123.125 33.8995 123.247 33.4165 123.492 32.9895C123.737 32.5625 124.073 32.23 124.5 31.992C124.927 31.754 125.407 31.635 125.939 31.635C126.471 31.635 126.95 31.754 127.377 31.992C127.804 32.23 128.137 32.5625 128.375 32.9895C128.62 33.4165 128.742 33.8995 128.742 34.4385C128.742 34.9775 128.62 35.4605 128.375 35.8875C128.137 36.3145 127.804 36.6505 127.377 36.8955C126.95 37.1335 126.471 37.2525 125.939 37.2525ZM125.939 36.591C126.331 36.591 126.681 36.5035 126.989 36.3285C127.304 36.1465 127.549 35.891 127.724 35.562C127.899 35.233 127.986 34.8585 127.986 34.4385C127.986 34.0185 127.899 33.644 127.724 33.315C127.549 32.986 127.304 32.734 126.989 32.559C126.681 32.377 126.331 32.286 125.939 32.286C125.547 32.286 125.193 32.377 124.878 32.559C124.57 32.734 124.325 32.986 124.143 33.315C123.968 33.644 123.881 34.0185 123.881 34.4385C123.881 34.8585 123.968 35.233 124.143 35.562C124.325 35.891 124.57 36.1465 124.878 36.3285C125.193 36.5035 125.547 36.591 125.939 36.591ZM140.166 37.2525C139.62 37.2525 139.13 37.1335 138.696 36.8955C138.269 36.6575 137.933 36.325 137.688 35.898C137.443 35.464 137.32 34.9775 137.32 34.4385C137.32 33.8995 137.443 33.4165 137.688 32.9895C137.933 32.5625 138.269 32.23 138.696 31.992C139.13 31.754 139.62 31.635 140.166 31.635C140.642 31.635 141.065 31.7295 141.436 31.9185C141.814 32.1005 142.112 32.37 142.329 32.727L141.772 33.105C141.59 32.832 141.359 32.629 141.079 32.496C140.799 32.356 140.495 32.286 140.166 32.286C139.767 32.286 139.406 32.377 139.084 32.559C138.769 32.734 138.521 32.986 138.339 33.315C138.164 33.644 138.076 34.0185 138.076 34.4385C138.076 34.8655 138.164 35.2435 138.339 35.5725C138.521 35.8945 138.769 36.1465 139.084 36.3285C139.406 36.5035 139.767 36.591 140.166 36.591C140.495 36.591 140.799 36.5245 141.079 36.3915C141.359 36.2585 141.59 36.0555 141.772 35.7825L142.329 36.1605C142.112 36.5175 141.814 36.7905 141.436 36.9795C141.058 37.1615 140.635 37.2525 140.166 37.2525ZM153.571 37.2525C153.039 37.2525 152.559 37.1335 152.132 36.8955C151.705 36.6505 151.369 36.3145 151.124 35.8875C150.879 35.4605 150.757 34.9775 150.757 34.4385C150.757 33.8995 150.879 33.4165 151.124 32.9895C151.369 32.5625 151.705 32.23 152.132 31.992C152.559 31.754 153.039 31.635 153.571 31.635C154.103 31.635 154.582 31.754 155.009 31.992C155.436 32.23 155.769 32.5625 156.007 32.9895C156.252 33.4165 156.374 33.8995 156.374 34.4385C156.374 34.9775 156.252 35.4605 156.007 35.8875C155.769 36.3145 155.436 36.6505 155.009 36.8955C154.582 37.1335 154.103 37.2525 153.571 37.2525ZM153.571 36.591C153.963 36.591 154.313 36.5035 154.621 36.3285C154.936 36.1465 155.181 35.891 155.356 35.562C155.531 35.233 155.618 34.8585 155.618 34.4385C155.618 34.0185 155.531 33.644 155.356 33.315C155.181 32.986 154.936 32.734 154.621 32.559C154.313 32.377 153.963 32.286 153.571 32.286C153.179 32.286 152.825 32.377 152.51 32.559C152.202 32.734 151.957 32.986 151.775 33.315C151.6 33.644 151.513 34.0185 151.513 34.4385C151.513 34.8585 151.6 35.233 151.775 35.562C151.957 35.891 152.202 36.1465 152.51 36.3285C152.825 36.5035 153.179 36.591 153.571 36.591ZM165.509 29.409H166.254V37.2H165.509V29.409Z" fill="white"/>
<defs>
<linearGradient id="paint0_linear_394_1939" x1="29.4401" y1="18.5669" x2="35.2204" y2="24.5122" gradientUnits="userSpaceOnUse">
<stop stop-color="white"/>
<stop offset="1"/>
</linearGradient>
<linearGradient id="paint1_linear_394_1939" x1="29.4391" y1="18.5669" x2="35.2195" y2="24.5122" gradientUnits="userSpaceOnUse">
<stop stop-color="white"/>
<stop offset="1" stop-color="white" stop-opacity="0"/>
</linearGradient>
<linearGradient id="paint2_linear_394_1939" x1="23.896" y1="13.1796" x2="18.1169" y2="7.23387" gradientUnits="userSpaceOnUse">
<stop stop-color="white"/>
<stop offset="1"/>
</linearGradient>
<linearGradient id="paint3_linear_394_1939" x1="23.897" y1="13.1796" x2="18.1179" y2="7.23387" gradientUnits="userSpaceOnUse">
<stop stop-color="white"/>
<stop offset="1" stop-color="white" stop-opacity="0"/>
</linearGradient>
<linearGradient id="paint4_linear_394_1939" x1="19.0926" y1="28.6253" x2="24.8723" y2="34.5711" gradientUnits="userSpaceOnUse">
<stop stop-color="white"/>
<stop offset="1"/>
</linearGradient>
<linearGradient id="paint5_linear_394_1939" x1="19.0916" y1="28.6253" x2="24.8713" y2="34.5711" gradientUnits="userSpaceOnUse">
<stop stop-color="white"/>
<stop offset="1" stop-color="white" stop-opacity="0"/>
</linearGradient>
<linearGradient id="paint6_linear_394_1939" x1="13.5497" y1="23.2369" x2="7.76871" y2="17.2923" gradientUnits="userSpaceOnUse">
<stop stop-color="white"/>
<stop offset="1"/>
</linearGradient>
<linearGradient id="paint7_linear_394_1939" x1="13.5507" y1="23.2369" x2="7.76969" y2="17.2923" gradientUnits="userSpaceOnUse">
<stop stop-color="white"/>
<stop offset="1" stop-color="white" stop-opacity="0"/>
</linearGradient>
<linearGradient id="paint8_linear_394_1939" x1="9.1333" y1="17.0901" x2="18.2401" y2="26.4569" gradientUnits="userSpaceOnUse">
<stop stop-color="white"/>
<stop offset="1"/>
</linearGradient>
<linearGradient id="paint9_linear_394_1939" x1="9.13232" y1="17.0901" x2="18.2391" y2="26.4569" gradientUnits="userSpaceOnUse">
<stop stop-color="white"/>
<stop offset="1" stop-color="white"/>
</linearGradient>
<linearGradient id="paint10_linear_394_1939" x1="13.4504" y1="20.9728" x2="18.7828" y2="27.0492" gradientUnits="userSpaceOnUse">
<stop stop-color="#061D44"/>
<stop offset="0.494792" stop-color="#061D44" stop-opacity="0"/>
</linearGradient>
<linearGradient id="paint11_linear_394_1939" x1="21.0965" y1="29.0277" x2="15.764" y2="22.9513" gradientUnits="userSpaceOnUse">
<stop stop-color="#061D44"/>
<stop offset="0.494792" stop-color="#061D44" stop-opacity="0"/>
</linearGradient>
<linearGradient id="paint12_linear_394_1939" x1="17.5726" y1="8.88425" x2="26.68" y2="18.2511" gradientUnits="userSpaceOnUse">
<stop stop-color="white"/>
<stop offset="1"/>
</linearGradient>
<linearGradient id="paint13_linear_394_1939" x1="17.5716" y1="8.88425" x2="26.679" y2="18.2511" gradientUnits="userSpaceOnUse">
<stop stop-color="white"/>
<stop offset="1" stop-color="white"/>
</linearGradient>
<linearGradient id="paint14_linear_394_1939" x1="29.5379" y1="20.8226" x2="24.2038" y2="14.7583" gradientUnits="userSpaceOnUse">
<stop stop-color="#061D44"/>
<stop offset="0.494792" stop-color="#061D44" stop-opacity="0"/>
</linearGradient>
<linearGradient id="paint15_linear_394_1939" x1="21.9084" y1="12.7677" x2="27.2425" y2="18.832" gradientUnits="userSpaceOnUse">
<stop stop-color="#061D44"/>
<stop offset="0.494792" stop-color="#061D44" stop-opacity="0"/>
</linearGradient>
</defs>
</svg>
