<svg width="180" height="41" viewBox="0 0 180 41" fill="none" xmlns="http://www.w3.org/2000/svg">
<path d="M61.9711 22.6111L61.9321 16.3832L58.9646 21.3811H56.9341L53.9666 16.598V22.6111H49.7691V8.94487H53.5566L58.0079 16.227L62.3421 8.94487H66.1296L66.1686 22.6111H61.9711ZM79.9344 11.9319V22.6111H75.7369V21.5959C75.3465 21.9994 74.8909 22.3052 74.3703 22.5135C73.8497 22.7087 73.2965 22.8063 72.7108 22.8063C71.3572 22.8063 70.2704 22.3963 69.4505 21.5764C68.6305 20.7434 68.2205 19.4939 68.2205 17.8279V11.9319H72.6327V17.0665C72.6327 17.7954 72.7499 18.316 72.9842 18.6284C73.2184 18.9407 73.5634 19.0969 74.0189 19.0969C74.4484 19.0969 74.8063 18.9277 75.0927 18.5893C75.379 18.2379 75.5222 17.6912 75.5222 16.9494V11.9319H79.9344ZM81.8915 8.1249H86.3037V22.6111H81.8915V8.1249ZM97.4999 22.2401C96.8361 22.6176 95.9316 22.8063 94.7862 22.8063C93.2894 22.8063 92.1376 22.4484 91.3306 21.7325C90.5236 21.0037 90.1202 19.9169 90.1202 18.4722V15.7389H88.6559V12.5176H90.1202V9.53057H94.5324V12.5176H96.719V15.7389H94.5324V18.4331C94.5324 18.7585 94.617 19.0123 94.7862 19.1945C94.9554 19.3767 95.1767 19.4679 95.45 19.4679C95.8274 19.4679 96.1593 19.3702 96.4457 19.175L97.4999 22.2401ZM98.612 11.9319H103.024V22.6111H98.612V11.9319ZM100.818 11.0729C100.024 11.0729 99.3799 10.8646 98.8853 10.4482C98.4037 10.0186 98.1629 9.47851 98.1629 8.82773C98.1629 8.17696 98.4037 7.64333 98.8853 7.22683C99.3799 6.79732 100.024 6.58257 100.818 6.58257C101.625 6.58257 102.269 6.78431 102.751 7.18779C103.232 7.59127 103.473 8.11188 103.473 8.74964C103.473 9.42644 103.232 9.98611 102.751 10.4286C102.269 10.8581 101.625 11.0729 100.818 11.0729ZM112.184 22.9235C110.739 22.9235 109.438 22.6241 108.279 22.0254C107.121 21.4137 106.21 20.5677 105.546 19.4874C104.895 18.3941 104.57 17.1576 104.57 15.778C104.57 14.3983 104.895 13.1684 105.546 12.0881C106.21 10.9948 107.121 10.1488 108.279 9.55009C109.438 8.93836 110.739 8.6325 112.184 8.6325C113.511 8.6325 114.696 8.86678 115.737 9.33534C116.778 9.80389 117.637 10.4807 118.314 11.3657L115.405 13.9623C114.559 12.8951 113.564 12.3614 112.418 12.3614C111.455 12.3614 110.681 12.6738 110.095 13.2985C109.509 13.9103 109.216 14.7367 109.216 15.778C109.216 16.8192 109.509 17.6522 110.095 18.2769C110.681 18.8887 111.455 19.1945 112.418 19.1945C113.564 19.1945 114.559 18.6609 115.405 17.5936L118.314 20.1902C117.637 21.0753 116.778 21.7521 115.737 22.2206C114.696 22.6892 113.511 22.9235 112.184 22.9235ZM126.927 11.7367C128.241 11.7367 129.295 12.1337 130.089 12.9276C130.896 13.7215 131.3 14.919 131.3 16.5199V22.6111H126.888V17.2813C126.888 16.0578 126.452 15.4461 125.58 15.4461C125.085 15.4461 124.681 15.6218 124.369 15.9732C124.07 16.3116 123.92 16.8518 123.92 17.5936V22.6111H119.508V8.1249H123.92V12.7909C124.74 12.0881 125.742 11.7367 126.927 11.7367ZM137.999 11.7367C139.873 11.7367 141.305 12.1597 142.294 13.0057C143.283 13.8387 143.778 15.1272 143.778 16.8713V22.6111H139.678V21.2054C139.171 22.2727 138.162 22.8063 136.652 22.8063C135.806 22.8063 135.084 22.6631 134.485 22.3768C133.899 22.0775 133.45 21.6805 133.138 21.1859C132.839 20.6783 132.689 20.1121 132.689 19.4874C132.689 18.4331 133.092 17.6327 133.899 17.086C134.706 16.5394 135.93 16.2661 137.57 16.2661H139.346C139.203 15.4331 138.533 15.0166 137.335 15.0166C136.854 15.0166 136.366 15.0947 135.871 15.2509C135.377 15.394 134.954 15.5958 134.602 15.8561L133.196 12.9471C133.808 12.5697 134.544 12.2768 135.403 12.0686C136.275 11.8473 137.14 11.7367 137.999 11.7367ZM137.98 20.1512C138.292 20.1512 138.572 20.0666 138.819 19.8974C139.066 19.7282 139.249 19.4744 139.366 19.136V18.3941H138.273C137.374 18.3941 136.925 18.6934 136.925 19.2921C136.925 19.5394 137.017 19.7477 137.199 19.9169C137.394 20.0731 137.654 20.1512 137.98 20.1512ZM145.685 11.9319H150.097V22.6111H145.685V11.9319ZM147.891 11.0729C147.097 11.0729 146.453 10.8646 145.958 10.4482C145.477 10.0186 145.236 9.47851 145.236 8.82773C145.236 8.17696 145.477 7.64333 145.958 7.22683C146.453 6.79732 147.097 6.58257 147.891 6.58257C148.698 6.58257 149.342 6.78431 149.824 7.18779C150.305 7.59127 150.546 8.11188 150.546 8.74964C150.546 9.42644 150.305 9.98611 149.824 10.4286C149.342 10.8581 148.698 11.0729 147.891 11.0729ZM159.472 11.7367C160.786 11.7367 161.84 12.1337 162.634 12.9276C163.441 13.7215 163.845 14.919 163.845 16.5199V22.6111H159.433V17.2813C159.433 16.0578 158.997 15.4461 158.125 15.4461C157.63 15.4461 157.226 15.6218 156.914 15.9732C156.615 16.3116 156.465 16.8518 156.465 17.5936V22.6111H152.053V11.9319H156.25V12.9862C156.667 12.5697 157.148 12.2573 157.695 12.0491C158.242 11.8408 158.834 11.7367 159.472 11.7367ZM175.562 19.3898V22.6111H165.371V20.0731L169.783 15.1532H165.527V11.9319H175.347V14.4699L170.935 19.3898H175.562Z" fill="black"/>
<path d="M71.4378 30.0983C72.3049 30.0983 72.9844 30.3053 73.4763 30.7195C73.9681 31.1337 74.214 31.7032 74.214 32.428C74.214 33.1528 73.9681 33.7223 73.4763 34.1365C72.9844 34.5442 72.3049 34.748 71.4378 34.748H69.6128V36.8933H68.8945V30.0983H71.4378ZM71.4183 34.117C72.0914 34.117 72.6059 33.9714 72.9618 33.6802C73.3177 33.3825 73.4957 32.9651 73.4957 32.428C73.4957 31.8779 73.3177 31.4573 72.9618 31.166C72.6059 30.8684 72.0914 30.7195 71.4183 30.7195H69.6128V34.117H71.4183ZM83.1868 32.7872C83.3486 32.4442 83.588 32.1853 83.9051 32.0106C84.2287 31.8358 84.6267 31.7485 85.0991 31.7485V32.4183L84.9341 32.4086C84.3969 32.4086 83.9763 32.5736 83.6721 32.9036C83.368 33.2337 83.2159 33.6964 83.2159 34.2918V36.8933H82.5267V31.7873H83.1868V32.7872ZM95.4244 36.9418C94.9326 36.9418 94.4893 36.8318 94.0945 36.6118C93.6997 36.3853 93.3891 36.0747 93.1626 35.6799C92.9361 35.2851 92.8229 34.8386 92.8229 34.3403C92.8229 33.842 92.9361 33.3955 93.1626 33.0007C93.3891 32.606 93.6997 32.2986 94.0945 32.0785C94.4893 31.8585 94.9326 31.7485 95.4244 31.7485C95.9162 31.7485 96.3595 31.8585 96.7543 32.0785C97.149 32.2986 97.4564 32.606 97.6765 33.0007C97.903 33.3955 98.0162 33.842 98.0162 34.3403C98.0162 34.8386 97.903 35.2851 97.6765 35.6799C97.4564 36.0747 97.149 36.3853 96.7543 36.6118C96.3595 36.8318 95.9162 36.9418 95.4244 36.9418ZM95.4244 36.3303C95.7868 36.3303 96.1104 36.2494 96.3951 36.0876C96.6863 35.9194 96.9128 35.6831 97.0746 35.379C97.2364 35.0748 97.3173 34.7286 97.3173 34.3403C97.3173 33.952 97.2364 33.6058 97.0746 33.3016C96.9128 32.9975 96.6863 32.7645 96.3951 32.6027C96.1104 32.4345 95.7868 32.3503 95.4244 32.3503C95.062 32.3503 94.7352 32.4345 94.444 32.6027C94.1592 32.7645 93.9327 32.9975 93.7645 33.3016C93.6027 33.6058 93.5218 33.952 93.5218 34.3403C93.5218 34.7286 93.6027 35.0748 93.7645 35.379C93.9327 35.6831 94.1592 35.9194 94.444 36.0876C94.7352 36.2494 95.062 36.3303 95.4244 36.3303ZM109.15 36.5827C109.021 36.6992 108.859 36.7898 108.665 36.8545C108.477 36.9127 108.28 36.9418 108.072 36.9418C107.594 36.9418 107.225 36.8124 106.966 36.5536C106.707 36.2947 106.578 35.9291 106.578 35.4566V32.3697H105.665V31.7873H106.578V30.671H107.267V31.7873H108.82V32.3697H107.267V35.4178C107.267 35.722 107.341 35.9549 107.49 36.1167C107.645 36.272 107.865 36.3497 108.15 36.3497C108.292 36.3497 108.428 36.3271 108.558 36.2818C108.694 36.2365 108.81 36.1717 108.907 36.0876L109.15 36.5827ZM119.349 36.9418C118.857 36.9418 118.414 36.8318 118.019 36.6118C117.625 36.3853 117.314 36.0747 117.088 35.6799C116.861 35.2851 116.748 34.8386 116.748 34.3403C116.748 33.842 116.861 33.3955 117.088 33.0007C117.314 32.606 117.625 32.2986 118.019 32.0785C118.414 31.8585 118.857 31.7485 119.349 31.7485C119.841 31.7485 120.284 31.8585 120.679 32.0785C121.074 32.2986 121.381 32.606 121.601 33.0007C121.828 33.3955 121.941 33.842 121.941 34.3403C121.941 34.8386 121.828 35.2851 121.601 35.6799C121.381 36.0747 121.074 36.3853 120.679 36.6118C120.284 36.8318 119.841 36.9418 119.349 36.9418ZM119.349 36.3303C119.712 36.3303 120.035 36.2494 120.32 36.0876C120.611 35.9194 120.838 35.6831 121 35.379C121.161 35.0748 121.242 34.7286 121.242 34.3403C121.242 33.952 121.161 33.6058 121 33.3016C120.838 32.9975 120.611 32.7645 120.32 32.6027C120.035 32.4345 119.712 32.3503 119.349 32.3503C118.987 32.3503 118.66 32.4345 118.369 32.6027C118.084 32.7645 117.858 32.9975 117.689 33.3016C117.528 33.6058 117.447 33.952 117.447 34.3403C117.447 34.7286 117.528 35.0748 117.689 35.379C117.858 35.6831 118.084 35.9194 118.369 36.0876C118.66 36.2494 118.987 36.3303 119.349 36.3303ZM132.502 36.9418C131.997 36.9418 131.544 36.8318 131.143 36.6118C130.748 36.3918 130.438 36.0844 130.211 35.6896C129.985 35.2884 129.871 34.8386 129.871 34.3403C129.871 33.842 129.985 33.3955 130.211 33.0007C130.438 32.606 130.748 32.2986 131.143 32.0785C131.544 31.8585 131.997 31.7485 132.502 31.7485C132.942 31.7485 133.334 31.8358 133.677 32.0106C134.026 32.1788 134.301 32.428 134.502 32.758L133.987 33.1075C133.819 32.8551 133.606 32.6674 133.347 32.5445C133.088 32.415 132.806 32.3503 132.502 32.3503C132.133 32.3503 131.8 32.4345 131.502 32.6027C131.211 32.7645 130.981 32.9975 130.813 33.3016C130.651 33.6058 130.57 33.952 130.57 34.3403C130.57 34.7351 130.651 35.0845 130.813 35.3887C130.981 35.6864 131.211 35.9194 131.502 36.0876C131.8 36.2494 132.133 36.3303 132.502 36.3303C132.806 36.3303 133.088 36.2688 133.347 36.1459C133.606 36.0229 133.819 35.8352 133.987 35.5828L134.502 35.9323C134.301 36.2623 134.026 36.5147 133.677 36.6895C133.327 36.8577 132.936 36.9418 132.502 36.9418ZM144.895 36.9418C144.403 36.9418 143.96 36.8318 143.565 36.6118C143.171 36.3853 142.86 36.0747 142.633 35.6799C142.407 35.2851 142.294 34.8386 142.294 34.3403C142.294 33.842 142.407 33.3955 142.633 33.0007C142.86 32.606 143.171 32.2986 143.565 32.0785C143.96 31.8585 144.403 31.7485 144.895 31.7485C145.387 31.7485 145.83 31.8585 146.225 32.0785C146.62 32.2986 146.927 32.606 147.147 33.0007C147.374 33.3955 147.487 33.842 147.487 34.3403C147.487 34.8386 147.374 35.2851 147.147 35.6799C146.927 36.0747 146.62 36.3853 146.225 36.6118C145.83 36.8318 145.387 36.9418 144.895 36.9418ZM144.895 36.3303C145.258 36.3303 145.581 36.2494 145.866 36.0876C146.157 35.9194 146.384 35.6831 146.545 35.379C146.707 35.0748 146.788 34.7286 146.788 34.3403C146.788 33.952 146.707 33.6058 146.545 33.3016C146.384 32.9975 146.157 32.7645 145.866 32.6027C145.581 32.4345 145.258 32.3503 144.895 32.3503C144.533 32.3503 144.206 32.4345 143.915 32.6027C143.63 32.7645 143.404 32.9975 143.235 33.3016C143.073 33.6058 142.993 33.952 142.993 34.3403C142.993 34.7286 143.073 35.0748 143.235 35.379C143.404 35.6831 143.63 35.9194 143.915 36.0876C144.206 36.2494 144.533 36.3303 144.895 36.3303ZM155.932 29.6905H156.621V36.8933H155.932V29.6905Z" fill="black"/>
<path d="M22.5879 36.0231C23.5778 35.0608 23.5778 33.4629 22.5879 32.5006L20.7763 30.7394C19.5249 31.9559 18.2176 32.8275 18.2176 34.2619C18.2362 36.5133 21.0191 37.5664 22.5879 36.0231ZM39.7331 24.5661C37.2678 26.9628 33.2336 26.9628 30.7683 24.5661L28.9567 22.8048L23.4657 28.143L25.2774 29.9042C27.7427 32.3009 27.7427 36.2228 25.2774 38.6195C21.3179 42.4688 14.4635 39.7634 14.4635 34.2619C14.4635 31.3204 16.2005 30.0131 18.1242 28.143L12.6332 22.8048L10.8216 24.5661C8.35625 26.9628 4.32208 26.9628 1.85676 24.5661C-2.10271 20.7168 0.680124 14.0532 6.33917 14.0532C9.36479 14.0532 10.7095 15.7418 12.6332 17.612L18.1055 12.2738L16.2939 10.5126C12.3531 6.66334 15.1172 -0.000244141 20.7949 -0.000244141C26.4353 -0.000244141 29.2555 6.66334 25.2774 10.5126L23.4657 12.2738L28.9567 17.612L30.7683 15.8507C34.7278 12.0015 41.5821 14.7069 41.5821 20.2084C41.5821 21.7881 40.9658 23.3677 39.7331 24.5661ZM37.0437 21.9696C39.4156 19.6637 35.811 16.1413 33.4204 18.4472L31.6088 20.2084C32.8601 21.4249 33.7566 22.6959 35.232 22.6959C35.9044 22.6959 36.5581 22.4599 37.0437 21.9696ZM15.304 20.2084L20.7949 25.5465L26.2859 20.2084L20.7949 14.8703L15.304 20.2084ZM22.5879 4.39373C20.216 2.0878 16.5927 5.59209 18.9646 7.91617L20.7763 9.67739C22.0276 8.46088 23.335 7.58935 23.335 6.15495C23.335 5.51946 23.0922 4.88397 22.5879 4.39373ZM4.52753 21.9696C5.51739 22.9319 7.16094 22.9319 8.15081 21.9696L9.96245 20.2084C8.71111 18.9919 7.81463 17.7209 6.33917 17.7209C4.02326 17.7391 2.94001 20.4444 4.52753 21.9696Z" fill="url(#paint0_linear_719_924)"/>
<mask id="mask0_719_924" style="mask-type:alpha" maskUnits="userSpaceOnUse" x="28" y="20" width="12" height="7">
<mask id="mask1_719_924" style="mask-type:alpha" maskUnits="userSpaceOnUse" x="28" y="20" width="12" height="7">
<path d="M39.0186 20.1541H28.8772V26.4363H39.0186V20.1541Z" fill="url(#paint1_linear_719_924)"/>
</mask>
<g mask="url(#mask1_719_924)">
<path d="M39.0215 20.1536H28.8801V26.4359H39.0215V20.1536Z" fill="url(#paint2_linear_719_924)"/>
</g>
</mask>
<g mask="url(#mask0_719_924)">
<path d="M37.0414 21.9697C36.0515 22.932 34.4079 22.932 33.4181 21.9697L31.6064 20.2085L28.9357 22.8049L30.7473 24.5662C32.9698 26.7268 36.4811 26.9447 38.9651 25.2016L37.0414 21.9697Z" fill="#061D44"/>
</g>
<mask id="mask2_719_924" style="mask-type:alpha" maskUnits="userSpaceOnUse" x="14" y="2" width="7" height="11">
<mask id="mask3_719_924" style="mask-type:alpha" maskUnits="userSpaceOnUse" x="14" y="2" width="7" height="11">
<path d="M20.8446 2.47095H14.3825V12.3302H20.8446V2.47095Z" fill="url(#paint3_linear_719_924)"/>
</mask>
<g mask="url(#mask3_719_924)">
<path d="M20.8468 2.47021H14.3846V12.3294H20.8468V2.47021Z" fill="url(#paint4_linear_719_924)"/>
</g>
</mask>
<g mask="url(#mask2_719_924)">
<path d="M18.9827 4.394C17.9928 5.35631 17.9928 6.95412 18.9827 7.91644L20.7943 9.67766L18.1049 12.2741L16.2933 10.5129C14.0707 8.3522 13.8466 4.9387 15.6582 2.54199L18.9827 4.394Z" fill="#061D44"/>
</g>
<mask id="mask4_719_924" style="mask-type:alpha" maskUnits="userSpaceOnUse" x="20" y="28" width="8" height="10">
<mask id="mask5_719_924" style="mask-type:alpha" maskUnits="userSpaceOnUse" x="20" y="28" width="8" height="10">
<path d="M27.1809 28.0886H20.7187V37.9478H27.1809V28.0886Z" fill="url(#paint5_linear_719_924)"/>
</mask>
<g mask="url(#mask5_719_924)">
<path d="M27.1808 28.0886H20.7187V37.9478H27.1808V28.0886Z" fill="url(#paint6_linear_719_924)"/>
</g>
</mask>
<g mask="url(#mask4_719_924)">
<path d="M22.5905 36.0229C23.5803 35.0606 23.5803 33.4628 22.5905 32.5005L20.7788 30.7393L23.4496 28.1428L25.2613 29.904C27.4838 32.0647 27.7079 35.4782 25.9149 37.8931L22.5905 36.0229Z" fill="#061D44"/>
</g>
<mask id="mask6_719_924" style="mask-type:alpha" maskUnits="userSpaceOnUse" x="2" y="13" width="11" height="8">
<mask id="mask7_719_924" style="mask-type:alpha" maskUnits="userSpaceOnUse" x="2" y="13" width="11" height="8">
<path d="M12.6861 13.9993H2.54468V20.2816H12.6861V13.9993Z" fill="url(#paint7_linear_719_924)"/>
</mask>
<g mask="url(#mask7_719_924)">
<path d="M12.6892 13.9985H2.54773V20.2808H12.6892V13.9985Z" fill="url(#paint8_linear_719_924)"/>
</g>
</mask>
<g mask="url(#mask6_719_924)">
<path d="M4.52907 18.4472C5.51894 17.4849 7.16249 17.4849 8.15235 18.4472L9.964 20.2084L12.6161 17.612L10.8231 15.8507C8.58192 13.6901 5.08937 13.4722 2.60537 15.2334L4.52907 18.4472Z" fill="#061D44"/>
</g>
<mask id="mask8_719_924" style="mask-type:alpha" maskUnits="userSpaceOnUse" x="12" y="20" width="9" height="9">
<mask id="mask9_719_924" style="mask-type:alpha" maskUnits="userSpaceOnUse" x="12" y="20" width="9" height="9">
<path d="M20.8526 20.1541H12.5601V28.2157H20.8526V20.1541Z" fill="url(#paint9_linear_719_924)"/>
</mask>
<g mask="url(#mask9_719_924)">
<path d="M20.8538 20.1536H12.5613V28.2152H20.8538V20.1536Z" fill="url(#paint10_linear_719_924)"/>
</g>
</mask>
<g mask="url(#mask8_719_924)">
<path d="M15.3035 20.2085L13.3237 22.1331L12.614 22.8049L13.3237 23.4949L17.4139 27.4713L18.105 28.1431L18.8147 27.4713L20.7944 25.5466L15.3035 20.2085Z" fill="url(#paint11_linear_719_924)"/>
<path d="M18.1054 28.1428L20.0852 26.2182L20.7949 25.5464L20.0852 24.8564L15.995 20.8801L15.3039 20.2083L14.5942 20.8801L12.6145 22.8047L18.1054 28.1428Z" fill="url(#paint12_linear_719_924)"/>
</g>
<mask id="mask10_719_924" style="mask-type:alpha" maskUnits="userSpaceOnUse" x="20" y="12" width="10" height="9">
<mask id="mask11_719_924" style="mask-type:alpha" maskUnits="userSpaceOnUse" x="20" y="12" width="10" height="9">
<path d="M29.0111 12.2214H20.7186V20.2831H29.0111V12.2214Z" fill="url(#paint13_linear_719_924)"/>
</mask>
<g mask="url(#mask11_719_924)">
<path d="M29.0111 12.2195H20.7187V20.2812H29.0111V12.2195Z" fill="url(#paint14_linear_719_924)"/>
</g>
</mask>
<g mask="url(#mask10_719_924)">
<path d="M26.2849 20.2085L28.2647 18.2839L28.9557 17.6121L28.2647 16.9221L24.1745 12.9457L23.4834 12.2739L22.7737 12.9457L20.794 14.8704L26.2849 20.2085Z" fill="url(#paint15_linear_719_924)"/>
<path d="M23.4656 12.2742L21.4859 14.1988L20.7949 14.8706L21.4859 15.5606L25.5761 19.5369L26.2672 20.2087L26.9769 19.5369L28.9566 17.6123L23.4656 12.2742Z" fill="url(#paint16_linear_719_924)"/>
</g>
<defs>
<linearGradient id="paint0_linear_719_924" x1="10.0745" y1="-4.44869" x2="37.0756" y2="45.7654" gradientUnits="userSpaceOnUse">
<stop offset="0.0269078" stop-color="#CC6BE7"/>
<stop offset="1" stop-color="#1A6FE9"/>
</linearGradient>
<linearGradient id="paint1_linear_719_924" x1="28.4632" y1="17.9547" x2="34.0529" y2="23.7039" gradientUnits="userSpaceOnUse">
<stop stop-color="white"/>
<stop offset="1"/>
</linearGradient>
<linearGradient id="paint2_linear_719_924" x1="28.4661" y1="17.9542" x2="34.0559" y2="23.7034" gradientUnits="userSpaceOnUse">
<stop stop-color="white"/>
<stop offset="1" stop-color="white" stop-opacity="0"/>
</linearGradient>
<linearGradient id="paint3_linear_719_924" x1="23.1023" y1="12.7467" x2="17.5137" y2="6.99702" gradientUnits="userSpaceOnUse">
<stop stop-color="white"/>
<stop offset="1"/>
</linearGradient>
<linearGradient id="paint4_linear_719_924" x1="23.1044" y1="12.746" x2="17.5159" y2="6.99628" gradientUnits="userSpaceOnUse">
<stop stop-color="white"/>
<stop offset="1" stop-color="white" stop-opacity="0"/>
</linearGradient>
<linearGradient id="paint5_linear_719_924" x1="18.4615" y1="27.6812" x2="24.0507" y2="33.4309" gradientUnits="userSpaceOnUse">
<stop stop-color="white"/>
<stop offset="1"/>
</linearGradient>
<linearGradient id="paint6_linear_719_924" x1="18.4615" y1="27.6812" x2="24.0506" y2="33.4309" gradientUnits="userSpaceOnUse">
<stop stop-color="white"/>
<stop offset="1" stop-color="white" stop-opacity="0"/>
</linearGradient>
<linearGradient id="paint7_linear_719_924" x1="13.1016" y1="22.471" x2="7.51123" y2="16.7224" gradientUnits="userSpaceOnUse">
<stop stop-color="white"/>
<stop offset="1"/>
</linearGradient>
<linearGradient id="paint8_linear_719_924" x1="13.1046" y1="22.4702" x2="7.51428" y2="16.7216" gradientUnits="userSpaceOnUse">
<stop stop-color="white"/>
<stop offset="1" stop-color="white" stop-opacity="0"/>
</linearGradient>
<linearGradient id="paint9_linear_719_924" x1="8.83223" y1="16.5263" x2="17.6387" y2="25.5843" gradientUnits="userSpaceOnUse">
<stop stop-color="white"/>
<stop offset="1"/>
</linearGradient>
<linearGradient id="paint10_linear_719_924" x1="8.83342" y1="16.5258" x2="17.6399" y2="25.5838" gradientUnits="userSpaceOnUse">
<stop stop-color="white"/>
<stop offset="1" stop-color="white"/>
</linearGradient>
<linearGradient id="paint11_linear_719_924" x1="13.007" y1="20.2811" x2="18.1637" y2="26.1571" gradientUnits="userSpaceOnUse">
<stop stop-color="#061D44"/>
<stop offset="0.494792" stop-color="#061D44" stop-opacity="0"/>
</linearGradient>
<linearGradient id="paint12_linear_719_924" x1="20.4018" y1="28.0702" x2="15.2452" y2="22.1942" gradientUnits="userSpaceOnUse">
<stop stop-color="#061D44"/>
<stop offset="0.494792" stop-color="#061D44" stop-opacity="0"/>
</linearGradient>
<linearGradient id="paint13_linear_719_924" x1="16.9916" y1="8.59294" x2="25.7987" y2="17.6509" gradientUnits="userSpaceOnUse">
<stop stop-color="white"/>
<stop offset="1"/>
</linearGradient>
<linearGradient id="paint14_linear_719_924" x1="16.9916" y1="8.59099" x2="25.7987" y2="17.649" gradientUnits="userSpaceOnUse">
<stop stop-color="white"/>
<stop offset="1" stop-color="white"/>
</linearGradient>
<linearGradient id="paint15_linear_719_924" x1="28.5636" y1="20.1359" x2="23.4054" y2="14.2715" gradientUnits="userSpaceOnUse">
<stop stop-color="#061D44"/>
<stop offset="0.494792" stop-color="#061D44" stop-opacity="0"/>
</linearGradient>
<linearGradient id="paint16_linear_719_924" x1="21.187" y1="12.3468" x2="26.3452" y2="18.2111" gradientUnits="userSpaceOnUse">
<stop stop-color="#061D44"/>
<stop offset="0.494792" stop-color="#061D44" stop-opacity="0"/>
</linearGradient>
</defs>
</svg>
