<svg width="1166" height="327" viewBox="0 0 1166 327" fill="none" xmlns="http://www.w3.org/2000/svg">
<path d="M102.222 3.1924C103.684 1.06413 105.146 0 106.741 0C109.267 0 110.596 0 113.121 0C114.717 0 114.717 1.06413 113.387 3.1924C112.457 4.65558 111.925 5.45368 110.995 6.91687C109.533 9.04513 109.666 10.1093 111.261 10.1093C112.324 10.1093 112.856 10.1093 114.052 10.1093C115.647 10.1093 115.78 11.1734 114.318 13.3017C113.387 14.7649 112.856 15.563 111.925 17.0261C110.596 19.1544 110.596 20.2185 112.324 20.2185C113.387 20.2185 114.052 20.2185 115.115 20.2185C116.71 20.2185 116.843 21.2827 115.514 23.4109C114.584 24.8741 114.052 25.6722 113.121 27.1354C111.792 29.2637 111.925 30.3278 113.52 30.3278C114.584 30.3278 115.248 30.3278 116.312 30.3278C117.907 30.3278 118.039 31.3919 116.71 33.5202C115.78 34.9834 115.381 35.7815 114.451 37.2447C113.121 39.3729 113.254 40.4371 114.982 40.4371C116.179 40.4371 116.71 40.4371 117.907 40.4371C119.502 40.4371 119.767 41.5012 118.438 43.6295C117.508 45.0927 117.109 45.8908 116.179 47.3539C114.849 49.4822 114.982 50.5463 116.71 50.5463C117.907 50.5463 118.438 50.5463 119.635 50.5463C121.362 50.5463 121.495 51.6105 120.166 53.7387C119.236 55.2019 118.837 56 117.907 57.4632C116.577 59.5915 116.843 60.6556 118.571 60.6556C119.767 60.6556 120.299 60.6556 121.495 60.6556C123.223 60.6556 124.685 59.5915 125.882 57.4632C126.812 56 127.211 55.2019 128.141 53.7387C129.47 51.6105 130.933 50.5463 132.528 50.5463C133.724 50.5463 134.256 50.5463 135.452 50.5463C137.18 50.5463 138.642 49.4822 139.838 47.3539C140.769 45.8908 141.167 45.0927 141.965 43.6295C143.161 41.5012 144.623 40.4371 146.351 40.4371C147.547 40.4371 148.079 40.4371 149.275 40.4371C150.87 40.4371 152.332 39.3729 153.529 37.2447C154.326 35.7815 154.858 34.9834 155.655 33.5202C156.852 31.3919 158.314 30.3278 159.909 30.3278C160.972 30.3278 161.637 30.3278 162.7 30.3278C164.295 30.3278 165.757 29.2637 166.954 27.1354C167.751 25.6722 168.15 24.8741 169.08 23.4109C170.277 21.2827 171.739 20.2185 173.334 20.2185C174.397 20.2185 175.062 20.2185 176.125 20.2185C177.72 20.2185 179.182 19.1544 180.245 17.0261C181.043 15.563 181.442 14.7649 182.239 13.3017C183.435 11.1734 184.765 10.1093 186.36 10.1093C187.556 10.1093 188.088 10.1093 189.284 10.1093C190.879 10.1093 192.208 9.04513 193.404 6.91687C194.202 5.45368 194.601 4.65558 195.398 3.1924C196.594 1.06413 197.924 0 199.519 0C202.044 0 203.24 0 205.766 0C207.361 0 207.494 1.06413 206.43 3.1924C179.847 53.3397 153.263 103.487 126.679 153.767C125.616 155.896 124.021 156.96 122.16 156.96C108.204 156.96 101.292 157.093 87.3353 157.093C85.4744 157.093 85.0757 156.029 86.2719 153.9C103.551 123.839 120.964 93.6438 138.243 63.582C139.439 61.4537 139.174 60.3896 137.579 60.3896C136.382 60.3896 135.851 60.3896 134.654 60.3896C132.926 60.3896 131.464 61.4537 130.268 63.582C129.338 65.0452 128.939 65.8433 128.141 67.3064C126.945 69.4347 125.35 70.4988 123.755 70.4988C122.559 70.4988 122.027 70.4988 120.831 70.4988C119.103 70.4988 117.641 71.563 116.312 73.6913C115.381 75.1544 114.982 75.9525 114.052 77.4157C112.723 79.544 111.261 80.6081 109.533 80.6081C108.336 80.6081 107.672 80.6081 106.476 80.6081C104.748 80.6081 104.482 79.544 105.811 77.4157C106.741 75.9525 107.14 75.1544 108.071 73.6913C109.4 71.563 109.134 70.4988 107.406 70.4988C106.21 70.4988 105.678 70.4988 104.482 70.4988C102.754 70.4988 102.621 69.4347 103.817 67.3064C104.748 65.8433 105.146 65.0452 106.077 63.582C107.406 61.4537 107.14 60.3896 105.545 60.3896C104.349 60.3896 103.817 60.3896 102.621 60.3896C100.893 60.3896 99.4309 61.4537 98.1017 63.582C79.2273 93.7768 60.2199 123.972 41.3455 154.166C40.0163 156.295 38.4212 157.359 36.4275 157.359C22.471 157.359 15.5592 157.492 1.60279 157.492C-0.258074 157.492 -0.523911 156.428 0.938194 154.299C34.4337 104.152 68.3279 53.7387 102.222 3.1924Z" fill="white"/>
<path d="M167.086 150.309C168.149 148.181 167.75 147.117 165.757 147.117C164.427 147.117 163.763 147.117 162.434 147.117C160.573 147.117 160.174 146.053 161.237 143.924C161.902 142.461 162.301 141.663 163.098 140.2C164.161 138.072 163.763 137.008 161.902 137.008C160.573 137.008 159.908 137.008 158.712 137.008C156.851 137.008 156.452 135.943 157.516 133.815C179.447 90.4517 201.512 46.9552 223.443 3.59181C224.507 1.46355 225.836 0.399414 227.431 0.399414C238.862 0.399414 244.577 0.532431 256.008 0.532431C257.603 0.532431 257.869 1.59656 256.939 3.72483C235.539 50.4137 214.006 97.1025 192.473 143.791C191.543 145.92 191.941 146.984 193.802 146.984C195.132 146.984 195.796 146.984 197.125 146.984C198.986 146.984 200.448 145.92 201.379 143.791C202.043 142.328 202.309 141.53 202.974 140.067C203.904 137.939 205.366 136.875 207.227 136.875C208.556 136.875 209.221 136.875 210.417 136.875C212.278 136.875 213.607 135.81 214.538 133.682C233.545 90.3187 252.552 47.0883 271.56 3.72483C272.49 1.59656 273.686 0.532431 275.281 0.532431C286.712 0.532431 292.428 0.665447 303.859 0.665447C305.454 0.665447 305.72 1.72958 304.922 3.85785C287.909 47.0883 271.028 90.3187 254.014 133.549C253.217 135.677 251.888 136.742 250.027 136.742C248.698 136.742 248.033 136.742 246.837 136.742C244.976 136.742 243.647 137.806 242.716 139.934C242.185 141.397 241.786 142.195 241.254 143.658C240.457 145.787 238.995 146.851 237.134 146.851C235.805 146.851 235.14 146.851 233.811 146.851C231.95 146.851 230.488 147.915 229.69 150.043C229.026 151.506 228.76 152.304 228.228 153.768C227.298 155.896 225.969 156.96 224.108 156.96C204.968 157.093 185.827 157.093 166.687 157.226C164.826 157.226 164.294 156.162 165.358 154.034C166.022 152.57 166.288 151.772 167.086 150.309Z" fill="white"/>
<path d="M322.202 4.12355C323 1.99529 324.196 0.931152 325.658 0.931152C337.089 0.931152 342.804 1.06417 354.235 1.06417C355.83 1.06417 356.229 2.1283 355.565 4.25657C340.678 50.6794 325.658 97.1022 310.771 143.392C310.106 145.52 310.638 146.584 312.632 146.584C313.961 146.584 314.626 146.584 315.955 146.584C317.816 146.584 319.145 145.52 319.81 143.392C322.069 135.943 323.265 132.219 325.658 124.77C326.323 122.641 327.519 121.577 329.38 121.577C330.709 121.577 331.373 121.577 332.703 121.577C334.563 121.577 335.76 120.513 336.424 118.385C336.823 116.922 337.089 116.257 337.488 114.793C338.152 112.665 339.349 111.601 341.209 111.601C350.912 111.601 355.83 111.601 365.534 111.601C367.394 111.601 367.926 112.665 367.394 114.793C364.337 126.233 362.875 131.953 359.818 143.259C359.286 145.387 358.09 146.451 356.096 146.451C354.767 146.451 354.103 146.451 352.773 146.451C350.912 146.451 349.716 147.516 349.052 149.644C348.653 151.107 348.387 151.772 347.988 153.235C347.457 155.364 346.127 156.428 344.267 156.428C319.145 156.561 293.89 156.694 268.769 156.694C266.908 156.694 266.243 155.63 267.041 153.501C285.517 103.753 303.859 53.8718 322.202 4.12355Z" fill="white"/>
<path d="M412.72 14.2327C413.252 12.1044 412.72 11.0403 411.125 11.0403C409.929 11.0403 409.397 11.0403 408.201 11.0403C406.606 11.0403 405.543 12.1044 405.011 14.2327C403.15 21.6816 402.22 25.4061 400.359 32.988C399.827 35.1163 398.764 36.1805 397.169 36.1805C395.972 36.1805 395.441 36.1805 394.377 36.1805C392.782 36.1805 391.586 37.2446 391.054 39.3728C390.656 40.836 390.523 41.5011 390.124 42.9643C389.592 45.0926 388.529 46.1567 386.801 46.1567C382.548 46.1567 380.421 46.1567 376.035 46.1567C374.44 46.1567 373.908 45.0926 374.44 42.9643C378.028 30.1947 381.617 17.2921 385.206 4.52248C385.738 2.39421 386.801 1.33008 388.396 1.33008C417.638 1.46309 447.013 1.59611 476.255 1.72913C477.85 1.72913 478.382 2.79326 478.116 4.92153C476.255 17.6911 474.262 30.4607 472.401 43.2303C472.135 45.3586 471.071 46.4227 469.476 46.4227C465.223 46.4227 463.096 46.4227 458.71 46.4227C457.115 46.4227 456.45 45.3586 456.716 43.2303C456.982 41.7672 457.115 41.1021 457.381 39.6389C457.78 37.5106 457.115 36.4465 455.52 36.4465C454.324 36.4465 453.792 36.4465 452.729 36.4465C451.134 36.4465 450.469 35.3823 450.868 33.2541C452.197 25.8051 452.862 22.0807 454.191 14.6317C454.59 12.5035 453.925 11.4393 452.33 11.4393C451.134 11.4393 450.602 11.4393 449.406 11.4393C447.811 11.4393 446.88 12.5035 446.482 14.6317C437.709 60.7885 428.803 106.945 420.031 153.235C419.632 155.363 418.436 156.428 416.575 156.428C402.618 156.428 395.707 156.561 381.75 156.561C379.889 156.561 379.092 155.496 379.623 153.368C390.656 106.812 401.688 60.5225 412.72 14.2327Z" fill="white"/>
<path d="M490.477 4.78875C490.743 2.66049 491.674 1.59635 493.269 1.72937C504.7 1.72937 510.415 1.86239 521.846 1.86239C523.441 1.86239 524.106 2.92652 523.973 5.05479C519.852 54.271 515.732 103.487 511.611 152.703C511.478 154.832 510.415 155.896 508.554 155.896C494.598 155.896 487.686 156.029 473.729 156.029C471.869 156.029 471.071 154.965 471.337 152.969C477.584 103.354 484.097 54.1379 490.477 4.78875Z" fill="white"/>
<path d="M550.69 148.713C550.823 146.585 549.893 145.653 548.032 145.653C546.703 145.653 546.038 145.653 544.709 145.653C542.848 145.653 541.917 144.589 542.05 142.594C542.183 141.131 542.183 140.466 542.183 139.003C542.316 136.874 541.386 135.943 539.525 135.943C538.196 135.943 537.531 135.943 536.335 135.943C534.474 135.943 533.544 134.879 533.677 132.884C535.803 96.8364 537.93 60.9219 540.057 24.8743C540.19 22.7461 540.987 21.815 542.582 21.815C543.645 21.815 544.31 21.815 545.373 21.815C546.968 21.815 547.766 20.7508 547.899 18.7556C548.032 17.2924 548.032 16.6273 548.032 15.1641C548.165 13.0359 548.962 12.1047 550.557 12.1047C551.621 12.1047 552.152 12.1047 553.348 12.1047C554.944 12.1047 555.741 11.0406 555.874 9.04536C555.874 7.58218 556.007 6.9171 556.007 5.45391C556.14 3.32565 556.937 2.39453 558.399 2.39453C575.812 2.52755 593.357 2.52755 610.769 2.66056C612.364 2.66056 613.295 3.7247 613.428 5.98598C613.428 7.31615 613.561 7.98123 613.561 9.3114C613.694 11.4397 614.491 12.6368 616.219 12.6368C617.947 12.6368 618.877 12.6368 620.605 12.6368C622.333 12.6368 623.131 13.7009 623.264 15.9622C623.928 27.1356 624.194 32.5893 624.859 43.7627C624.992 45.891 624.194 47.0881 622.466 47.0881C613.561 47.0881 609.174 47.0881 600.269 47.0881C598.541 47.0881 597.61 46.024 597.61 43.7627C597.61 42.4326 597.61 41.7675 597.477 40.3043C597.477 38.176 596.547 37.2449 594.952 37.2449C593.889 37.2449 593.357 37.2449 592.294 37.2449C590.566 37.2449 589.635 36.1808 589.635 33.9195C589.502 26.6036 589.502 23.0121 589.502 15.6962C589.502 13.5679 588.705 12.6368 587.11 12.6368C586.046 12.6368 585.515 12.6368 584.319 12.6368C582.724 12.6368 581.926 13.7009 581.926 15.6962C581.926 17.1594 581.926 17.8245 581.926 19.2876C581.926 21.4159 581.129 22.347 579.533 22.347C578.47 22.347 577.806 22.347 576.742 22.347C575.147 22.347 574.35 23.4112 574.35 25.4064C573.951 61.3209 573.552 97.2354 573.153 133.283C573.153 135.411 574.084 136.342 575.945 136.342C577.274 136.342 577.938 136.342 579.135 136.342C580.996 136.342 581.926 137.406 581.926 139.402C581.926 140.865 581.926 141.53 581.926 142.993C581.926 145.121 582.856 146.053 584.717 146.053C586.046 146.053 586.711 146.053 588.04 146.053C589.901 146.053 590.832 144.988 590.832 142.993C590.699 131.82 590.699 126.233 590.566 115.06C590.566 112.931 591.496 111.734 593.357 111.734C606.516 111.734 613.029 111.734 626.188 111.601C628.049 111.601 629.112 112.665 629.245 114.927C629.91 126.1 630.175 131.554 630.84 142.727C630.973 144.855 630.043 146.053 628.049 146.053C626.853 146.053 626.321 146.053 625.125 146.053C623.131 146.053 622.2 147.117 622.333 149.378C622.333 150.708 622.466 151.373 622.466 152.703C622.599 154.832 621.669 156.029 619.675 156.029C597.61 156.162 575.413 156.162 553.348 156.295C551.488 156.295 550.557 155.231 550.557 153.235C550.557 150.974 550.557 150.176 550.69 148.713Z" fill="white"/>
<path d="M638.814 5.45391C638.681 3.32565 639.346 2.39453 640.941 2.39453C652.372 2.39453 658.088 2.52755 669.519 2.52755C671.114 2.52755 672.044 3.59168 672.31 5.58693C675.234 27.4017 678.025 49.3494 680.95 71.1642C681.215 73.2924 682.279 74.2235 683.874 74.2235C685.07 74.2235 685.735 74.2235 687.064 74.2235C688.792 74.2235 689.456 73.1594 689.191 71.1642C688.925 69.701 688.925 69.0359 688.659 67.5727C688.393 65.5775 689.058 64.5133 690.786 64.5133C691.849 64.5133 692.514 64.5133 693.577 64.5133C695.305 64.5133 695.969 63.4492 695.704 61.4539C692.912 42.8316 689.988 24.2093 687.197 5.58693C686.931 3.59168 687.463 2.52755 689.058 2.52755C700.489 2.52755 706.204 2.66056 717.635 2.66056C719.23 2.66056 720.161 3.7247 720.559 5.71995C730.395 54.271 740.098 102.955 749.934 151.506C750.333 153.501 749.668 154.566 747.675 154.566C733.718 154.566 726.807 154.699 712.85 154.699C710.989 154.699 709.793 153.634 709.527 151.639C706.204 129.825 702.881 107.877 699.558 86.062C699.292 84.0668 698.229 83.0026 696.501 83.0026C695.305 83.0026 694.773 83.0026 693.577 83.0026C691.849 83.0026 691.051 84.0668 691.45 86.062C691.716 87.5252 691.716 88.1903 691.982 89.6535C692.248 91.7817 691.583 92.7129 689.722 92.7129C688.393 92.7129 687.861 92.7129 686.532 92.7129C684.804 92.7129 684.007 93.777 684.273 95.7722C686.665 114.395 689.191 133.017 691.583 151.639C691.849 153.768 691.051 154.699 689.191 154.699C675.234 154.699 668.322 154.832 654.366 154.832C652.505 154.832 651.442 153.768 651.309 151.772C646.79 103.088 642.802 54.271 638.814 5.45391Z" fill="white"/>
<path d="M746.479 44.6937C745.947 42.6985 746.612 41.6343 748.207 41.6343C749.935 41.6343 750.732 41.6343 752.46 41.6343C754.055 41.6343 754.72 40.5702 754.188 38.5749C753.79 37.1118 753.657 36.4467 753.391 34.9835C752.859 32.9882 753.524 31.9241 755.119 31.9241C756.182 31.9241 756.847 31.9241 757.91 31.9241C759.505 31.9241 760.037 30.86 759.638 28.8647C759.239 27.4015 759.106 26.7365 758.708 25.2733C758.176 23.278 758.708 22.2139 760.303 22.2139C761.366 22.2139 762.031 22.2139 763.094 22.2139C764.689 22.2139 765.221 21.1498 764.689 19.1545C764.29 17.6913 764.157 17.0262 763.759 15.5631C763.227 13.5678 763.759 12.5037 765.354 12.5037C765.885 12.5037 766.151 12.5037 766.55 12.5037C768.145 12.5037 768.676 11.4395 768.145 9.44429C767.746 7.98111 767.613 7.31602 767.214 5.85284C766.683 3.85759 767.214 2.79346 768.677 2.79346C781.968 2.79346 795.127 2.92647 808.419 2.92647C810.014 2.92647 811.078 3.99061 811.742 5.98586C812.274 7.44904 812.407 8.11412 812.938 9.57731C813.603 11.5726 814.799 12.6367 816.394 12.6367C817.458 12.6367 817.989 12.6367 819.186 12.6367C820.781 12.6367 821.977 13.7008 822.641 15.6961C838.326 60.7887 854.01 105.881 869.695 150.841C870.359 152.836 869.828 153.9 867.967 153.9C854.01 153.9 847.098 154.033 833.142 154.033C831.281 154.033 829.952 152.969 829.42 150.974C824.369 133.815 819.186 116.656 814.135 99.4966C813.47 97.5014 812.274 96.4372 810.546 96.4372C809.35 96.4372 808.685 96.4372 807.489 96.4372C805.761 96.4372 805.096 97.5014 805.761 99.4966C806.16 100.96 806.425 101.625 806.824 103.088C807.356 105.083 806.824 106.147 804.963 106.147C803.767 106.147 803.102 106.147 801.906 106.147C800.045 106.147 799.514 107.212 800.045 109.207C803.9 123.174 807.755 137.007 811.609 150.974C812.141 152.969 811.476 154.033 809.615 154.033C795.659 154.033 788.747 154.166 774.791 154.166C772.93 154.166 771.734 153.102 771.202 151.107C762.562 115.858 754.587 80.3422 746.479 44.6937ZM799.248 88.0572C800.976 88.0572 801.64 86.993 800.976 84.9978C800.577 83.5346 800.311 82.8695 799.912 81.4063C799.381 79.4111 799.912 78.3469 801.64 78.3469C802.837 78.3469 803.501 78.3469 804.697 78.3469C806.425 78.3469 806.957 77.2828 806.425 75.2876C800.577 55.4681 794.596 35.6486 788.747 15.8291C788.083 13.8338 787.019 12.7697 785.424 12.7697C784.361 12.7697 783.829 12.7697 782.633 12.7697C781.038 12.7697 780.506 13.8338 781.171 15.8291C781.57 17.2923 781.835 17.9574 782.234 19.4205C782.766 21.4158 782.367 22.4799 780.772 22.4799C779.709 22.4799 779.044 22.4799 777.981 22.4799C776.386 22.4799 775.854 23.5441 776.386 25.5393C781.835 45.3588 787.285 65.1783 792.868 85.1308C793.399 87.126 794.596 88.1902 796.324 88.1902C797.52 88.0572 798.052 88.0572 799.248 88.0572Z" fill="white"/>
<path d="M836.464 6.25177C835.667 4.25652 836.065 3.19238 837.66 3.19238C849.091 3.19238 854.807 3.3254 866.238 3.3254C867.833 3.3254 869.029 4.38953 869.827 6.38478C890.163 54.5368 910.633 102.689 930.969 150.841C931.767 152.836 931.368 153.9 929.374 153.9C915.418 153.9 908.506 154.033 894.55 154.033C892.689 154.033 891.36 152.969 890.562 150.974C872.485 102.689 854.408 54.4038 836.464 6.25177Z" fill="white"/>
<path d="M887.107 6.38458C886.177 4.38933 886.575 3.3252 888.037 3.3252C890.696 3.3252 891.892 3.3252 894.55 3.3252C896.145 3.3252 897.342 4.38933 898.272 6.38458C898.937 7.84776 899.203 8.51285 899.867 9.97603C900.798 11.9713 902.127 13.0354 903.722 13.0354C904.785 13.0354 905.317 13.0354 906.513 13.0354C908.108 13.0354 909.304 14.0995 910.368 16.0948C911.032 17.558 911.431 18.2231 912.096 19.6862C913.026 21.6815 914.355 22.7456 915.95 22.7456C917.014 22.7456 917.678 22.7456 918.742 22.7456C920.337 22.7456 921.666 23.8098 922.596 25.805C923.261 27.2682 923.66 27.9333 924.324 29.3965C925.255 31.3917 926.584 32.4558 928.312 32.4558C929.375 32.4558 930.04 32.4558 931.103 32.4558C932.698 32.4558 934.027 33.52 935.091 35.5152C935.755 36.9784 936.154 37.6435 936.819 39.1067C937.882 41.1019 939.211 42.1661 940.806 42.1661C942.002 42.1661 942.534 42.1661 943.73 42.1661C945.325 42.1661 946.654 43.2302 947.718 45.2254C948.382 46.6886 948.781 47.3537 949.579 48.8169C950.642 50.8122 951.971 51.8763 953.699 51.8763C954.895 51.8763 955.427 51.8763 956.623 51.8763C958.351 51.8763 959.681 52.9404 960.744 54.9357C961.541 56.3988 961.807 57.0639 962.605 58.3941C963.668 60.3894 964.997 61.4535 966.725 61.4535C967.922 61.4535 968.453 61.4535 969.649 61.4535C971.377 61.4535 972.707 62.5176 973.77 64.5129C974.567 65.9761 974.833 66.6411 975.631 67.9713C976.694 69.9666 978.156 71.0307 979.884 71.0307C981.08 71.0307 981.612 71.0307 982.808 71.0307C984.536 71.0307 984.802 69.9666 983.739 67.9713C982.941 66.5081 982.543 65.843 981.878 64.5129C980.815 62.5176 979.352 61.4535 977.625 61.4535C976.428 61.4535 975.897 61.4535 974.7 61.4535C972.972 61.4535 971.643 60.3894 970.58 58.3941C969.782 56.9309 969.517 56.2658 968.719 54.9357C967.656 52.9404 966.326 51.8763 964.599 51.8763C963.402 51.8763 962.871 51.8763 961.674 51.8763C959.946 51.8763 958.617 50.8122 957.554 48.8169C950.243 34.8501 942.933 20.8834 935.622 6.91665C934.559 4.9214 934.825 3.85726 936.42 3.85726C947.851 3.85726 953.566 3.99028 964.997 3.99028C966.592 3.99028 967.922 5.05441 969.118 7.04966C996.233 54.5366 1023.48 102.423 1050.86 150.309C1052.06 152.304 1051.66 153.368 1049.8 153.368C1035.84 153.368 1028.93 153.501 1014.97 153.501C1013.11 153.501 1011.65 152.437 1010.59 150.442C997.297 124.902 984.005 99.3632 970.58 73.824C969.516 71.8288 968.187 70.7647 966.459 70.7647C965.263 70.7647 964.731 70.7647 963.535 70.7647C961.807 70.7647 960.478 69.7005 959.415 67.7053C958.75 66.2421 958.351 65.577 957.554 64.1138C956.49 62.1186 955.161 61.0544 953.433 61.0544C952.237 61.0544 951.572 61.0544 950.376 61.0544C948.648 61.0544 948.382 62.1186 949.313 64.1138C963.668 92.8454 978.023 121.577 992.379 150.309C993.442 152.304 992.91 153.368 991.049 153.368C977.093 153.368 970.181 153.501 956.225 153.501C954.364 153.501 952.902 152.437 951.971 150.442C930.306 102.556 908.773 54.5366 887.107 6.38458Z" fill="white"/>
<path d="M1029.73 84.4655C1028.53 82.4703 1028.8 81.4062 1030.53 81.4062C1031.72 81.4062 1032.39 81.4062 1033.58 81.4062C1035.31 81.4062 1035.58 80.342 1034.38 78.3468C1033.58 76.8836 1033.05 76.2185 1032.25 74.8883C1031.06 72.8931 1031.32 71.8289 1033.05 71.8289C1043.95 71.8289 1049.53 71.8289 1060.43 71.8289C1062.16 71.8289 1062.29 70.7648 1061.1 68.7696C1060.17 67.3064 1059.77 66.6413 1058.84 65.3111C1057.51 63.3159 1057.77 62.2517 1059.37 62.2517C1062.16 62.2517 1063.49 62.2517 1066.28 62.2517C1068.01 62.2517 1068.14 61.1876 1066.81 59.1924C1059.5 48.152 1052.06 37.1116 1044.75 26.0712C1043.42 24.076 1041.96 23.0118 1040.36 23.0118C1039.3 23.0118 1038.63 23.0118 1037.57 23.0118C1035.98 23.0118 1034.51 21.9477 1033.18 19.9524C1032.25 18.4893 1031.86 17.8242 1030.93 16.494C1029.6 14.4988 1028.13 13.4346 1026.54 13.4346C1025.48 13.4346 1024.94 13.4346 1023.75 13.4346C1022.15 13.4346 1022.02 14.4988 1023.35 16.494C1028 23.6769 1030.26 27.1353 1034.91 34.3182C1036.24 36.3135 1036.11 37.3776 1034.38 37.3776C1033.18 37.3776 1032.65 37.3776 1031.59 37.3776C1029.99 37.3776 1029.73 38.4418 1031.06 40.437C1031.99 41.9002 1032.39 42.5653 1033.32 43.8954C1034.65 45.8907 1034.38 46.9548 1032.79 46.9548C1023.75 46.9548 1019.23 46.9548 1010.32 46.9548C1008.73 46.9548 1007.27 45.8907 1006.07 43.8954C998.759 31.5249 991.448 19.1543 984.005 6.91681C982.808 4.92156 982.941 3.85742 984.536 3.85742C1008.86 3.99044 1033.05 4.12346 1057.38 4.12346C1058.97 4.12346 1060.43 5.18759 1061.9 7.18284C1074.26 24.608 1086.62 41.9002 1099.11 59.3254C1100.57 61.3206 1100.44 62.3848 1098.71 62.3848C1097.52 62.3848 1096.99 62.3848 1095.79 62.3848C1094.06 62.3848 1093.93 63.4489 1095.39 65.4441C1096.32 66.9073 1096.85 67.5724 1097.78 68.9026C1099.25 70.8978 1098.98 71.962 1097.38 71.962C1096.19 71.962 1095.66 71.962 1094.46 71.962C1092.73 71.962 1092.6 73.0261 1093.93 75.0214C1094.86 76.4845 1095.39 77.1496 1096.32 78.4798C1097.65 80.475 1097.52 81.5392 1095.79 81.5392C1083.16 81.5392 1076.78 81.5392 1064.15 81.5392C1062.43 81.5392 1062.16 82.6033 1063.49 84.5985C1073.46 100.162 1083.29 115.591 1093.26 131.154C1094.59 133.15 1096.19 134.214 1098.05 134.214C1099.25 134.214 1099.91 134.214 1101.11 134.214C1102.97 134.214 1104.56 135.278 1105.89 137.273C1106.82 138.736 1107.22 139.401 1108.15 140.732C1109.48 142.727 1111.07 143.791 1112.94 143.791C1114.27 143.791 1114.93 143.791 1116.26 143.791C1118.12 143.791 1118.39 142.727 1117.06 140.732C1109.75 129.824 1106.16 124.238 1098.98 113.33C1097.65 111.335 1097.92 110.271 1099.64 110.271C1112.8 110.271 1119.45 110.271 1132.74 110.138C1134.6 110.138 1136.2 111.202 1137.66 113.197C1146.43 125.435 1155.2 137.805 1163.98 150.043C1165.44 152.038 1165.17 153.102 1163.31 153.102C1133.67 153.235 1104.03 153.368 1074.26 153.501C1072.4 153.501 1070.8 152.437 1069.6 150.442C1055.91 128.228 1042.75 106.413 1029.73 84.4655Z" fill="white"/>
<path d="M103.868 323.231C105.33 325.359 106.792 326.423 108.387 326.423C110.913 326.423 112.242 326.423 114.768 326.423C116.363 326.423 116.363 325.359 115.033 323.231C114.103 321.768 113.571 320.969 112.641 319.506C111.179 317.378 111.312 316.314 112.907 316.314C113.97 316.314 114.502 316.314 115.698 316.314C117.293 316.314 117.426 315.25 115.964 313.121C115.033 311.658 114.502 310.86 113.571 309.397C112.242 307.269 112.242 306.205 113.837 306.205C114.9 306.205 115.565 306.205 116.628 306.205C118.223 306.205 118.356 305.14 117.027 303.012C116.097 301.549 115.565 300.751 114.635 299.288C113.305 297.159 113.438 296.095 115.033 296.095C116.097 296.095 116.761 296.095 117.825 296.095C119.42 296.095 119.553 295.031 118.223 292.903C117.293 291.44 116.761 290.642 115.831 289.178C114.502 287.05 114.635 285.986 116.23 285.986C117.426 285.986 117.958 285.986 119.154 285.986C120.749 285.986 121.015 284.922 119.686 282.794C118.755 281.331 118.356 280.532 117.426 279.069C116.097 276.941 116.23 275.877 117.958 275.877C119.154 275.877 119.686 275.877 120.882 275.877C122.61 275.877 122.743 274.813 121.413 272.684C120.483 271.221 120.084 270.423 119.154 268.96C117.825 266.832 118.091 265.768 119.686 265.768C120.882 265.768 121.413 265.768 122.61 265.768C124.338 265.768 125.8 266.832 127.129 268.96C128.059 270.423 128.458 271.221 129.389 272.684C130.718 274.813 132.18 275.877 133.775 275.877C134.971 275.877 135.503 275.877 136.699 275.877C138.427 275.877 139.889 276.941 141.085 279.069C142.016 280.532 142.415 281.331 143.212 282.794C144.408 284.922 145.871 285.986 147.598 285.986C148.795 285.986 149.326 285.986 150.523 285.986C152.118 285.986 153.58 287.05 154.909 289.178C155.706 290.642 156.238 291.44 157.036 292.903C158.232 295.031 159.694 296.095 161.289 296.095C162.352 296.095 163.017 296.095 164.08 296.095C165.675 296.095 167.138 297.159 168.334 299.288C169.131 300.751 169.663 301.549 170.46 303.012C171.657 305.14 173.119 306.205 174.714 306.205C175.777 306.205 176.442 306.205 177.505 306.205C179.1 306.205 180.562 307.269 181.759 309.397C182.556 310.86 182.955 311.658 183.885 313.121C185.082 315.25 186.411 316.314 188.006 316.314C189.202 316.314 189.734 316.314 190.93 316.314C192.525 316.314 193.854 317.378 195.05 319.506C195.848 320.969 196.247 321.768 197.044 323.231C198.24 325.359 199.57 326.423 201.165 326.423C203.69 326.423 204.886 326.423 207.412 326.423C209.007 326.423 209.14 325.359 208.076 323.231C181.227 273.216 154.51 223.069 127.661 173.055C126.464 170.927 125.002 169.863 123.141 169.863C109.185 169.863 102.273 169.863 88.3167 169.863C86.4559 169.863 86.0571 170.927 87.2534 173.055C104.666 203.117 122.211 233.178 139.623 263.24C140.82 265.368 140.687 266.433 138.959 266.433C137.762 266.433 137.231 266.433 136.035 266.433C134.307 266.433 132.844 265.368 131.648 263.24C130.718 261.777 130.319 260.979 129.522 259.516C128.325 257.388 126.73 256.323 125.002 256.323C123.806 256.323 123.274 256.323 122.078 256.323C120.35 256.323 118.888 255.259 117.559 253.131C116.628 251.668 116.23 250.87 115.299 249.406C113.97 247.278 112.508 246.214 110.78 246.214C109.584 246.214 108.919 246.214 107.723 246.214C105.995 246.214 105.729 247.278 107.058 249.406C107.989 250.87 108.387 251.668 109.318 253.131C110.647 255.259 110.381 256.323 108.653 256.323C107.457 256.323 106.925 256.323 105.729 256.323C104.001 256.323 103.868 257.388 105.197 259.516C106.128 260.979 106.527 261.777 107.457 263.24C108.786 265.368 108.653 266.433 106.925 266.433C105.729 266.433 105.197 266.433 104.001 266.433C102.273 266.433 100.811 265.368 99.4819 263.24C80.4746 233.178 61.3343 202.984 42.3269 172.922C40.9977 170.794 39.4027 169.729 37.4089 169.729C23.4525 169.729 16.5407 169.729 2.58423 169.729C0.723372 169.729 0.457534 170.794 1.91964 172.922C35.5481 222.537 69.7081 272.95 103.868 323.231Z" fill="white"/>
<path d="M167.935 175.849C168.999 177.977 168.6 179.041 166.606 179.041C165.277 179.041 164.612 179.041 163.283 179.041C161.422 179.041 161.024 180.105 162.087 182.233C162.884 183.696 163.15 184.495 163.948 185.958C165.011 188.086 164.612 189.15 162.751 189.15C161.422 189.15 160.758 189.15 159.561 189.15C157.701 189.15 157.302 190.214 158.365 192.343C180.563 235.706 202.76 278.936 224.824 322.3C225.888 324.428 227.217 325.492 228.812 325.492C240.243 325.359 245.959 325.359 257.39 325.226C258.985 325.226 259.25 324.162 258.187 322.034C236.521 275.478 214.856 228.922 193.19 182.233C192.259 180.105 192.658 179.041 194.519 179.041C195.848 179.041 196.513 179.041 197.842 179.041C199.703 179.041 201.165 180.105 202.095 182.233C202.76 183.696 203.159 184.495 203.823 185.958C204.754 188.086 206.216 189.15 208.077 189.15C209.406 189.15 210.071 189.15 211.267 189.15C213.128 189.15 214.59 190.214 215.52 192.343C234.793 235.573 253.934 278.803 273.207 322.034C274.137 324.162 275.334 325.226 276.929 325.226C288.36 325.093 294.075 325.093 305.506 324.96C307.101 324.96 307.367 323.896 306.569 321.768C289.423 278.67 272.276 235.44 254.997 192.343C254.199 190.214 252.87 189.15 251.009 189.15C249.68 189.15 249.016 189.15 247.819 189.15C245.959 189.15 244.629 188.086 243.699 185.958C243.167 184.495 242.768 183.696 242.237 182.233C241.439 180.105 239.977 179.041 238.116 179.041C236.787 179.041 236.123 179.041 234.793 179.041C232.933 179.041 231.47 177.977 230.673 175.849C230.008 174.385 229.742 173.587 229.078 172.124C228.147 169.996 226.818 168.932 224.957 168.932C205.817 168.932 186.677 168.932 167.537 168.932C165.676 168.932 165.144 169.996 166.207 172.124C166.872 173.72 167.271 174.385 167.935 175.849Z" fill="white"/>
<path d="M323.848 321.369C324.646 323.497 325.842 324.561 327.304 324.561C338.735 324.428 344.451 324.428 355.882 324.295C357.477 324.295 357.875 323.231 357.211 321.103C342.058 274.813 326.905 228.39 311.753 182.1C311.088 179.972 311.62 178.908 313.481 178.908C314.81 178.908 315.474 178.908 316.804 178.908C318.664 178.908 319.994 179.972 320.658 182.1C323.051 189.549 324.247 193.273 326.507 200.722C327.171 202.851 328.368 203.915 330.228 203.915C331.558 203.915 332.222 203.915 333.551 203.915C335.412 203.915 336.608 204.979 337.273 207.107C337.672 208.57 337.938 209.235 338.336 210.699C339.001 212.827 340.197 213.891 342.058 213.891C351.761 213.891 356.679 213.891 366.382 213.891C368.243 213.891 368.775 212.827 368.243 210.699C365.186 199.259 363.591 193.673 360.534 182.233C360.002 180.105 358.806 179.041 356.812 179.041C355.483 179.041 354.818 179.041 353.489 179.041C351.628 179.041 350.432 177.977 349.767 175.848C349.369 174.385 349.103 173.72 348.704 172.257C348.172 170.129 346.843 169.064 344.982 169.064C319.861 169.064 294.606 169.064 269.485 169.064C267.624 169.064 266.959 170.129 267.757 172.257C286.631 221.872 305.24 271.62 323.848 321.369Z" fill="white"/>
<path d="M414.233 310.86C414.765 312.989 414.233 314.053 412.638 314.053C411.442 314.053 410.91 314.053 409.714 314.053C408.119 314.053 407.055 312.989 406.524 310.993C404.663 303.544 403.732 299.82 401.739 292.371C401.207 290.243 400.144 289.179 398.549 289.312C397.352 289.312 396.821 289.312 395.757 289.312C394.162 289.312 392.966 288.247 392.434 286.119C392.036 284.656 391.903 283.991 391.504 282.528C390.972 280.399 389.909 279.335 388.181 279.335C383.928 279.335 381.801 279.335 377.415 279.335C375.82 279.335 375.288 280.399 375.819 282.528C379.408 295.297 383.13 308.2 386.719 320.97C387.251 323.098 388.447 324.162 389.909 324.029C419.151 323.763 448.393 323.497 477.768 323.231C479.363 323.231 479.895 322.167 479.629 320.038C477.635 307.269 475.774 294.499 473.781 281.863C473.515 279.734 472.451 278.803 470.856 278.803C466.603 278.803 464.476 278.803 460.09 278.803C458.495 278.803 457.83 279.867 458.096 281.996C458.362 283.459 458.495 284.124 458.761 285.587C459.159 287.715 458.495 288.779 456.9 288.779C455.704 288.779 455.172 288.779 454.109 288.779C452.514 288.779 451.849 289.844 452.248 291.972C453.577 299.421 454.374 303.145 455.704 310.594C456.102 312.722 455.438 313.787 453.976 313.787C452.779 313.787 452.248 313.787 451.051 313.787C449.456 313.787 448.526 312.722 448.127 310.727C439.089 264.57 430.05 218.414 421.012 172.257C420.613 170.129 419.417 169.064 417.556 169.064C403.599 169.064 396.688 169.064 382.731 169.064C380.87 169.064 380.073 170.129 380.605 172.257C391.77 218.414 402.935 264.57 414.233 310.86Z" fill="white"/>
<path d="M492.123 319.906C492.389 322.034 493.32 322.965 494.915 322.965C506.346 322.832 512.061 322.832 523.492 322.699C525.087 322.699 525.752 321.635 525.619 319.507C521.233 270.29 516.979 221.074 512.593 171.991C512.46 169.863 511.397 168.932 509.403 168.932C495.446 168.932 488.535 168.932 474.578 168.932C472.717 168.932 471.92 169.996 472.186 172.124C478.699 221.34 485.345 270.689 492.123 319.906Z" fill="white"/>
<path d="M551.538 175.715C551.671 177.844 550.741 178.775 548.88 178.775C547.55 178.775 546.886 178.775 545.557 178.775C543.696 178.775 542.765 179.839 542.898 181.834C543.031 183.297 543.031 183.962 543.031 185.426C543.164 187.554 542.234 188.485 540.373 188.485C539.044 188.485 538.379 188.485 537.183 188.485C535.322 188.485 534.524 189.549 534.524 191.544C536.784 227.592 539.044 263.506 541.303 299.554C541.436 301.682 542.367 302.613 543.962 302.613C545.025 302.613 545.69 302.613 546.753 302.613C548.348 302.613 549.145 303.677 549.278 305.673C549.411 307.136 549.411 307.801 549.411 309.264C549.544 311.392 550.342 312.323 551.937 312.323C553 312.323 553.532 312.323 554.728 312.323C556.323 312.323 557.121 313.388 557.254 315.383C557.254 316.846 557.386 317.511 557.386 318.974C557.519 321.103 558.317 322.034 559.912 322.034C577.324 321.901 594.869 321.768 612.282 321.635C613.877 321.635 614.807 320.571 614.94 318.309C614.94 316.979 615.073 316.314 615.073 314.984C615.206 312.856 616.004 311.658 617.731 311.658C619.459 311.658 620.39 311.658 622.118 311.658C623.846 311.658 624.643 310.594 624.776 308.333C625.441 297.16 625.707 291.706 626.238 280.532C626.371 278.404 625.574 277.207 623.846 277.34C614.94 277.34 610.554 277.473 601.648 277.473C599.92 277.473 598.99 278.537 598.99 280.799C598.99 282.129 598.99 282.794 598.99 284.257C598.99 286.385 598.06 287.316 596.465 287.316C595.401 287.316 594.869 287.316 593.806 287.316C592.078 287.316 591.281 288.38 591.148 290.642C591.148 297.958 591.015 301.549 591.015 308.865C591.015 310.993 590.217 311.924 588.622 312.057C587.559 312.057 587.027 312.057 585.831 312.057C584.236 312.057 583.438 310.993 583.438 308.998C583.438 307.535 583.438 306.87 583.438 305.407C583.438 303.278 582.641 302.347 581.046 302.347C579.983 302.347 579.318 302.347 578.255 302.347C576.66 302.347 575.862 301.283 575.862 299.288C575.33 263.373 574.799 227.459 574.267 191.411C574.267 189.283 575.198 188.352 577.058 188.352C578.388 188.352 579.052 188.352 580.248 188.352C582.109 188.352 583.04 187.288 583.04 185.293C583.04 183.829 583.04 183.164 583.04 181.701C583.04 179.573 583.97 178.642 585.831 178.642C587.16 178.642 587.825 178.642 589.154 178.642C591.015 178.642 591.945 179.706 591.945 181.701C591.812 192.874 591.812 198.461 591.812 209.635C591.812 211.763 592.743 212.96 594.604 212.96C607.763 212.96 614.276 212.96 627.302 212.827C629.163 212.827 630.226 211.763 630.359 209.502C631.023 198.328 631.289 192.874 631.821 181.701C631.954 179.573 631.023 178.376 629.03 178.376C627.833 178.376 627.302 178.376 626.105 178.376C624.112 178.376 623.181 177.312 623.314 175.05C623.314 173.72 623.447 173.055 623.447 171.725C623.58 169.597 622.649 168.399 620.523 168.399C598.458 168.399 576.261 168.399 554.196 168.399C552.336 168.399 551.405 169.464 551.405 171.459C551.405 173.587 551.538 174.252 551.538 175.715Z" fill="white"/>
<path d="M640.327 318.708C640.194 320.837 640.859 321.768 642.454 321.768C653.885 321.635 659.6 321.635 671.031 321.502C672.626 321.502 673.557 320.437 673.823 318.442C676.614 296.494 679.405 274.68 682.064 252.732C682.329 250.604 683.26 249.673 684.988 249.673C686.184 249.673 686.849 249.673 688.178 249.673C689.906 249.673 690.57 250.737 690.305 252.732C690.172 254.195 690.039 254.86 689.773 256.323C689.507 258.452 690.172 259.383 691.9 259.383C692.963 259.383 693.627 259.383 694.691 259.383C696.419 259.383 697.083 260.447 696.818 262.442C694.026 281.065 691.368 299.687 688.577 318.309C688.311 320.304 688.842 321.369 690.437 321.369C701.868 321.236 707.584 321.236 719.015 321.103C720.61 321.103 721.54 320.038 721.939 318.043C731.509 269.359 741.079 220.808 750.65 172.124C751.048 170.129 750.251 169.064 748.39 169.064C734.434 169.064 727.522 169.064 713.565 169.064C711.704 169.064 710.508 170.129 710.242 172.124C707.052 193.939 703.729 215.886 700.539 237.701C700.273 239.696 699.21 240.76 697.482 240.76C696.286 240.76 695.754 240.76 694.558 240.76C692.83 240.76 692.032 239.696 692.431 237.701C692.564 236.238 692.697 235.573 692.963 234.11C693.229 231.981 692.564 231.05 690.703 231.05C689.374 231.05 688.842 231.05 687.513 231.05C685.785 231.05 684.988 229.986 685.254 227.991C687.646 209.369 689.906 190.746 692.298 172.124C692.564 169.996 691.767 169.064 689.773 169.064C675.816 169.064 668.905 169.064 654.948 169.064C653.087 169.064 652.024 170.129 651.891 172.124C647.903 220.941 644.182 269.758 640.327 318.708Z" fill="white"/>
<path d="M747.859 278.803C747.461 280.798 747.992 281.863 749.587 281.863C751.315 281.863 752.113 281.863 753.841 281.863C755.436 281.863 756.1 282.927 755.569 284.922C755.17 286.385 755.037 287.05 754.771 288.513C754.239 290.509 754.904 291.573 756.499 291.573C757.562 291.573 758.227 291.573 759.29 291.573C760.885 291.573 761.417 292.637 761.018 294.632C760.62 296.095 760.487 296.76 760.088 298.224C759.556 300.219 760.088 301.283 761.683 301.283C762.746 301.283 763.411 301.283 764.474 301.283C766.069 301.283 766.601 302.347 766.069 304.342C765.67 305.806 765.537 306.471 765.139 307.934C764.607 309.929 765.139 310.993 766.734 310.993C767.265 310.993 767.531 310.993 767.93 310.993C769.525 310.993 770.057 312.057 769.525 314.053C769.126 315.516 768.993 316.181 768.595 317.644C768.063 319.639 768.595 320.703 770.057 320.703C783.349 320.57 796.508 320.437 809.799 320.304C811.394 320.304 812.458 319.24 813.122 317.245C813.654 315.782 813.787 315.117 814.319 313.654C814.983 311.658 816.179 310.594 817.642 310.594C818.705 310.594 819.237 310.594 820.433 310.594C822.028 310.594 823.091 309.53 823.889 307.535C839.307 262.442 854.859 217.216 870.277 172.124C870.942 170.129 870.41 169.064 868.417 169.064C854.46 169.064 847.548 169.064 833.592 169.064C831.731 169.064 830.402 170.129 829.87 172.124C824.819 189.283 819.768 206.442 814.717 223.601C814.053 225.597 812.989 226.661 811.129 226.661C809.932 226.661 809.268 226.661 808.071 226.661C806.343 226.661 805.679 225.597 806.344 223.601C806.742 222.138 807.008 221.473 807.407 220.01C807.939 218.015 807.407 216.95 805.546 216.95C804.35 216.95 803.685 216.95 802.489 216.95C800.628 216.95 800.096 215.886 800.628 213.891C804.35 199.924 808.204 185.958 811.926 172.124C812.458 170.129 811.793 169.064 809.932 169.064C795.976 169.064 789.064 169.064 775.108 169.064C773.247 169.064 772.05 170.129 771.519 172.124C763.677 207.639 755.702 243.288 747.859 278.803ZM800.495 235.307C802.223 235.307 802.888 236.371 802.223 238.366C801.824 239.829 801.558 240.494 801.16 241.958C800.628 243.953 801.16 245.017 802.888 245.017C804.084 245.017 804.749 245.017 805.945 245.017C807.673 245.017 808.204 246.081 807.673 248.076C801.824 267.896 795.976 287.848 790.26 307.668C789.596 309.663 788.532 310.727 786.937 310.727C785.874 310.727 785.342 310.727 784.146 310.727C782.551 310.727 782.019 309.663 782.684 307.668C783.083 306.205 783.349 305.54 783.747 304.076C784.279 302.081 783.88 301.017 782.152 301.017C781.089 301.017 780.424 301.017 779.361 301.017C777.766 301.017 777.234 299.953 777.766 297.958C783.216 278.138 788.532 258.186 793.982 238.366C794.514 236.371 795.71 235.307 797.438 235.307C798.634 235.307 799.299 235.307 800.495 235.307Z" fill="white"/>
<path d="M837.978 316.979C837.18 318.974 837.579 320.039 839.174 320.039C850.605 319.906 856.321 319.906 867.752 319.773C869.347 319.773 870.543 318.708 871.34 316.713C891.544 268.428 911.615 220.276 931.818 171.991C932.616 169.996 932.084 168.932 930.223 168.932C916.267 168.932 909.355 168.932 895.399 168.932C893.538 168.932 892.209 169.996 891.411 171.991C873.6 220.276 855.789 268.694 837.978 316.979Z" fill="white"/>
<path d="M888.753 316.58C887.823 318.575 888.222 319.64 889.684 319.64C892.342 319.64 893.539 319.64 896.197 319.64C897.792 319.64 898.988 318.575 899.919 316.58C900.583 315.117 900.849 314.452 901.514 312.989C902.444 310.993 903.773 309.929 905.235 309.929C906.299 309.929 906.83 309.929 908.027 309.929C909.622 309.929 910.818 308.865 911.881 306.87C912.546 305.407 912.945 304.742 913.609 303.279C914.54 301.283 915.869 300.219 917.464 300.219C918.527 300.219 919.192 300.219 920.255 300.219C921.85 300.219 923.179 299.155 924.11 297.16C924.774 295.697 925.173 295.031 925.838 293.568C926.768 291.573 928.097 290.509 929.692 290.509C930.756 290.509 931.42 290.509 932.484 290.509C934.079 290.509 935.408 289.445 936.471 287.45C937.136 285.986 937.535 285.321 938.199 283.858C939.263 281.863 940.592 280.799 942.187 280.799C943.383 280.799 943.915 280.799 945.111 280.799C946.706 280.799 948.035 279.735 949.099 277.739C949.763 276.276 950.162 275.611 950.826 274.148C951.89 272.153 953.219 271.088 954.814 271.088C956.01 271.088 956.542 271.088 957.738 271.088C959.466 271.088 960.795 270.024 961.859 268.029C962.523 266.566 962.922 265.901 963.72 264.438C964.783 262.442 966.112 261.378 967.84 261.378C969.036 261.378 969.568 261.378 970.764 261.378C972.492 261.378 973.821 260.314 974.885 258.319C975.682 256.856 975.948 256.191 976.746 254.727C977.809 252.732 979.271 251.668 980.866 251.668C982.062 251.668 982.594 251.668 983.79 251.668C985.518 251.668 985.784 252.732 984.721 254.727C983.923 256.191 983.524 256.856 982.86 258.319C981.796 260.314 980.334 261.378 978.739 261.378C977.543 261.378 977.011 261.378 975.815 261.378C974.087 261.378 972.758 262.442 971.695 264.438C970.897 265.901 970.631 266.566 969.834 268.029C968.77 270.024 967.441 271.088 965.713 271.088C964.517 271.088 963.985 271.088 962.789 271.088C961.061 271.088 959.732 272.153 958.669 274.148C951.491 288.115 944.18 302.214 937.003 316.181C935.94 318.176 936.205 319.241 937.8 319.241C949.231 319.107 954.947 319.107 966.378 318.974C967.973 318.974 969.302 317.91 970.498 315.915C997.614 267.896 1024.86 220.01 1051.98 171.991C1053.17 169.996 1052.78 168.932 1050.78 168.932C1036.82 168.932 1029.91 168.932 1015.96 168.932C1014.1 168.932 1012.63 169.996 1011.57 171.991C998.411 197.53 985.119 223.202 971.961 248.742C970.897 250.737 969.568 251.801 967.84 251.801C966.644 251.801 966.112 251.801 964.916 251.801C963.188 251.801 961.859 252.865 960.795 254.86C960.131 256.324 959.732 256.989 959.067 258.452C958.004 260.447 956.675 261.511 954.947 261.511C953.751 261.511 953.086 261.511 951.89 261.511C950.162 261.511 949.896 260.447 950.826 258.452C965.049 229.587 979.271 200.856 993.493 171.991C994.557 169.996 994.025 168.932 992.164 168.932C978.208 168.932 971.296 168.932 957.34 168.932C955.479 168.932 954.017 169.996 953.086 171.991C931.42 220.143 910.02 268.295 888.753 316.58Z" fill="white"/>
<path d="M1030.98 237.834C1029.78 239.829 1030.05 240.894 1031.77 240.894C1032.97 240.894 1033.63 240.894 1034.83 240.894C1036.56 240.894 1036.82 241.958 1035.63 243.953C1034.83 245.416 1034.3 246.081 1033.5 247.411C1032.3 249.407 1032.57 250.471 1034.3 250.471C1045.2 250.471 1050.78 250.338 1061.68 250.338C1063.41 250.338 1063.54 251.402 1062.34 253.397C1061.41 254.86 1061.02 255.525 1060.08 256.856C1058.76 258.851 1059.02 259.915 1060.62 259.915C1063.41 259.915 1064.74 259.915 1067.53 259.915C1069.26 259.915 1069.39 260.979 1068.06 262.974C1060.75 274.015 1053.44 285.055 1046.13 296.228C1044.8 298.224 1043.34 299.288 1041.74 299.288C1040.68 299.288 1040.01 299.288 1038.95 299.288C1037.36 299.288 1035.89 300.352 1034.56 302.347C1033.63 303.81 1033.24 304.475 1032.3 305.806C1030.98 307.801 1029.51 308.865 1027.92 308.865C1026.86 308.865 1026.32 308.865 1025.13 308.865C1023.53 308.865 1023.4 307.934 1024.73 305.806C1029.25 298.623 1031.64 295.031 1036.16 287.848C1037.49 285.853 1037.22 284.789 1035.63 284.789C1034.43 284.789 1033.9 284.789 1032.84 284.789C1031.24 284.789 1030.98 283.725 1032.3 281.73C1033.24 280.266 1033.63 279.601 1034.56 278.271C1035.89 276.276 1035.63 275.212 1034.03 275.212C1024.99 275.212 1020.48 275.345 1011.57 275.345C1009.97 275.345 1008.51 276.409 1007.32 278.404C1000.01 290.775 992.695 303.145 985.517 315.516C984.321 317.511 984.454 318.575 986.049 318.575C1010.37 318.309 1034.56 318.176 1058.89 317.91C1060.48 317.91 1061.95 316.846 1063.41 314.851C1075.77 297.426 1088 280 1100.36 262.575C1101.82 260.58 1101.69 259.516 1099.96 259.516C1098.76 259.516 1098.23 259.516 1097.04 259.516C1095.31 259.516 1095.18 258.452 1096.64 256.456C1097.57 254.993 1098.1 254.328 1099.03 252.998C1100.49 251.003 1100.23 249.939 1098.5 249.939C1097.3 249.939 1096.77 249.939 1095.57 249.939C1093.85 249.939 1093.71 248.875 1095.04 246.879C1095.97 245.416 1096.5 244.751 1097.43 243.421C1098.76 241.426 1098.63 240.361 1096.9 240.361C1084.28 240.361 1077.9 240.494 1065.27 240.494C1063.54 240.494 1063.27 239.43 1064.6 237.435C1074.44 221.872 1084.28 206.309 1094.11 190.746C1095.44 188.751 1096.9 187.687 1098.76 187.687C1099.96 187.687 1100.62 187.687 1101.82 187.687C1103.68 187.687 1105.28 186.623 1106.61 184.627C1107.54 183.164 1107.94 182.499 1108.87 181.169C1110.2 179.174 1111.79 178.11 1113.65 178.11C1114.98 178.11 1115.64 178.11 1116.97 178.11C1118.83 178.11 1119.1 179.174 1117.77 181.169C1110.59 192.209 1107.01 197.663 1099.69 208.57C1098.37 210.566 1098.63 211.63 1100.36 211.63C1113.52 211.63 1120.16 211.63 1133.46 211.497C1135.32 211.497 1136.91 210.433 1138.24 208.437C1147.01 196.067 1155.65 183.829 1164.43 171.459C1165.89 169.464 1165.62 168.399 1163.76 168.399C1134.12 168.399 1104.48 168.399 1074.71 168.399C1072.85 168.399 1071.25 169.464 1070.05 171.459C1056.89 193.939 1043.87 215.886 1030.98 237.834Z" fill="white"/>
</svg>
