<svg width="132" height="70" viewBox="0 0 132 70" fill="none" xmlns="http://www.w3.org/2000/svg">
<path d="M38.4726 0H0.904459C0.664058 0 0.445514 0.0874179 0.292532 0.262255C0.117695 0.415238 0.0302734 0.655639 0.0302734 0.874186V38.4423C0.0302734 38.6827 0.117695 38.9013 0.292532 39.0543C0.467369 39.2291 0.685913 39.3165 0.904459 39.3165H38.4726C38.713 39.3165 38.9315 39.2291 39.0845 39.0543C39.2375 38.9013 39.3468 38.6609 39.3468 38.4423V0.874186C39.3468 0.633785 39.2594 0.415238 39.0845 0.262255C38.9097 0.0874179 38.6912 0 38.4726 0ZM26.234 25.3295C26.234 25.5699 26.1466 25.7885 25.9717 25.9415C25.8188 26.1163 25.5784 26.2037 25.3598 26.2037H13.9954C13.755 26.2037 13.5364 26.1163 13.3835 25.9415C13.2305 25.7666 13.1212 25.5481 13.1212 25.3295V13.9651C13.1212 13.7247 13.2086 13.5062 13.3835 13.3532C13.5583 13.2002 13.7769 13.0909 13.9954 13.0909H25.3598C25.6002 13.0909 25.8188 13.1784 25.9717 13.3532C26.1466 13.528 26.234 13.7466 26.234 13.9651V25.3295Z" fill="white"/>
<path d="M117.106 13.1123H105.741C105.261 13.1123 104.867 13.5057 104.867 13.9865V25.3509C104.867 25.8317 105.261 26.2251 105.741 26.2251H117.106C117.587 26.2251 117.98 25.8317 117.98 25.3509V13.9865C117.98 13.5057 117.587 13.1123 117.106 13.1123Z" fill="white"/>
<path d="M103.993 0H92.6281C92.1473 0 91.7539 0.393384 91.7539 0.874186V12.2386C91.7539 12.7194 92.1473 13.1128 92.6281 13.1128H103.993C104.473 13.1128 104.867 12.7194 104.867 12.2386V0.874186C104.867 0.393384 104.473 0 103.993 0Z" fill="white"/>
<path d="M130.197 0H118.832C118.351 0 117.958 0.393384 117.958 0.874186V12.2386C117.958 12.7194 118.351 13.1128 118.832 13.1128H130.197C130.677 13.1128 131.071 12.7194 131.071 12.2386V0.874186C131.071 0.393384 130.677 0 130.197 0Z" fill="white"/>
<path d="M103.993 26.2041H92.6281C92.1473 26.2041 91.7539 26.5975 91.7539 27.0783V38.4427C91.7539 38.9235 92.1473 39.3169 92.6281 39.3169H103.993C104.473 39.3169 104.867 38.9235 104.867 38.4427V27.0783C104.867 26.5975 104.473 26.2041 103.993 26.2041Z" fill="white"/>
<path d="M130.197 26.2041H118.832C118.351 26.2041 117.958 26.5975 117.958 27.0783V38.4427C117.958 38.9235 118.351 39.3169 118.832 39.3169H130.197C130.677 39.3169 131.071 38.9235 131.071 38.4427V27.0783C131.071 26.5975 130.677 26.2041 130.197 26.2041Z" fill="white"/>
<path d="M84.3236 0H72.9591C72.4783 0 72.085 0.393384 72.085 0.874186V12.2386C72.085 12.7194 72.4783 13.1128 72.9591 13.1128H84.3236C84.8044 13.1128 85.1978 12.7194 85.1978 12.2386V0.874186C85.1978 0.393384 84.8044 0 84.3236 0Z" fill="white"/>
<path d="M84.3236 26.2041H72.9591C72.4783 26.2041 72.085 26.5975 72.085 27.0783V38.4427C72.085 38.9235 72.4783 39.3169 72.9591 39.3169H84.3236C84.8044 39.3169 85.1978 38.9235 85.1978 38.4427V27.0783C85.1978 26.5975 84.8044 26.2041 84.3236 26.2041Z" fill="white"/>
<path d="M72.1074 13.9651C72.1074 13.7247 72.02 13.5062 71.8452 13.3532C71.6922 13.2002 71.4518 13.0909 71.2332 13.0909H58.9946V0.874186C58.9946 0.633785 58.9072 0.415238 58.7324 0.262255C58.5794 0.0874179 58.339 0 58.1204 0H46.756C46.5156 0 46.2971 0.0874179 46.1441 0.262255C45.9911 0.415238 45.8818 0.655639 45.8818 0.874186V38.4205C45.8818 38.6609 45.9693 38.8794 46.1441 39.0324C46.3189 39.1854 46.5375 39.2947 46.756 39.2947H58.1204C58.3608 39.2947 58.5794 39.2072 58.7324 39.0324C58.9072 38.8576 58.9946 38.639 58.9946 38.4205V26.2037H71.2332C71.4736 26.2037 71.6922 26.1163 71.8452 25.9415C72.02 25.7885 72.1074 25.5481 72.1074 25.3295V13.9651Z" fill="white"/>
<path d="M72.0402 60.5368C72.0402 66.0879 75.69 69.9999 80.8258 69.9999C85.9835 69.9999 89.6114 66.0879 89.6114 60.5368C89.6114 54.9857 85.9835 51.0737 80.8258 51.0737C75.69 51.0737 72.0402 54.9857 72.0402 60.5368ZM85.3716 60.5368C85.3716 64.0554 83.5139 66.2846 80.8476 66.2846C78.1814 66.2846 76.3456 64.0554 76.3456 60.5368C76.3456 57.0182 78.1814 54.789 80.8476 54.789C83.4921 54.789 85.3716 57.0182 85.3716 60.5368ZM99.9486 51.3578H95.687V69.7157H99.9486V64.7547L102.003 62.3726L106.942 69.7157H111.903L104.844 59.0725L111.466 51.3578H106.505L99.9486 59.3129V51.3578ZM119.246 60.5368C119.246 57.04 121.06 54.789 123.617 54.789C125.519 54.789 126.874 55.991 127.289 57.9361L131.31 56.603C130.195 53.2592 127.573 51.0737 123.639 51.0737C118.612 51.0737 114.963 54.9857 114.963 60.5368C114.963 66.0879 118.591 69.9999 123.639 69.9999C127.573 69.9999 130.195 67.8362 131.31 64.4706L127.289 63.1375C126.852 65.0826 125.497 66.2846 123.617 66.2846C121.06 66.2846 119.246 64.0335 119.246 60.5368Z" fill="white"/>
<path d="M0.0302734 61.1934H65.5942H0.0302734Z" fill="white"/>
<path d="M0.0302734 61.1934H65.5942" stroke="white" stroke-width="8.73218"/>
</svg>
