<svg width="125" height="25" viewBox="0 0 125 25" fill="none" xmlns="http://www.w3.org/2000/svg">
<g clip-path="url(#clip0_688_2773)">
<path d="M7.53935 10.5057L12.3944 5.65087L17.252 10.5083L20.077 7.68327L12.3944 0.000488281L4.71436 7.6807L7.53935 10.5057Z" fill="#F3BA2F"/>
<path d="M5.54028 12.4993L2.71533 9.67432L-0.10975 12.4994L2.71519 15.3243L5.54028 12.4993Z" fill="#F3BA2F"/>
<path d="M7.53519 14.4952L12.3902 19.35L17.2476 14.4928L20.0742 17.3162L20.0728 17.3178L12.3902 25.0004L4.71 17.3204L4.70605 17.3164L7.53519 14.4952Z" fill="#F3BA2F"/>
<path d="M22.068 15.3259L24.8931 12.5009L22.0681 9.67591L19.243 12.501L22.068 15.3259Z" fill="#F3BA2F"/>
<path d="M15.2569 12.499H15.2581L12.3915 9.63232L10.273 11.7508H10.2728L10.0295 11.9943L9.52739 12.4964L9.52344 12.5004L9.52739 12.5045L12.3915 15.3686L15.2581 12.5019L15.2595 12.5004L15.2569 12.499Z" fill="#F3BA2F"/>
<path d="M29.293 6.05811H35.4372C36.9621 6.05811 38.1153 6.44946 38.8968 7.23217C39.5016 7.83836 39.8039 8.58968 39.8039 9.48593V9.52384C39.8039 9.90256 39.7571 10.2372 39.6629 10.5275C39.5689 10.8182 39.4434 11.0798 39.2864 11.3134C39.1298 11.5472 38.9477 11.7523 38.7408 11.9288C38.5337 12.1058 38.3111 12.2574 38.0728 12.3834C38.8393 12.674 39.4428 13.0684 39.8827 13.5671C40.3224 14.0661 40.5426 14.7574 40.5426 15.641V15.6787C40.5426 16.2849 40.4261 16.8151 40.1929 17.2698C39.9597 17.7242 39.6256 18.1031 39.1906 18.4062C38.7556 18.7093 38.2326 18.9363 37.6212 19.088C37.0099 19.2394 36.3324 19.315 35.589 19.315H29.293V6.05811ZM34.8229 11.4176C35.467 11.4176 35.9784 11.3075 36.3569 11.0863C36.7356 10.8653 36.925 10.5085 36.925 10.0163V9.97838C36.925 9.53667 36.7607 9.19902 36.4326 8.96524C36.1042 8.73165 35.6307 8.61475 35.0123 8.61475H32.1336V11.4176H34.8229ZM35.5995 16.7586C36.2434 16.7586 36.7481 16.6421 37.1146 16.4083C37.4806 16.1747 37.6639 15.8116 37.6639 15.3191V15.2814C37.6639 14.8395 37.4933 14.4892 37.1525 14.2302C36.8115 13.9717 36.2623 13.8422 35.5047 13.8422H32.1336V16.7588L35.5995 16.7586Z" fill="#F3BA2F"/>
<path d="M44.2041 6.05811H47.1209V19.3154H44.2041V6.05811Z" fill="#F3BA2F"/>
<path d="M51.5405 6.05811H54.2295L60.4416 14.2209V6.05811H63.3203V19.3154H60.8395L54.419 10.8877V19.3154H51.5405V6.05811Z" fill="#F3BA2F"/>
<path d="M72.1465 5.96387H74.8357L80.5176 19.3158H77.4683L76.2562 16.3425H70.6502L69.4382 19.3158H66.4644L72.1465 5.96387ZM75.2146 13.7665L73.4531 9.46751L71.6922 13.7665H75.2146Z" fill="#F3BA2F"/>
<path d="M83.6694 6.05811H86.359L92.5707 14.2209V6.05811H95.4494V19.3154H92.9686L86.5481 10.8877V19.3154H83.6694V6.05811Z" fill="#F3BA2F"/>
<path d="M105.945 19.5425C104.972 19.5425 104.07 19.3656 103.236 19.0123C102.403 18.6591 101.683 18.1759 101.077 17.5634C100.471 16.9511 99.9973 16.2282 99.6569 15.3949C99.3159 14.5615 99.1455 13.6714 99.1455 12.7244V12.6867C99.1455 11.7397 99.3159 10.8529 99.6569 10.0257C99.9975 9.1988 100.471 8.47276 101.077 7.84782C101.683 7.22287 102.409 6.73022 103.255 6.37046C104.101 6.01069 105.036 5.83081 106.058 5.83081C106.676 5.83081 107.241 5.88156 107.753 5.98226C108.264 6.08355 108.728 6.22217 109.145 6.39889C109.562 6.57581 109.947 6.79044 110.301 7.04279C110.653 7.29553 110.982 7.57316 111.285 7.87625L109.429 10.0163C108.911 9.54929 108.384 9.18281 107.848 8.91782C107.311 8.65284 106.708 8.52015 106.039 8.52015C105.483 8.52015 104.969 8.62757 104.496 8.8422C104.022 9.05683 103.615 9.35341 103.274 9.73213C102.933 10.1108 102.668 10.5498 102.478 11.0484C102.289 11.5473 102.195 12.0807 102.195 12.6487V12.6865C102.195 13.2545 102.289 13.7914 102.478 14.2961C102.668 14.8014 102.93 15.2431 103.265 15.6218C103.599 16.0005 104.003 16.3007 104.476 16.5216C104.95 16.7428 105.471 16.853 106.039 16.853C106.797 16.853 107.437 16.7141 107.961 16.4363C108.485 16.1589 109.006 15.78 109.524 15.3L111.38 17.175C111.039 17.5413 110.685 17.8697 110.319 18.1597C109.953 18.4504 109.552 18.6996 109.116 18.9081C108.681 19.1162 108.204 19.2743 107.687 19.3814C107.169 19.4886 106.588 19.5425 105.945 19.5425Z" fill="#F3BA2F"/>
<path d="M114.811 6.05811H124.791V8.65286H117.689V11.3422H123.939V13.9368H117.689V16.7209H124.886V19.3154H114.811V6.05811Z" fill="#F3BA2F"/>
</g>
<defs>
<clipPath id="clip0_688_2773">
<rect width="124.794" height="25" fill="white"/>
</clipPath>
</defs>
</svg>
