<svg width="304" height="70" viewBox="0 0 304 70" fill="none" xmlns="http://www.w3.org/2000/svg">
<path d="M80.5708 36.4005V54.5017C80.5643 55.6304 80.2649 56.7382 79.702 57.7166C79.1391 58.695 78.3319 59.5106 77.3594 60.0837L61.6793 69.1155C60.7081 69.6944 59.5986 70 58.4679 70C57.3374 70 56.2277 69.6944 55.2566 69.1155L39.5764 60.0837C38.6038 59.5106 37.7967 58.695 37.2338 57.7166C36.671 56.7382 36.3716 55.6304 36.3651 54.5017V49.4212L44.3933 44.7611V53.5922L58.4429 61.7458L72.4922 53.5922V37.3223L58.4429 29.1687L25.527 48.2358C24.5468 48.7881 23.4408 49.0783 22.3156 49.0783C21.1906 49.0783 20.0846 48.7881 19.1044 48.2358L3.4241 39.1664C2.46655 38.5846 1.67496 37.766 1.12555 36.7893C0.576302 35.8127 0.287919 34.711 0.288086 33.5905V15.4893C0.294591 14.3604 0.593982 13.2528 1.1569 12.2742C1.71966 11.2958 2.52693 10.4802 3.49933 9.9071L19.1796 0.875322C20.1528 0.302226 21.2615 0 22.3908 0C23.5203 0 24.629 0.302226 25.6022 0.875322L41.2825 9.9071C42.2549 10.4802 43.0622 11.2958 43.6249 12.2742C44.1878 13.2528 44.4872 14.3604 44.4937 15.4893V20.5696L36.4153 25.1984V16.4175L22.3658 8.26387L8.31627 16.4175V32.6685L22.3658 40.8223L55.2817 21.7551C56.2619 21.2027 57.3679 20.9127 58.4931 20.9127C59.6181 20.9127 60.7241 21.2027 61.7043 21.7551L77.3846 30.8244C78.3515 31.4002 79.1531 32.2162 79.7113 33.1932C80.2697 34.1703 80.5658 35.2751 80.5708 36.4005Z" fill="white"/>
<path d="M108.512 61.0811V46.9752C110.043 48.9007 112.821 49.9795 116.039 49.9795C124.255 49.9795 129.806 44.1464 129.806 35.2528C129.806 26.3589 124.707 20.5259 116.722 20.5259C113.041 20.5259 110.206 21.8869 108.506 24.0947V20.9585H100.641V61.0623L108.512 61.0811ZM115.066 43.1805C110.814 43.1805 108.042 40.007 108.042 35.2528C108.042 30.4985 110.814 27.2683 115.066 27.2683C119.2 27.2683 122.035 30.4045 122.035 35.2528C122.035 40.1011 119.219 43.1805 115.066 43.1805Z" fill="white"/>
<path d="M147.683 49.9795C156.465 49.9795 162.736 43.7451 162.736 35.2528C162.736 26.7602 156.465 20.5259 147.683 20.5259C138.902 20.5259 132.63 26.7541 132.63 35.2528C132.63 43.7513 138.902 49.9795 147.683 49.9795ZM147.683 43.1805C143.437 43.1805 140.545 39.9505 140.545 35.2528C140.545 30.5549 143.443 27.2683 147.683 27.2683C151.923 27.2683 154.82 30.4922 154.82 35.2528C154.82 40.0132 151.935 43.1805 147.683 43.1805Z" fill="white"/>
<path d="M175.386 49.528V8.57129H167.515V49.528H175.386Z" fill="white"/>
<path d="M199.05 20.9771L193.104 39.3857L187.101 20.9771H179.042L189.403 49.2956L185.213 61.0808H192.741L196.785 49.421L207.153 20.9896L199.05 20.9771Z" fill="white"/>
<path d="M229.264 23.8123C227.676 21.8304 224.874 20.5259 221.391 20.5259C213.063 20.5259 208.026 26.3589 208.026 35.2528C208.026 44.1464 213.043 49.9795 221.505 49.9795C224.847 49.9795 227.846 48.7252 229.321 46.6365V50.3998C229.321 53.0591 227.564 54.9282 225.188 54.9282H212.046V61.1061H226.435C232.888 61.1061 237.192 57.1987 237.192 51.2464V20.9774H229.264V23.8123ZM222.752 43.1805C218.558 43.1805 215.786 40.0445 215.786 35.2528C215.786 30.4608 218.558 27.2683 222.752 27.2683C226.949 27.2683 229.771 30.4045 229.771 35.2528C229.771 40.1011 226.999 43.1805 222.752 43.1805Z" fill="white"/>
<path d="M257.042 49.9795C265.824 49.9795 272.095 43.7451 272.095 35.2528C272.095 26.7602 265.824 20.5259 257.042 20.5259C248.262 20.5259 241.989 26.7541 241.989 35.2528C241.989 43.7513 248.262 49.9795 257.042 49.9795ZM257.042 43.1805C252.791 43.1805 249.905 39.9505 249.905 35.2528C249.905 30.5549 252.791 27.2683 257.042 27.2683C261.295 27.2683 264.181 30.4922 264.181 35.2528C264.181 40.0132 261.289 43.1805 257.042 43.1805Z" fill="white"/>
<path d="M284.345 49.528V33.8916C284.345 30.21 286.778 27.5506 290.234 27.5506C293.521 27.5506 295.728 30.0594 295.728 33.4964V49.528H303.656V31.7403C303.656 25.1672 299.468 20.5259 292.994 20.5259C289.086 20.5259 285.919 22.1691 284.333 24.9163V20.9774H276.417V49.528H284.345Z" fill="white"/>
</svg>
