<svg width="230" height="50" viewBox="0 0 230 50" fill="none" xmlns="http://www.w3.org/2000/svg">
<path d="M25.1282 50C38.9357 50 50.1282 38.8075 50.1282 25C50.1282 11.1925 38.9357 0 25.1282 0C11.3207 0 0.12822 11.1925 0.12822 25C0.12822 38.8075 11.3207 50 25.1282 50Z" fill="#863FF8"/>
<path d="M19.3198 10.3689C18.4903 9.87702 17.4616 9.87702 16.6322 10.3689L10.0062 14.2987C9.1967 14.7788 8.69965 15.6551 8.69965 16.602V24.4905C8.69965 25.4375 9.1967 26.3137 10.0062 26.7938L16.6322 30.7236C17.4616 31.2155 18.4903 31.2155 19.3198 30.7236L32.9948 22.6131L38.7372 26.0189V32.8885L32.9948 36.2943L27.2523 32.8885V28.563L23.7184 30.7899V33.398C23.7184 34.3449 24.2155 35.2212 25.025 35.7013L31.651 39.6311C32.4804 40.123 33.5091 40.123 34.3386 39.6311L40.9645 35.7013C41.774 35.2212 42.2711 34.3449 42.2711 33.398V25.5095C42.2711 24.5625 41.774 23.6863 40.9645 23.2062L34.3386 19.2764C33.5091 18.7845 32.4804 18.7845 31.651 19.2764L17.976 27.3869L12.2335 23.9811V17.1115L17.976 13.7057L23.7184 17.1115V21.437L27.2523 19.2102V16.602C27.2523 15.6551 26.7552 14.7788 25.9457 14.2987L19.3198 10.3689Z" fill="white"/>
<path d="M74.7462 48.3227V37.1632C75.9569 38.6865 78.155 39.54 80.7005 39.54C87.2006 39.54 91.592 34.9253 91.592 27.8894C91.592 20.8533 87.558 16.2386 81.2414 16.2386C78.3287 16.2386 76.0859 17.3154 74.7412 19.062V16.5809H68.5188V48.3078L74.7462 48.3227ZM79.9314 34.1612C76.5671 34.1612 74.374 31.6505 74.374 27.8894C74.374 24.1282 76.5671 21.5727 79.9314 21.5727C83.2013 21.5727 85.4441 24.0538 85.4441 27.8894C85.4441 31.725 83.2162 34.1612 79.9314 34.1612Z" fill="black"/>
<path d="M105.736 39.54C112.684 39.54 117.645 34.6079 117.645 27.8894C117.645 21.1708 112.684 16.2386 105.736 16.2386C98.7894 16.2386 93.8274 21.1659 93.8274 27.8894C93.8274 34.6127 98.7894 39.54 105.736 39.54ZM105.736 34.1612C102.377 34.1612 100.09 31.6058 100.09 27.8894C100.09 24.1728 102.382 21.5727 105.736 21.5727C109.09 21.5727 111.382 24.1232 111.382 27.8894C111.382 31.6554 109.1 34.1612 105.736 34.1612Z" fill="black"/>
<path d="M127.65 39.1827V6.78101H121.423V39.1827H127.65Z" fill="black"/>
<path d="M146.373 16.5956L141.669 31.159L136.92 16.5956H130.544L138.741 38.999L135.426 48.3224H141.381L144.581 39.0982L152.783 16.6055L146.373 16.5956Z" fill="black"/>
<path d="M170.275 18.8386C169.019 17.2706 166.802 16.2386 164.047 16.2386C157.459 16.2386 153.474 20.8533 153.474 27.8893C153.474 34.9253 157.443 39.5399 164.137 39.5399C166.781 39.5399 169.154 38.5477 170.32 36.8952V39.8725C170.32 41.9763 168.931 43.455 167.05 43.455H156.654V48.3425H168.037C173.143 48.3425 176.547 45.2512 176.547 40.5422V16.5958H170.275V18.8386ZM165.124 34.1612C161.805 34.1612 159.612 31.6802 159.612 27.8893C159.612 24.0984 161.805 21.5727 165.124 21.5727C168.444 21.5727 170.676 24.0538 170.676 27.8893C170.676 31.7249 168.483 34.1612 165.124 34.1612Z" fill="black"/>
<path d="M192.252 39.5399C199.199 39.5399 204.16 34.6078 204.16 27.8893C204.16 21.1707 199.199 16.2386 192.252 16.2386C185.306 16.2386 180.343 21.1658 180.343 27.8893C180.343 34.6127 185.306 39.5399 192.252 39.5399ZM192.252 34.1612C188.888 34.1612 186.605 31.6058 186.605 27.8893C186.605 24.1728 188.888 21.5727 192.252 21.5727C195.616 21.5727 197.899 24.1232 197.899 27.8893C197.899 31.6554 195.611 34.1612 192.252 34.1612Z" fill="black"/>
<path d="M213.851 39.1828V26.8125C213.851 23.8999 215.776 21.7961 218.51 21.7961C221.111 21.7961 222.857 23.7808 222.857 26.4999V39.1828H229.129V25.1106C229.129 19.9105 225.815 16.2386 220.694 16.2386C217.602 16.2386 215.097 17.5386 213.842 19.712V16.5958H207.579V39.1828H213.851Z" fill="black"/>
</svg>
