<svg width="71" height="70" viewBox="0 0 71 70" fill="none" xmlns="http://www.w3.org/2000/svg">
<circle cx="35.5117" cy="35" r="35" fill="#8247E5"/>
<path d="M46.0095 27.9699C45.2632 27.5406 44.3037 27.5406 43.4508 27.9699L37.4803 31.5115L33.429 33.7652L27.5652 37.3067C26.8189 37.736 25.8594 37.736 25.0065 37.3067L20.422 34.5164C19.6757 34.0871 19.1427 33.2286 19.1427 32.2627V26.8967C19.1427 26.0382 19.5691 25.1796 20.422 24.643L25.0065 21.96C25.7528 21.5308 26.7123 21.5308 27.5652 21.96L32.1496 24.7503C32.8959 25.1796 33.429 26.0382 33.429 27.004V30.5456L37.4803 28.1846V24.5357C37.4803 23.6771 37.0539 22.8186 36.201 22.282L27.6718 17.238C26.9255 16.8087 25.966 16.8087 25.1131 17.238L16.3707 22.3893C15.5178 22.8186 15.0913 23.6771 15.0913 24.5357V34.6237C15.0913 35.4823 15.5178 36.3408 16.3707 36.8774L25.0065 41.9215C25.7528 42.3507 26.7123 42.3507 27.5652 41.9215L33.429 38.4872L37.4803 36.1262L43.3441 32.692C44.0904 32.2627 45.05 32.2627 45.9029 32.692L50.4873 35.375C51.2336 35.8042 51.7667 36.6628 51.7667 37.6287V42.9947C51.7667 43.8532 51.3402 44.7118 50.4873 45.2484L46.0095 47.9313C45.2632 48.3606 44.3037 48.3606 43.4508 47.9313L38.8663 45.2484C38.12 44.8191 37.587 43.9605 37.587 42.9947V39.5604L33.5356 41.9215V45.463C33.5356 46.3216 33.9621 47.1801 34.815 47.7167L43.4508 52.7607C44.1971 53.19 45.1566 53.19 46.0095 52.7607L54.6453 47.7167C55.3916 47.2874 55.9246 46.4289 55.9246 45.463V35.2676C55.9246 34.4091 55.4982 33.5505 54.6453 33.0139L46.0095 27.9699Z" fill="white"/>
</svg>
