<svg width="62" height="70" viewBox="0 0 62 70" fill="none" xmlns="http://www.w3.org/2000/svg">
<path d="M30.9615 30.9615C29.1038 30.9615 27.5827 32.4692 27.5827 34.3404C27.5827 35.5788 28.2692 36.6558 29.2788 37.2481V40.0481C29.2788 40.9769 30.0327 41.7308 30.9615 41.7308C31.8904 41.7308 32.6442 40.9769 32.6442 40.0481V37.2481C33.6538 36.6558 34.3404 35.5788 34.3404 34.3404C34.3404 32.4692 32.8192 30.9615 30.9615 30.9615ZM30.9615 17.5C25.9942 17.5 24.3385 18.6442 24.2442 25.5769H37.6788C37.5846 18.6442 35.9288 17.5 30.9615 17.5ZM30.9615 17.5C25.9942 17.5 24.3385 18.6442 24.2442 25.5769H37.6788C37.5846 18.6442 35.9288 17.5 30.9615 17.5ZM30.9615 30.9615C29.1038 30.9615 27.5827 32.4692 27.5827 34.3404C27.5827 35.5788 28.2692 36.6558 29.2788 37.2481V40.0481C29.2788 40.9769 30.0327 41.7308 30.9615 41.7308C31.8904 41.7308 32.6442 40.9769 32.6442 40.0481V37.2481C33.6538 36.6558 34.3404 35.5788 34.3404 34.3404C34.3404 32.4692 32.8192 30.9615 30.9615 30.9615ZM59.2308 5.38462C41.7308 5.38462 33.6538 0 33.6538 0H28.2692C28.2692 0 20.1923 5.38462 2.69231 5.38462L0 8.07692V35C0 60.5769 30.9615 70 30.9615 70C30.9615 70 61.9231 60.5769 61.9231 35V8.07692L59.2308 5.38462ZM45.7692 44.2212C45.7692 45.8231 44.4769 47.1154 42.875 47.1154H19.0481C17.4462 47.1154 16.1538 45.8231 16.1538 44.2212V28.4712C16.1538 26.8692 17.4462 25.5769 19.0481 25.5769H20.2058C20.3135 18.0788 22.2519 13.4615 30.9615 13.4615C39.6712 13.4615 41.6096 18.0788 41.7173 25.5769H42.875C44.4769 25.5769 45.7692 26.8692 45.7692 28.4712V44.2212ZM30.9615 17.5C25.9942 17.5 24.3385 18.6442 24.2442 25.5769H37.6788C37.5846 18.6442 35.9288 17.5 30.9615 17.5ZM30.9615 30.9615C29.1038 30.9615 27.5827 32.4692 27.5827 34.3404C27.5827 35.5788 28.2692 36.6558 29.2788 37.2481V40.0481C29.2788 40.9769 30.0327 41.7308 30.9615 41.7308C31.8904 41.7308 32.6442 40.9769 32.6442 40.0481V37.2481C33.6538 36.6558 34.3404 35.5788 34.3404 34.3404C34.3404 32.4692 32.8192 30.9615 30.9615 30.9615Z" fill="#17CDF7"/>
</svg>
