<svg width="183" height="37" viewBox="0 0 183 37" fill="none" xmlns="http://www.w3.org/2000/svg">
<path d="M62.1256 13.9623C61.9674 13.789 61.6332 13.5639 61.1234 13.2868C60.6136 12.9923 59.998 12.7325 59.2772 12.5074C58.5737 12.2649 57.8443 12.1436 57.0881 12.1436C55.1013 12.1436 54.1077 12.8365 54.1077 14.2221C54.1077 14.7243 54.266 15.1227 54.5825 15.4172C54.899 15.7116 55.3737 15.9627 56.0067 16.1706C56.6397 16.3784 57.4309 16.6036 58.3804 16.8461C59.6114 17.1578 60.675 17.5216 61.5718 17.9373C62.4862 18.3529 63.1806 18.9072 63.6554 19.6C64.1478 20.2755 64.3939 21.1762 64.3939 22.302C64.3939 23.6183 64.0687 24.6835 63.418 25.4976C62.785 26.2943 61.941 26.8745 60.886 27.2382C59.831 27.602 58.6883 27.7838 57.4573 27.7838C56.0508 27.7838 54.6529 27.576 53.2637 27.1603C51.8923 26.7273 50.6704 26.1384 49.5977 25.3936L51.2065 22.302C51.3648 22.4579 51.6462 22.6657 52.0505 22.9255C52.4548 23.168 52.9472 23.4191 53.5275 23.6789C54.1077 23.9214 54.7407 24.1292 55.4265 24.3025C56.1122 24.4757 56.8066 24.5623 57.5101 24.5623C59.5145 24.5623 60.5168 23.9301 60.5168 22.6657C60.5168 22.1288 60.3145 21.6958 59.9102 21.3667C59.5059 21.0376 58.9343 20.7605 58.1958 20.5353C57.475 20.3101 56.631 20.059 55.6638 19.7819C54.4683 19.4528 53.4747 19.089 52.6835 18.6907C51.91 18.275 51.3297 17.764 50.9428 17.1578C50.5558 16.5343 50.3625 15.7463 50.3625 14.7936C50.3625 13.5292 50.6613 12.4727 51.2593 11.624C51.8745 10.758 52.7012 10.1085 53.7385 9.67549C54.7758 9.22518 55.9276 9 57.1936 9C58.4946 9 59.7078 9.20784 60.8333 9.62353C61.9587 10.0392 62.9255 10.5155 63.7345 11.0525L62.1256 13.9623ZM67.1444 27.576V9.1299H75.0832C75.9445 9.1299 76.7357 9.30312 77.4569 9.64951C78.1954 9.9959 78.8284 10.4636 79.3559 11.0525C79.8834 11.6414 80.2963 12.2995 80.5955 13.027C80.8943 13.7544 81.0438 14.4992 81.0438 15.2613C81.0438 16.3005 80.7974 17.2878 80.3053 18.223C79.8129 19.1583 79.1272 19.9204 78.2481 20.5093C77.3864 21.0982 76.3755 21.3927 75.215 21.3927H70.7841V27.576H67.1444ZM70.7841 18.249H75.004C75.6721 18.249 76.2259 17.9806 76.6656 17.4436C77.1227 16.8894 77.3514 16.1619 77.3514 15.2613C77.3514 14.3087 77.0963 13.5726 76.5865 13.0529C76.0764 12.5333 75.4961 12.2735 74.8458 12.2735H70.7841V18.249ZM99.3226 9.1299V27.576H95.7093V19.7039H87.2167V27.576H83.5769V9.1299H87.2167V16.5863H95.7093V9.1299H99.3226ZM116.232 24.4324V27.576H103.229V9.1299H115.994V12.2735H106.869V16.7162H114.755V19.626H106.869V24.4324H116.232ZM119.069 27.576V9.1299H127.351C128.213 9.1299 129.004 9.30312 129.725 9.64951C130.463 9.9959 131.096 10.4636 131.624 11.0525C132.169 11.6414 132.582 12.2995 132.863 13.027C133.163 13.7544 133.312 14.4992 133.312 15.2613C133.312 16.439 133.004 17.5216 132.389 18.5088C131.791 19.4961 130.973 20.2062 129.936 20.6392L134.208 27.576H130.2L126.349 21.3927H122.709V27.576H119.069ZM122.709 18.249H127.272C127.958 18.249 128.521 17.9632 128.96 17.3917C129.417 16.8028 129.646 16.0927 129.646 15.2613C129.646 14.6897 129.523 14.1787 129.276 13.7284C129.03 13.2781 128.714 12.923 128.327 12.6632C127.958 12.4034 127.553 12.2735 127.114 12.2735H122.709V18.249ZM136.61 27.576V9.1299H140.249V27.576H136.61ZM152.095 27.7059C150.601 27.7059 149.326 27.4634 148.271 26.9784C147.233 26.4762 146.389 25.792 145.739 24.926C145.106 24.06 144.64 23.0814 144.341 21.9902C144.042 20.8817 143.893 19.7299 143.893 18.5348V9.1299H147.532V18.5348C147.532 19.5567 147.673 20.5267 147.954 21.4446C148.236 22.3626 148.71 23.1074 149.378 23.6789C150.047 24.2505 150.944 24.5363 152.069 24.5363C153.229 24.5363 154.144 24.2505 154.812 23.6789C155.48 23.09 155.955 22.3366 156.236 21.4186C156.517 20.5007 156.658 19.5394 156.658 18.5348V9.1299H160.271V18.5348C160.271 19.7992 160.113 20.9856 159.796 22.0941C159.498 23.2026 159.014 24.1812 158.346 25.0299C157.696 25.8613 156.852 26.5194 155.814 27.0044C154.777 27.4721 153.537 27.7059 152.095 27.7059ZM179.208 27.576V15.4691L174.408 24.4843H172.377L167.577 15.4691V27.576H163.937V9.1299H167.841L173.379 19.626L178.971 9.1299H182.848V27.576H179.208Z" fill="white"/>
<path d="M15.4416 8.03359C14.7765 7.51637 14.1464 7.03364 13.5514 6.55088C13.2713 6.30953 13.0263 6.10265 12.7812 5.89576C13.4814 4.89577 14.1814 3.82684 15.4416 2.75794C16.6668 2.48206 18.067 2.20622 20.0622 1.96484C20.2373 2.10278 20.4123 2.27518 20.5873 2.41311C20.9724 2.75794 21.4274 3.10273 21.8825 3.44756C21.2524 4.13717 20.6223 4.93027 19.9222 6.37849C18.312 6.96466 17.0518 7.41293 15.4416 8.03359Z" fill="white"/>
<path d="M9.3109 15.5504C8.54078 14.9642 7.80568 14.378 7.14061 13.8263C6.82557 13.5505 6.51053 13.3091 6.23047 13.0677C6.58053 11.654 6.96557 10.1713 7.7707 8.41271C8.85582 7.82653 10.116 7.17138 12.0413 6.44727C12.2863 6.65415 12.5663 6.89554 12.8464 7.13692C13.4415 7.65414 14.1065 8.13687 14.7716 8.65409C14.3866 9.86092 13.9665 11.1023 13.6165 13.1367C12.2163 13.8608 10.8861 14.5849 9.3109 15.5504Z" fill="white"/>
<path d="M5.70842 24.0333C5.0083 23.5161 4.30821 22.9644 3.71315 22.4472C3.43309 22.2058 3.15306 21.9644 2.90803 21.7231C2.733 20.2749 2.62799 18.7577 2.76801 16.7233C3.4681 15.9302 4.2732 14.9992 5.77841 13.8613C6.05844 14.1027 6.37348 14.3785 6.68852 14.6544C7.35363 15.2061 8.08873 15.7923 8.89386 16.3784C8.78884 17.7577 8.64881 19.3439 8.71881 21.5507C7.66867 22.3093 6.68852 23.0334 5.70842 24.0333Z" fill="white"/>
<path d="M36.5837 20.6877C37.284 20.1704 37.984 19.6187 38.579 19.1015C38.8592 18.8601 39.1392 18.6188 39.3843 18.3774C39.5241 16.8947 39.6642 15.412 39.5241 13.3776C38.8241 12.5845 38.0191 11.6535 36.5138 10.5156C36.2339 10.757 35.9188 11.0328 35.6038 11.3087C34.9386 11.8604 34.2035 12.4466 33.3984 13.0328C33.5035 14.412 33.6435 15.9982 33.5734 18.205C34.6587 18.9636 35.6038 19.6877 36.5837 20.6877Z" fill="white"/>
<path d="M5.39846 31.2401C4.90837 30.8608 4.41832 30.4815 3.99826 30.1367C3.78823 29.9643 3.61322 29.7919 3.43818 29.6539C2.87812 28.4471 2.31804 27.2058 1.79297 25.3782C2.003 24.3093 2.10801 23.6887 2.7731 22.5508C3.01814 22.7921 3.29817 22.999 3.57821 23.2404C4.17328 23.7576 4.83838 24.2748 5.53846 24.7921C5.7835 26.0334 6.02855 27.4471 6.55362 29.2057C6.09855 29.7919 5.60849 30.4125 5.39846 31.2401Z" fill="white"/>
<path d="M27.2374 15.2065C25.9772 14.5514 24.682 13.8962 23.4219 13.1721C23.5269 11.7929 23.5969 10.4481 23.8769 8.89642C25.0321 8.27575 26.1522 7.65509 27.3424 6.89648C28.2175 7.37921 29.0576 7.86198 29.9327 8.27575C30.0378 9.4481 30.1428 10.3791 30.3878 12.3446C29.5827 13.1721 28.7776 13.9997 27.2374 15.2065Z" fill="white"/>
<path d="M22.9342 23.8259C21.464 23.1018 19.9938 22.3087 18.5586 21.4811C18.5936 19.7226 18.6286 18.2054 18.7336 16.4123C20.6939 15.2745 21.7091 14.7227 23.0042 13.9297C24.2994 14.6538 25.5946 15.3434 26.8897 15.9986C26.9598 17.6192 27.0648 19.2743 27.1348 20.8949C26.0146 21.757 24.8945 22.55 22.9342 23.8259Z" fill="white"/>
<path d="M18.1689 31.5861C16.8387 30.8964 15.4735 30.2068 14.1433 29.4482C14.0383 27.7586 13.9333 26.5173 13.8633 24.8622C17.1537 22.8967 17.1537 22.8967 18.0989 22.3105C19.534 23.1381 21.0042 23.8967 22.4744 24.6553C22.4395 27.8276 22.4395 28.4138 22.4044 29.4482C21.1443 30.1034 20.0241 30.6895 18.1689 31.5861Z" fill="white"/>
<path d="M14.1453 36.5138C13.2002 36.0312 12.2551 35.5482 11.3449 34.9967C11.0299 33.4105 10.8899 32.6864 10.7148 31.8243C11.59 31.3071 12.185 30.9278 13.8303 30.0312C15.1254 30.7554 16.4556 31.4795 17.7508 32.1346C17.7158 33.2724 17.7158 34.3761 17.5758 35.4794C14.9154 36.3415 14.1453 36.5138 14.1453 36.5138Z" fill="white"/>
<path d="M36.4117 34.134C37.217 33.5476 38.0571 32.9269 38.8621 32.3063C39.247 30.7892 39.4223 30.0995 39.5972 29.272C38.8972 28.9272 38.4069 28.6513 37.112 28.0996C35.9916 28.9617 34.8364 29.8237 33.6814 30.6513C33.6114 31.7202 33.5764 32.72 33.6114 33.7202C35.7816 34.0994 36.4117 34.134 36.4117 34.134Z" fill="white"/>
<path d="M36.4117 34.134C37.217 33.5476 38.0571 32.9269 38.8621 32.3063C39.247 30.7892 39.4223 30.0995 39.5972 29.272C38.8972 28.9272 38.4069 28.6513 37.112 28.0996C35.9916 28.9617 34.8364 29.8237 33.6814 30.6513C33.6114 31.7202 33.5764 32.72 33.6114 33.7202C35.7816 34.0994 36.4117 34.134 36.4117 34.134Z" fill="white"/>
<path d="M18.3466 15.5865C17.0164 14.7589 15.7212 13.9314 14.4961 13.1038C14.7761 11.7245 15.0562 10.3108 15.6162 8.6557C17.1914 8.03503 17.9265 7.7247 20.0969 6.93164C21.077 7.58676 22.0921 8.24192 23.1423 8.89708C22.9673 10.035 22.7572 11.2073 22.6172 13.1728C20.937 14.1382 20.6919 14.2762 18.3466 15.5865Z" fill="white"/>
<path d="M7.80673 7.72342C7.21166 7.06826 6.75659 6.48209 6.47656 5.99936C7.56169 4.62009 8.15679 3.86149 9.62699 2.65465C10.6771 2.20638 11.9023 1.72365 13.7225 1.27539C13.9326 1.6547 14.2826 2.10293 14.7727 2.62016C13.6525 3.68909 13.0224 4.27526 12.0423 5.75798C10.7821 6.34415 9.41696 6.86137 7.80673 7.72342Z" fill="white"/>
<path d="M36.8254 6.44801C37.4203 5.79289 37.8755 5.20668 38.1554 4.72396C37.0705 3.34469 36.4752 2.58612 35.005 1.37925C33.9549 0.930998 32.7298 0.448256 30.9095 0C30.6995 0.379294 30.3495 0.827554 29.8594 1.34477C30.9795 2.41369 31.6096 2.9999 32.5897 4.48257C33.8849 5.03429 35.2501 5.55151 36.8254 6.44801Z" fill="white"/>
<path d="M13.4104 24.0678C12.0452 23.2403 10.715 22.3782 9.45486 21.5162C9.45486 19.8611 9.41984 18.4473 9.66488 16.344C10.89 15.5854 11.9752 14.9302 13.9705 13.8613C15.1956 14.6889 16.5258 15.5509 17.856 16.344C17.751 17.8957 17.681 19.0335 17.646 21.4472C16.2458 22.3438 14.8456 23.2058 13.4104 24.0678Z" fill="white"/>
<path d="M2.59175 15.9643C1.96166 15.3092 1.5066 14.6885 1.22656 14.2058C1.57661 12.792 1.92666 11.3438 2.83678 9.48178C3.60688 8.58528 4.377 7.68874 5.8472 6.6543C6.12722 7.13706 6.54728 7.72323 7.17736 8.37839C6.61728 9.65418 6.05722 10.9645 5.60215 13.0334C4.62201 13.8954 3.60688 14.7574 2.59175 15.9643Z" fill="white"/>
<path d="M10.2593 31.2406C9.13916 30.5509 8.054 29.8613 7.03888 29.1717C6.72384 27.8959 6.40879 26.5856 6.09375 24.7236C6.82885 24.0339 7.59896 23.3443 9.06916 22.2754C10.2943 23.1029 11.6245 23.965 12.9897 24.7925C13.0947 26.3442 13.1297 27.2752 13.3047 29.3441C12.2196 30.0337 11.2394 30.6199 10.2593 31.2406Z" fill="white"/>
<path d="M1.50904 24.6867C0.983966 24.135 0.633917 23.6523 0.423889 23.2385C0.178855 21.8592 -0.0311739 20.48 0.00383077 18.549C0.178855 17.5146 0.353877 16.4457 1.01897 15.0664C1.29901 15.5836 1.75407 16.1353 2.34915 16.825C2.31414 18.1697 2.24414 19.7214 2.48917 21.7903C2.06911 22.6178 1.64905 23.4799 1.50904 24.6867Z" fill="white"/>
<path d="M27.5173 31.136C26.1871 30.6188 24.7869 30.0326 23.3867 29.3775C23.4217 28.2741 23.4568 26.7224 23.4568 24.5845C24.8219 23.6535 26.1521 22.7915 27.6573 21.6191C29.0575 22.2743 30.4227 22.8605 31.7529 23.3777C31.8229 24.9294 31.9279 26.3776 31.8229 28.1706C30.7027 29.0326 29.4426 29.9981 27.5173 31.136Z" fill="white"/>
<path d="M21.7394 37.001C20.6542 36.5872 19.5341 36.1046 18.3789 35.5528C18.4839 34.7252 18.5889 33.8288 18.659 32.1737C20.0242 31.553 21.2843 30.9668 22.9295 30.0703C24.3297 30.7255 25.7299 31.3116 27.0251 31.8289C26.8501 32.9667 26.6751 34.1738 26.22 35.4151C22.8945 36.7599 21.7394 37.001 21.7394 37.001Z" fill="white"/>
<path d="M36.599 31.7174L35.9297 31.9859L36.9716 32.6958L36.9895 30.7168L36.599 31.7174ZM36.3518 32.0273L36.6686 31.9001L36.8535 31.4265L36.8452 32.3634L36.3518 32.0273Z" fill="white"/>
<path d="M36.9071 30.5628L35.9031 29.8848L35.8828 31.7894L36.5291 31.5282L36.9071 30.5628ZM36.0291 30.2156L36.6017 30.6023L36.233 30.7513L36.0174 31.3019L36.0291 30.2156ZM36.3029 30.9339L36.6802 30.7813L36.4595 31.3456L36.0818 31.4982L36.3029 30.9339Z" fill="white"/>
<path d="M3.67972 11.7397L2.98438 11.5459L3.36235 12.7369L4.61252 11.1875L3.67972 11.7397ZM3.29121 11.8343L3.62043 11.926L4.06207 11.6646L3.47017 12.3982L3.29121 11.8343Z" fill="white"/>
<path d="M4.63983 11.0139L4.27194 9.87109L3.06641 11.3603L3.73888 11.546L4.63983 11.0139ZM4.16465 10.2083L4.37447 10.8601L3.99088 10.7542L3.47707 11.0577L4.16465 10.2083ZM3.93166 10.9403L4.32465 11.0489L3.79813 11.3598L3.40513 11.2513L3.93166 10.9403Z" fill="white"/>
<path d="M35.5641 3.02575C35.3348 2.63551 34.9912 2.28679 34.5969 2.04378C34.2027 1.80077 33.8048 1.69255 33.4766 1.73908C33.1484 1.78564 32.9291 1.98134 32.8593 2.29018C32.7895 2.59899 32.8774 2.98397 33.1068 3.37421C33.3363 3.76441 33.6798 4.11314 34.0741 4.35615C34.2054 4.43711 34.3386 4.50389 34.4699 4.55462C34.494 4.56392 34.5116 4.55381 34.5095 4.53207C34.5074 4.51033 34.4861 4.48516 34.4623 4.47591C34.3385 4.42812 34.2131 4.3652 34.0893 4.28889C33.7179 4.06003 33.3944 3.73158 33.1783 3.36407C32.9622 2.99655 32.8794 2.63396 32.9452 2.34309C33.011 2.05223 33.2174 1.86789 33.5265 1.82407C33.8356 1.78025 34.2104 1.88214 34.5818 2.11104C34.9533 2.3399 35.2766 2.66838 35.4928 3.03586C35.7091 3.40338 35.7917 3.76597 35.7259 4.05684C35.6602 4.3477 35.4536 4.53204 35.1444 4.57586C34.995 4.59705 34.8304 4.58457 34.6555 4.53872C34.6321 4.53258 34.6173 4.54608 34.6228 4.5689C34.6283 4.59173 34.6517 4.6152 34.6751 4.62134C34.861 4.67004 35.0359 4.68334 35.1947 4.66085C35.5228 4.61432 35.7418 4.41859 35.8117 4.10978C35.8816 3.80094 35.7938 3.41596 35.5641 3.02575Z" fill="white"/>
<path d="M35.5641 3.02575C35.3348 2.63551 34.9912 2.28679 34.5969 2.04378C34.2027 1.80077 33.8048 1.69255 33.4766 1.73908C33.1484 1.78564 32.9291 1.98134 32.8593 2.29018C32.7895 2.59899 32.8774 2.98397 33.1068 3.37421C33.3363 3.76441 33.6798 4.11314 34.0741 4.35615C34.2054 4.43711 34.3386 4.50389 34.4699 4.55462C34.494 4.56392 34.5116 4.55381 34.5095 4.53207C34.5074 4.51033 34.4861 4.48516 34.4623 4.47591C34.3385 4.42812 34.2131 4.3652 34.0893 4.28889C33.7179 4.06003 33.3944 3.73158 33.1783 3.36407C32.9622 2.99655 32.8794 2.63396 32.9452 2.34309C33.011 2.05223 33.2174 1.86789 33.5265 1.82407C33.8356 1.78025 34.2104 1.88214 34.5818 2.11104C34.9533 2.3399 35.2766 2.66838 35.4928 3.03586C35.7091 3.40338 35.7917 3.76597 35.7259 4.05684C35.6602 4.3477 35.4536 4.53204 35.1444 4.57586C34.995 4.59705 34.8304 4.58457 34.6555 4.53872C34.6321 4.53258 34.6173 4.54608 34.6228 4.5689C34.6283 4.59173 34.6517 4.6152 34.6751 4.62134C34.861 4.67004 35.0359 4.68334 35.1947 4.66085C35.5228 4.61432 35.7418 4.41859 35.8117 4.10978C35.8816 3.80094 35.7938 3.41596 35.5641 3.02575Z" fill="white"/>
<path d="M33.5318 2.02997C33.5153 2.00714 33.4877 1.99361 33.4702 1.99971C33.2694 2.06955 33.1379 2.21867 33.0899 2.43096C32.968 2.96961 33.4284 3.75263 34.1162 4.17648C34.804 4.60033 35.4627 4.50696 35.5842 3.96831C35.7061 3.42968 35.2458 2.64663 34.5579 2.22278C34.2355 2.02403 33.9076 1.93178 33.6345 1.96298C33.6145 1.96529 33.6091 1.98621 33.6225 2.00972C33.6358 2.03322 33.6629 2.05045 33.6829 2.04818C33.9372 2.01911 34.2426 2.10499 34.5427 2.29003C35.1831 2.68472 35.6118 3.41385 35.4985 3.9154C35.3849 4.41695 34.7717 4.50391 34.1314 4.10923C33.491 3.71458 33.0623 2.98542 33.1757 2.48386C33.2204 2.28624 33.3429 2.14738 33.5298 2.08237C33.5474 2.07626 33.5483 2.05279 33.5318 2.02997Z" fill="white"/>
<path d="M33.5318 2.02997C33.5153 2.00714 33.4877 1.99361 33.4702 1.99971C33.2694 2.06955 33.1379 2.21867 33.0899 2.43096C32.968 2.96961 33.4284 3.75263 34.1162 4.17648C34.804 4.60033 35.4627 4.50696 35.5842 3.96831C35.7061 3.42968 35.2458 2.64663 34.5579 2.22278C34.2355 2.02403 33.9076 1.93178 33.6345 1.96298C33.6145 1.96529 33.6091 1.98621 33.6225 2.00972C33.6358 2.03322 33.6629 2.05045 33.6829 2.04818C33.9372 2.01911 34.2426 2.10499 34.5427 2.29003C35.1831 2.68472 35.6118 3.41385 35.4985 3.9154C35.3849 4.41695 34.7717 4.50391 34.1314 4.10923C33.491 3.71458 33.0623 2.98542 33.1757 2.48386C33.2204 2.28624 33.3429 2.14738 33.5298 2.08237C33.5474 2.07626 33.5483 2.05279 33.5318 2.02997Z" fill="white"/>
<path d="M33.5824 3.20322C33.5998 3.23894 33.6303 3.27211 33.6662 3.29419L34.4694 3.78916C34.5757 3.85472 34.6866 3.89033 34.7813 3.88948C34.876 3.8886 34.9514 3.85129 34.993 3.78438L35.1256 3.57172C35.1769 3.48964 35.1697 3.36792 35.1063 3.23782C35.0426 3.10772 34.9314 2.98694 34.8009 2.90649L34.103 2.4764C34.0477 2.44232 33.994 2.44282 33.9723 2.47759L33.8294 2.70683L33.6415 2.59104C33.5981 2.56428 33.5552 2.56411 33.5372 2.5906L33.468 2.69245C33.4578 2.70747 33.4587 2.73013 33.4704 2.75465C33.4821 2.77914 33.5029 2.80189 33.5275 2.81705L33.6959 2.92087L33.577 3.11155C33.563 3.1341 33.5649 3.16751 33.5824 3.20322ZM33.6168 2.65826C33.6184 2.65585 33.6223 2.65585 33.6263 2.65829L34.4146 3.14424L34.349 3.24097C34.3474 3.24338 34.3435 3.24335 34.3396 3.24094L33.5511 2.75499L33.6168 2.65826ZM34.0362 3.13061L34.3243 3.30816C34.3678 3.33492 34.4105 3.33512 34.4287 3.30863L34.4979 3.20675C34.5079 3.19176 34.5072 3.16907 34.4955 3.14458C34.4838 3.12006 34.4628 3.0973 34.4384 3.08214L34.1697 2.91656L34.2159 2.84232L34.739 3.16463C34.7696 3.18345 34.7951 3.21055 34.8095 3.239C34.8243 3.26865 34.8261 3.29636 34.8147 3.31508L34.6821 3.5277C34.6563 3.56863 34.5933 3.56921 34.5282 3.52909L33.9933 3.19949L34.0362 3.13061ZM33.9482 3.07638L33.8974 3.15788C33.8909 3.16832 33.8918 3.18379 33.8999 3.20034C33.908 3.21689 33.9221 3.23225 33.9387 3.2425L34.5127 3.59634C34.6184 3.6614 34.721 3.66048 34.7624 3.59407L34.8949 3.38145C34.9173 3.34594 34.9135 3.29327 34.8853 3.23697C34.8581 3.18294 34.8106 3.13203 34.7541 3.09737L34.206 2.75953C34.1803 2.74373 34.1555 2.74396 34.1454 2.76008L34.0817 2.86233L33.9174 2.76106L34.0527 2.54396C34.0585 2.53463 34.073 2.53453 34.0878 2.54366L34.7858 2.97375C34.8901 3.03805 34.9789 3.13454 35.0295 3.23853C35.0805 3.34248 35.086 3.43975 35.045 3.50535L34.9125 3.718C34.8784 3.77267 34.8171 3.8032 34.7396 3.80391C34.6622 3.80459 34.5716 3.77549 34.4845 3.7219L33.6814 3.22693C33.6682 3.21882 33.6616 3.20817 33.6589 3.20254C33.6562 3.19691 33.6523 3.18623 33.6575 3.17796L33.7839 2.9751L33.9482 3.07638Z" fill="white"/>
<path d="M33.5824 3.20322C33.5998 3.23894 33.6303 3.27211 33.6662 3.29419L34.4694 3.78916C34.5757 3.85472 34.6866 3.89033 34.7813 3.88948C34.876 3.8886 34.9514 3.85129 34.993 3.78438L35.1256 3.57172C35.1769 3.48964 35.1697 3.36792 35.1063 3.23782C35.0426 3.10772 34.9314 2.98694 34.8009 2.90649L34.103 2.4764C34.0477 2.44232 33.994 2.44282 33.9723 2.47759L33.8294 2.70683L33.6415 2.59104C33.5981 2.56428 33.5552 2.56411 33.5372 2.5906L33.468 2.69245C33.4578 2.70747 33.4587 2.73013 33.4704 2.75465C33.4821 2.77914 33.5029 2.80189 33.5275 2.81705L33.6959 2.92087L33.577 3.11155C33.563 3.1341 33.5649 3.16751 33.5824 3.20322ZM33.6168 2.65826C33.6184 2.65585 33.6223 2.65585 33.6263 2.65829L34.4146 3.14424L34.349 3.24097C34.3474 3.24338 34.3435 3.24335 34.3396 3.24094L33.5511 2.75499L33.6168 2.65826ZM34.0362 3.13061L34.3243 3.30816C34.3678 3.33492 34.4105 3.33512 34.4287 3.30863L34.4979 3.20675C34.5079 3.19176 34.5072 3.16907 34.4955 3.14458C34.4838 3.12006 34.4628 3.0973 34.4384 3.08214L34.1697 2.91656L34.2159 2.84232L34.739 3.16463C34.7696 3.18345 34.7951 3.21055 34.8095 3.239C34.8243 3.26865 34.8261 3.29636 34.8147 3.31508L34.6821 3.5277C34.6563 3.56863 34.5933 3.56921 34.5282 3.52909L33.9933 3.19949L34.0362 3.13061ZM33.9482 3.07638L33.8974 3.15788C33.8909 3.16832 33.8918 3.18379 33.8999 3.20034C33.908 3.21689 33.9221 3.23225 33.9387 3.2425L34.5127 3.59634C34.6184 3.6614 34.721 3.66048 34.7624 3.59407L34.8949 3.38145C34.9173 3.34594 34.9135 3.29327 34.8853 3.23697C34.8581 3.18294 34.8106 3.13203 34.7541 3.09737L34.206 2.75953C34.1803 2.74373 34.1555 2.74396 34.1454 2.76008L34.0817 2.86233L33.9174 2.76106L34.0527 2.54396C34.0585 2.53463 34.073 2.53453 34.0878 2.54366L34.7858 2.97375C34.8901 3.03805 34.9789 3.13454 35.0295 3.23853C35.0805 3.34248 35.086 3.43975 35.045 3.50535L34.9125 3.718C34.8784 3.77267 34.8171 3.8032 34.7396 3.80391C34.6622 3.80459 34.5716 3.77549 34.4845 3.7219L33.6814 3.22693C33.6682 3.21882 33.6616 3.20817 33.6589 3.20254C33.6562 3.19691 33.6523 3.18623 33.6575 3.17796L33.7839 2.9751L33.9482 3.07638Z" fill="white"/>
<path d="M4.74298 26.6859C4.66034 26.3031 4.49528 25.9616 4.27823 25.7242C4.06118 25.4868 3.81813 25.3819 3.59381 25.429C3.36951 25.476 3.19081 25.6692 3.09065 25.973C2.99048 26.2769 2.98083 26.655 3.06347 27.0378C3.14612 27.4205 3.31117 27.762 3.52822 27.9994C3.60053 28.0785 3.67648 28.1436 3.75402 28.193C3.7682 28.2021 3.78167 28.1921 3.78408 28.1707C3.78649 28.1493 3.77695 28.1247 3.7628 28.1157C3.68974 28.0692 3.61816 28.0078 3.55002 27.9333C3.34561 27.7097 3.19016 27.388 3.11232 27.0275C3.03448 26.6671 3.04357 26.3109 3.13791 26.0247C3.23225 25.7385 3.40055 25.5565 3.61182 25.5123C3.82309 25.468 4.05198 25.5668 4.25643 25.7904C4.46085 26.014 4.61631 26.3356 4.69412 26.6961C4.77197 27.0566 4.76288 27.4127 4.66854 27.6989C4.5742 27.9851 4.4059 28.1671 4.19463 28.2113C4.09247 28.2327 3.98629 28.2211 3.87904 28.1767C3.86465 28.1707 3.85266 28.1841 3.85225 28.2065C3.85184 28.2289 3.86316 28.2519 3.87752 28.2578C3.99149 28.305 4.10422 28.3174 4.21264 28.2947C4.43696 28.2477 4.61565 28.0545 4.71581 27.7506C4.81597 27.4467 4.82561 27.0686 4.74298 26.6859Z" fill="white"/>
<path d="M3.57937 25.7131C3.57255 25.6907 3.55675 25.6775 3.54411 25.6836C3.39961 25.753 3.28684 25.9001 3.21798 26.109C3.04328 26.639 3.20913 27.407 3.5877 27.8211C3.96623 28.2351 4.41635 28.1408 4.59105 27.6108C4.76579 27.0809 4.59993 26.3128 4.22137 25.8988C4.04387 25.7046 3.84407 25.6152 3.65876 25.6469C3.6452 25.6492 3.63797 25.6698 3.64265 25.6929C3.6473 25.7159 3.6621 25.7328 3.6757 25.7304C3.84824 25.7009 4.0343 25.7842 4.19954 25.965C4.55204 26.3505 4.70646 27.0656 4.54381 27.5591C4.38112 28.0526 3.962 28.1405 3.60949 27.7549C3.257 27.3694 3.10258 26.6542 3.26525 26.1607C3.32936 25.9662 3.43434 25.8293 3.56887 25.7646C3.5815 25.7586 3.58622 25.7355 3.57937 25.7131Z" fill="white"/>
<path d="M3.40445 26.866C3.40966 26.901 3.42398 26.9335 3.44371 26.9551L3.88577 27.4386C3.94433 27.5027 4.01103 27.5373 4.07366 27.5361C4.13625 27.5349 4.1923 27.4979 4.23152 27.432L4.35613 27.2224C4.40423 27.1415 4.42093 27.0219 4.40192 26.8942C4.38291 26.7666 4.33082 26.6483 4.25896 26.5696L3.87482 26.1495C3.84438 26.1162 3.80892 26.1169 3.78853 26.1512L3.65418 26.3771L3.55079 26.264C3.52689 26.2378 3.49866 26.2378 3.48217 26.2639L3.41875 26.3643C3.40938 26.3791 3.40599 26.4014 3.40938 26.4254C3.41279 26.4495 3.4225 26.4718 3.43606 26.4866L3.52879 26.588L3.41702 26.7759C3.40382 26.7981 3.39923 26.831 3.40445 26.866ZM3.52273 26.3301C3.52424 26.3278 3.52679 26.3278 3.52896 26.3301L3.96296 26.8049L3.90274 26.9002C3.90123 26.9026 3.89868 26.9026 3.89651 26.9002L3.46247 26.4255L3.52273 26.3301ZM3.71609 26.7929L3.87468 26.9664C3.89857 26.9925 3.92677 26.9925 3.9433 26.9664L4.00672 26.866C4.01609 26.8512 4.01946 26.8289 4.01605 26.8049C4.01268 26.7808 4.00293 26.7585 3.9894 26.7437L3.84152 26.582L3.88501 26.5088L4.17289 26.8236C4.18972 26.8421 4.20188 26.8686 4.20628 26.8965C4.2109 26.9256 4.20725 26.9528 4.1963 26.9713L4.07169 27.1808C4.04769 27.2211 4.00593 27.222 3.97012 27.1828L3.6757 26.8608L3.71609 26.7929ZM3.66765 26.7399L3.61989 26.8202C3.61376 26.8305 3.61163 26.8457 3.61407 26.862C3.61648 26.8782 3.62313 26.8932 3.63225 26.9033L3.94829 27.249C4.00641 27.3125 4.07414 27.3112 4.11304 27.2458L4.23765 27.0362C4.25845 27.0012 4.26537 26.9495 4.25666 26.8942C4.24825 26.8412 4.22567 26.7914 4.19471 26.7575L3.89296 26.4274C3.87888 26.412 3.86242 26.4123 3.85299 26.4282L3.79308 26.529L3.70263 26.4301L3.82985 26.2161C3.83533 26.2069 3.84483 26.2067 3.85299 26.2157L4.23713 26.6359C4.29456 26.6986 4.33623 26.7932 4.35141 26.8952C4.36659 26.9972 4.35323 27.0928 4.31478 27.1575L4.19017 27.367C4.15815 27.4209 4.11232 27.4511 4.06116 27.4521C4.00999 27.4531 3.95545 27.4248 3.9076 27.3725L3.4655 26.8889C3.45827 26.881 3.45579 26.8706 3.45497 26.8651C3.45418 26.8595 3.45352 26.849 3.45834 26.8409L3.5772 26.641L3.66765 26.7399Z" fill="white"/>
<path d="M36.4096 15.7808L36.5786 15.5151C36.6561 15.3929 36.6633 15.1905 36.5948 15.0632C36.526 14.9358 36.4075 14.9316 36.33 15.0539L36.1613 15.3195C36.1455 15.344 36.1441 15.3845 36.1579 15.4099L36.3569 15.7789C36.3703 15.8044 36.3941 15.8052 36.4096 15.7808ZM36.2392 15.3675L36.3796 15.1461C36.4261 15.0728 36.4974 15.0753 36.5387 15.1517C36.5797 15.2281 36.5752 15.3496 36.5287 15.4229L36.3882 15.6443L36.2392 15.3675Z" fill="white"/>
<path d="M36.7878 15.1395C36.7836 15.1074 36.7778 15.0761 36.7705 15.046C36.7007 14.7562 36.5037 14.6275 36.3305 14.7585L36.2682 14.6427C36.2544 14.6172 36.2307 14.6164 36.2152 14.6409L36.1029 14.8179C36.0874 14.8424 36.0857 14.8829 36.0995 14.9083L36.1494 15.0006L36.0929 15.0891L36.0434 14.9969C36.0296 14.9714 36.0058 14.9706 35.9903 14.995L35.8778 15.1721C35.8623 15.1966 35.8609 15.237 35.8747 15.2625L35.9242 15.3548L35.8681 15.4433C35.8526 15.4678 35.8512 15.5082 35.8647 15.5337L35.9642 15.7182C35.9779 15.7437 36.0017 15.7445 36.0172 15.7201L36.0733 15.6315L36.5209 16.4618L36.4648 16.5503C36.4493 16.5748 36.4476 16.6152 36.4614 16.6407L36.5609 16.8252C36.5746 16.8507 36.5984 16.8515 36.6139 16.8271L36.67 16.7385L36.7199 16.8308C36.7337 16.8563 36.7571 16.8571 36.773 16.8326L36.8852 16.6555C36.9007 16.6311 36.9024 16.5906 36.8886 16.5652L36.8387 16.4729L36.8952 16.3843L36.9448 16.4766C36.9585 16.5021 36.9823 16.5029 36.9978 16.4785L37.1104 16.3014C37.1259 16.2769 37.1272 16.2364 37.1135 16.211L37.0639 16.1187C37.15 15.9828 37.1913 15.7841 37.1737 15.5917C37.1448 15.28 36.972 15.0775 36.7878 15.1395ZM37.014 16.0265L36.9861 16.0707C36.9702 16.0952 36.9689 16.1357 36.9826 16.1611L37.0322 16.2534L36.9761 16.3419L36.9265 16.2497C36.9127 16.2242 36.889 16.2234 36.8735 16.2478L36.7609 16.4249C36.7454 16.4494 36.744 16.4898 36.7578 16.5153L36.8074 16.6075L36.7513 16.6961L36.7013 16.6039C36.6879 16.5784 36.6642 16.5775 36.6487 16.602L36.5922 16.6905L36.5426 16.5983L36.5987 16.5097C36.6142 16.4853 36.6156 16.4448 36.6022 16.4193L36.105 15.4968C36.0912 15.4714 36.0675 15.4705 36.052 15.495L35.9955 15.5835L35.9459 15.4913L36.002 15.4027C36.0175 15.3783 36.0193 15.3378 36.0055 15.3123L35.9556 15.2201L36.012 15.1315L36.0616 15.2238C36.0754 15.2493 36.0991 15.2501 36.1146 15.2256L36.2272 15.0486C36.2427 15.0241 36.2441 14.9836 36.2303 14.9582L36.1807 14.8659L36.2369 14.7774L36.293 14.8811C36.304 14.9022 36.3226 14.9069 36.3381 14.8926C36.3684 14.8642 36.4014 14.8459 36.4352 14.8386C36.5798 14.8077 36.7068 14.9815 36.7192 15.2267C36.7192 15.2309 36.7199 15.235 36.7206 15.2389C36.7261 15.2724 36.7471 15.2905 36.7671 15.2793C36.8645 15.2245 36.9696 15.269 37.0367 15.3937C37.1328 15.5719 37.1228 15.8552 37.014 16.0265Z" fill="white"/>
<path d="M36.7151 15.4718L36.462 15.8703C36.4465 15.8947 36.4448 15.9352 36.4586 15.9607L36.6576 16.3297C36.6713 16.3552 36.6951 16.356 36.7106 16.3316L36.9637 15.9331C37.0411 15.8109 37.0484 15.6085 36.9798 15.4811C36.9113 15.3537 36.7925 15.3496 36.7151 15.4718ZM36.9137 15.8409L36.6889 16.195L36.5398 15.9183L36.7646 15.5641C36.8111 15.4907 36.8824 15.4932 36.9237 15.5697C36.9647 15.6461 36.9606 15.7675 36.9137 15.8409Z" fill="white"/>
<path d="M35.8294 14.2178C35.3635 14.9513 35.3198 16.1655 35.7316 16.9297C36.1434 17.694 36.8551 17.7189 37.3209 16.9854C37.7861 16.2513 37.8298 15.0382 37.4187 14.2735C37.0069 13.5092 36.2952 13.4843 35.8294 14.2178ZM37.271 16.8931C36.8361 17.5777 36.1723 17.5545 35.7877 16.8412C35.4035 16.1279 35.4441 14.9947 35.8789 14.3101C36.3141 13.6266 36.9776 13.6498 37.3626 14.362C37.7468 15.0753 37.7058 16.2085 37.271 16.8931Z" fill="white"/>
<path d="M35.9272 14.4025C35.5233 15.0382 35.4855 16.0905 35.8425 16.7528C36.1992 17.4151 36.8162 17.4367 37.2197 16.801C37.6229 16.1648 37.6608 15.1134 37.3044 14.4507C36.9477 13.7883 36.3311 13.7668 35.9272 14.4025ZM37.1702 16.7087C36.7973 17.2955 36.2281 17.2756 35.8986 16.6643C35.5691 16.0528 35.6042 15.0815 35.9768 14.4947C36.3497 13.9089 36.9185 13.9288 37.2483 14.5392C37.5778 15.1506 37.5427 16.1219 37.1702 16.7087Z" fill="white"/>
<path d="M14.9309 35.1554C14.8631 35.2008 14.7073 35.112 14.7148 35.0316C14.7099 34.9665 14.8048 34.9441 14.8822 34.9899C14.9618 35.0336 14.9901 35.1262 14.9309 35.1554ZM15.8364 35.0153C15.7926 35.0377 15.7026 34.9977 15.6819 34.9458C15.6477 34.8898 15.7045 34.8447 15.7728 34.8685C15.858 34.8895 15.9023 34.994 15.8364 35.0153ZM13.813 34.9689C13.9015 34.9736 13.9738 35.0893 13.9049 35.1171C13.8558 35.1473 13.7727 35.0998 13.7369 35.0475C13.7274 35.0021 13.7491 34.959 13.813 34.9689ZM15.4389 34.669C15.3745 34.724 15.2085 34.6562 15.1756 34.5632C15.1332 34.47 15.2458 34.4089 15.3566 34.4676C15.4579 34.513 15.5038 34.627 15.4389 34.669ZM14.0406 34.6874C14.0468 34.7806 13.8858 34.7918 13.7952 34.7057C13.7151 34.6389 13.7272 34.5503 13.7957 34.5229C13.8932 34.4998 14.0457 34.5961 14.0406 34.6874ZM14.7066 34.4808C14.7472 34.5588 14.6959 34.6216 14.6142 34.6314C14.5533 34.6243 14.4816 34.6063 14.4323 34.5578C14.3528 34.4913 14.3445 34.3947 14.4094 34.3591C14.4371 34.3387 14.4843 34.3434 14.5256 34.3434C14.6007 34.3669 14.679 34.4164 14.7066 34.4808ZM16.0636 34.2926C16.0041 34.3414 15.8522 34.2661 15.8434 34.1857C15.826 34.1169 15.9157 34.0837 15.9969 34.124C16.0808 34.1613 16.1204 34.26 16.0636 34.2926ZM13.0255 34.4513C12.9801 34.5025 12.8375 34.454 12.8065 34.3757C12.766 34.3055 12.8383 34.2468 12.9258 34.2797C13.0172 34.3058 13.0774 34.4089 13.0255 34.4513ZM14.1796 34.2465C14.0832 34.2888 13.9246 34.2526 13.8133 34.1654C13.671 34.0596 13.6317 33.8886 13.7335 33.8184C13.8345 33.736 14.0695 33.7889 14.1901 33.9232C14.3105 34.043 14.3033 34.2007 14.1796 34.2465ZM14.8476 34.1993C14.7471 34.259 14.5532 34.2234 14.4335 34.1118C14.3044 34.0036 14.2814 33.8449 14.3815 33.7804C14.4782 33.7085 14.6859 33.7482 14.8095 33.8652C14.9387 33.9778 14.9562 34.1386 14.8476 34.1993ZM15.4193 33.9605C15.4463 34.0335 15.3928 34.0847 15.3172 34.0935C15.2286 34.0887 15.1321 34.0348 15.0849 33.9602C15.0527 33.8852 15.081 33.8093 15.1706 33.8052C15.2651 33.7923 15.3949 33.8744 15.4193 33.9605ZM13.4808 34.1732C13.4062 34.2302 13.2279 34.162 13.1805 34.0596C13.1187 33.9514 13.235 33.8669 13.3677 33.9253C13.4989 33.9727 13.5663 34.1223 13.4808 34.1732ZM14.8802 33.7079C14.7767 33.7428 14.6169 33.7007 14.5106 33.6081C14.3984 33.5149 14.3564 33.3799 14.4191 33.3039C14.4928 33.1937 14.7468 33.2232 14.8857 33.3612C15.0286 33.4867 15.0229 33.6655 14.8802 33.7079ZM13.6019 33.7754C13.5019 33.8103 13.3474 33.7781 13.239 33.6892C13.104 33.5878 13.0632 33.4284 13.1501 33.3541C13.2373 33.2686 13.4552 33.2999 13.5877 33.4196C13.7373 33.543 13.7434 33.7279 13.6019 33.7754ZM15.5784 33.5485C15.4937 33.5878 15.3304 33.4945 15.3266 33.4033C15.3106 33.3205 15.4251 33.2839 15.5225 33.3402C15.6294 33.3924 15.6638 33.5193 15.5784 33.5485ZM12.7502 33.5634C12.7909 33.6377 12.7625 33.7068 12.678 33.7153C12.6033 33.7092 12.5102 33.6631 12.4817 33.5959C12.4305 33.5078 12.5209 33.4409 12.6275 33.4783C12.6767 33.4942 12.7156 33.5295 12.7502 33.5634ZM16.0574 33.4786C16.008 33.5057 15.9084 33.4627 15.892 33.4019C15.8608 33.3334 15.9614 33.3015 16.032 33.3562C16.089 33.3938 16.0977 33.4559 16.0574 33.4786ZM12.1917 33.6817C12.1623 33.7109 12.0831 33.6953 12.0435 33.6516C11.9898 33.6044 12.0092 33.5349 12.0754 33.54C12.1589 33.5284 12.2464 33.6441 12.1917 33.6817ZM14.2994 33.2364C14.1568 33.2819 13.9232 33.1723 13.8479 33.0255C13.7623 32.8779 13.8665 32.7379 14.049 32.7633C14.1859 32.7748 14.3411 32.8783 14.3946 32.9922C14.4502 33.1011 14.4083 33.2073 14.2994 33.2364ZM13.6605 33.27C13.5172 33.3192 13.2774 33.2076 13.204 33.0574C13.1216 32.9122 13.2228 32.7769 13.3991 32.7972C13.5601 32.8067 13.7472 32.9481 13.7707 33.0808C13.7933 33.1689 13.7469 33.2439 13.6605 33.27ZM14.8469 33.1157C14.7422 33.1388 14.5794 33.0326 14.5773 32.9353C14.5595 32.8321 14.7125 32.7962 14.8281 32.8749C14.9549 32.9498 14.9638 33.0984 14.8469 33.1157ZM12.9706 33.209C12.8885 33.2514 12.7254 33.1808 12.6841 33.0835C12.626 32.9773 12.742 32.8959 12.8723 32.9529C13.0125 33.0027 13.0754 33.1683 12.9706 33.209ZM12.2119 32.7725C12.2844 32.8355 12.2563 32.9254 12.1683 32.9176C12.1278 32.9203 12.085 32.8935 12.0468 32.8712C12.0219 32.8328 11.9896 32.7874 12.0108 32.7558C12.0322 32.6982 12.1518 32.708 12.2119 32.7725ZM15.2757 32.7372C15.222 32.786 15.0779 32.7246 15.055 32.6449C15.0288 32.5747 15.1083 32.5293 15.194 32.5656C15.2827 32.5981 15.332 32.7006 15.2757 32.7372ZM13.6895 32.6697C13.6091 32.7141 13.4425 32.6436 13.4026 32.5459C13.3406 32.4384 13.4607 32.3556 13.5914 32.4153C13.7284 32.4652 13.793 32.6293 13.6895 32.6697ZM14.3168 32.4889C14.2516 32.533 14.1024 32.4706 14.0674 32.3858C14.0297 32.317 14.0764 32.2539 14.159 32.26C14.2237 32.2579 14.2912 32.3064 14.3362 32.3536C14.3618 32.4062 14.3669 32.4662 14.3168 32.4889ZM12.8976 32.5618C12.8341 32.6141 12.6745 32.552 12.6371 32.4614C12.5871 32.3672 12.6975 32.2997 12.8106 32.3573C12.9143 32.4018 12.9637 32.5188 12.8976 32.5618ZM12.3781 32.0365C12.4436 32.0863 12.4294 32.1518 12.3721 32.1667C12.3164 32.1603 12.2454 32.1294 12.2297 32.0765C12.2014 32.0056 12.3073 31.9778 12.3781 32.0365ZM14.3594 31.9795C14.3648 32.0216 14.3479 32.0646 14.2874 32.0568C14.2045 32.0558 14.1265 31.9503 14.1801 31.9137C14.2243 31.8728 14.3237 31.9205 14.3594 31.9795ZM13.3906 31.9815C13.4062 32.0433 13.3316 32.0779 13.2561 32.0483C13.2095 32.0355 13.1785 31.9975 13.1519 31.9653C13.1486 31.948 13.1448 31.9307 13.1408 31.9134C13.1522 31.8869 13.1705 31.8599 13.2112 31.8587C13.2821 31.847 13.3874 31.9181 13.3906 31.9815Z" fill="white"/>
<path d="M25.3331 11.7941C25.2852 11.7228 25.3812 11.5728 25.467 11.586C25.5364 11.5856 25.5595 11.6824 25.5101 11.7569C25.463 11.8336 25.3637 11.8555 25.3331 11.7941ZM25.476 12.7125C25.4525 12.667 25.4957 12.5795 25.5514 12.5623C25.6112 12.532 25.6592 12.5923 25.6332 12.6591C25.6102 12.743 25.4984 12.7801 25.476 12.7125ZM25.5404 10.6856C25.5348 10.7741 25.4107 10.8384 25.3816 10.7673C25.3497 10.7159 25.4011 10.6359 25.4569 10.6037C25.5055 10.5973 25.5515 10.6222 25.5404 10.6856ZM25.8483 12.3382C25.7903 12.2696 25.8641 12.1079 25.9634 12.0815C26.0632 12.0456 26.1277 12.1629 26.0642 12.2699C26.015 12.3684 25.893 12.4063 25.8483 12.3382ZM25.8391 10.9339C25.7396 10.9334 25.7287 10.7711 25.8216 10.6864C25.8934 10.6107 25.9877 10.6292 26.0167 10.6998C26.0406 10.7993 25.9367 10.9455 25.8391 10.9339ZM26.055 11.6168C25.9711 11.652 25.9047 11.5961 25.8949 11.5135C25.9028 11.4528 25.9224 11.3822 25.9746 11.3362C26.0461 11.261 26.1495 11.2596 26.1872 11.3272C26.2085 11.3565 26.2033 11.4035 26.2029 11.445C26.1773 11.5186 26.1238 11.5937 26.055 11.6168ZM26.2456 12.9917C26.1939 12.9285 26.2756 12.7815 26.3614 12.7783C26.4352 12.7658 26.4698 12.858 26.4261 12.9367C26.3856 13.0182 26.2803 13.051 26.2456 12.9917ZM26.0988 9.9322C26.0443 9.88296 26.0974 9.74333 26.1809 9.71775C26.2565 9.68211 26.3184 9.75879 26.2827 9.84433C26.2541 9.93417 26.1437 9.98722 26.0988 9.9322ZM26.3088 11.1047C26.2643 11.0049 26.3044 10.8484 26.398 10.7429C26.5123 10.6076 26.6948 10.5802 26.7692 10.6874C26.8562 10.7945 26.7979 11.0266 26.6538 11.1381C26.5253 11.2504 26.3569 11.232 26.3088 11.1047ZM26.3543 11.7782C26.2913 11.6732 26.3307 11.4812 26.4509 11.3689C26.5673 11.2471 26.7368 11.2353 26.805 11.3403C26.8808 11.4424 26.8369 11.648 26.7112 11.7637C26.5902 11.8853 26.4182 11.8915 26.3543 11.7782ZM26.605 12.3688C26.527 12.3907 26.4728 12.3334 26.4638 12.2569C26.4693 12.1683 26.5279 12.0754 26.6079 12.0333C26.6879 12.0063 26.7689 12.0401 26.7727 12.1302C26.7855 12.2259 26.6972 12.3504 26.605 12.3688ZM26.3924 10.4087C26.332 10.3298 26.4061 10.1557 26.5159 10.1155C26.6316 10.0611 26.7209 10.1838 26.6577 10.3128C26.606 10.441 26.4459 10.4981 26.3924 10.4087ZM26.8785 11.8458C26.8421 11.7395 26.8882 11.5821 26.9879 11.482C27.0881 11.376 27.2327 11.3435 27.3132 11.4117C27.4303 11.4936 27.3969 11.7463 27.2487 11.8759C27.1135 12.0104 26.9228 11.9919 26.8785 11.8458ZM26.8162 10.5585C26.7796 10.4556 26.8149 10.3028 26.9108 10.2004C27.0198 10.0721 27.1902 10.0425 27.2689 10.135C27.3596 10.2285 27.3248 10.4449 27.1959 10.5694C27.0631 10.7107 26.8657 10.7037 26.8162 10.5585ZM27.0435 12.5576C27.0021 12.4698 27.103 12.3126 27.2005 12.3152C27.2888 12.305 27.3272 12.4226 27.2663 12.5163C27.2098 12.6199 27.0743 12.6454 27.0435 12.5576ZM27.0488 9.71887C26.969 9.75442 26.8954 9.72108 26.8868 9.63568C26.8939 9.56113 26.9438 9.47101 27.0159 9.44724C27.1105 9.40203 27.1808 9.4975 27.1404 9.60179C27.1231 9.65002 27.0852 9.68662 27.0488 9.71887ZM27.1145 13.0432C27.0863 12.9917 27.1328 12.8948 27.1979 12.8826C27.2709 12.8562 27.3045 12.9594 27.2456 13.0263C27.2051 13.0808 27.1388 13.0852 27.1145 13.0432ZM26.9264 9.15013C26.8953 9.11852 26.9128 9.04024 26.9597 9.00351C27.0104 8.95304 27.0843 8.97746 27.0785 9.0435C27.0902 9.12812 26.9661 9.20769 26.9264 9.15013ZM27.3861 11.2965C27.3386 11.1502 27.4575 10.9235 27.6145 10.8584C27.7727 10.783 27.9217 10.8975 27.893 11.0788C27.8797 11.2153 27.7683 11.3637 27.6461 11.4093C27.5295 11.4573 27.4166 11.4078 27.3861 11.2965ZM27.3549 10.6531C27.3038 10.5058 27.4246 10.2731 27.5854 10.21C27.7408 10.1377 27.8848 10.2488 27.8617 10.4243C27.8504 10.5852 27.6978 10.7628 27.5561 10.7771C27.4621 10.7934 27.3824 10.7415 27.3549 10.6531ZM27.5111 11.8543C27.4873 11.7477 27.6018 11.5919 27.7057 11.5966C27.8157 11.5861 27.8532 11.7421 27.7682 11.8526C27.6873 11.9745 27.5287 11.9729 27.5111 11.8543ZM27.4254 9.96517C27.3805 9.87977 27.4572 9.72111 27.5612 9.68658C27.6752 9.63588 27.7613 9.75794 27.6994 9.88465C27.645 10.0218 27.468 10.0732 27.4254 9.96517ZM27.8968 9.23482C27.829 9.30316 27.7331 9.26853 27.7421 9.18079C27.7394 9.13999 27.7684 9.09888 27.7926 9.06219C27.8337 9.03994 27.8826 9.01074 27.9162 9.03427C27.9775 9.05981 27.9661 9.17906 27.8968 9.23482ZM27.9119 12.3115C27.8601 12.254 27.9266 12.1138 28.012 12.0966C28.0873 12.0752 28.1348 12.1582 28.0956 12.2416C28.0604 12.3283 27.9506 12.3705 27.9119 12.3115ZM27.9955 10.7247C27.9489 10.6409 28.0252 10.4787 28.13 10.4456C28.245 10.391 28.3324 10.5174 28.2679 10.6444C28.2137 10.7782 28.038 10.8314 27.9955 10.7247ZM28.1838 11.3669C28.1373 11.2983 28.2051 11.1531 28.2957 11.124C28.3697 11.0911 28.4366 11.1424 28.4294 11.2248C28.4312 11.2899 28.3789 11.3541 28.3282 11.3959C28.2718 11.4179 28.208 11.4188 28.1838 11.3669ZM28.1166 9.93777C28.0611 9.87031 28.1288 9.71463 28.2257 9.68353C28.3266 9.64005 28.398 9.7556 28.3356 9.86498C28.2875 9.96588 28.1621 10.0072 28.1166 9.93777ZM28.6813 9.45382C28.6274 9.51592 28.5579 9.49713 28.5421 9.43849C28.5494 9.38317 28.5831 9.31408 28.6395 9.30204C28.7154 9.27868 28.7443 9.38697 28.6813 9.45382ZM28.7274 11.4457C28.6824 11.4482 28.6366 11.4282 28.6454 11.368C28.6469 11.2849 28.7602 11.2141 28.7989 11.2705C28.8423 11.3177 28.7906 11.4142 28.7274 11.4457ZM28.7326 10.4736C28.6664 10.4848 28.6302 10.4075 28.6621 10.3338C28.6761 10.2881 28.7168 10.2597 28.7514 10.2353C28.77 10.2332 28.7885 10.2305 28.807 10.2278C28.8353 10.2411 28.8639 10.2613 28.8648 10.3023C28.8768 10.3742 28.8001 10.4749 28.7326 10.4736Z" fill="white"/>
<path d="M29.4752 27.9383L29.4742 27.9366L28.8753 27.4878L29.3426 26.3874L29.344 26.3842L29.3477 26.3579L29.1594 25.3971C29.1594 25.3943 29.1587 25.3918 29.1576 25.3897L29.1579 25.3871L29.1502 25.3803C29.1484 25.3758 29.1446 25.373 29.1395 25.3724L28.351 24.9517L28.3463 24.9492L27.236 25.2347C27.2295 25.2364 27.2278 25.2378 27.2126 25.2513C27.2053 25.2578 27.1946 25.2673 27.181 25.2793C27.1554 25.3021 27.1179 25.3356 27.0695 25.3789C26.988 25.4518 26.8745 25.5533 26.732 25.6807C26.4897 25.8977 26.2445 26.1173 26.2421 26.1195L26.2407 26.1208L26.2215 26.1421L26.2198 26.154L25.7394 27.2828L25.7381 27.286L25.7344 27.3124L25.9258 28.2713L25.9257 28.2715C25.9252 28.2751 25.9253 28.2785 25.9261 28.2814C25.9269 28.2844 25.9284 28.2869 25.9305 28.2888L25.9386 28.2959L26.7259 28.7099C26.7272 28.7125 26.7293 28.7145 26.732 28.7156C26.7347 28.7167 26.7379 28.717 26.7414 28.7163C26.7451 28.7175 26.7494 28.7175 26.754 28.7164L27.8556 28.4332L27.8601 28.4281C27.8626 28.4269 27.865 28.4254 27.8673 28.4236L27.8681 28.4234L28.807 27.5813L29.3957 28.0254C29.3995 28.0285 29.4044 28.0304 29.41 28.0308C29.4211 28.0314 29.4336 28.0282 29.4458 28.0216C29.4539 28.0168 29.4612 28.0096 29.4662 28.0013C29.4743 27.9911 29.4794 27.9794 29.4806 27.9685C29.4823 27.9568 29.4804 27.9463 29.4752 27.9383ZM28.9569 26.426L29.1059 25.6701L29.2389 26.3535L28.9569 26.426ZM29.2259 26.447L28.886 27.252L28.9439 26.5195L29.2259 26.447ZM26.4754 27.9675L26.667 28.5559L26.0648 28.2368L26.4754 27.9675ZM27.7646 25.8323L28.297 25.1004L28.504 25.7344L27.7646 25.8323ZM28.6067 25.7028L28.4151 25.1143L29.0173 25.4335L28.6067 25.7028ZM28.6386 25.7777L29.0465 25.509L28.8885 26.3124L28.8869 26.3212L28.6386 25.7777ZM26.2435 27.0008L26.2443 26.9927L26.3063 26.2136L26.5193 26.2564L26.6669 26.2847L26.2435 27.0008ZM28.2192 25.0753L27.6852 25.8094L27.3201 25.3065L28.2192 25.0753ZM28.8166 26.5523L28.3641 27.3167L28.2264 26.9427L28.1501 26.7236L28.8167 26.5522L28.8166 26.5523ZM28.1633 26.63L28.564 25.8791L28.8296 26.4587L28.1633 26.63ZM27.7524 25.9293L28.4997 25.8296L28.0918 26.5936L27.7524 25.9293ZM27.6226 27.511L28.063 26.8009L28.2808 27.4039L27.5072 27.6953L27.6226 27.511ZM27.09 26.906L27.6604 25.9872L27.8311 26.3292L28.0052 26.6707L27.09 26.906ZM27.9921 26.7642L27.4248 27.6824L27.2509 27.341L27.077 26.9996L27.9921 26.7642ZM27.4712 26.1434L27.0224 26.8685L26.8046 26.2655L27.5753 25.9749L27.4712 26.1434ZM27.3297 27.741L26.5856 27.8399L26.8928 27.2627L26.9933 27.0759L27.3297 27.741ZM26.2688 27.1172L26.7211 26.3531L26.8576 26.7368L26.9348 26.9459L26.2688 27.1172ZM26.922 27.0394L26.5214 27.7903L26.2558 27.2107L26.922 27.0394ZM28.8389 26.6688L28.8386 26.6708L28.7757 27.4566L28.5627 27.4139L28.4151 27.3855L28.8389 26.6688ZM26.3594 26.1169L27.0983 25.4529L26.7228 26.1872L26.3594 26.1169ZM26.4434 27.8926L26.0356 28.1613L26.1945 27.3511L26.195 27.3487L26.4434 27.8926ZM27.4001 27.86L27.7621 28.3637L26.8631 28.5949L27.4001 27.86ZM28.7227 27.5534L27.9838 28.2173L28.3593 27.4831L28.7227 27.5534ZM26.824 26.1664L27.2291 25.375L27.59 25.8772L26.824 26.1664ZM25.8562 27.2233L26.196 26.4183L26.1382 27.1508L25.8562 27.2233ZM26.1252 27.2443L25.9762 28.0001L25.8431 27.3168L26.1252 27.2443H26.1252ZM27.3175 27.838L26.785 28.5698L26.5781 27.9358L27.3175 27.838ZM28.258 27.504L27.853 28.2954L27.492 27.7931L28.258 27.504Z" fill="white"/>
</svg>
