<svg width="160" height="161" viewBox="0 0 160 161" fill="none" xmlns="http://www.w3.org/2000/svg">
<path d="M78.9533 160.38C122.558 160.38 157.907 124.59 157.907 80.4402C157.907 36.2905 122.558 0.5 78.9533 0.5C35.3486 0.5 0 36.2905 0 80.4402C0 124.59 35.3486 160.38 78.9533 160.38Z" fill="#C0AFC5"/>
<path d="M78.9533 160.38C122.558 160.38 157.907 124.59 157.907 80.4402C157.907 36.2905 122.558 0.5 78.9533 0.5C35.3486 0.5 0 36.2905 0 80.4402C0 124.59 35.3486 160.38 78.9533 160.38Z" fill="white" fill-opacity="0.7"/>
<path d="M11.333 124.312C15.2673 124.312 18.4566 121.083 18.4566 117.1C18.4566 113.116 15.2673 109.887 11.333 109.887C7.3988 109.887 4.20947 113.116 4.20947 117.1C4.20947 121.083 7.3988 124.312 11.333 124.312Z" fill="#60CBED"/>
<path d="M8.61058 156.33C11.0412 156.33 13.0117 154.335 13.0117 151.874C13.0117 149.413 11.0412 147.417 8.61058 147.417C6.17991 147.417 4.20947 149.413 4.20947 151.874C4.20947 154.335 6.17991 156.33 8.61058 156.33Z" fill="#69D5DD"/>
<path d="M8.61058 156.33C11.0412 156.33 13.0117 154.335 13.0117 151.874C13.0117 149.413 11.0412 147.417 8.61058 147.417C6.17991 147.417 4.20947 149.413 4.20947 151.874C4.20947 154.335 6.17991 156.33 8.61058 156.33Z" fill="white" fill-opacity="0.7"/>
<path d="M138.523 46.0384C144.888 46.0384 150.048 40.8141 150.048 34.3697C150.048 27.9252 144.888 22.7009 138.523 22.7009C132.158 22.7009 126.999 27.9252 126.999 34.3697C126.999 40.8141 132.158 46.0384 138.523 46.0384Z" fill="#60CBED"/>
<path d="M153.141 8.44901C154.752 8.44901 156.058 7.1263 156.058 5.49465C156.058 3.863 154.752 2.54028 153.141 2.54028C151.529 2.54028 150.223 3.863 150.223 5.49465C150.223 7.1263 151.529 8.44901 153.141 8.44901Z" fill="#69D5DD"/>
<path d="M153.141 8.44901C154.752 8.44901 156.058 7.1263 156.058 5.49465C156.058 3.863 154.752 2.54028 153.141 2.54028C151.529 2.54028 150.223 3.863 150.223 5.49465C150.223 7.1263 151.529 8.44901 153.141 8.44901Z" fill="white" fill-opacity="0.7"/>
<path d="M50.9419 83.8531L76.6458 124.973C76.6458 124.973 117.258 38.3091 115.202 40.6514C113.145 42.7334 76.6458 98.9477 76.6458 98.9477L50.9419 83.8531Z" fill="#EFBB3C"/>
<path d="M50.9418 83.853L38.0898 79.4287L63.2796 119.507L76.6456 124.973L50.9418 83.853Z" fill="#FFCE47"/>
<path d="M115.201 40.3911L102.35 36.2271L65.3359 92.1812L76.6456 98.9477L115.201 40.3911Z" fill="#FFDE8A"/>
</svg>
