<svg width="60" height="60" viewBox="0 0 60 60" fill="none" xmlns="http://www.w3.org/2000/svg">
<path d="M30 60C46.5685 60 60 46.5685 60 30C60 13.4315 46.5685 0 30 0C13.4315 0 0 13.4315 0 30C0 46.5685 13.4315 60 30 60Z" fill="white"/>
<path d="M47.0124 15.3739C46.2568 13.5703 45.1414 11.9395 43.7344 10.5814C42.3103 9.25841 40.6585 8.20408 38.8589 7.46937C37.6363 6.98133 36.3513 6.66707 35.0415 6.53576C32.5567 6.1917 30.0253 6.48651 27.6861 7.39236C25.3469 8.29822 23.2772 9.78523 21.6722 11.713C20.0673 13.6408 18.9801 15.9458 18.5133 18.4105C18.0464 20.8751 18.2154 23.418 19.0041 25.7992V25.8719C17.9089 26.5463 16.9048 27.3586 16.0166 28.2889C14.6506 29.7075 13.5665 31.3725 12.8215 33.1955C12.1204 35.0333 11.7686 36.9858 11.7842 38.9528C11.8358 42.8938 13.4472 46.6538 16.2655 49.4092C17.6869 50.7357 19.3394 51.7904 21.141 52.5212C22.7927 53.1789 24.5502 53.5304 26.3278 53.5586H26.5871C28.9293 53.5787 31.2428 53.0427 33.3375 51.9947C35.4323 50.9467 37.2484 49.4166 38.6367 47.5301C40.025 45.6436 40.9458 43.4546 41.3235 41.143C41.7011 38.8313 41.5248 36.4631 40.8091 34.2329C41.9554 33.5328 43.0022 32.6814 43.9211 31.7017C45.303 30.2779 46.392 28.5968 47.1265 26.7536C47.8332 24.9174 48.1852 22.9637 48.1639 20.9963C48.1696 19.0631 47.7777 17.1493 47.0124 15.3739ZM33.9211 15.0212C34.459 15.1077 34.9848 15.2575 35.4875 15.4673C36.2 15.7667 36.8349 16.2243 37.3444 16.8055C37.8295 17.3769 38.2089 18.0303 38.4647 18.7349C38.693 19.4344 38.8017 20.1674 38.7863 20.903C38.6992 22.2661 38.1162 23.5502 37.1473 24.5129L34.0871 16.432C33.9805 15.9692 33.9249 15.4961 33.9211 15.0212ZM37.5622 25.6748C37.6572 25.5901 37.7473 25.5001 37.8319 25.4051C38.4236 24.7851 38.8825 24.0509 39.1805 23.2474C39.4701 22.4504 39.604 21.6052 39.5747 20.7577C39.5648 19.9277 39.3736 19.1099 39.0145 18.3615C38.6541 17.6424 38.1695 16.9928 37.5829 16.4424C36.9984 15.9148 36.319 15.503 35.5809 15.2287C35.045 15.0491 34.486 14.9477 33.9211 14.9279C33.945 13.9898 34.1865 13.07 34.6265 12.2412C35.2791 12.3595 35.9137 12.5618 36.5145 12.8428C37.5586 13.3252 38.5019 14.001 39.2946 14.8345C40.0358 15.6951 40.6346 16.6686 41.0684 17.7183C41.4486 18.7651 41.6349 19.8724 41.6182 20.986C41.6363 22.096 41.391 23.1945 40.9025 24.1914C40.5018 25.1995 39.8734 26.1013 39.0664 26.8262C38.8008 27.0545 38.5238 27.2691 38.2365 27.4694L37.5622 25.6748ZM38.5995 28.5482C39.018 28.2311 39.4132 27.8844 39.7821 27.5109C41.4648 25.684 42.3852 23.2828 42.3547 20.7992C42.3345 19.5889 42.0662 18.3955 41.5664 17.293C41.0849 16.1967 40.378 15.2142 39.4917 14.4092C38.6395 13.61 37.6385 12.9861 36.5456 12.5731C35.9159 12.3585 35.2659 12.209 34.6058 12.127C34.8812 11.6089 35.2306 11.1336 35.6431 10.7163C35.9578 10.3998 36.3056 10.1181 36.6805 9.87601C36.9775 9.9765 37.2685 10.0943 37.5518 10.2287C38.9404 10.8141 40.1912 11.6833 41.224 12.7806C42.2961 13.8776 43.142 15.1746 43.7137 16.598C44.2456 17.9993 44.5129 19.4871 44.502 20.986C44.4428 22.4642 44.1269 23.9209 43.5684 25.2909C42.9617 26.6005 42.1216 27.7886 41.0892 28.7972C40.5477 29.3342 39.9494 29.8107 39.3049 30.2183L38.5995 28.5482ZM23.0394 50.0627C22.8008 49.9694 22.5622 49.8864 22.334 49.7723C20.9444 49.1942 19.6955 48.3239 18.6722 47.2204C17.6392 46.1306 16.8256 44.8522 16.2759 43.4548C15.743 42.0538 15.4757 40.5658 15.4875 39.0669C15.5511 37.5837 15.8741 36.1232 16.4419 34.7515C17.0422 33.4383 17.8831 32.249 18.9211 31.2453C19.421 30.7452 19.9702 30.2969 20.5601 29.9071L21.2033 31.5876C20.8363 31.8669 20.4896 32.172 20.1659 32.5005C18.5046 34.3376 17.6003 36.7355 17.6348 39.2121C17.6597 40.423 17.9315 41.6161 18.4336 42.7183C18.9154 43.8113 19.6224 44.7905 20.5083 45.5918C21.3577 46.3945 22.3595 47.0189 23.4543 47.4279C24.0234 47.6289 24.6104 47.7748 25.2074 47.8636C24.9241 48.3579 24.5752 48.8115 24.1701 49.2121C23.8286 49.5354 23.4529 49.8207 23.0498 50.0627H23.0394ZM23.4751 47.1997C22.4513 46.7041 21.5267 46.0256 20.7468 45.1976C20.0112 44.3387 19.416 43.3689 18.9834 42.3241C18.6024 41.274 18.4161 40.1631 18.4336 39.0461C18.4166 37.9362 18.6619 36.838 19.1493 35.8407C19.5299 34.832 20.1409 33.9262 20.9336 33.1955C21.1538 32.9951 21.3859 32.808 21.6286 32.6353L22.3236 34.4507C22.2665 34.5009 22.2144 34.5565 22.168 34.6167C21.5721 35.2333 21.1126 35.9685 20.8195 36.7743C20.5288 37.5675 20.395 38.4095 20.4253 39.2536C20.4355 40.0824 20.6229 40.8995 20.9751 41.6499C21.3427 42.3671 21.8304 43.0162 22.417 43.569C22.9985 44.0981 23.6789 44.507 24.419 44.7723C24.907 44.9424 25.4173 45.0403 25.9336 45.0627C25.8888 45.9983 25.6373 46.9123 25.1971 47.7391C24.6087 47.6217 24.0348 47.4408 23.4854 47.1997H23.4751ZM25.9336 45.0005C25.4483 44.9148 24.9724 44.7828 24.5124 44.6063C23.8048 44.3041 23.1764 43.8426 22.6763 43.2577C22.1897 42.6873 21.8102 42.0337 21.556 41.3283C21.3277 40.6324 21.219 39.9028 21.2344 39.1706C21.3228 37.8395 21.886 36.5843 22.8215 35.6333L25.8195 43.569C25.9101 44.0405 25.9483 44.5206 25.9336 45.0005ZM13.5684 44.4818C12.9368 42.7392 12.6138 40.8997 12.6141 39.0461C12.6966 37.2072 13.1077 35.3979 13.8278 33.7038C14.5669 32.0236 15.6236 30.5019 16.9398 29.2225C17.7218 28.4532 18.5964 27.7841 19.5435 27.2308L20.0311 28.5067C19.2716 28.9895 18.5747 29.5644 17.9564 30.2183C16.8424 31.3895 15.9746 32.7722 15.4045 34.2847C14.8637 35.7952 14.5967 37.39 14.6161 38.9943C14.6772 40.5868 15.0288 42.1547 15.6535 43.6208C16.2989 45.0661 17.2224 46.3703 18.3713 47.459C19.5041 48.5232 20.8273 49.3643 22.2717 49.9382C22.4721 50.0148 22.6764 50.0806 22.8838 50.1353C21.9415 50.702 20.8706 51.0197 19.7717 51.0586C19.3736 51.0611 18.9766 51.0158 18.5892 50.9237C17.8738 50.4082 17.2072 49.8283 16.5975 49.1914C15.2781 47.8438 14.2474 46.2413 13.5684 44.4818ZM46.1722 26.3283C45.4306 28.0102 44.3743 29.5348 43.0601 30.82C42.2337 31.6322 41.3022 32.33 40.2904 32.8947L39.8132 31.6291C40.6308 31.1213 41.3803 30.5113 42.0435 29.8138C43.1588 28.6455 44.0298 27.2666 44.6058 25.7577C45.1457 24.2435 45.4126 22.6454 45.3941 21.0378C45.3319 19.4455 44.9804 17.8778 44.3568 16.4113C43.0566 13.5247 40.6825 11.2585 37.7386 10.0938C37.47 9.9933 37.1965 9.90674 36.919 9.83451C38.2752 9.03516 39.8839 8.7794 41.4211 9.11874C42.1351 9.62811 42.7985 10.2047 43.4025 10.8407C44.7237 12.1908 45.7545 13.7971 46.4315 15.5607C47.0624 17.2999 47.3853 19.1358 47.3859 20.986C47.3033 22.8249 46.8922 24.6342 46.1722 26.3283Z" fill="#DD1438"/>
</svg>
