<svg width="20" height="17" viewBox="0 0 20 17" fill="none" xmlns="http://www.w3.org/2000/svg">
<path d="M7.52013 15.7575C6.92251 15.7575 7.02978 15.5277 6.81525 14.9607L5.06836 9.19905L15.9175 2.42603L17.1893 2.76314L16.132 5.64398L7.52013 15.7575Z" fill="#C8DAEA"/>
<path d="M7.51953 15.7576C7.97924 15.7576 8.17845 15.5431 8.43895 15.2979C8.83736 14.9148 13.9554 9.93464 13.9554 9.93464L10.8141 9.16846L7.90262 11.0073L7.51953 15.6044V15.7576Z" fill="#A9C9DD"/>
<path d="M7.82631 11.0686L15.2429 16.5391C16.0857 16.9988 16.6987 16.769 16.9132 15.7576L19.9319 1.53733C20.2384 0.296124 19.4569 -0.255525 18.6448 0.112241L0.930694 6.94656C-0.27987 7.43692 -0.264547 8.11116 0.716163 8.4023L5.26727 9.8274L15.7946 3.19228C16.2849 2.88581 16.7446 3.05437 16.3769 3.39149L7.82631 11.0686Z" fill="url(#paint0_linear_395_2236)"/>
<defs>
<linearGradient id="paint0_linear_395_2236" x1="12.2688" y1="7.90505" x2="16.0997" y2="14.0345" gradientUnits="userSpaceOnUse">
<stop stop-color="#EFF7FC"/>
<stop offset="1" stop-color="white"/>
</linearGradient>
</defs>
</svg>
