<svg width="502" height="202" viewBox="0 0 502 202" fill="none" xmlns="http://www.w3.org/2000/svg">
<g filter="url(#filter0_d_688_1903)">
<path d="M9 50C9 31.1438 9 21.7157 14.8579 15.8579C20.7157 10 30.1438 10 49 10H459C477.856 10 487.284 10 493.142 15.8579C499 21.7157 499 31.1438 499 50V200H9V50Z" fill="url(#paint0_linear_688_1903)" shape-rendering="crispEdges"/>
<circle cx="254" cy="55" r="24" fill="url(#paint1_linear_688_1903)"/>
<path d="M265.725 46.6C265.025 45.9 263.975 45.9 263.275 46.6L250.15 59.725L244.725 54.3C244.025 53.6 242.975 53.6 242.275 54.3C241.575 55 241.575 56.05 242.275 56.75L248.925 63.4C249.275 63.75 249.625 63.925 250.15 63.925C250.675 63.925 251.025 63.75 251.375 63.4L265.725 49.05C266.425 48.35 266.425 47.3 265.725 46.6Z" fill="white"/>
<path d="M155.968 109.897V107.909H166.412V109.897H162.366V121H160.014V109.897H155.968ZM167.154 121V111.182H169.398V112.818H169.5C169.679 112.251 169.986 111.815 170.42 111.508C170.859 111.197 171.36 111.041 171.923 111.041C172.05 111.041 172.193 111.048 172.351 111.06C172.513 111.069 172.647 111.084 172.754 111.105V113.234C172.656 113.2 172.5 113.17 172.287 113.144C172.078 113.114 171.876 113.099 171.68 113.099C171.258 113.099 170.879 113.191 170.542 113.374C170.21 113.553 169.947 113.803 169.756 114.122C169.564 114.442 169.468 114.81 169.468 115.228V121H167.154ZM176.79 121.198C176.168 121.198 175.608 121.087 175.109 120.866C174.615 120.64 174.223 120.308 173.933 119.869C173.648 119.43 173.505 118.888 173.505 118.245C173.505 117.691 173.607 117.233 173.812 116.871C174.016 116.509 174.295 116.219 174.649 116.001C175.003 115.784 175.401 115.62 175.844 115.509C176.292 115.394 176.754 115.311 177.231 115.26C177.807 115.2 178.273 115.147 178.631 115.1C178.989 115.049 179.249 114.972 179.411 114.87C179.577 114.763 179.66 114.599 179.66 114.378V114.339C179.66 113.858 179.518 113.485 179.232 113.221C178.947 112.957 178.535 112.825 177.998 112.825C177.432 112.825 176.982 112.948 176.65 113.195C176.322 113.442 176.1 113.734 175.985 114.071L173.824 113.764C173.995 113.168 174.276 112.669 174.668 112.268C175.06 111.864 175.54 111.561 176.106 111.361C176.673 111.156 177.3 111.054 177.986 111.054C178.459 111.054 178.93 111.109 179.398 111.22C179.867 111.331 180.295 111.514 180.683 111.77C181.071 112.021 181.382 112.364 181.616 112.799C181.855 113.234 181.974 113.777 181.974 114.429V121H179.75V119.651H179.673C179.533 119.924 179.334 120.18 179.079 120.418C178.827 120.653 178.51 120.842 178.126 120.987C177.747 121.128 177.302 121.198 176.79 121.198ZM177.391 119.498C177.856 119.498 178.258 119.406 178.599 119.223C178.94 119.036 179.202 118.788 179.386 118.482C179.573 118.175 179.667 117.84 179.667 117.478V116.321C179.594 116.381 179.471 116.436 179.296 116.487C179.126 116.538 178.934 116.583 178.721 116.621C178.508 116.66 178.297 116.694 178.088 116.724C177.879 116.754 177.698 116.779 177.545 116.8C177.199 116.847 176.891 116.924 176.618 117.031C176.345 117.137 176.13 117.286 175.972 117.478C175.815 117.665 175.736 117.908 175.736 118.207C175.736 118.633 175.891 118.955 176.202 119.172C176.513 119.389 176.91 119.498 177.391 119.498ZM186.465 115.247V121H184.151V111.182H186.363V112.85H186.478C186.704 112.3 187.064 111.864 187.558 111.54C188.057 111.216 188.672 111.054 189.405 111.054C190.083 111.054 190.673 111.199 191.176 111.489C191.683 111.778 192.075 112.198 192.352 112.748C192.633 113.298 192.772 113.964 192.768 114.749V121H190.454V115.107C190.454 114.45 190.283 113.937 189.942 113.566C189.606 113.195 189.139 113.01 188.542 113.01C188.138 113.01 187.777 113.099 187.462 113.278C187.151 113.453 186.906 113.707 186.727 114.039C186.552 114.371 186.465 114.774 186.465 115.247ZM202.73 113.777L200.62 114.007C200.561 113.794 200.456 113.594 200.307 113.406C200.162 113.219 199.966 113.067 199.719 112.952C199.472 112.837 199.169 112.78 198.811 112.78C198.33 112.78 197.925 112.884 197.597 113.093C197.273 113.302 197.113 113.572 197.118 113.905C197.113 114.19 197.218 114.423 197.431 114.602C197.648 114.781 198.006 114.928 198.505 115.043L200.179 115.401C201.108 115.601 201.799 115.918 202.25 116.353C202.706 116.788 202.936 117.357 202.941 118.06C202.936 118.678 202.755 119.223 202.397 119.696C202.044 120.165 201.551 120.531 200.921 120.795C200.29 121.06 199.566 121.192 198.747 121.192C197.546 121.192 196.578 120.94 195.845 120.438C195.113 119.93 194.676 119.225 194.535 118.322L196.792 118.104C196.894 118.548 197.111 118.882 197.444 119.108C197.776 119.334 198.208 119.447 198.741 119.447C199.291 119.447 199.732 119.334 200.064 119.108C200.401 118.882 200.569 118.603 200.569 118.271C200.569 117.989 200.461 117.757 200.243 117.574C200.03 117.391 199.698 117.25 199.246 117.152L197.571 116.8C196.63 116.604 195.933 116.274 195.481 115.81C195.029 115.341 194.806 114.749 194.81 114.033C194.806 113.428 194.97 112.903 195.302 112.46C195.639 112.013 196.105 111.668 196.702 111.425C197.303 111.178 197.995 111.054 198.779 111.054C199.93 111.054 200.836 111.299 201.496 111.789C202.161 112.279 202.572 112.942 202.73 113.777ZM207.524 121.198C206.902 121.198 206.341 121.087 205.843 120.866C205.349 120.64 204.956 120.308 204.667 119.869C204.381 119.43 204.238 118.888 204.238 118.245C204.238 117.691 204.341 117.233 204.545 116.871C204.75 116.509 205.029 116.219 205.383 116.001C205.736 115.784 206.135 115.62 206.578 115.509C207.025 115.394 207.488 115.311 207.965 115.26C208.54 115.2 209.007 115.147 209.365 115.1C209.723 115.049 209.983 114.972 210.145 114.87C210.311 114.763 210.394 114.599 210.394 114.378V114.339C210.394 113.858 210.251 113.485 209.966 113.221C209.68 112.957 209.269 112.825 208.732 112.825C208.165 112.825 207.716 112.948 207.383 113.195C207.055 113.442 206.834 113.734 206.719 114.071L204.558 113.764C204.729 113.168 205.01 112.669 205.402 112.268C205.794 111.864 206.273 111.561 206.84 111.361C207.407 111.156 208.033 111.054 208.719 111.054C209.192 111.054 209.663 111.109 210.132 111.22C210.601 111.331 211.029 111.514 211.417 111.77C211.805 112.021 212.116 112.364 212.35 112.799C212.589 113.234 212.708 113.777 212.708 114.429V121H210.483V119.651H210.407C210.266 119.924 210.068 120.18 209.812 120.418C209.561 120.653 209.243 120.842 208.86 120.987C208.481 121.128 208.035 121.198 207.524 121.198ZM208.125 119.498C208.589 119.498 208.992 119.406 209.333 119.223C209.674 119.036 209.936 118.788 210.119 118.482C210.307 118.175 210.4 117.84 210.4 117.478V116.321C210.328 116.381 210.204 116.436 210.03 116.487C209.859 116.538 209.667 116.583 209.454 116.621C209.241 116.66 209.03 116.694 208.822 116.724C208.613 116.754 208.432 116.779 208.278 116.8C207.933 116.847 207.624 116.924 207.351 117.031C207.079 117.137 206.863 117.286 206.706 117.478C206.548 117.665 206.469 117.908 206.469 118.207C206.469 118.633 206.625 118.955 206.936 119.172C207.247 119.389 207.643 119.498 208.125 119.498ZM219.167 121.192C218.187 121.192 217.346 120.977 216.642 120.546C215.944 120.116 215.405 119.521 215.025 118.763C214.65 118 214.463 117.122 214.463 116.129C214.463 115.132 214.655 114.252 215.038 113.489C215.422 112.722 215.963 112.126 216.662 111.7C217.365 111.269 218.196 111.054 219.155 111.054C219.951 111.054 220.657 111.201 221.27 111.495C221.888 111.785 222.38 112.196 222.747 112.729C223.113 113.257 223.322 113.875 223.373 114.582H221.162C221.072 114.109 220.859 113.715 220.522 113.4C220.19 113.08 219.745 112.92 219.186 112.92C218.713 112.92 218.298 113.048 217.94 113.304C217.582 113.555 217.303 113.918 217.103 114.391C216.907 114.864 216.809 115.43 216.809 116.091C216.809 116.76 216.907 117.335 217.103 117.817C217.299 118.294 217.574 118.663 217.927 118.923C218.285 119.178 218.705 119.306 219.186 119.306C219.527 119.306 219.832 119.242 220.101 119.114C220.373 118.982 220.601 118.793 220.784 118.545C220.968 118.298 221.093 117.998 221.162 117.644H223.373C223.318 118.339 223.113 118.955 222.76 119.491C222.406 120.024 221.924 120.442 221.315 120.744C220.706 121.043 219.99 121.192 219.167 121.192ZM230.026 111.182V112.972H224.382V111.182H230.026ZM225.775 108.83H228.089V118.047C228.089 118.358 228.136 118.597 228.23 118.763C228.328 118.925 228.456 119.036 228.613 119.095C228.771 119.155 228.946 119.185 229.137 119.185C229.282 119.185 229.414 119.174 229.534 119.153C229.657 119.131 229.751 119.112 229.815 119.095L230.205 120.904C230.081 120.947 229.905 120.994 229.674 121.045C229.449 121.096 229.172 121.126 228.843 121.134C228.264 121.151 227.742 121.064 227.277 120.872C226.813 120.676 226.444 120.374 226.172 119.964C225.903 119.555 225.771 119.044 225.775 118.43V108.83ZM231.811 121V111.182H234.125V121H231.811ZM232.975 109.788C232.608 109.788 232.293 109.667 232.029 109.424C231.764 109.177 231.632 108.881 231.632 108.536C231.632 108.186 231.764 107.89 232.029 107.647C232.293 107.4 232.608 107.276 232.975 107.276C233.345 107.276 233.661 107.4 233.921 107.647C234.185 107.89 234.317 108.186 234.317 108.536C234.317 108.881 234.185 109.177 233.921 109.424C233.661 109.667 233.345 109.788 232.975 109.788ZM240.637 121.192C239.678 121.192 238.847 120.981 238.144 120.559C237.441 120.137 236.896 119.547 236.508 118.788C236.124 118.03 235.933 117.143 235.933 116.129C235.933 115.115 236.124 114.227 236.508 113.464C236.896 112.701 237.441 112.109 238.144 111.687C238.847 111.265 239.678 111.054 240.637 111.054C241.596 111.054 242.427 111.265 243.13 111.687C243.833 112.109 244.377 112.701 244.76 113.464C245.148 114.227 245.342 115.115 245.342 116.129C245.342 117.143 245.148 118.03 244.76 118.788C244.377 119.547 243.833 120.137 243.13 120.559C242.427 120.981 241.596 121.192 240.637 121.192ZM240.65 119.338C241.17 119.338 241.605 119.195 241.954 118.91C242.303 118.62 242.563 118.232 242.734 117.746C242.909 117.261 242.996 116.719 242.996 116.123C242.996 115.522 242.909 114.979 242.734 114.493C242.563 114.003 242.303 113.613 241.954 113.323C241.605 113.033 241.17 112.888 240.65 112.888C240.117 112.888 239.674 113.033 239.32 113.323C238.971 113.613 238.709 114.003 238.534 114.493C238.364 114.979 238.279 115.522 238.279 116.123C238.279 116.719 238.364 117.261 238.534 117.746C238.709 118.232 238.971 118.62 239.32 118.91C239.674 119.195 240.117 119.338 240.65 119.338ZM249.47 115.247V121H247.156V111.182H249.367V112.85H249.482C249.708 112.3 250.068 111.864 250.563 111.54C251.061 111.216 251.677 111.054 252.41 111.054C253.088 111.054 253.678 111.199 254.181 111.489C254.688 111.778 255.08 112.198 255.357 112.748C255.638 113.298 255.776 113.964 255.772 114.749V121H253.458V115.107C253.458 114.45 253.288 113.937 252.947 113.566C252.61 113.195 252.144 113.01 251.547 113.01C251.142 113.01 250.782 113.099 250.467 113.278C250.156 113.453 249.911 113.707 249.732 114.039C249.557 114.371 249.47 114.774 249.47 115.247ZM266.572 121.192C265.592 121.192 264.75 120.977 264.047 120.546C263.348 120.116 262.809 119.521 262.43 118.763C262.055 118 261.867 117.122 261.867 116.129C261.867 115.132 262.059 114.252 262.443 113.489C262.826 112.722 263.367 112.126 264.066 111.7C264.769 111.269 265.6 111.054 266.559 111.054C267.356 111.054 268.061 111.201 268.675 111.495C269.293 111.785 269.785 112.196 270.152 112.729C270.518 113.257 270.727 113.875 270.778 114.582H268.566C268.477 114.109 268.264 113.715 267.927 113.4C267.595 113.08 267.149 112.92 266.591 112.92C266.118 112.92 265.703 113.048 265.345 113.304C264.987 113.555 264.708 113.918 264.507 114.391C264.311 114.864 264.213 115.43 264.213 116.091C264.213 116.76 264.311 117.335 264.507 117.817C264.703 118.294 264.978 118.663 265.332 118.923C265.69 119.178 266.11 119.306 266.591 119.306C266.932 119.306 267.237 119.242 267.505 119.114C267.778 118.982 268.006 118.793 268.189 118.545C268.372 118.298 268.498 117.998 268.566 117.644H270.778C270.723 118.339 270.518 118.955 270.164 119.491C269.811 120.024 269.329 120.442 268.72 120.744C268.11 121.043 267.394 121.192 266.572 121.192ZM276.811 121.192C275.852 121.192 275.021 120.981 274.318 120.559C273.615 120.137 273.069 119.547 272.681 118.788C272.298 118.03 272.106 117.143 272.106 116.129C272.106 115.115 272.298 114.227 272.681 113.464C273.069 112.701 273.615 112.109 274.318 111.687C275.021 111.265 275.852 111.054 276.811 111.054C277.769 111.054 278.6 111.265 279.304 111.687C280.007 112.109 280.55 112.701 280.934 113.464C281.321 114.227 281.515 115.115 281.515 116.129C281.515 117.143 281.321 118.03 280.934 118.788C280.55 119.547 280.007 120.137 279.304 120.559C278.6 120.981 277.769 121.192 276.811 121.192ZM276.823 119.338C277.343 119.338 277.778 119.195 278.127 118.91C278.477 118.62 278.737 118.232 278.907 117.746C279.082 117.261 279.169 116.719 279.169 116.123C279.169 115.522 279.082 114.979 278.907 114.493C278.737 114.003 278.477 113.613 278.127 113.323C277.778 113.033 277.343 112.888 276.823 112.888C276.291 112.888 275.848 113.033 275.494 113.323C275.144 113.613 274.882 114.003 274.708 114.493C274.537 114.979 274.452 115.522 274.452 116.123C274.452 116.719 274.537 117.261 274.708 117.746C274.882 118.232 275.144 118.62 275.494 118.91C275.848 119.195 276.291 119.338 276.823 119.338ZM283.329 121V111.182H285.541V112.85H285.656C285.86 112.288 286.199 111.849 286.672 111.533C287.145 111.214 287.71 111.054 288.366 111.054C289.031 111.054 289.591 111.216 290.047 111.54C290.507 111.859 290.831 112.296 291.019 112.85H291.121C291.338 112.305 291.705 111.87 292.22 111.546C292.74 111.218 293.356 111.054 294.068 111.054C294.971 111.054 295.708 111.339 296.279 111.911C296.85 112.482 297.136 113.315 297.136 114.41V121H294.816V114.768C294.816 114.158 294.654 113.713 294.33 113.432C294.006 113.146 293.61 113.004 293.141 113.004C292.583 113.004 292.146 113.178 291.831 113.528C291.519 113.873 291.364 114.322 291.364 114.876V121H289.095V114.672C289.095 114.165 288.941 113.76 288.635 113.457C288.332 113.155 287.936 113.004 287.446 113.004C287.113 113.004 286.811 113.089 286.538 113.259C286.265 113.425 286.048 113.662 285.886 113.969C285.724 114.271 285.643 114.625 285.643 115.03V121H283.329ZM299.333 124.682V111.182H301.609V112.805H301.743C301.863 112.567 302.031 112.313 302.248 112.045C302.466 111.772 302.76 111.54 303.13 111.348C303.501 111.152 303.974 111.054 304.549 111.054C305.308 111.054 305.992 111.248 306.601 111.636C307.215 112.019 307.701 112.588 308.059 113.342C308.421 114.092 308.602 115.013 308.602 116.104C308.602 117.182 308.425 118.098 308.071 118.852C307.718 119.607 307.236 120.182 306.627 120.578C306.017 120.974 305.327 121.173 304.556 121.173C303.993 121.173 303.527 121.079 303.156 120.891C302.785 120.704 302.487 120.478 302.261 120.214C302.039 119.945 301.867 119.692 301.743 119.453H301.647V124.682H299.333ZM301.603 116.091C301.603 116.726 301.692 117.282 301.871 117.759C302.054 118.237 302.316 118.609 302.657 118.878C303.002 119.142 303.42 119.274 303.91 119.274C304.422 119.274 304.85 119.138 305.195 118.865C305.54 118.588 305.8 118.211 305.975 117.734C306.154 117.252 306.243 116.705 306.243 116.091C306.243 115.482 306.156 114.94 305.981 114.467C305.806 113.994 305.547 113.624 305.201 113.355C304.856 113.087 304.426 112.952 303.91 112.952C303.416 112.952 302.996 113.082 302.651 113.342C302.306 113.602 302.044 113.967 301.865 114.435C301.69 114.904 301.603 115.456 301.603 116.091ZM312.747 107.909V121H310.433V107.909H312.747ZM319.323 121.192C318.339 121.192 317.489 120.987 316.773 120.578C316.061 120.165 315.514 119.581 315.13 118.827C314.747 118.068 314.555 117.175 314.555 116.148C314.555 115.138 314.747 114.252 315.13 113.489C315.518 112.722 316.059 112.126 316.754 111.7C317.448 111.269 318.264 111.054 319.202 111.054C319.807 111.054 320.378 111.152 320.915 111.348C321.456 111.54 321.933 111.838 322.347 112.243C322.764 112.648 323.093 113.163 323.331 113.79C323.57 114.412 323.689 115.153 323.689 116.014V116.724H315.642V115.164H321.471C321.467 114.721 321.371 114.327 321.183 113.982C320.996 113.632 320.734 113.357 320.397 113.157C320.065 112.957 319.677 112.857 319.234 112.857C318.761 112.857 318.345 112.972 317.987 113.202C317.63 113.428 317.35 113.726 317.15 114.097C316.954 114.463 316.854 114.866 316.85 115.305V116.666C316.85 117.237 316.954 117.727 317.163 118.136C317.372 118.541 317.664 118.852 318.039 119.07C318.414 119.283 318.853 119.389 319.355 119.389C319.692 119.389 319.997 119.342 320.269 119.249C320.542 119.151 320.779 119.008 320.979 118.82C321.179 118.633 321.331 118.401 321.433 118.124L323.593 118.366C323.457 118.937 323.197 119.436 322.813 119.862C322.434 120.284 321.948 120.612 321.356 120.847C320.764 121.077 320.086 121.192 319.323 121.192ZM330.399 111.182V112.972H324.755V111.182H330.399ZM326.149 108.83H328.463V118.047C328.463 118.358 328.51 118.597 328.603 118.763C328.701 118.925 328.829 119.036 328.987 119.095C329.144 119.155 329.319 119.185 329.511 119.185C329.656 119.185 329.788 119.174 329.907 119.153C330.031 119.131 330.125 119.112 330.188 119.095L330.578 120.904C330.455 120.947 330.278 120.994 330.048 121.045C329.822 121.096 329.545 121.126 329.217 121.134C328.637 121.151 328.115 121.064 327.651 120.872C327.186 120.676 326.818 120.374 326.545 119.964C326.277 119.555 326.144 119.044 326.149 118.43V108.83ZM336.426 121.192C335.441 121.192 334.591 120.987 333.875 120.578C333.164 120.165 332.616 119.581 332.233 118.827C331.849 118.068 331.657 117.175 331.657 116.148C331.657 115.138 331.849 114.252 332.233 113.489C332.62 112.722 333.162 112.126 333.856 111.7C334.551 111.269 335.367 111.054 336.304 111.054C336.909 111.054 337.48 111.152 338.017 111.348C338.559 111.54 339.036 111.838 339.449 112.243C339.867 112.648 340.195 113.163 340.434 113.79C340.672 114.412 340.792 115.153 340.792 116.014V116.724H332.744V115.164H338.573C338.569 114.721 338.473 114.327 338.286 113.982C338.098 113.632 337.836 113.357 337.5 113.157C337.167 112.957 336.779 112.857 336.336 112.857C335.863 112.857 335.448 112.972 335.09 113.202C334.732 113.428 334.453 113.726 334.252 114.097C334.056 114.463 333.956 114.866 333.952 115.305V116.666C333.952 117.237 334.056 117.727 334.265 118.136C334.474 118.541 334.766 118.852 335.141 119.07C335.516 119.283 335.955 119.389 336.458 119.389C336.794 119.389 337.099 119.342 337.372 119.249C337.644 119.151 337.881 119.008 338.081 118.82C338.282 118.633 338.433 118.401 338.535 118.124L340.696 118.366C340.559 118.937 340.299 119.436 339.916 119.862C339.537 120.284 339.051 120.612 338.458 120.847C337.866 121.077 337.189 121.192 336.426 121.192ZM346.243 121.173C345.471 121.173 344.781 120.974 344.172 120.578C343.562 120.182 343.081 119.607 342.727 118.852C342.373 118.098 342.196 117.182 342.196 116.104C342.196 115.013 342.375 114.092 342.733 113.342C343.096 112.588 343.583 112.019 344.197 111.636C344.811 111.248 345.495 111.054 346.249 111.054C346.824 111.054 347.297 111.152 347.668 111.348C348.039 111.54 348.333 111.772 348.55 112.045C348.767 112.313 348.936 112.567 349.055 112.805H349.151V107.909H351.471V121H349.196V119.453H349.055C348.936 119.692 348.763 119.945 348.537 120.214C348.311 120.478 348.013 120.704 347.642 120.891C347.272 121.079 346.805 121.173 346.243 121.173ZM346.888 119.274C347.378 119.274 347.796 119.142 348.141 118.878C348.486 118.609 348.748 118.237 348.927 117.759C349.106 117.282 349.196 116.726 349.196 116.091C349.196 115.456 349.106 114.904 348.927 114.435C348.752 113.967 348.493 113.602 348.147 113.342C347.806 113.082 347.387 112.952 346.888 112.952C346.373 112.952 345.942 113.087 345.597 113.355C345.252 113.624 344.992 113.994 344.817 114.467C344.642 114.94 344.555 115.482 344.555 116.091C344.555 116.705 344.642 117.252 344.817 117.734C344.996 118.211 345.258 118.588 345.603 118.865C345.953 119.138 346.381 119.274 346.888 119.274Z" fill="white" fill-opacity="0.95"/>
<path d="M115.579 134.273H116.789L119.21 138.347H119.312L121.733 134.273H122.943L119.789 139.403V143H118.733V139.403L115.579 134.273ZM125.763 143.136C125.172 143.136 124.653 142.996 124.207 142.714C123.764 142.433 123.417 142.04 123.167 141.534C122.92 141.028 122.797 140.437 122.797 139.761C122.797 139.08 122.92 138.484 123.167 137.976C123.417 137.467 123.764 137.072 124.207 136.791C124.653 136.51 125.172 136.369 125.763 136.369C126.354 136.369 126.871 136.51 127.314 136.791C127.76 137.072 128.106 137.467 128.354 137.976C128.604 138.484 128.729 139.08 128.729 139.761C128.729 140.437 128.604 141.028 128.354 141.534C128.106 142.04 127.76 142.433 127.314 142.714C126.871 142.996 126.354 143.136 125.763 143.136ZM125.763 142.233C126.211 142.233 126.581 142.118 126.871 141.888C127.16 141.658 127.375 141.355 127.514 140.98C127.653 140.605 127.723 140.199 127.723 139.761C127.723 139.324 127.653 138.916 127.514 138.538C127.375 138.161 127.16 137.855 126.871 137.622C126.581 137.389 126.211 137.273 125.763 137.273C125.314 137.273 124.944 137.389 124.655 137.622C124.365 137.855 124.15 138.161 124.011 138.538C123.872 138.916 123.802 139.324 123.802 139.761C123.802 140.199 123.872 140.605 124.011 140.98C124.15 141.355 124.365 141.658 124.655 141.888C124.944 142.118 125.314 142.233 125.763 142.233ZM134.245 140.324V136.455H135.25V143H134.245V141.892H134.177C134.023 142.224 133.784 142.507 133.461 142.74C133.137 142.97 132.728 143.085 132.233 143.085C131.824 143.085 131.461 142.996 131.142 142.817C130.824 142.635 130.574 142.362 130.392 141.999C130.211 141.632 130.12 141.17 130.12 140.614V136.455H131.125V140.545C131.125 141.023 131.259 141.403 131.526 141.688C131.796 141.972 132.14 142.114 132.557 142.114C132.807 142.114 133.061 142.05 133.32 141.922C133.581 141.794 133.8 141.598 133.976 141.334C134.155 141.07 134.245 140.733 134.245 140.324ZM136.948 143V136.455H137.92V137.443H137.988C138.107 137.119 138.323 136.857 138.636 136.655C138.948 136.453 139.301 136.352 139.693 136.352C139.767 136.352 139.859 136.354 139.97 136.357C140.08 136.359 140.164 136.364 140.221 136.369V137.392C140.187 137.384 140.109 137.371 139.987 137.354C139.867 137.334 139.741 137.324 139.607 137.324C139.289 137.324 139.005 137.391 138.755 137.524C138.508 137.655 138.312 137.837 138.167 138.07C138.025 138.3 137.954 138.562 137.954 138.858V143H136.948ZM144.995 143H143.887L147.091 134.273H148.182L151.387 143H150.279L147.671 135.653H147.602L144.995 143ZM145.404 139.591H149.87V140.528H145.404V139.591ZM157.102 137.92L156.199 138.176C156.142 138.026 156.058 137.879 155.947 137.737C155.839 137.592 155.691 137.473 155.504 137.379C155.316 137.286 155.076 137.239 154.784 137.239C154.383 137.239 154.049 137.331 153.782 137.516C153.518 137.697 153.386 137.929 153.386 138.21C153.386 138.46 153.477 138.658 153.659 138.803C153.841 138.947 154.125 139.068 154.511 139.165L155.483 139.403C156.068 139.545 156.504 139.763 156.791 140.055C157.078 140.345 157.221 140.719 157.221 141.176C157.221 141.551 157.113 141.886 156.897 142.182C156.684 142.477 156.386 142.71 156.003 142.881C155.619 143.051 155.173 143.136 154.664 143.136C153.997 143.136 153.444 142.991 153.007 142.702C152.569 142.412 152.292 141.989 152.176 141.432L153.13 141.193C153.221 141.545 153.393 141.81 153.646 141.986C153.902 142.162 154.235 142.25 154.647 142.25C155.116 142.25 155.488 142.151 155.764 141.952C156.042 141.75 156.181 141.509 156.181 141.227C156.181 141 156.102 140.81 155.943 140.656C155.784 140.5 155.539 140.384 155.21 140.307L154.119 140.051C153.52 139.909 153.079 139.689 152.798 139.391C152.52 139.089 152.38 138.713 152.38 138.261C152.38 137.892 152.484 137.565 152.691 137.281C152.902 136.997 153.187 136.774 153.548 136.612C153.912 136.45 154.324 136.369 154.784 136.369C155.431 136.369 155.94 136.511 156.309 136.795C156.681 137.08 156.946 137.455 157.102 137.92ZM163.227 137.92L162.324 138.176C162.267 138.026 162.183 137.879 162.073 137.737C161.965 137.592 161.817 137.473 161.629 137.379C161.442 137.286 161.202 137.239 160.909 137.239C160.509 137.239 160.175 137.331 159.908 137.516C159.644 137.697 159.512 137.929 159.512 138.21C159.512 138.46 159.602 138.658 159.784 138.803C159.966 138.947 160.25 139.068 160.637 139.165L161.608 139.403C162.193 139.545 162.629 139.763 162.916 140.055C163.203 140.345 163.347 140.719 163.347 141.176C163.347 141.551 163.239 141.886 163.023 142.182C162.81 142.477 162.512 142.71 162.128 142.881C161.745 143.051 161.298 143.136 160.79 143.136C160.122 143.136 159.57 142.991 159.132 142.702C158.695 142.412 158.418 141.989 158.301 141.432L159.256 141.193C159.347 141.545 159.519 141.81 159.772 141.986C160.027 142.162 160.361 142.25 160.773 142.25C161.242 142.25 161.614 142.151 161.889 141.952C162.168 141.75 162.307 141.509 162.307 141.227C162.307 141 162.227 140.81 162.068 140.656C161.909 140.5 161.665 140.384 161.335 140.307L160.245 140.051C159.645 139.909 159.205 139.689 158.923 139.391C158.645 139.089 158.506 138.713 158.506 138.261C158.506 137.892 158.61 137.565 158.817 137.281C159.027 136.997 159.313 136.774 159.673 136.612C160.037 136.45 160.449 136.369 160.909 136.369C161.557 136.369 162.066 136.511 162.435 136.795C162.807 137.08 163.071 137.455 163.227 137.92ZM167.461 143.136C166.83 143.136 166.286 142.997 165.829 142.719C165.374 142.438 165.023 142.045 164.776 141.543C164.532 141.037 164.41 140.449 164.41 139.778C164.41 139.108 164.532 138.517 164.776 138.006C165.023 137.491 165.367 137.091 165.808 136.804C166.251 136.514 166.768 136.369 167.359 136.369C167.7 136.369 168.036 136.426 168.369 136.54C168.701 136.653 169.004 136.838 169.276 137.094C169.549 137.347 169.766 137.682 169.928 138.099C170.09 138.517 170.171 139.031 170.171 139.642V140.068H165.126V139.199H169.148C169.148 138.83 169.075 138.5 168.927 138.21C168.782 137.92 168.575 137.692 168.305 137.524C168.038 137.357 167.722 137.273 167.359 137.273C166.958 137.273 166.612 137.372 166.319 137.571C166.029 137.767 165.806 138.023 165.65 138.338C165.494 138.653 165.415 138.991 165.415 139.352V139.932C165.415 140.426 165.501 140.845 165.671 141.189C165.844 141.53 166.085 141.79 166.391 141.969C166.698 142.145 167.055 142.233 167.461 142.233C167.725 142.233 167.964 142.196 168.177 142.122C168.393 142.045 168.579 141.932 168.735 141.781C168.891 141.628 169.012 141.437 169.097 141.21L170.069 141.483C169.967 141.812 169.795 142.102 169.553 142.352C169.312 142.599 169.014 142.793 168.658 142.932C168.303 143.068 167.904 143.136 167.461 143.136ZM174.404 136.455V137.307H171.012V136.455H174.404ZM172 134.886H173.006V141.125C173.006 141.409 173.047 141.622 173.129 141.764C173.215 141.903 173.323 141.997 173.453 142.045C173.587 142.091 173.727 142.114 173.875 142.114C173.986 142.114 174.077 142.108 174.148 142.097C174.219 142.082 174.276 142.071 174.318 142.062L174.523 142.966C174.455 142.991 174.36 143.017 174.237 143.043C174.115 143.071 173.96 143.085 173.773 143.085C173.489 143.085 173.21 143.024 172.938 142.902C172.668 142.78 172.443 142.594 172.264 142.344C172.088 142.094 172 141.778 172 141.398V134.886ZM180.292 137.92L179.388 138.176C179.331 138.026 179.248 137.879 179.137 137.737C179.029 137.592 178.881 137.473 178.694 137.379C178.506 137.286 178.266 137.239 177.973 137.239C177.573 137.239 177.239 137.331 176.972 137.516C176.708 137.697 176.576 137.929 176.576 138.21C176.576 138.46 176.667 138.658 176.848 138.803C177.03 138.947 177.314 139.068 177.701 139.165L178.672 139.403C179.257 139.545 179.694 139.763 179.98 140.055C180.267 140.345 180.411 140.719 180.411 141.176C180.411 141.551 180.303 141.886 180.087 142.182C179.874 142.477 179.576 142.71 179.192 142.881C178.809 143.051 178.363 143.136 177.854 143.136C177.186 143.136 176.634 142.991 176.196 142.702C175.759 142.412 175.482 141.989 175.365 141.432L176.32 141.193C176.411 141.545 176.583 141.81 176.836 141.986C177.091 142.162 177.425 142.25 177.837 142.25C178.306 142.25 178.678 142.151 178.953 141.952C179.232 141.75 179.371 141.509 179.371 141.227C179.371 141 179.292 140.81 179.132 140.656C178.973 140.5 178.729 140.384 178.4 140.307L177.309 140.051C176.709 139.909 176.269 139.689 175.988 139.391C175.709 139.089 175.57 138.713 175.57 138.261C175.57 137.892 175.674 137.565 175.881 137.281C176.091 136.997 176.377 136.774 176.738 136.612C177.101 136.45 177.513 136.369 177.973 136.369C178.621 136.369 179.13 136.511 179.499 136.795C179.871 137.08 180.135 137.455 180.292 137.92ZM186.017 139.062V143H185.012V134.273H186.017V137.477H186.103C186.256 137.139 186.486 136.871 186.793 136.672C187.103 136.47 187.515 136.369 188.029 136.369C188.475 136.369 188.865 136.459 189.201 136.638C189.536 136.814 189.796 137.085 189.98 137.452C190.168 137.815 190.262 138.278 190.262 138.841V143H189.256V138.909C189.256 138.389 189.121 137.987 188.851 137.703C188.584 137.416 188.213 137.273 187.739 137.273C187.409 137.273 187.114 137.342 186.853 137.482C186.594 137.621 186.39 137.824 186.239 138.091C186.091 138.358 186.017 138.682 186.017 139.062ZM193.884 143.153C193.469 143.153 193.093 143.075 192.754 142.919C192.416 142.76 192.148 142.531 191.949 142.233C191.75 141.932 191.651 141.568 191.651 141.142C191.651 140.767 191.725 140.463 191.872 140.23C192.02 139.994 192.218 139.81 192.465 139.676C192.712 139.543 192.985 139.443 193.283 139.378C193.584 139.31 193.887 139.256 194.191 139.216C194.588 139.165 194.911 139.126 195.158 139.101C195.408 139.072 195.59 139.026 195.703 138.96C195.82 138.895 195.878 138.781 195.878 138.619V138.585C195.878 138.165 195.763 137.838 195.533 137.605C195.306 137.372 194.96 137.256 194.497 137.256C194.017 137.256 193.641 137.361 193.368 137.571C193.095 137.781 192.904 138.006 192.793 138.244L191.838 137.903C192.009 137.506 192.236 137.196 192.52 136.974C192.807 136.75 193.12 136.594 193.458 136.506C193.798 136.415 194.134 136.369 194.463 136.369C194.673 136.369 194.915 136.395 195.188 136.446C195.463 136.494 195.729 136.595 195.985 136.749C196.243 136.902 196.458 137.134 196.628 137.443C196.798 137.753 196.884 138.168 196.884 138.688V143H195.878V142.114H195.827C195.759 142.256 195.645 142.408 195.486 142.57C195.327 142.732 195.115 142.869 194.851 142.983C194.587 143.097 194.264 143.153 193.884 143.153ZM194.037 142.25C194.435 142.25 194.77 142.172 195.043 142.016C195.318 141.859 195.526 141.658 195.665 141.411C195.807 141.163 195.878 140.903 195.878 140.631V139.71C195.835 139.761 195.742 139.808 195.597 139.851C195.455 139.891 195.29 139.926 195.102 139.957C194.918 139.986 194.737 140.011 194.561 140.034C194.388 140.054 194.247 140.071 194.139 140.085C193.878 140.119 193.634 140.175 193.406 140.251C193.182 140.325 193 140.437 192.861 140.588C192.725 140.736 192.656 140.937 192.656 141.193C192.656 141.543 192.786 141.807 193.044 141.986C193.306 142.162 193.637 142.25 194.037 142.25ZM203.212 137.92L202.308 138.176C202.251 138.026 202.168 137.879 202.057 137.737C201.949 137.592 201.801 137.473 201.614 137.379C201.426 137.286 201.186 137.239 200.893 137.239C200.493 137.239 200.159 137.331 199.892 137.516C199.628 137.697 199.496 137.929 199.496 138.21C199.496 138.46 199.587 138.658 199.768 138.803C199.95 138.947 200.234 139.068 200.621 139.165L201.592 139.403C202.178 139.545 202.614 139.763 202.901 140.055C203.188 140.345 203.331 140.719 203.331 141.176C203.331 141.551 203.223 141.886 203.007 142.182C202.794 142.477 202.496 142.71 202.112 142.881C201.729 143.051 201.283 143.136 200.774 143.136C200.107 143.136 199.554 142.991 199.116 142.702C198.679 142.412 198.402 141.989 198.286 141.432L199.24 141.193C199.331 141.545 199.503 141.81 199.756 141.986C200.011 142.162 200.345 142.25 200.757 142.25C201.226 142.25 201.598 142.151 201.874 141.952C202.152 141.75 202.291 141.509 202.291 141.227C202.291 141 202.212 140.81 202.053 140.656C201.893 140.5 201.649 140.384 201.32 140.307L200.229 140.051C199.629 139.909 199.189 139.689 198.908 139.391C198.629 139.089 198.49 138.713 198.49 138.261C198.49 137.892 198.594 137.565 198.801 137.281C199.011 136.997 199.297 136.774 199.658 136.612C200.021 136.45 200.433 136.369 200.893 136.369C201.541 136.369 202.05 136.511 202.419 136.795C202.791 137.08 203.055 137.455 203.212 137.92ZM208.068 143V134.273H209.074V137.494H209.159C209.233 137.381 209.335 137.236 209.466 137.06C209.599 136.881 209.79 136.722 210.037 136.582C210.287 136.44 210.625 136.369 211.051 136.369C211.602 136.369 212.088 136.507 212.509 136.783C212.929 137.058 213.257 137.449 213.493 137.955C213.729 138.46 213.847 139.057 213.847 139.744C213.847 140.438 213.729 141.038 213.493 141.547C213.257 142.053 212.93 142.445 212.513 142.723C212.095 142.999 211.614 143.136 211.068 143.136C210.648 143.136 210.311 143.067 210.058 142.928C209.805 142.786 209.611 142.625 209.474 142.446C209.338 142.264 209.233 142.114 209.159 141.994H209.04V143H208.068ZM209.057 139.727C209.057 140.222 209.129 140.658 209.274 141.036C209.419 141.411 209.631 141.705 209.909 141.918C210.188 142.128 210.528 142.233 210.932 142.233C211.352 142.233 211.703 142.122 211.984 141.901C212.268 141.676 212.482 141.375 212.624 140.997C212.768 140.616 212.841 140.193 212.841 139.727C212.841 139.267 212.77 138.852 212.628 138.483C212.489 138.111 212.277 137.817 211.993 137.601C211.712 137.382 211.358 137.273 210.932 137.273C210.523 137.273 210.179 137.376 209.901 137.584C209.622 137.788 209.412 138.075 209.27 138.445C209.128 138.811 209.057 139.239 209.057 139.727ZM217.985 143.136C217.355 143.136 216.811 142.997 216.353 142.719C215.899 142.438 215.548 142.045 215.301 141.543C215.056 141.037 214.934 140.449 214.934 139.778C214.934 139.108 215.056 138.517 215.301 138.006C215.548 137.491 215.892 137.091 216.332 136.804C216.775 136.514 217.292 136.369 217.883 136.369C218.224 136.369 218.561 136.426 218.893 136.54C219.225 136.653 219.528 136.838 219.801 137.094C220.073 137.347 220.291 137.682 220.453 138.099C220.615 138.517 220.695 139.031 220.695 139.642V140.068H215.65V139.199H219.673C219.673 138.83 219.599 138.5 219.451 138.21C219.306 137.92 219.099 137.692 218.829 137.524C218.562 137.357 218.247 137.273 217.883 137.273C217.482 137.273 217.136 137.372 216.843 137.571C216.553 137.767 216.33 138.023 216.174 138.338C216.018 138.653 215.94 138.991 215.94 139.352V139.932C215.94 140.426 216.025 140.845 216.195 141.189C216.369 141.53 216.609 141.79 216.916 141.969C217.222 142.145 217.579 142.233 217.985 142.233C218.249 142.233 218.488 142.196 218.701 142.122C218.917 142.045 219.103 141.932 219.259 141.781C219.416 141.628 219.536 141.437 219.622 141.21L220.593 141.483C220.491 141.812 220.319 142.102 220.078 142.352C219.836 142.599 219.538 142.793 219.183 142.932C218.828 143.068 218.428 143.136 217.985 143.136ZM224.826 143.136C224.195 143.136 223.651 142.997 223.194 142.719C222.739 142.438 222.388 142.045 222.141 141.543C221.897 141.037 221.775 140.449 221.775 139.778C221.775 139.108 221.897 138.517 222.141 138.006C222.388 137.491 222.732 137.091 223.172 136.804C223.615 136.514 224.132 136.369 224.723 136.369C225.064 136.369 225.401 136.426 225.733 136.54C226.066 136.653 226.368 136.838 226.641 137.094C226.914 137.347 227.131 137.682 227.293 138.099C227.455 138.517 227.536 139.031 227.536 139.642V140.068H222.49V139.199H226.513C226.513 138.83 226.439 138.5 226.292 138.21C226.147 137.92 225.939 137.692 225.669 137.524C225.402 137.357 225.087 137.273 224.723 137.273C224.323 137.273 223.976 137.372 223.684 137.571C223.394 137.767 223.171 138.023 223.015 138.338C222.858 138.653 222.78 138.991 222.78 139.352V139.932C222.78 140.426 222.865 140.845 223.036 141.189C223.209 141.53 223.449 141.79 223.756 141.969C224.063 142.145 224.419 142.233 224.826 142.233C225.09 142.233 225.328 142.196 225.542 142.122C225.757 142.045 225.944 141.932 226.1 141.781C226.256 141.628 226.377 141.437 226.462 141.21L227.434 141.483C227.331 141.812 227.159 142.102 226.918 142.352C226.676 142.599 226.378 142.793 226.023 142.932C225.668 143.068 225.269 143.136 224.826 143.136ZM229.927 139.062V143H228.922V136.455H229.893V137.477H229.979C230.132 137.145 230.365 136.878 230.677 136.676C230.99 136.472 231.393 136.369 231.888 136.369C232.331 136.369 232.719 136.46 233.051 136.642C233.383 136.821 233.642 137.094 233.827 137.46C234.011 137.824 234.104 138.284 234.104 138.841V143H233.098V138.909C233.098 138.395 232.964 137.994 232.697 137.707C232.43 137.418 232.064 137.273 231.598 137.273C231.277 137.273 230.99 137.342 230.737 137.482C230.487 137.621 230.29 137.824 230.145 138.091C230 138.358 229.927 138.682 229.927 139.062ZM243.665 137.92L242.761 138.176C242.704 138.026 242.621 137.879 242.51 137.737C242.402 137.592 242.254 137.473 242.067 137.379C241.879 137.286 241.639 137.239 241.346 137.239C240.946 137.239 240.612 137.331 240.345 137.516C240.081 137.697 239.949 137.929 239.949 138.21C239.949 138.46 240.04 138.658 240.221 138.803C240.403 138.947 240.687 139.068 241.074 139.165L242.045 139.403C242.631 139.545 243.067 139.763 243.354 140.055C243.64 140.345 243.784 140.719 243.784 141.176C243.784 141.551 243.676 141.886 243.46 142.182C243.247 142.477 242.949 142.71 242.565 142.881C242.182 143.051 241.736 143.136 241.227 143.136C240.559 143.136 240.007 142.991 239.569 142.702C239.132 142.412 238.855 141.989 238.738 141.432L239.693 141.193C239.784 141.545 239.956 141.81 240.209 141.986C240.464 142.162 240.798 142.25 241.21 142.25C241.679 142.25 242.051 142.151 242.327 141.952C242.605 141.75 242.744 141.509 242.744 141.227C242.744 141 242.665 140.81 242.506 140.656C242.346 140.5 242.102 140.384 241.773 140.307L240.682 140.051C240.082 139.909 239.642 139.689 239.361 139.391C239.082 139.089 238.943 138.713 238.943 138.261C238.943 137.892 239.047 137.565 239.254 137.281C239.464 136.997 239.75 136.774 240.111 136.612C240.474 136.45 240.886 136.369 241.346 136.369C241.994 136.369 242.503 136.511 242.872 136.795C243.244 137.08 243.508 137.455 243.665 137.92ZM249.279 140.324V136.455H250.284V143H249.279V141.892H249.211C249.057 142.224 248.819 142.507 248.495 142.74C248.171 142.97 247.762 143.085 247.267 143.085C246.858 143.085 246.495 142.996 246.176 142.817C245.858 142.635 245.608 142.362 245.426 141.999C245.245 141.632 245.154 141.17 245.154 140.614V136.455H246.159V140.545C246.159 141.023 246.293 141.403 246.56 141.688C246.83 141.972 247.174 142.114 247.591 142.114C247.841 142.114 248.096 142.05 248.354 141.922C248.615 141.794 248.834 141.598 249.01 141.334C249.189 141.07 249.279 140.733 249.279 140.324ZM251.982 145.455V136.455H252.954V137.494H253.073C253.147 137.381 253.249 137.236 253.38 137.06C253.514 136.881 253.704 136.722 253.951 136.582C254.201 136.44 254.539 136.369 254.965 136.369C255.517 136.369 256.002 136.507 256.423 136.783C256.843 137.058 257.171 137.449 257.407 137.955C257.643 138.46 257.761 139.057 257.761 139.744C257.761 140.438 257.643 141.038 257.407 141.547C257.171 142.053 256.845 142.445 256.427 142.723C256.009 142.999 255.528 143.136 254.982 143.136C254.562 143.136 254.225 143.067 253.972 142.928C253.72 142.786 253.525 142.625 253.389 142.446C253.252 142.264 253.147 142.114 253.073 141.994H252.988V145.455H251.982ZM252.971 139.727C252.971 140.222 253.044 140.658 253.188 141.036C253.333 141.411 253.545 141.705 253.823 141.918C254.102 142.128 254.443 142.233 254.846 142.233C255.267 142.233 255.617 142.122 255.899 141.901C256.183 141.676 256.396 141.375 256.538 140.997C256.683 140.616 256.755 140.193 256.755 139.727C256.755 139.267 256.684 138.852 256.542 138.483C256.403 138.111 256.191 137.817 255.907 137.601C255.626 137.382 255.272 137.273 254.846 137.273C254.437 137.273 254.093 137.376 253.815 137.584C253.536 137.788 253.326 138.075 253.184 138.445C253.042 138.811 252.971 139.239 252.971 139.727ZM259.151 145.455V136.455H260.123V137.494H260.242C260.316 137.381 260.418 137.236 260.549 137.06C260.682 136.881 260.873 136.722 261.12 136.582C261.37 136.44 261.708 136.369 262.134 136.369C262.685 136.369 263.171 136.507 263.591 136.783C264.012 137.058 264.34 137.449 264.576 137.955C264.811 138.46 264.929 139.057 264.929 139.744C264.929 140.438 264.811 141.038 264.576 141.547C264.34 142.053 264.013 142.445 263.596 142.723C263.178 142.999 262.696 143.136 262.151 143.136C261.73 143.136 261.394 143.067 261.141 142.928C260.888 142.786 260.694 142.625 260.557 142.446C260.421 142.264 260.316 142.114 260.242 141.994H260.157V145.455H259.151ZM260.14 139.727C260.14 140.222 260.212 140.658 260.357 141.036C260.502 141.411 260.713 141.705 260.992 141.918C261.27 142.128 261.611 142.233 262.015 142.233C262.435 142.233 262.786 142.122 263.067 141.901C263.351 141.676 263.564 141.375 263.706 140.997C263.851 140.616 263.924 140.193 263.924 139.727C263.924 139.267 263.853 138.852 263.711 138.483C263.571 138.111 263.36 137.817 263.076 137.601C262.794 137.382 262.441 137.273 262.015 137.273C261.605 137.273 261.262 137.376 260.983 137.584C260.705 137.788 260.495 138.075 260.353 138.445C260.211 138.811 260.14 139.239 260.14 139.727ZM267.325 134.273V143H266.319V134.273H267.325ZM269.023 143V136.455H270.029V143H269.023ZM269.534 135.364C269.338 135.364 269.169 135.297 269.027 135.163C268.888 135.03 268.819 134.869 268.819 134.682C268.819 134.494 268.888 134.334 269.027 134.2C269.169 134.067 269.338 134 269.534 134C269.73 134 269.898 134.067 270.037 134.2C270.179 134.334 270.25 134.494 270.25 134.682C270.25 134.869 270.179 135.03 270.037 135.163C269.898 135.297 269.73 135.364 269.534 135.364ZM274.471 143.136C273.84 143.136 273.296 142.997 272.839 142.719C272.384 142.438 272.034 142.045 271.786 141.543C271.542 141.037 271.42 140.449 271.42 139.778C271.42 139.108 271.542 138.517 271.786 138.006C272.034 137.491 272.377 137.091 272.818 136.804C273.261 136.514 273.778 136.369 274.369 136.369C274.71 136.369 275.046 136.426 275.379 136.54C275.711 136.653 276.014 136.838 276.286 137.094C276.559 137.347 276.776 137.682 276.938 138.099C277.1 138.517 277.181 139.031 277.181 139.642V140.068H272.136V139.199H276.159C276.159 138.83 276.085 138.5 275.937 138.21C275.792 137.92 275.585 137.692 275.315 137.524C275.048 137.357 274.732 137.273 274.369 137.273C273.968 137.273 273.622 137.372 273.329 137.571C273.039 137.767 272.816 138.023 272.66 138.338C272.504 138.653 272.426 138.991 272.426 139.352V139.932C272.426 140.426 272.511 140.845 272.681 141.189C272.855 141.53 273.095 141.79 273.401 141.969C273.708 142.145 274.065 142.233 274.471 142.233C274.735 142.233 274.974 142.196 275.187 142.122C275.403 142.045 275.589 141.932 275.745 141.781C275.901 141.628 276.022 141.437 276.107 141.21L277.079 141.483C276.977 141.812 276.805 142.102 276.563 142.352C276.322 142.599 276.024 142.793 275.668 142.932C275.313 143.068 274.914 143.136 274.471 143.136ZM281.039 143.136C280.493 143.136 280.012 142.999 279.594 142.723C279.176 142.445 278.85 142.053 278.614 141.547C278.378 141.038 278.26 140.438 278.26 139.744C278.26 139.057 278.378 138.46 278.614 137.955C278.85 137.449 279.178 137.058 279.598 136.783C280.019 136.507 280.505 136.369 281.056 136.369C281.482 136.369 281.819 136.44 282.066 136.582C282.316 136.722 282.506 136.881 282.637 137.06C282.77 137.236 282.874 137.381 282.948 137.494H283.033V134.273H284.039V143H283.067V141.994H282.948C282.874 142.114 282.769 142.264 282.632 142.446C282.496 142.625 282.301 142.786 282.049 142.928C281.796 143.067 281.459 143.136 281.039 143.136ZM281.175 142.233C281.578 142.233 281.919 142.128 282.198 141.918C282.476 141.705 282.688 141.411 282.833 141.036C282.978 140.658 283.05 140.222 283.05 139.727C283.05 139.239 282.979 138.811 282.837 138.445C282.695 138.075 282.485 137.788 282.206 137.584C281.928 137.376 281.584 137.273 281.175 137.273C280.749 137.273 280.394 137.382 280.11 137.601C279.828 137.817 279.617 138.111 279.475 138.483C279.336 138.852 279.266 139.267 279.266 139.727C279.266 140.193 279.337 140.616 279.479 140.997C279.624 141.375 279.837 141.676 280.118 141.901C280.402 142.122 280.755 142.233 281.175 142.233ZM287.376 141.807L287.308 142.267C287.26 142.591 287.186 142.938 287.086 143.307C286.99 143.676 286.889 144.024 286.784 144.351C286.679 144.678 286.592 144.938 286.524 145.131H285.757C285.794 144.949 285.842 144.709 285.902 144.411C285.961 144.112 286.021 143.778 286.081 143.409C286.143 143.043 286.194 142.668 286.234 142.284L286.285 141.807H287.376ZM292.974 145.455C292.804 145.455 292.652 145.44 292.518 145.412C292.385 145.386 292.292 145.361 292.241 145.335L292.497 144.449C292.741 144.511 292.957 144.534 293.145 144.517C293.332 144.5 293.498 144.416 293.643 144.266C293.791 144.118 293.926 143.878 294.048 143.545L294.236 143.034L291.815 136.455H292.906L294.713 141.67H294.781L296.588 136.455H297.679L294.9 143.955C294.775 144.293 294.621 144.572 294.436 144.794C294.251 145.018 294.037 145.185 293.792 145.293C293.551 145.401 293.278 145.455 292.974 145.455ZM301.287 143.136C300.696 143.136 300.178 142.996 299.732 142.714C299.288 142.433 298.942 142.04 298.692 141.534C298.445 141.028 298.321 140.437 298.321 139.761C298.321 139.08 298.445 138.484 298.692 137.976C298.942 137.467 299.288 137.072 299.732 136.791C300.178 136.51 300.696 136.369 301.287 136.369C301.878 136.369 302.395 136.51 302.838 136.791C303.284 137.072 303.631 137.467 303.878 137.976C304.128 138.484 304.253 139.08 304.253 139.761C304.253 140.437 304.128 141.028 303.878 141.534C303.631 142.04 303.284 142.433 302.838 142.714C302.395 142.996 301.878 143.136 301.287 143.136ZM301.287 142.233C301.736 142.233 302.105 142.118 302.395 141.888C302.685 141.658 302.899 141.355 303.038 140.98C303.178 140.605 303.247 140.199 303.247 139.761C303.247 139.324 303.178 138.916 303.038 138.538C302.899 138.161 302.685 137.855 302.395 137.622C302.105 137.389 301.736 137.273 301.287 137.273C300.838 137.273 300.469 137.389 300.179 137.622C299.889 137.855 299.675 138.161 299.535 138.538C299.396 138.916 299.327 139.324 299.327 139.761C299.327 140.199 299.396 140.605 299.535 140.98C299.675 141.355 299.889 141.658 300.179 141.888C300.469 142.118 300.838 142.233 301.287 142.233ZM309.769 140.324V136.455H310.775V143H309.769V141.892H309.701C309.547 142.224 309.309 142.507 308.985 142.74C308.661 142.97 308.252 143.085 307.758 143.085C307.349 143.085 306.985 142.996 306.667 142.817C306.349 142.635 306.099 142.362 305.917 141.999C305.735 141.632 305.644 141.17 305.644 140.614V136.455H306.65V140.545C306.65 141.023 306.783 141.403 307.05 141.688C307.32 141.972 307.664 142.114 308.081 142.114C308.331 142.114 308.586 142.05 308.844 141.922C309.106 141.794 309.324 141.598 309.501 141.334C309.679 141.07 309.769 140.733 309.769 140.324ZM318.363 143.136C317.749 143.136 317.221 142.991 316.778 142.702C316.334 142.412 315.993 142.013 315.755 141.504C315.516 140.996 315.397 140.415 315.397 139.761C315.397 139.097 315.519 138.51 315.763 138.001C316.01 137.49 316.354 137.091 316.795 136.804C317.238 136.514 317.755 136.369 318.346 136.369C318.806 136.369 319.221 136.455 319.59 136.625C319.959 136.795 320.262 137.034 320.498 137.341C320.733 137.648 320.88 138.006 320.937 138.415H319.931C319.854 138.116 319.684 137.852 319.42 137.622C319.158 137.389 318.806 137.273 318.363 137.273C317.971 137.273 317.627 137.375 317.331 137.58C317.039 137.781 316.81 138.067 316.645 138.436C316.483 138.803 316.403 139.233 316.403 139.727C316.403 140.233 316.482 140.673 316.641 141.048C316.803 141.423 317.03 141.714 317.323 141.922C317.618 142.129 317.965 142.233 318.363 142.233C318.624 142.233 318.861 142.188 319.074 142.097C319.287 142.006 319.468 141.875 319.616 141.705C319.763 141.534 319.868 141.33 319.931 141.091H320.937C320.88 141.477 320.739 141.825 320.515 142.135C320.293 142.442 319.999 142.686 319.633 142.868C319.269 143.047 318.846 143.136 318.363 143.136ZM324.189 143.153C323.774 143.153 323.398 143.075 323.06 142.919C322.722 142.76 322.453 142.531 322.254 142.233C322.055 141.932 321.956 141.568 321.956 141.142C321.956 140.767 322.03 140.463 322.178 140.23C322.325 139.994 322.523 139.81 322.77 139.676C323.017 139.543 323.29 139.443 323.588 139.378C323.889 139.31 324.192 139.256 324.496 139.216C324.893 139.165 325.216 139.126 325.463 139.101C325.713 139.072 325.895 139.026 326.008 138.96C326.125 138.895 326.183 138.781 326.183 138.619V138.585C326.183 138.165 326.068 137.838 325.838 137.605C325.611 137.372 325.266 137.256 324.803 137.256C324.322 137.256 323.946 137.361 323.673 137.571C323.401 137.781 323.209 138.006 323.098 138.244L322.143 137.903C322.314 137.506 322.541 137.196 322.825 136.974C323.112 136.75 323.425 136.594 323.763 136.506C324.104 136.415 324.439 136.369 324.768 136.369C324.979 136.369 325.22 136.395 325.493 136.446C325.768 136.494 326.034 136.595 326.29 136.749C326.548 136.902 326.763 137.134 326.933 137.443C327.104 137.753 327.189 138.168 327.189 138.688V143H326.183V142.114H326.132C326.064 142.256 325.95 142.408 325.791 142.57C325.632 142.732 325.42 142.869 325.156 142.983C324.892 143.097 324.57 143.153 324.189 143.153ZM324.342 142.25C324.74 142.25 325.075 142.172 325.348 142.016C325.624 141.859 325.831 141.658 325.97 141.411C326.112 141.163 326.183 140.903 326.183 140.631V139.71C326.141 139.761 326.047 139.808 325.902 139.851C325.76 139.891 325.595 139.926 325.408 139.957C325.223 139.986 325.043 140.011 324.866 140.034C324.693 140.054 324.553 140.071 324.445 140.085C324.183 140.119 323.939 140.175 323.712 140.251C323.487 140.325 323.305 140.437 323.166 140.588C323.03 140.736 322.962 140.937 322.962 141.193C322.962 141.543 323.091 141.807 323.349 141.986C323.611 142.162 323.942 142.25 324.342 142.25ZM329.886 139.062V143H328.88V136.455H329.852V137.477H329.937C330.091 137.145 330.324 136.878 330.636 136.676C330.949 136.472 331.352 136.369 331.846 136.369C332.29 136.369 332.677 136.46 333.01 136.642C333.342 136.821 333.601 137.094 333.785 137.46C333.97 137.824 334.062 138.284 334.062 138.841V143H333.057V138.909C333.057 138.395 332.923 137.994 332.656 137.707C332.389 137.418 332.023 137.273 331.557 137.273C331.236 137.273 330.949 137.342 330.696 137.482C330.446 137.621 330.248 137.824 330.103 138.091C329.959 138.358 329.886 138.682 329.886 139.062ZM341.646 143.136C341.032 143.136 340.504 142.991 340.061 142.702C339.618 142.412 339.277 142.013 339.038 141.504C338.8 140.996 338.68 140.415 338.68 139.761C338.68 139.097 338.802 138.51 339.047 138.001C339.294 137.49 339.638 137.091 340.078 136.804C340.521 136.514 341.038 136.369 341.629 136.369C342.089 136.369 342.504 136.455 342.873 136.625C343.243 136.795 343.545 137.034 343.781 137.341C344.017 137.648 344.163 138.006 344.22 138.415H343.214C343.138 138.116 342.967 137.852 342.703 137.622C342.442 137.389 342.089 137.273 341.646 137.273C341.254 137.273 340.91 137.375 340.615 137.58C340.322 137.781 340.094 138.067 339.929 138.436C339.767 138.803 339.686 139.233 339.686 139.727C339.686 140.233 339.765 140.673 339.925 141.048C340.086 141.423 340.314 141.714 340.606 141.922C340.902 142.129 341.248 142.233 341.646 142.233C341.907 142.233 342.145 142.188 342.358 142.097C342.571 142.006 342.751 141.875 342.899 141.705C343.047 141.534 343.152 141.33 343.214 141.091H344.22C344.163 141.477 344.023 141.825 343.798 142.135C343.577 142.442 343.282 142.686 342.916 142.868C342.552 143.047 342.129 143.136 341.646 143.136ZM346.552 139.062V143H345.546V134.273H346.552V137.477H346.637C346.79 137.139 347.021 136.871 347.327 136.672C347.637 136.47 348.049 136.369 348.563 136.369C349.009 136.369 349.4 136.459 349.735 136.638C350.07 136.814 350.33 137.085 350.515 137.452C350.702 137.815 350.796 138.278 350.796 138.841V143H349.79V138.909C349.79 138.389 349.656 137.987 349.386 137.703C349.119 137.416 348.748 137.273 348.273 137.273C347.944 137.273 347.648 137.342 347.387 137.482C347.129 137.621 346.924 137.824 346.773 138.091C346.626 138.358 346.552 138.682 346.552 139.062ZM355.236 143.136C354.606 143.136 354.062 142.997 353.604 142.719C353.15 142.438 352.799 142.045 352.552 141.543C352.307 141.037 352.185 140.449 352.185 139.778C352.185 139.108 352.307 138.517 352.552 138.006C352.799 137.491 353.143 137.091 353.583 136.804C354.026 136.514 354.543 136.369 355.134 136.369C355.475 136.369 355.812 136.426 356.144 136.54C356.476 136.653 356.779 136.838 357.052 137.094C357.324 137.347 357.542 137.682 357.704 138.099C357.866 138.517 357.947 139.031 357.947 139.642V140.068H352.901V139.199H356.924C356.924 138.83 356.85 138.5 356.702 138.21C356.557 137.92 356.35 137.692 356.08 137.524C355.813 137.357 355.498 137.273 355.134 137.273C354.733 137.273 354.387 137.372 354.094 137.571C353.804 137.767 353.581 138.023 353.425 138.338C353.269 138.653 353.191 138.991 353.191 139.352V139.932C353.191 140.426 353.276 140.845 353.447 141.189C353.62 141.53 353.86 141.79 354.167 141.969C354.474 142.145 354.83 142.233 355.236 142.233C355.5 142.233 355.739 142.196 355.952 142.122C356.168 142.045 356.354 141.932 356.51 141.781C356.667 141.628 356.787 141.437 356.873 141.21L357.844 141.483C357.742 141.812 357.57 142.102 357.329 142.352C357.087 142.599 356.789 142.793 356.434 142.932C356.079 143.068 355.679 143.136 355.236 143.136ZM361.991 143.136C361.378 143.136 360.849 142.991 360.406 142.702C359.963 142.412 359.622 142.013 359.383 141.504C359.145 140.996 359.026 140.415 359.026 139.761C359.026 139.097 359.148 138.51 359.392 138.001C359.639 137.49 359.983 137.091 360.423 136.804C360.866 136.514 361.383 136.369 361.974 136.369C362.435 136.369 362.849 136.455 363.219 136.625C363.588 136.795 363.891 137.034 364.126 137.341C364.362 137.648 364.508 138.006 364.565 138.415H363.56C363.483 138.116 363.312 137.852 363.048 137.622C362.787 137.389 362.435 137.273 361.991 137.273C361.599 137.273 361.256 137.375 360.96 137.58C360.668 137.781 360.439 138.067 360.274 138.436C360.112 138.803 360.031 139.233 360.031 139.727C360.031 140.233 360.111 140.673 360.27 141.048C360.432 141.423 360.659 141.714 360.952 141.922C361.247 142.129 361.594 142.233 361.991 142.233C362.253 142.233 362.49 142.188 362.703 142.097C362.916 142.006 363.097 141.875 363.244 141.705C363.392 141.534 363.497 141.33 363.56 141.091H364.565C364.508 141.477 364.368 141.825 364.143 142.135C363.922 142.442 363.628 142.686 363.261 142.868C362.898 143.047 362.474 143.136 361.991 143.136ZM366.829 140.614L366.812 139.369H367.016L369.88 136.455H371.124L368.073 139.54H367.988L366.829 140.614ZM365.891 143V134.273H366.897V143H365.891ZM370.051 143L367.494 139.761L368.21 139.062L371.329 143H370.051ZM378.352 136.455V137.307H374.96V136.455H378.352ZM375.949 134.886H376.955V141.125C376.955 141.409 376.996 141.622 377.078 141.764C377.163 141.903 377.271 141.997 377.402 142.045C377.536 142.091 377.676 142.114 377.824 142.114C377.935 142.114 378.026 142.108 378.097 142.097C378.168 142.082 378.225 142.071 378.267 142.062L378.472 142.966C378.404 142.991 378.308 143.017 378.186 143.043C378.064 143.071 377.909 143.085 377.722 143.085C377.438 143.085 377.159 143.024 376.886 142.902C376.617 142.78 376.392 142.594 376.213 142.344C376.037 142.094 375.949 141.778 375.949 141.398V134.886ZM380.868 139.062V143H379.862V134.273H380.868V137.477H380.953C381.106 137.139 381.336 136.871 381.643 136.672C381.953 136.47 382.365 136.369 382.879 136.369C383.325 136.369 383.716 136.459 384.051 136.638C384.386 136.814 384.646 137.085 384.831 137.452C385.018 137.815 385.112 138.278 385.112 138.841V143H384.106V138.909C384.106 138.389 383.971 137.987 383.701 137.703C383.434 137.416 383.064 137.273 382.589 137.273C382.26 137.273 381.964 137.342 381.703 137.482C381.444 137.621 381.24 137.824 381.089 138.091C380.941 138.358 380.868 138.682 380.868 139.062ZM389.552 143.136C388.921 143.136 388.377 142.997 387.92 142.719C387.465 142.438 387.114 142.045 386.867 141.543C386.623 141.037 386.501 140.449 386.501 139.778C386.501 139.108 386.623 138.517 386.867 138.006C387.114 137.491 387.458 137.091 387.899 136.804C388.342 136.514 388.859 136.369 389.45 136.369C389.791 136.369 390.127 136.426 390.46 136.54C390.792 136.653 391.095 136.838 391.367 137.094C391.64 137.347 391.857 137.682 392.019 138.099C392.181 138.517 392.262 139.031 392.262 139.642V140.068H387.217V139.199H391.239C391.239 138.83 391.166 138.5 391.018 138.21C390.873 137.92 390.666 137.692 390.396 137.524C390.129 137.357 389.813 137.273 389.45 137.273C389.049 137.273 388.703 137.372 388.41 137.571C388.12 137.767 387.897 138.023 387.741 138.338C387.585 138.653 387.507 138.991 387.507 139.352V139.932C387.507 140.426 387.592 140.845 387.762 141.189C387.936 141.53 388.176 141.79 388.482 141.969C388.789 142.145 389.146 142.233 389.552 142.233C389.816 142.233 390.055 142.196 390.268 142.122C390.484 142.045 390.67 141.932 390.826 141.781C390.982 141.628 391.103 141.437 391.188 141.21L392.16 141.483C392.058 141.812 391.886 142.102 391.644 142.352C391.403 142.599 391.105 142.793 390.749 142.932C390.394 143.068 389.995 143.136 389.552 143.136ZM143.199 159.136C142.654 159.136 142.172 158.999 141.755 158.723C141.337 158.445 141.01 158.053 140.775 157.547C140.539 157.038 140.421 156.438 140.421 155.744C140.421 155.057 140.539 154.46 140.775 153.955C141.01 153.449 141.338 153.058 141.759 152.783C142.179 152.507 142.665 152.369 143.216 152.369C143.642 152.369 143.979 152.44 144.226 152.582C144.476 152.722 144.667 152.881 144.797 153.06C144.931 153.236 145.034 153.381 145.108 153.494H145.194V150.273H146.199V159H145.228V157.994H145.108C145.034 158.114 144.929 158.264 144.793 158.446C144.657 158.625 144.462 158.786 144.209 158.928C143.956 159.067 143.62 159.136 143.199 159.136ZM143.336 158.233C143.739 158.233 144.08 158.128 144.358 157.918C144.637 157.705 144.848 157.411 144.993 157.036C145.138 156.658 145.211 156.222 145.211 155.727C145.211 155.239 145.14 154.811 144.998 154.445C144.856 154.075 144.645 153.788 144.367 153.584C144.088 153.376 143.745 153.273 143.336 153.273C142.909 153.273 142.554 153.382 142.27 153.601C141.989 153.817 141.777 154.111 141.635 154.483C141.496 154.852 141.427 155.267 141.427 155.727C141.427 156.193 141.498 156.616 141.64 156.997C141.784 157.375 141.998 157.676 142.279 157.901C142.563 158.122 142.915 158.233 143.336 158.233ZM150.781 159.136C150.15 159.136 149.606 158.997 149.149 158.719C148.694 158.438 148.344 158.045 148.096 157.543C147.852 157.037 147.73 156.449 147.73 155.778C147.73 155.108 147.852 154.517 148.096 154.006C148.344 153.491 148.687 153.091 149.128 152.804C149.571 152.514 150.088 152.369 150.679 152.369C151.02 152.369 151.356 152.426 151.689 152.54C152.021 152.653 152.324 152.838 152.596 153.094C152.869 153.347 153.086 153.682 153.248 154.099C153.41 154.517 153.491 155.031 153.491 155.642V156.068H148.446V155.199H152.469C152.469 154.83 152.395 154.5 152.247 154.21C152.102 153.92 151.895 153.692 151.625 153.524C151.358 153.357 151.042 153.273 150.679 153.273C150.278 153.273 149.932 153.372 149.639 153.571C149.349 153.767 149.126 154.023 148.97 154.338C148.814 154.653 148.736 154.991 148.736 155.352V155.932C148.736 156.426 148.821 156.845 148.991 157.189C149.165 157.53 149.405 157.79 149.711 157.969C150.018 158.145 150.375 158.233 150.781 158.233C151.045 158.233 151.284 158.196 151.497 158.122C151.713 158.045 151.899 157.932 152.055 157.781C152.211 157.628 152.332 157.437 152.417 157.21L153.389 157.483C153.287 157.812 153.115 158.102 152.873 158.352C152.632 158.599 152.334 158.793 151.979 158.932C151.623 159.068 151.224 159.136 150.781 159.136ZM157.724 152.455V153.307H154.332V152.455H157.724ZM155.32 150.886H156.326V157.125C156.326 157.409 156.367 157.622 156.45 157.764C156.535 157.903 156.643 157.997 156.773 158.045C156.907 158.091 157.048 158.114 157.195 158.114C157.306 158.114 157.397 158.108 157.468 158.097C157.539 158.082 157.596 158.071 157.639 158.062L157.843 158.966C157.775 158.991 157.68 159.017 157.558 159.043C157.435 159.071 157.281 159.085 157.093 159.085C156.809 159.085 156.531 159.024 156.258 158.902C155.988 158.78 155.764 158.594 155.585 158.344C155.408 158.094 155.32 157.778 155.32 157.398V150.886ZM161.019 159.153C160.604 159.153 160.227 159.075 159.889 158.919C159.551 158.76 159.283 158.531 159.084 158.233C158.885 157.932 158.786 157.568 158.786 157.142C158.786 156.767 158.86 156.463 159.007 156.23C159.155 155.994 159.352 155.81 159.6 155.676C159.847 155.543 160.12 155.443 160.418 155.378C160.719 155.31 161.022 155.256 161.325 155.216C161.723 155.165 162.046 155.126 162.293 155.101C162.543 155.072 162.725 155.026 162.838 154.96C162.955 154.895 163.013 154.781 163.013 154.619V154.585C163.013 154.165 162.898 153.838 162.668 153.605C162.441 153.372 162.095 153.256 161.632 153.256C161.152 153.256 160.776 153.361 160.503 153.571C160.23 153.781 160.039 154.006 159.928 154.244L158.973 153.903C159.144 153.506 159.371 153.196 159.655 152.974C159.942 152.75 160.254 152.594 160.593 152.506C160.933 152.415 161.269 152.369 161.598 152.369C161.808 152.369 162.05 152.395 162.323 152.446C162.598 152.494 162.864 152.595 163.12 152.749C163.378 152.902 163.593 153.134 163.763 153.443C163.933 153.753 164.019 154.168 164.019 154.688V159H163.013V158.114H162.962C162.894 158.256 162.78 158.408 162.621 158.57C162.462 158.732 162.25 158.869 161.986 158.983C161.722 159.097 161.399 159.153 161.019 159.153ZM161.172 158.25C161.57 158.25 161.905 158.172 162.178 158.016C162.453 157.859 162.661 157.658 162.8 157.411C162.942 157.163 163.013 156.903 163.013 156.631V155.71C162.97 155.761 162.877 155.808 162.732 155.851C162.59 155.891 162.425 155.926 162.237 155.957C162.053 155.986 161.872 156.011 161.696 156.034C161.523 156.054 161.382 156.071 161.274 156.085C161.013 156.119 160.769 156.175 160.541 156.251C160.317 156.325 160.135 156.437 159.996 156.588C159.86 156.736 159.791 156.937 159.791 157.193C159.791 157.543 159.921 157.807 160.179 157.986C160.441 158.162 160.772 158.25 161.172 158.25ZM165.71 159V152.455H166.716V159H165.71ZM166.222 151.364C166.026 151.364 165.857 151.297 165.715 151.163C165.575 151.03 165.506 150.869 165.506 150.682C165.506 150.494 165.575 150.334 165.715 150.2C165.857 150.067 166.026 150 166.222 150C166.418 150 166.585 150.067 166.724 150.2C166.866 150.334 166.938 150.494 166.938 150.682C166.938 150.869 166.866 151.03 166.724 151.163C166.585 151.297 166.418 151.364 166.222 151.364ZM169.42 150.273V159H168.414V150.273H169.42ZM175.754 153.92L174.851 154.176C174.794 154.026 174.71 153.879 174.599 153.737C174.491 153.592 174.343 153.473 174.156 153.379C173.968 153.286 173.728 153.239 173.436 153.239C173.035 153.239 172.701 153.331 172.434 153.516C172.17 153.697 172.038 153.929 172.038 154.21C172.038 154.46 172.129 154.658 172.311 154.803C172.493 154.947 172.777 155.068 173.163 155.165L174.135 155.403C174.72 155.545 175.156 155.763 175.443 156.055C175.73 156.345 175.873 156.719 175.873 157.176C175.873 157.551 175.765 157.886 175.549 158.182C175.336 158.477 175.038 158.71 174.654 158.881C174.271 159.051 173.825 159.136 173.316 159.136C172.649 159.136 172.096 158.991 171.659 158.702C171.221 158.412 170.944 157.989 170.828 157.432L171.782 157.193C171.873 157.545 172.045 157.81 172.298 157.986C172.554 158.162 172.887 158.25 173.299 158.25C173.768 158.25 174.14 158.151 174.416 157.952C174.694 157.75 174.833 157.509 174.833 157.227C174.833 157 174.754 156.81 174.595 156.656C174.436 156.5 174.191 156.384 173.862 156.307L172.771 156.051C172.172 155.909 171.731 155.689 171.45 155.391C171.172 155.089 171.032 154.713 171.032 154.261C171.032 153.892 171.136 153.565 171.343 153.281C171.554 152.997 171.839 152.774 172.2 152.612C172.564 152.45 172.976 152.369 173.436 152.369C174.083 152.369 174.592 152.511 174.961 152.795C175.333 153.08 175.598 153.455 175.754 153.92ZM180.61 159V150.273H181.616V153.494H181.701C181.775 153.381 181.878 153.236 182.008 153.06C182.142 152.881 182.332 152.722 182.579 152.582C182.829 152.44 183.167 152.369 183.593 152.369C184.145 152.369 184.63 152.507 185.051 152.783C185.471 153.058 185.799 153.449 186.035 153.955C186.271 154.46 186.389 155.057 186.389 155.744C186.389 156.438 186.271 157.038 186.035 157.547C185.799 158.053 185.473 158.445 185.055 158.723C184.637 158.999 184.156 159.136 183.61 159.136C183.19 159.136 182.853 159.067 182.601 158.928C182.348 158.786 182.153 158.625 182.017 158.446C181.88 158.264 181.775 158.114 181.701 157.994H181.582V159H180.61ZM181.599 155.727C181.599 156.222 181.672 156.658 181.816 157.036C181.961 157.411 182.173 157.705 182.451 157.918C182.73 158.128 183.071 158.233 183.474 158.233C183.895 158.233 184.245 158.122 184.527 157.901C184.811 157.676 185.024 157.375 185.166 156.997C185.311 156.616 185.383 156.193 185.383 155.727C185.383 155.267 185.312 154.852 185.17 154.483C185.031 154.111 184.819 153.817 184.535 153.601C184.254 153.382 183.9 153.273 183.474 153.273C183.065 153.273 182.721 153.376 182.443 153.584C182.164 153.788 181.954 154.075 181.812 154.445C181.67 154.811 181.599 155.239 181.599 155.727ZM188.197 161.455C188.026 161.455 187.874 161.44 187.741 161.412C187.607 161.386 187.515 161.361 187.464 161.335L187.719 160.449C187.964 160.511 188.18 160.534 188.367 160.517C188.555 160.5 188.721 160.416 188.866 160.266C189.013 160.118 189.148 159.878 189.27 159.545L189.458 159.034L187.037 152.455H188.128L189.935 157.67H190.003L191.81 152.455H192.901L190.123 159.955C189.998 160.293 189.843 160.572 189.658 160.794C189.474 161.018 189.259 161.185 189.015 161.293C188.773 161.401 188.501 161.455 188.197 161.455ZM199.975 159.136C199.361 159.136 198.833 158.991 198.389 158.702C197.946 158.412 197.605 158.013 197.367 157.504C197.128 156.996 197.009 156.415 197.009 155.761C197.009 155.097 197.131 154.51 197.375 154.001C197.622 153.49 197.966 153.091 198.406 152.804C198.85 152.514 199.367 152.369 199.958 152.369C200.418 152.369 200.833 152.455 201.202 152.625C201.571 152.795 201.874 153.034 202.11 153.341C202.345 153.648 202.492 154.006 202.548 154.415H201.543C201.466 154.116 201.296 153.852 201.031 153.622C200.77 153.389 200.418 153.273 199.975 153.273C199.583 153.273 199.239 153.375 198.943 153.58C198.651 153.781 198.422 154.067 198.257 154.436C198.095 154.803 198.014 155.233 198.014 155.727C198.014 156.233 198.094 156.673 198.253 157.048C198.415 157.423 198.642 157.714 198.935 157.922C199.23 158.129 199.577 158.233 199.975 158.233C200.236 158.233 200.473 158.188 200.686 158.097C200.899 158.006 201.08 157.875 201.227 157.705C201.375 157.534 201.48 157.33 201.543 157.091H202.548C202.492 157.477 202.351 157.825 202.127 158.135C201.905 158.442 201.611 158.686 201.245 158.868C200.881 159.047 200.458 159.136 199.975 159.136ZM204.88 150.273V159H203.875V150.273H204.88ZM206.578 159V152.455H207.584V159H206.578ZM207.09 151.364C206.894 151.364 206.725 151.297 206.583 151.163C206.443 151.03 206.374 150.869 206.374 150.682C206.374 150.494 206.443 150.334 206.583 150.2C206.725 150.067 206.894 150 207.09 150C207.286 150 207.453 150.067 207.593 150.2C207.735 150.334 207.806 150.494 207.806 150.682C207.806 150.869 207.735 151.03 207.593 151.163C207.453 151.297 207.286 151.364 207.09 151.364ZM211.941 159.136C211.327 159.136 210.799 158.991 210.356 158.702C209.913 158.412 209.572 158.013 209.333 157.504C209.094 156.996 208.975 156.415 208.975 155.761C208.975 155.097 209.097 154.51 209.342 154.001C209.589 153.49 209.933 153.091 210.373 152.804C210.816 152.514 211.333 152.369 211.924 152.369C212.384 152.369 212.799 152.455 213.168 152.625C213.538 152.795 213.84 153.034 214.076 153.341C214.312 153.648 214.458 154.006 214.515 154.415H213.509C213.433 154.116 213.262 153.852 212.998 153.622C212.737 153.389 212.384 153.273 211.941 153.273C211.549 153.273 211.205 153.375 210.91 153.58C210.617 153.781 210.389 154.067 210.224 154.436C210.062 154.803 209.981 155.233 209.981 155.727C209.981 156.233 210.06 156.673 210.219 157.048C210.381 157.423 210.609 157.714 210.901 157.922C211.197 158.129 211.543 158.233 211.941 158.233C212.202 158.233 212.44 158.188 212.653 158.097C212.866 158.006 213.046 157.875 213.194 157.705C213.342 157.534 213.447 157.33 213.509 157.091H214.515C214.458 157.477 214.317 157.825 214.093 158.135C213.871 158.442 213.577 158.686 213.211 158.868C212.847 159.047 212.424 159.136 211.941 159.136ZM216.779 156.614L216.762 155.369H216.966L219.83 152.455H221.074L218.023 155.54H217.938L216.779 156.614ZM215.841 159V150.273H216.847V159H215.841ZM220 159L217.443 155.761L218.159 155.062L221.279 159H220ZM222.224 159V152.455H223.23V159H222.224ZM222.736 151.364C222.54 151.364 222.371 151.297 222.229 151.163C222.089 151.03 222.02 150.869 222.02 150.682C222.02 150.494 222.089 150.334 222.229 150.2C222.371 150.067 222.54 150 222.736 150C222.932 150 223.099 150.067 223.239 150.2C223.381 150.334 223.452 150.494 223.452 150.682C223.452 150.869 223.381 151.03 223.239 151.163C223.099 151.297 222.932 151.364 222.736 151.364ZM225.934 155.062V159H224.928V152.455H225.9V153.477H225.985C226.138 153.145 226.371 152.878 226.684 152.676C226.996 152.472 227.4 152.369 227.894 152.369C228.337 152.369 228.725 152.46 229.057 152.642C229.39 152.821 229.648 153.094 229.833 153.46C230.018 153.824 230.11 154.284 230.11 154.841V159H229.104V154.909C229.104 154.395 228.971 153.994 228.704 153.707C228.437 153.418 228.07 153.273 227.604 153.273C227.283 153.273 226.996 153.342 226.743 153.482C226.493 153.621 226.296 153.824 226.151 154.091C226.006 154.358 225.934 154.682 225.934 155.062ZM234.446 161.591C233.96 161.591 233.542 161.528 233.193 161.403C232.843 161.281 232.552 161.119 232.319 160.918C232.089 160.719 231.906 160.506 231.77 160.278L232.571 159.716C232.662 159.835 232.777 159.972 232.916 160.125C233.055 160.281 233.245 160.416 233.487 160.53C233.731 160.646 234.051 160.705 234.446 160.705C234.974 160.705 235.41 160.577 235.754 160.321C236.098 160.065 236.27 159.665 236.27 159.119V157.79H236.184C236.11 157.909 236.005 158.057 235.869 158.233C235.735 158.406 235.542 158.561 235.289 158.697C235.039 158.831 234.701 158.898 234.275 158.898C233.747 158.898 233.272 158.773 232.852 158.523C232.434 158.273 232.103 157.909 231.859 157.432C231.618 156.955 231.497 156.375 231.497 155.693C231.497 155.023 231.615 154.439 231.851 153.942C232.086 153.442 232.414 153.055 232.835 152.783C233.255 152.507 233.741 152.369 234.292 152.369C234.718 152.369 235.056 152.44 235.306 152.582C235.559 152.722 235.752 152.881 235.886 153.06C236.022 153.236 236.127 153.381 236.201 153.494H236.304V152.455H237.275V159.188C237.275 159.75 237.147 160.207 236.892 160.56C236.639 160.915 236.298 161.175 235.869 161.339C235.443 161.507 234.968 161.591 234.446 161.591ZM234.412 157.994C234.815 157.994 235.156 157.902 235.434 157.717C235.713 157.533 235.924 157.267 236.069 156.92C236.214 156.574 236.287 156.159 236.287 155.676C236.287 155.205 236.216 154.788 236.074 154.428C235.931 154.067 235.721 153.784 235.443 153.58C235.164 153.375 234.821 153.273 234.412 153.273C233.985 153.273 233.63 153.381 233.346 153.597C233.065 153.812 232.853 154.102 232.711 154.466C232.572 154.83 232.502 155.233 232.502 155.676C232.502 156.131 232.574 156.533 232.716 156.882C232.86 157.229 233.074 157.501 233.355 157.7C233.639 157.896 233.991 157.994 234.412 157.994ZM244.862 159.136C244.271 159.136 243.753 158.996 243.307 158.714C242.864 158.433 242.517 158.04 242.267 157.534C242.02 157.028 241.896 156.437 241.896 155.761C241.896 155.08 242.02 154.484 242.267 153.976C242.517 153.467 242.864 153.072 243.307 152.791C243.753 152.51 244.271 152.369 244.862 152.369C245.453 152.369 245.97 152.51 246.413 152.791C246.859 153.072 247.206 153.467 247.453 153.976C247.703 154.484 247.828 155.08 247.828 155.761C247.828 156.437 247.703 157.028 247.453 157.534C247.206 158.04 246.859 158.433 246.413 158.714C245.97 158.996 245.453 159.136 244.862 159.136ZM244.862 158.233C245.311 158.233 245.68 158.118 245.97 157.888C246.26 157.658 246.474 157.355 246.614 156.98C246.753 156.605 246.822 156.199 246.822 155.761C246.822 155.324 246.753 154.916 246.614 154.538C246.474 154.161 246.26 153.855 245.97 153.622C245.68 153.389 245.311 153.273 244.862 153.273C244.413 153.273 244.044 153.389 243.754 153.622C243.465 153.855 243.25 154.161 243.111 154.538C242.972 154.916 242.902 155.324 242.902 155.761C242.902 156.199 242.972 156.605 243.111 156.98C243.25 157.355 243.465 157.658 243.754 157.888C244.044 158.118 244.413 158.233 244.862 158.233ZM250.225 155.062V159H249.219V152.455H250.191V153.477H250.276C250.43 153.145 250.662 152.878 250.975 152.676C251.287 152.472 251.691 152.369 252.185 152.369C252.628 152.369 253.016 152.46 253.349 152.642C253.681 152.821 253.939 153.094 254.124 153.46C254.309 153.824 254.401 154.284 254.401 154.841V159H253.395V154.909C253.395 154.395 253.262 153.994 252.995 153.707C252.728 153.418 252.361 153.273 251.895 153.273C251.574 153.273 251.287 153.342 251.035 153.482C250.785 153.621 250.587 153.824 250.442 154.091C250.297 154.358 250.225 154.682 250.225 155.062ZM262.172 152.455V153.307H258.78V152.455H262.172ZM259.769 150.886H260.775V157.125C260.775 157.409 260.816 157.622 260.898 157.764C260.983 157.903 261.091 157.997 261.222 158.045C261.356 158.091 261.496 158.114 261.644 158.114C261.755 158.114 261.846 158.108 261.917 158.097C261.988 158.082 262.045 158.071 262.087 158.062L262.292 158.966C262.224 158.991 262.128 159.017 262.006 159.043C261.884 159.071 261.729 159.085 261.542 159.085C261.258 159.085 260.979 159.024 260.707 158.902C260.437 158.78 260.212 158.594 260.033 158.344C259.857 158.094 259.769 157.778 259.769 157.398V150.886ZM264.687 155.062V159H263.682V150.273H264.687V153.477H264.773C264.926 153.139 265.156 152.871 265.463 152.672C265.773 152.47 266.185 152.369 266.699 152.369C267.145 152.369 267.536 152.459 267.871 152.638C268.206 152.814 268.466 153.085 268.651 153.452C268.838 153.815 268.932 154.278 268.932 154.841V159H267.926V154.909C267.926 154.389 267.791 153.987 267.521 153.703C267.254 153.416 266.884 153.273 266.409 153.273C266.08 153.273 265.784 153.342 265.523 153.482C265.264 153.621 265.06 153.824 264.909 154.091C264.761 154.358 264.687 154.682 264.687 155.062ZM273.372 159.136C272.741 159.136 272.197 158.997 271.74 158.719C271.285 158.438 270.934 158.045 270.687 157.543C270.443 157.037 270.321 156.449 270.321 155.778C270.321 155.108 270.443 154.517 270.687 154.006C270.934 153.491 271.278 153.091 271.719 152.804C272.162 152.514 272.679 152.369 273.27 152.369C273.611 152.369 273.947 152.426 274.28 152.54C274.612 152.653 274.915 152.838 275.187 153.094C275.46 153.347 275.677 153.682 275.839 154.099C276.001 154.517 276.082 155.031 276.082 155.642V156.068H271.037V155.199H275.059C275.059 154.83 274.986 154.5 274.838 154.21C274.693 153.92 274.486 153.692 274.216 153.524C273.949 153.357 273.633 153.273 273.27 153.273C272.869 153.273 272.523 153.372 272.23 153.571C271.94 153.767 271.717 154.023 271.561 154.338C271.405 154.653 271.327 154.991 271.327 155.352V155.932C271.327 156.426 271.412 156.845 271.582 157.189C271.755 157.53 271.996 157.79 272.302 157.969C272.609 158.145 272.966 158.233 273.372 158.233C273.636 158.233 273.875 158.196 274.088 158.122C274.304 158.045 274.49 157.932 274.646 157.781C274.802 157.628 274.923 157.437 275.008 157.21L275.98 157.483C275.878 157.812 275.706 158.102 275.464 158.352C275.223 158.599 274.925 158.793 274.569 158.932C274.214 159.068 273.815 159.136 273.372 159.136ZM281.705 150.273V159H280.699V150.273H281.705ZM283.403 159V152.455H284.408V159H283.403ZM283.914 151.364C283.718 151.364 283.549 151.297 283.407 151.163C283.268 151.03 283.198 150.869 283.198 150.682C283.198 150.494 283.268 150.334 283.407 150.2C283.549 150.067 283.718 150 283.914 150C284.11 150 284.278 150.067 284.417 150.2C284.559 150.334 284.63 150.494 284.63 150.682C284.63 150.869 284.559 151.03 284.417 151.163C284.278 151.297 284.11 151.364 283.914 151.364ZM287.112 155.062V159H286.106V152.455H287.078V153.477H287.163C287.317 153.145 287.55 152.878 287.862 152.676C288.175 152.472 288.578 152.369 289.072 152.369C289.515 152.369 289.903 152.46 290.236 152.642C290.568 152.821 290.827 153.094 291.011 153.46C291.196 153.824 291.288 154.284 291.288 154.841V159H290.282V154.909C290.282 154.395 290.149 153.994 289.882 153.707C289.615 153.418 289.248 153.273 288.782 153.273C288.461 153.273 288.175 153.342 287.922 153.482C287.672 153.621 287.474 153.824 287.329 154.091C287.184 154.358 287.112 154.682 287.112 155.062ZM293.919 156.614L293.902 155.369H294.107L296.971 152.455H298.215L295.164 155.54H295.078L293.919 156.614ZM292.982 159V150.273H293.988V159H292.982ZM297.141 159L294.584 155.761L295.3 155.062L298.419 159H297.141ZM305.238 161.591C304.752 161.591 304.335 161.528 303.985 161.403C303.636 161.281 303.345 161.119 303.112 160.918C302.882 160.719 302.698 160.506 302.562 160.278L303.363 159.716C303.454 159.835 303.569 159.972 303.708 160.125C303.848 160.281 304.038 160.416 304.279 160.53C304.524 160.646 304.843 160.705 305.238 160.705C305.767 160.705 306.203 160.577 306.547 160.321C306.89 160.065 307.062 159.665 307.062 159.119V157.79H306.977C306.903 157.909 306.798 158.057 306.662 158.233C306.528 158.406 306.335 158.561 306.082 158.697C305.832 158.831 305.494 158.898 305.068 158.898C304.539 158.898 304.065 158.773 303.645 158.523C303.227 158.273 302.896 157.909 302.652 157.432C302.41 156.955 302.289 156.375 302.289 155.693C302.289 155.023 302.407 154.439 302.643 153.942C302.879 153.442 303.207 153.055 303.627 152.783C304.048 152.507 304.534 152.369 305.085 152.369C305.511 152.369 305.849 152.44 306.099 152.582C306.352 152.722 306.545 152.881 306.679 153.06C306.815 153.236 306.92 153.381 306.994 153.494H307.096V152.455H308.068V159.188C308.068 159.75 307.94 160.207 307.684 160.56C307.431 160.915 307.091 161.175 306.662 161.339C306.235 161.507 305.761 161.591 305.238 161.591ZM305.204 157.994C305.608 157.994 305.948 157.902 306.227 157.717C306.505 157.533 306.717 157.267 306.862 156.92C307.007 156.574 307.079 156.159 307.079 155.676C307.079 155.205 307.008 154.788 306.866 154.428C306.724 154.067 306.514 153.784 306.235 153.58C305.957 153.375 305.613 153.273 305.204 153.273C304.778 153.273 304.423 153.381 304.139 153.597C303.858 153.812 303.646 154.102 303.504 154.466C303.365 154.83 303.295 155.233 303.295 155.676C303.295 156.131 303.366 156.533 303.508 156.882C303.653 157.229 303.866 157.501 304.147 157.7C304.431 157.896 304.784 157.994 305.204 157.994ZM309.765 159V152.455H310.77V159H309.765ZM310.276 151.364C310.08 151.364 309.911 151.297 309.769 151.163C309.63 151.03 309.56 150.869 309.56 150.682C309.56 150.494 309.63 150.334 309.769 150.2C309.911 150.067 310.08 150 310.276 150C310.472 150 310.64 150.067 310.779 150.2C310.921 150.334 310.992 150.494 310.992 150.682C310.992 150.869 310.921 151.03 310.779 151.163C310.64 151.297 310.472 151.364 310.276 151.364ZM317.821 152.455L315.4 159H314.377L311.957 152.455H313.048L314.855 157.67H314.923L316.73 152.455H317.821ZM321.514 159.136C320.883 159.136 320.339 158.997 319.882 158.719C319.427 158.438 319.077 158.045 318.829 157.543C318.585 157.037 318.463 156.449 318.463 155.778C318.463 155.108 318.585 154.517 318.829 154.006C319.077 153.491 319.42 153.091 319.861 152.804C320.304 152.514 320.821 152.369 321.412 152.369C321.753 152.369 322.089 152.426 322.422 152.54C322.754 152.653 323.057 152.838 323.329 153.094C323.602 153.347 323.819 153.682 323.981 154.099C324.143 154.517 324.224 155.031 324.224 155.642V156.068H319.179V155.199H323.202C323.202 154.83 323.128 154.5 322.98 154.21C322.835 153.92 322.628 153.692 322.358 153.524C322.091 153.357 321.775 153.273 321.412 153.273C321.011 153.273 320.665 153.372 320.372 153.571C320.082 153.767 319.859 154.023 319.703 154.338C319.547 154.653 319.469 154.991 319.469 155.352V155.932C319.469 156.426 319.554 156.845 319.724 157.189C319.898 157.53 320.138 157.79 320.444 157.969C320.751 158.145 321.108 158.233 321.514 158.233C321.778 158.233 322.017 158.196 322.23 158.122C322.446 158.045 322.632 157.932 322.788 157.781C322.944 157.628 323.065 157.437 323.15 157.21L324.122 157.483C324.02 157.812 323.848 158.102 323.606 158.352C323.365 158.599 323.067 158.793 322.711 158.932C322.356 159.068 321.957 159.136 321.514 159.136ZM326.616 155.062V159H325.61V152.455H326.582V153.477H326.667C326.82 153.145 327.053 152.878 327.366 152.676C327.678 152.472 328.082 152.369 328.576 152.369C329.019 152.369 329.407 152.46 329.739 152.642C330.072 152.821 330.33 153.094 330.515 153.46C330.7 153.824 330.792 154.284 330.792 154.841V159H329.786V154.909C329.786 154.395 329.653 153.994 329.386 153.707C329.119 153.418 328.752 153.273 328.286 153.273C327.965 153.273 327.678 153.342 327.425 153.482C327.175 153.621 326.978 153.824 326.833 154.091C326.688 154.358 326.616 154.682 326.616 155.062ZM335.853 159V150.273H336.859V153.494H336.944C337.018 153.381 337.12 153.236 337.251 153.06C337.384 152.881 337.575 152.722 337.822 152.582C338.072 152.44 338.41 152.369 338.836 152.369C339.387 152.369 339.873 152.507 340.293 152.783C340.714 153.058 341.042 153.449 341.278 153.955C341.513 154.46 341.631 155.057 341.631 155.744C341.631 156.438 341.513 157.038 341.278 157.547C341.042 158.053 340.715 158.445 340.298 158.723C339.88 158.999 339.398 159.136 338.853 159.136C338.433 159.136 338.096 159.067 337.843 158.928C337.59 158.786 337.396 158.625 337.259 158.446C337.123 158.264 337.018 158.114 336.944 157.994H336.825V159H335.853ZM336.842 155.727C336.842 156.222 336.914 156.658 337.059 157.036C337.204 157.411 337.415 157.705 337.694 157.918C337.972 158.128 338.313 158.233 338.717 158.233C339.137 158.233 339.488 158.122 339.769 157.901C340.053 157.676 340.266 157.375 340.408 156.997C340.553 156.616 340.626 156.193 340.626 155.727C340.626 155.267 340.555 154.852 340.413 154.483C340.273 154.111 340.062 153.817 339.778 153.601C339.496 153.382 339.143 153.273 338.717 153.273C338.308 153.273 337.964 153.376 337.685 153.584C337.407 153.788 337.197 154.075 337.055 154.445C336.913 154.811 336.842 155.239 336.842 155.727ZM345.77 159.136C345.139 159.136 344.595 158.997 344.138 158.719C343.683 158.438 343.333 158.045 343.085 157.543C342.841 157.037 342.719 156.449 342.719 155.778C342.719 155.108 342.841 154.517 343.085 154.006C343.333 153.491 343.676 153.091 344.117 152.804C344.56 152.514 345.077 152.369 345.668 152.369C346.009 152.369 346.345 152.426 346.678 152.54C347.01 152.653 347.313 152.838 347.585 153.094C347.858 153.347 348.075 153.682 348.237 154.099C348.399 154.517 348.48 155.031 348.48 155.642V156.068H343.435V155.199H347.458C347.458 154.83 347.384 154.5 347.236 154.21C347.091 153.92 346.884 153.692 346.614 153.524C346.347 153.357 346.031 153.273 345.668 153.273C345.267 153.273 344.921 153.372 344.628 153.571C344.338 153.767 344.115 154.023 343.959 154.338C343.803 154.653 343.725 154.991 343.725 155.352V155.932C343.725 156.426 343.81 156.845 343.98 157.189C344.154 157.53 344.394 157.79 344.7 157.969C345.007 158.145 345.364 158.233 345.77 158.233C346.034 158.233 346.273 158.196 346.486 158.122C346.702 158.045 346.888 157.932 347.044 157.781C347.2 157.628 347.321 157.437 347.406 157.21L348.378 157.483C348.276 157.812 348.104 158.102 347.862 158.352C347.621 158.599 347.323 158.793 346.967 158.932C346.612 159.068 346.213 159.136 345.77 159.136ZM350.872 150.273V159H349.866V150.273H350.872ZM355.229 159.136C354.638 159.136 354.119 158.996 353.673 158.714C353.23 158.433 352.884 158.04 352.634 157.534C352.387 157.028 352.263 156.437 352.263 155.761C352.263 155.08 352.387 154.484 352.634 153.976C352.884 153.467 353.23 153.072 353.673 152.791C354.119 152.51 354.638 152.369 355.229 152.369C355.82 152.369 356.337 152.51 356.78 152.791C357.226 153.072 357.573 153.467 357.82 153.976C358.07 154.484 358.195 155.08 358.195 155.761C358.195 156.437 358.07 157.028 357.82 157.534C357.573 158.04 357.226 158.433 356.78 158.714C356.337 158.996 355.82 159.136 355.229 159.136ZM355.229 158.233C355.678 158.233 356.047 158.118 356.337 157.888C356.627 157.658 356.841 157.355 356.98 156.98C357.119 156.605 357.189 156.199 357.189 155.761C357.189 155.324 357.119 154.916 356.98 154.538C356.841 154.161 356.627 153.855 356.337 153.622C356.047 153.389 355.678 153.273 355.229 153.273C354.78 153.273 354.411 153.389 354.121 153.622C353.831 153.855 353.617 154.161 353.477 154.538C353.338 154.916 353.269 155.324 353.269 155.761C353.269 156.199 353.338 156.605 353.477 156.98C353.617 157.355 353.831 157.658 354.121 157.888C354.411 158.118 354.78 158.233 355.229 158.233ZM360.846 159L358.852 152.455H359.909L361.323 157.466H361.392L362.789 152.455H363.863L365.244 157.449H365.312L366.727 152.455H367.784L365.789 159H364.801L363.369 153.972H363.267L361.835 159H360.846Z" fill="white" fill-opacity="0.4"/>
</g>
<defs>
<filter id="filter0_d_688_1903" x="0" y="0" width="502" height="202" filterUnits="userSpaceOnUse" color-interpolation-filters="sRGB">
<feFlood flood-opacity="0" result="BackgroundImageFix"/>
<feColorMatrix in="SourceAlpha" type="matrix" values="0 0 0 0 0 0 0 0 0 0 0 0 0 0 0 0 0 0 127 0" result="hardAlpha"/>
<feOffset dx="-3" dy="-4"/>
<feGaussianBlur stdDeviation="3"/>
<feComposite in2="hardAlpha" operator="out"/>
<feColorMatrix type="matrix" values="0 0 0 0 0 0 0 0 0 0 0 0 0 0 0 0 0 0 0.12 0"/>
<feBlend mode="normal" in2="BackgroundImageFix" result="effect1_dropShadow_688_1903"/>
<feBlend mode="normal" in="SourceGraphic" in2="effect1_dropShadow_688_1903" result="shape"/>
</filter>
<linearGradient id="paint0_linear_688_1903" x1="254" y1="10" x2="270.842" y2="237.514" gradientUnits="userSpaceOnUse">
<stop stop-color="#22202E"/>
<stop offset="1" stop-color="#252C32"/>
</linearGradient>
<linearGradient id="paint1_linear_688_1903" x1="272.907" y1="31" x2="287.126" y2="33.8759" gradientUnits="userSpaceOnUse">
<stop stop-color="#6053F8"/>
<stop offset="1" stop-color="#B46CE8"/>
</linearGradient>
</defs>
</svg>
