<svg width="173" height="42" viewBox="0 0 173 42" fill="none" xmlns="http://www.w3.org/2000/svg">
<path d="M61.5074 11.456V14.62H56.2994V31H52.3794V14.62H47.1714V11.456H61.5074ZM68.2875 17.896C68.7915 17.0747 69.4449 16.4307 70.2475 15.964C71.0689 15.4973 72.0022 15.264 73.0475 15.264V19.38H72.0115C70.7795 19.38 69.8462 19.6693 69.2115 20.248C68.5955 20.8267 68.2875 21.8347 68.2875 23.272V31H64.3675V15.488H68.2875V17.896ZM74.6799 23.188C74.6799 21.62 74.9879 20.2293 75.6039 19.016C76.2385 17.8027 77.0879 16.8693 78.1519 16.216C79.2345 15.5627 80.4385 15.236 81.7639 15.236C82.9212 15.236 83.9292 15.4693 84.7879 15.936C85.6652 16.4027 86.3652 16.9907 86.8879 17.7V15.488H90.8359V31H86.8879V28.732C86.3839 29.46 85.6839 30.0667 84.7879 30.552C83.9105 31.0187 82.8932 31.252 81.7359 31.252C80.4292 31.252 79.2345 30.916 78.1519 30.244C77.0879 29.572 76.2385 28.6293 75.6039 27.416C74.9879 26.184 74.6799 24.7747 74.6799 23.188ZM86.8879 23.244C86.8879 22.292 86.7012 21.48 86.3279 20.808C85.9545 20.1173 85.4505 19.5947 84.8159 19.24C84.1812 18.8667 83.4999 18.68 82.7719 18.68C82.0439 18.68 81.3719 18.8573 80.7559 19.212C80.1399 19.5667 79.6359 20.0893 79.2439 20.78C78.8705 21.452 78.6839 22.2547 78.6839 23.188C78.6839 24.1213 78.8705 24.9427 79.2439 25.652C79.6359 26.3427 80.1399 26.8747 80.7559 27.248C81.3905 27.6213 82.0625 27.808 82.7719 27.808C83.4999 27.808 84.1812 27.6307 84.8159 27.276C85.4505 26.9027 85.9545 26.38 86.3279 25.708C86.7012 25.0173 86.8879 24.196 86.8879 23.244ZM103.26 15.264C105.108 15.264 106.602 15.852 107.74 17.028C108.879 18.1853 109.448 19.8093 109.448 21.9V31H105.528V22.432C105.528 21.2 105.22 20.2573 104.604 19.604C103.988 18.932 103.148 18.596 102.084 18.596C101.002 18.596 100.143 18.932 99.5084 19.604C98.8924 20.2573 98.5844 21.2 98.5844 22.432V31H94.6644V15.488H98.5844V17.42C99.1071 16.748 99.7698 16.2253 100.572 15.852C101.394 15.46 102.29 15.264 103.26 15.264ZM119.112 31.252C117.843 31.252 116.704 31.028 115.696 30.58C114.688 30.1133 113.885 29.488 113.288 28.704C112.709 27.92 112.392 27.052 112.336 26.1H116.284C116.359 26.6973 116.648 27.192 117.152 27.584C117.675 27.976 118.319 28.172 119.084 28.172C119.831 28.172 120.409 28.0227 120.82 27.724C121.249 27.4253 121.464 27.0427 121.464 26.576C121.464 26.072 121.203 25.6987 120.68 25.456C120.176 25.1947 119.364 24.9147 118.244 24.616C117.087 24.336 116.135 24.0467 115.388 23.748C114.66 23.4493 114.025 22.992 113.484 22.376C112.961 21.76 112.7 20.9293 112.7 19.884C112.7 19.0253 112.943 18.2413 113.428 17.532C113.932 16.8227 114.641 16.2627 115.556 15.852C116.489 15.4413 117.581 15.236 118.832 15.236C120.68 15.236 122.155 15.7027 123.256 16.636C124.357 17.5507 124.964 18.792 125.076 20.36H121.324C121.268 19.744 121.007 19.2587 120.54 18.904C120.092 18.5307 119.485 18.344 118.72 18.344C118.011 18.344 117.46 18.4747 117.068 18.736C116.695 18.9973 116.508 19.3613 116.508 19.828C116.508 20.3507 116.769 20.752 117.292 21.032C117.815 21.2933 118.627 21.564 119.728 21.844C120.848 22.124 121.772 22.4133 122.5 22.712C123.228 23.0107 123.853 23.4773 124.376 24.112C124.917 24.728 125.197 25.5493 125.216 26.576C125.216 27.472 124.964 28.2747 124.46 28.984C123.975 29.6933 123.265 30.2533 122.332 30.664C121.417 31.056 120.344 31.252 119.112 31.252ZM127.426 23.188C127.426 21.62 127.734 20.2293 128.35 19.016C128.985 17.8027 129.834 16.8693 130.898 16.216C131.981 15.5627 133.185 15.236 134.51 15.236C135.667 15.236 136.675 15.4693 137.534 15.936C138.411 16.4027 139.111 16.9907 139.634 17.7V15.488H143.582V31H139.634V28.732C139.13 29.46 138.43 30.0667 137.534 30.552C136.657 31.0187 135.639 31.252 134.482 31.252C133.175 31.252 131.981 30.916 130.898 30.244C129.834 29.572 128.985 28.6293 128.35 27.416C127.734 26.184 127.426 24.7747 127.426 23.188ZM139.634 23.244C139.634 22.292 139.447 21.48 139.074 20.808C138.701 20.1173 138.197 19.5947 137.562 19.24C136.927 18.8667 136.246 18.68 135.518 18.68C134.79 18.68 134.118 18.8573 133.502 19.212C132.886 19.5667 132.382 20.0893 131.99 20.78C131.617 21.452 131.43 22.2547 131.43 23.188C131.43 24.1213 131.617 24.9427 131.99 25.652C132.382 26.3427 132.886 26.8747 133.502 27.248C134.137 27.6213 134.809 27.808 135.518 27.808C136.246 27.808 136.927 27.6307 137.562 27.276C138.197 26.9027 138.701 26.38 139.074 25.708C139.447 25.0173 139.634 24.196 139.634 23.244ZM156.595 31L151.331 24.392V31H147.411V10.28H151.331V22.068L156.539 15.488H161.635L154.803 23.272L161.691 31H156.595ZM168.326 18.708V26.212C168.326 26.7347 168.447 27.1173 168.69 27.36C168.951 27.584 169.381 27.696 169.978 27.696H171.798V31H169.334C166.03 31 164.378 29.3947 164.378 26.184V18.708H162.53V15.488H164.378V11.652H168.326V15.488H171.798V18.708H168.326Z" fill="white"/>
<path d="M18.2402 3C8.16704 3 0 11.0589 0 21C0 30.9411 8.16646 39 18.2402 39C28.3139 39 36.4804 30.9411 36.4804 21C36.4804 11.0589 28.3133 3 18.2402 3ZM29.3497 21.8472C29.0877 22.1027 28.7368 22.2467 28.3708 22.2489C28.0048 22.2511 27.6522 22.1113 27.3871 21.8589L24.6771 19.1949V26.1099C24.6769 26.2906 24.6407 26.4695 24.5705 26.636C24.5003 26.8026 24.3976 26.9534 24.2683 27.0798C24.0041 27.3373 23.6497 27.4814 23.2808 27.4814C22.9118 27.4814 22.5574 27.3373 22.2932 27.0798C22.164 26.9534 22.0613 26.8025 21.9911 26.636C21.9209 26.4695 21.8846 26.2906 21.8844 26.1099V19.2163L13.8666 27.0895L13.7827 27.1674L13.7687 27.1796C13.7208 27.218 13.6704 27.2532 13.6178 27.2849L13.5859 27.3029C13.5319 27.334 13.4759 27.3615 13.4181 27.385C13.3775 27.4018 13.336 27.4165 13.2938 27.4289H13.2872L13.1694 27.4575H13.1537L13.0464 27.4732H13.0179L12.9038 27.4783H12.883L12.7512 27.4726H12.7455C12.52 27.4526 12.3026 27.3789 12.1113 27.2578L12.0024 27.1756C11.9658 27.1467 11.9308 27.1158 11.8977 27.0829L6.62577 21.9103C6.5013 21.7831 6.40315 21.6327 6.33693 21.4676C6.27071 21.3025 6.23773 21.1259 6.23987 20.948C6.24202 20.7701 6.27925 20.5944 6.34944 20.4309C6.41962 20.2674 6.52138 20.1194 6.64888 19.9953C6.909 19.7418 7.25665 19.598 7.61985 19.5937C7.98306 19.5894 8.33401 19.7249 8.60006 19.9722L11.4869 22.8057V15.8907C11.4871 15.71 11.5234 15.5311 11.5936 15.3646C11.6638 15.198 11.7665 15.0472 11.8957 14.9208C12.1599 14.6633 12.5142 14.5191 12.8831 14.5191C13.252 14.5191 13.6064 14.6633 13.8706 14.9208C13.9998 15.0472 14.1025 15.198 14.1728 15.3645C14.243 15.5311 14.2793 15.7099 14.2796 15.8907V22.8051L22.1879 15.0437C22.4041 14.7748 22.7121 14.5953 23.0527 14.5399C23.3933 14.4844 23.7424 14.5569 24.0327 14.7434C24.0453 14.7511 24.057 14.7573 24.0689 14.7659L24.146 14.8229C24.1817 14.8486 24.216 14.876 24.2489 14.9051L24.2692 14.9225L24.278 14.9313L29.3625 19.9214H29.3608C29.4878 20.048 29.5884 20.1986 29.6566 20.3645C29.7249 20.5303 29.7595 20.708 29.7585 20.8874C29.7575 21.0667 29.7208 21.244 29.6506 21.4091C29.5804 21.5741 29.4781 21.7235 29.3497 21.8487V21.8472Z" fill="white"/>
</svg>
