<svg width="379" height="19" viewBox="0 0 379 19" fill="none" xmlns="http://www.w3.org/2000/svg">
<path d="M1.63516 5.279C109.422 12.4487 218.834 7.59332 326.471 5.28095C342.098 4.94523 357.986 5.04042 373.543 4.13795C374.772 4.06664 378.143 3.63091 376.987 3.33237C374.545 2.7015 367.103 2.46059 365.914 2.40704C311.992 -0.0219063 257.302 1.30297 203.498 2.33627C143.977 3.47938 84.4851 6.14424 24.8333 5.69337C24.1738 5.68839 2.13768 4.08999 2.3449 4.04218C12.7467 1.6422 28.9859 3.59991 39.6837 4.04082C91.2489 6.16608 142.754 10.8224 194.238 13.906C245.074 16.9507 295.543 18.1185 346.401 17.4792" stroke="#49A8FC" stroke-width="2" stroke-linecap="round"/>
</svg>
