<svg width="489" height="490" viewBox="0 0 489 490" fill="none" xmlns="http://www.w3.org/2000/svg">
<g filter="url(#filter0_bd_874_858)">
<mask id="path-1-inside-1_874_858" fill="white">
<path d="M361.533 61.9554C361.497 44.6665 347.422 30.529 330.211 32.1706C296.745 35.3627 263.885 43.5578 232.743 56.5325C191.951 73.5281 154.905 98.3921 123.722 129.705C92.5383 161.017 67.8276 198.165 51.0006 239.028C38.1547 270.223 30.0955 303.116 27.0417 336.596C25.4712 353.813 39.6666 367.829 56.9556 367.794L203.63 367.49C220.919 367.455 234.526 353.205 238.702 336.428C240.202 330.404 242.144 324.484 244.519 318.718C250.881 303.268 260.223 289.223 272.013 277.385C283.803 265.546 297.809 256.145 313.232 249.72C318.989 247.321 324.901 245.355 330.919 243.83C347.678 239.585 361.871 225.919 361.836 208.63L361.533 61.9554Z"/>
</mask>
<path d="M361.533 61.9554C361.497 44.6665 347.422 30.529 330.211 32.1706C296.745 35.3627 263.885 43.5578 232.743 56.5325C191.951 73.5281 154.905 98.3921 123.722 129.705C92.5383 161.017 67.8276 198.165 51.0006 239.028C38.1547 270.223 30.0955 303.116 27.0417 336.596C25.4712 353.813 39.6666 367.829 56.9556 367.794L203.63 367.49C220.919 367.455 234.526 353.205 238.702 336.428C240.202 330.404 242.144 324.484 244.519 318.718C250.881 303.268 260.223 289.223 272.013 277.385C283.803 265.546 297.809 256.145 313.232 249.72C318.989 247.321 324.901 245.355 330.919 243.83C347.678 239.585 361.871 225.919 361.836 208.63L361.533 61.9554Z" fill="url(#paint0_linear_874_858)"/>
<path d="M361.533 61.9554C361.497 44.6665 347.422 30.529 330.211 32.1706C296.745 35.3627 263.885 43.5578 232.743 56.5325C191.951 73.5281 154.905 98.3921 123.722 129.705C92.5383 161.017 67.8276 198.165 51.0006 239.028C38.1547 270.223 30.0955 303.116 27.0417 336.596C25.4712 353.813 39.6666 367.829 56.9556 367.794L203.63 367.49C220.919 367.455 234.526 353.205 238.702 336.428C240.202 330.404 242.144 324.484 244.519 318.718C250.881 303.268 260.223 289.223 272.013 277.385C283.803 265.546 297.809 256.145 313.232 249.72C318.989 247.321 324.901 245.355 330.919 243.83C347.678 239.585 361.871 225.919 361.836 208.63L361.533 61.9554Z" stroke="url(#paint1_linear_874_858)" stroke-opacity="0.3" stroke-width="3.13044" mask="url(#path-1-inside-1_874_858)"/>
</g>
<defs>
<filter id="filter0_bd_874_858" x="-45.0774" y="-39.9594" width="533.696" height="529.84" filterUnits="userSpaceOnUse" color-interpolation-filters="sRGB">
<feFlood flood-opacity="0" result="BackgroundImageFix"/>
<feGaussianBlur in="BackgroundImageFix" stdDeviation="36.0001"/>
<feComposite in2="SourceAlpha" operator="in" result="effect1_backgroundBlur_874_858"/>
<feColorMatrix in="SourceAlpha" type="matrix" values="0 0 0 0 0 0 0 0 0 0 0 0 0 0 0 0 0 0 127 0" result="hardAlpha"/>
<feOffset dx="50.0871" dy="45.3914"/>
<feGaussianBlur stdDeviation="38.3479"/>
<feComposite in2="hardAlpha" operator="out"/>
<feColorMatrix type="matrix" values="0 0 0 0 0 0 0 0 0 0.0283334 0 0 0 0 0.283333 0 0 0 0.08 0"/>
<feBlend mode="normal" in2="effect1_backgroundBlur_874_858" result="effect2_dropShadow_874_858"/>
<feBlend mode="normal" in="SourceGraphic" in2="effect2_dropShadow_874_858" result="shape"/>
</filter>
<linearGradient id="paint0_linear_874_858" x1="700.983" y1="722.456" x2="-393.893" y2="141.418" gradientUnits="userSpaceOnUse">
<stop stop-color="#43F0FB"/>
<stop offset="1" stop-color="#8437E5"/>
</linearGradient>
<linearGradient id="paint1_linear_874_858" x1="736.334" y1="748.276" x2="-148.476" y2="207.368" gradientUnits="userSpaceOnUse">
<stop stop-color="white"/>
<stop offset="1" stop-color="white" stop-opacity="0"/>
</linearGradient>
</defs>
</svg>
