<svg width="81" height="77" viewBox="0 0 81 77" fill="none" xmlns="http://www.w3.org/2000/svg">
<path d="M30.5625 74.8674C30.5625 76.1174 29.5625 76.8257 28.3958 76.4507C12.2292 71.284 0.5625 56.2007 0.5625 38.3257C0.5625 20.4924 12.2292 5.36737 28.3958 0.200706C29.6042 -0.174294 30.5625 0.534039 30.5625 1.78404V4.90904C30.5625 5.74237 29.9375 6.70071 29.1458 6.99237C16.3542 11.7007 7.22917 23.9924 7.22917 38.3257C7.22917 52.7007 16.3542 64.9507 29.1458 69.6174C29.9375 69.909 30.5625 70.8674 30.5625 71.7007V74.8674Z" fill="white"/>
<path d="M43.8958 63.142C43.8958 64.0587 43.1458 64.8087 42.2291 64.8087H38.8958C37.9791 64.8087 37.2291 64.0587 37.2291 63.142V57.892C29.9374 56.892 26.3958 52.8503 25.4374 47.267C25.2708 46.3087 26.0208 45.4753 26.9791 45.4753H30.7708C31.5624 45.4753 32.2291 46.0587 32.3958 46.8087C33.1041 50.1003 35.0208 52.642 40.8541 52.642C45.1458 52.642 48.2291 50.2253 48.2291 46.642C48.2291 43.0587 46.4374 41.6837 40.1041 40.642C30.7708 39.392 26.3541 36.5587 26.3541 29.267C26.3541 23.642 30.6458 19.2253 37.2291 18.3087V13.142C37.2291 12.2253 37.9791 11.4753 38.8958 11.4753H42.2291C43.1458 11.4753 43.8958 12.2253 43.8958 13.142V18.4337C49.2708 19.392 52.6874 22.4337 53.8124 27.517C54.0208 28.4753 53.2708 29.3503 52.2708 29.3503H48.7708C48.0208 29.3503 47.3958 28.8503 47.1874 28.142C46.2291 24.9337 43.9374 23.517 39.9374 23.517C35.5208 23.517 33.2291 25.642 33.2291 28.642C33.2291 31.8087 34.5208 33.392 41.3124 34.3503C50.4791 35.6003 55.2291 38.2253 55.2291 46.017C55.2291 51.9337 50.8124 56.7253 43.9374 57.8087V63.142H43.8958Z" fill="white"/>
<path d="M52.7292 76.267C51.5208 76.642 50.5625 75.9337 50.5625 74.6837V71.5587C50.5625 70.642 51.1042 69.767 51.9792 69.4754C64.7292 64.8087 73.8958 52.517 73.8958 38.1837C73.8958 23.8087 64.7708 11.5587 51.9792 6.89203C51.1875 6.60036 50.5625 5.64203 50.5625 4.8087V1.6837C50.5625 0.433697 51.5625 -0.274636 52.7292 0.100364C68.8958 5.1837 80.5625 20.3087 80.5625 38.142C80.5625 56.017 68.8958 71.1004 52.7292 76.267Z" fill="white"/>
</svg>
