<svg width="81" height="80" viewBox="0 0 81 80" fill="none" xmlns="http://www.w3.org/2000/svg">
<path fill-rule="evenodd" clip-rule="evenodd" d="M47.6839 42.1603C47.2862 42.1901 45.2312 42.3128 40.6472 42.3128C37.0011 42.3128 34.4125 42.2034 33.5043 42.1603C19.4141 41.5405 8.89706 39.0877 8.89706 36.151C8.89706 33.2143 19.4141 30.7649 33.5043 30.1351V39.7175C34.4257 39.7838 37.0641 39.9395 40.7101 39.9395C45.0853 39.9395 47.2762 39.7572 47.6707 39.7208V30.1417C61.731 30.7682 72.2249 33.2209 72.2249 36.151C72.2249 39.0811 61.7343 41.5338 47.6707 42.157L47.6839 42.1603ZM47.6839 29.1507V20.5759H67.3061V7.5H13.8821V20.5759H33.501V29.1474C17.5547 29.8799 5.56262 33.0386 5.56262 36.8239C5.56262 40.6091 17.5547 43.7645 33.501 44.5004V71.978H47.6806V44.4904C63.5905 43.7579 75.5626 40.6025 75.5626 36.8206C75.5626 33.0386 63.6004 29.8832 47.6806 29.1474L47.6839 29.1507Z" fill="white"/>
</svg>
