<svg width="40" height="29" viewBox="0 0 40 29" fill="none" xmlns="http://www.w3.org/2000/svg">
<rect width="40" height="29" rx="10" fill="#ABBEF7"/>
<path d="M27 19.6667V20.4444C27 21.3 26.3 22 25.4444 22H14.5556C13.6922 22 13 21.3 13 20.4444V9.55556C13 8.7 13.6922 8 14.5556 8H25.4444C26.3 8 27 8.7 27 9.55556V10.3333H20C19.1367 10.3333 18.4444 11.0333 18.4444 11.8889V18.1111C18.4444 18.9667 19.1367 19.6667 20 19.6667H27ZM20 18.1111H27.7778V11.8889H20V18.1111ZM23.1111 16.1667C22.4656 16.1667 21.9444 15.6456 21.9444 15C21.9444 14.3544 22.4656 13.8333 23.1111 13.8333C23.7567 13.8333 24.2778 14.3544 24.2778 15C24.2778 15.6456 23.7567 16.1667 23.1111 16.1667Z" fill="black"/>
</svg>
