<svg width="24" height="25" viewBox="0 0 24 25" fill="none" xmlns="http://www.w3.org/2000/svg">
<path fill-rule="evenodd" clip-rule="evenodd" d="M13.8885 5.21305L13.8471 5.18916C12.8104 4.59059 11.9746 4.108 11.2648 3.80329C10.5301 3.48792 9.84172 3.32211 9.1107 3.44479C8.87502 3.48435 8.64366 3.54634 8.41978 3.62993C7.72535 3.88919 7.21208 4.37699 6.73355 5.01743C6.44154 5.40826 6.14145 5.88568 5.80917 6.44562C6.18972 6.34738 6.58876 6.29512 7 6.29512H7.66837C7.76 6.15761 7.84843 6.03136 7.93518 5.91526C8.32796 5.38958 8.62901 5.15294 8.94442 5.03518C9.07875 4.98503 9.21757 4.94784 9.35898 4.9241C9.69101 4.86838 10.07 4.92278 10.673 5.18165C11.2176 5.41542 11.8712 5.78207 12.7623 6.29512H15.7627L13.8885 5.21305Z" fill="#242220" fill-opacity="0.56"/>
<path fill-rule="evenodd" clip-rule="evenodd" d="M7 6.29488C4.37665 6.29488 2.25 8.42152 2.25 11.0449V17.0449C2.25 19.6682 4.37665 21.7949 7 21.7949H17C19.5395 21.7949 21.6135 19.802 21.7435 17.2949H21.7487V17.1563C21.7496 17.1193 21.75 17.0821 21.75 17.0449V11.0449C21.75 11.0076 21.7496 10.9705 21.7487 10.9334V10.7949H21.7435C21.6135 8.28773 19.5395 6.29488 17 6.29488H7ZM20.2405 10.7949C20.1129 9.11676 18.7108 7.79488 17 7.79488H7C5.20507 7.79488 3.75 9.24995 3.75 11.0449V17.0449C3.75 18.8398 5.20507 20.2949 7 20.2949H17C18.7108 20.2949 20.1129 18.973 20.2405 17.2949H16.5195C14.7246 17.2949 13.2695 15.8398 13.2695 14.0449C13.2695 12.25 14.7246 10.7949 16.5195 10.7949H20.2405ZM14.7695 14.0449C14.7695 13.0784 15.553 12.2949 16.5195 12.2949H20.2487V15.7949H16.5195C15.553 15.7949 14.7695 15.0114 14.7695 14.0449Z" fill="#242220" fill-opacity="0.56"/>
<circle cx="16.502" cy="14.0449" r="0.75" fill="#242220" fill-opacity="0.56"/>
</svg>
